<svg xmlns="http://www.w3.org/2000/svg" viewBox="0 0 736.81 445.17"><defs><style>.cls-1{isolation:isolate;}.cls-2{fill:#eef6fe;}.cls-3{fill:#59dff9;}.cls-4{fill:#98cefe;}.cls-5{fill:#e2f2f1;}.cls-6{fill:#f99247;}.cls-7{fill:#5aa3f7;}.cls-8{fill:#fec786;}.cls-9{fill:#21111d;}.cls-10{fill:#7fc6a6;}.cls-11{fill:#ffcaba;}.cls-12{fill:#61a3c5;}.cls-13{fill:#fe9f73;}.cls-14{fill:#febac7;}.cls-15{fill:#f07162;}.cls-16{fill:#fbfdfc;}.cls-17{fill:#f75553;}.cls-18{fill:#49263e;}.cls-19{fill:#3f9896;}.cls-20{fill:#f3fffe;}.cls-21{opacity:0.5;}.cls-22{fill:#258d8c;}.cls-23{fill:#44243d;}.cls-24{fill:#e24444;}.cls-25{mix-blend-mode:multiply;}</style></defs><g class="cls-1"><g id="Layer_2" data-name="Layer 2"><g id="Layer_1-2" data-name="Layer 1"><path class="cls-2" d="M39.14,443.34s-70.06-164.8-22.72-232.75,153.24-23.52,201.82-92.78,133.3-132,231.72-115,238,108.46,188.11,311c0,0-37.85,126.76-96.78,129.37S39.14,443.34,39.14,443.34Z"/><rect class="cls-3" x="326.5" y="95.14" width="61.44" height="31.3" rx="8.44"/><rect class="cls-4" x="312.77" y="95.14" width="61.44" height="31.3" rx="8.44"/><circle class="cls-5" cx="343.85" cy="103.46" r="4.15"/><path class="cls-6" d="M255.92,431.65l8.91-4.55s9.45-1,9.58,0-5.21,8.36-6,8.36h-11.7Z"/><path class="cls-6" d="M452.74,443.34l8.64-4.4s-3.39-4.41-4.32-4.41-8.22,4.07-8.22,4.07Z"/><path class="cls-3" d="M269.43,425.72h180a11.93,11.93,0,0,1,11.93,11.93v1.29a0,0,0,0,1,0,0H257.51a0,0,0,0,1,0,0v-1.29A11.93,11.93,0,0,1,269.43,425.72Z"/><polygon class="cls-3" points="407.5 438.94 333.77 438.94 307.33 284.46 381.06 284.46 407.5 438.94"/><path class="cls-3" d="M558.75,110.79H148.46A18.21,18.21,0,0,0,130.25,129V374.52c0,7.05,4.66,12.77,10.41,12.77H566.54c5.75,0,10.41-5.72,10.41-12.77V129A18.2,18.2,0,0,0,558.75,110.79Z"/><polygon class="cls-7" points="399.87 438.94 326.14 438.94 299.7 284.46 373.43 284.46 399.87 438.94"/><path class="cls-7" d="M566.49,340.61V129a18.2,18.2,0,0,0-18.2-18.21H138A18.21,18.21,0,0,0,119.79,129V340.61Z"/><path class="cls-4" d="M119.79,340.61v33.91c0,7.05,4.67,12.77,10.42,12.77H556.08c5.75,0,10.41-5.72,10.41-12.77V340.61Z"/><path class="cls-5" d="M556,331.42V129.56a9.76,9.76,0,0,0-9.93-9.58H140.18a9.76,9.76,0,0,0-9.93,9.58V331.42Z"/><polygon class="cls-8" points="556.97 217.6 383.22 217.6 383.22 120.5 548.1 120.17 556.04 124.69 556.97 217.6"/><path class="cls-9" d="M556.47,331.85H130.25V331H555.61V129.56a9.34,9.34,0,0,0-9.5-9.15v-.86a10.2,10.2,0,0,1,10.36,10Z"/><path class="cls-7" d="M452.74,443.34a13.22,13.22,0,0,0-13.22-13.22H262.08a13.22,13.22,0,0,0-13.22,13.22H452.74Z"/><rect class="cls-10" x="207.82" y="118.97" width="173.75" height="98.63"/><rect class="cls-11" x="209.59" y="219.26" width="173.05" height="101.22"/><path class="cls-12" d="M206.92,120H140.18a9.76,9.76,0,0,0-9.93,9.58V331.42h76.67Z"/><path class="cls-9" d="M557.32,332.71H129V129.56a11.05,11.05,0,0,1,11.22-10.86H546.11a11.05,11.05,0,0,1,11.21,10.86Zm-425.78-2.58H554.75V129.56a8.48,8.48,0,0,0-8.64-8.29H140.18a8.48,8.48,0,0,0-8.64,8.29Z"/><path class="cls-8" d="M300.23,137.35a6.44,6.44,0,0,1,6.13-5.32,2.4,2.4,0,0,1,.92.14,9.37,9.37,0,0,1,.92.52c.77.38,1.81.27,2.37.92s.28,1.79.46,2.7a12,12,0,0,0,.84,1.95,5.05,5.05,0,0,1-.41,4,15,15,0,0,1-2.56,3.28,7.82,7.82,0,0,1-2.66,2.1c-2.07.82-3.61-.72-4.26-2.53C301.1,142.72,299.84,140,300.23,137.35Z"/><path class="cls-8" d="M288.1,150.41s-5.93,17-6.65,18.46-4.34,8-3,15.82,24.8,10.54,24.8,10.54l-.43-53.37S292.29,140.59,288.1,150.41Z"/><path class="cls-8" d="M317.22,150.41s5.94,17,6.65,18.46,4.35,8,3,15.82-24.8,10.54-24.8,10.54l.43-53.37S313,140.59,317.22,150.41Z"/><path class="cls-13" d="M294,155.94l13.51-11.41L309,155.39s-8.93,2.46-9.27,2.46S294,155.94,294,155.94Z"/><path class="cls-14" d="M360.48,216c-5.15-12-10.52-23.52-12.85-25.23C342.55,187,309,186.65,309,186.65s-24.4-1.27-37.28,1a26.4,26.4,0,0,0-21.35,15.29c-1.83,3.78-3.89,8.34-5.94,13Z"/><path class="cls-13" d="M333.59,187.76c-11-1-23.8-1.11-23.8-1.11s-24.34-1.26-37.24,1c3.95,3.71,16.51,13.89,34.74,12.85A36.67,36.67,0,0,0,333.59,187.76Z"/><polygon class="cls-13" points="310.6 186.84 295.78 186.58 296.57 174.48 309.08 174.48 310.6 186.84"/><path class="cls-15" d="M296.25,179.5a10.74,10.74,0,0,0,5.21,2.39h2a11.6,11.6,0,0,0,6.15-3.06l-.54-4.35h-12.5Z"/><path class="cls-13" d="M312.27,153.56a6.63,6.63,0,0,0-2.16-2.56,24,24,0,0,0-7.42-2h-.4a24,24,0,0,0-7.42,2,6.63,6.63,0,0,0-2.16,2.56A103.85,103.85,0,0,0,292,164a17.93,17.93,0,0,0,3,10.36c1.54,2.25,3.75,4.28,6.8,4.57h1.42c3.06-.29,5.27-2.32,6.8-4.57A17.93,17.93,0,0,0,313,164,103.85,103.85,0,0,0,312.27,153.56Z"/><path class="cls-13" d="M310.43,166.43a3.45,3.45,0,1,0,3.44-3.44A3.44,3.44,0,0,0,310.43,166.43Z"/><path class="cls-15" d="M314.13,168.56a1.46,1.46,0,0,0,1.36-1.09,1.35,1.35,0,0,0-.55-1.59,1.62,1.62,0,0,0-1.78,0,1.53,1.53,0,0,1,.67-.8,2.09,2.09,0,0,1,1.52-.09.13.13,0,0,0,.14-.07.12.12,0,0,0-.07-.14,2.26,2.26,0,0,0-1.69.11,1.86,1.86,0,0,0-.89,1.26l-.1.39.29-.28a1.47,1.47,0,0,1,1.8-.23,1.15,1.15,0,0,1,.45,1.34,1.24,1.24,0,0,1-1.17.93.1.1,0,0,0-.11.1.11.11,0,0,0,.11.12Z"/><path class="cls-13" d="M295.44,166.43A3.44,3.44,0,1,1,292,163,3.44,3.44,0,0,1,295.44,166.43Z"/><path class="cls-15" d="M291.74,168.56a1.46,1.46,0,0,1-1.36-1.09,1.37,1.37,0,0,1,.55-1.59,1.63,1.63,0,0,1,1.79,0,1.55,1.55,0,0,0-.68-.8,2.07,2.07,0,0,0-1.51-.09.13.13,0,0,1-.14-.07.11.11,0,0,1,.07-.14,2.26,2.26,0,0,1,1.69.11,1.85,1.85,0,0,1,.88,1.26l.1.39-.28-.28a1.48,1.48,0,0,0-1.8-.23,1.16,1.16,0,0,0-.46,1.34,1.24,1.24,0,0,0,1.17.93.1.1,0,0,1,.11.1c0,.07,0,.12-.1.12Z"/><path class="cls-15" d="M302.05,169.77a.13.13,0,0,0,0-.25c-.81-.17-1.33-1.17-1.47-1.5a3.78,3.78,0,0,0,2.09-2.38,4.07,4.07,0,0,0-.66-3,.12.12,0,1,0-.2.14,3.93,3.93,0,0,1,.61,2.85,3.59,3.59,0,0,1-2.06,2.27l-.1.06,0,.1c0,.06.6,1.53,1.7,1.76Z"/><path d="M299.31,164.24a.7.7,0,1,1-.7-.7A.7.7,0,0,1,299.31,164.24Z"/><path d="M306.56,164.38a.71.71,0,1,0,.7-.7A.7.7,0,0,0,306.56,164.38Z"/><path class="cls-8" d="M290.5,163.11s12.71-6.14,13.76-14l2.59-3.76-1.15,4.34s3.51,12.7,8.95,13.32c0,0,4.76-17.25-8.9-20.68S289.41,152.47,290.5,163.11Z"/><rect class="cls-9" x="259.31" y="208.62" width="14.16" height="0.86" transform="translate(2.85 421.69) rotate(-77.02)"/><rect class="cls-9" x="337.22" y="201.97" width="0.86" height="14.16" transform="translate(-38.3 81.1) rotate(-12.97)"/><path class="cls-9" d="M306.7,213.23l-.17-.55c9.83-3,20.22-16.54,20.32-16.68l.46.35C327.2,196.49,316.71,210.19,306.7,213.23Z"/><rect class="cls-9" x="278.37" y="195.35" width="0.57" height="6.7" transform="translate(-40.59 322.04) rotate(-56.62)"/><rect class="cls-9" x="279.13" y="200.18" width="0.57" height="5.33" transform="translate(-55.93 285.09) rotate(-49.76)"/><path class="cls-16" d="M300.36,171.17l4.26-.1s-.53,1.73-2.09,1.77S300.36,171.17,300.36,171.17Z"/><path class="cls-8" d="M310.16,162.87a.3.3,0,0,1-.18-.06,4.89,4.89,0,0,0-4.33-.67.28.28,0,1,1-.18-.54,5.37,5.37,0,0,1,4.88.77.28.28,0,0,1,0,.4A.26.26,0,0,1,310.16,162.87Z"/><path class="cls-8" d="M295.84,162.82a.27.27,0,0,1-.22-.11.29.29,0,0,1,0-.4,5.35,5.35,0,0,1,4.9-.65.28.28,0,1,1-.2.53,4.87,4.87,0,0,0-4.34.57A.32.32,0,0,1,295.84,162.82Z"/><path class="cls-13" d="M292.79,169.78s1.27,9.31,9,9.18Z"/><path class="cls-13" d="M312.36,169.52s-1.27,9.57-9,9.44L309,165.84Z"/><path d="M311.41,143.69h-.08c-5.91-1.9-9.68-1.82-11.41-1.6h-.12a.27.27,0,0,1-.3-.26.29.29,0,0,1,.27-.31h.08c1.77-.22,5.64-.31,11.65,1.62a.3.3,0,0,1,.19.36A.29.29,0,0,1,311.41,143.69Z"/><path d="M289.58,161.13a.29.29,0,0,1-.08-.56c9.16-2.92,12.89-11.62,12.93-11.71a.29.29,0,0,1,.53.22c0,.09-3.87,9-13.29,12Z"/><path class="cls-17" d="M359.05,319.16c-6.41-14.94-13.1-29.28-16-31.4-6.33-4.64-48.1-5.07-48.1-5.07s-30.37-1.58-46.41,1.22c0,0-17.72.68-26.58,19-2.27,4.71-4.83,10.38-7.38,16.22Z"/><rect class="cls-9" x="233.21" y="310.14" width="17.63" height="0.86" transform="translate(-114.98 476.64) rotate(-77.02)"/><rect class="cls-9" x="330.3" y="301.76" width="0.86" height="17.63" transform="translate(-61.25 82.12) rotate(-12.97)"/><path class="cls-13" d="M287.32,298.2h0c-4.93,0-8.88-5.48-8.66-12.1l.58-17.2h15.57l1.05,16.75C296.29,292.38,292.35,298.17,287.32,298.2Z"/><path class="cls-15" d="M279,275.47c2.75,6.78,14.91,6.22,16.18-.45l-.39-6.12H279.24Z"/><path class="cls-13" d="M298.78,242.85a8.29,8.29,0,0,0-2.69-3.18,30.33,30.33,0,0,0-9.23-2.52h-.51a30.33,30.33,0,0,0-9.23,2.52,8.29,8.29,0,0,0-2.69,3.18,128.1,128.1,0,0,0-.88,13,22.3,22.3,0,0,0,3.7,12.89c1.92,2.81,4.67,5.33,8.48,5.7h1.75c3.81-.37,6.56-2.89,8.48-5.7a22.3,22.3,0,0,0,3.7-12.89A128.1,128.1,0,0,0,298.78,242.85Z"/><path class="cls-13" d="M296.49,258.88a4.29,4.29,0,1,0,4.28-4.28A4.28,4.28,0,0,0,296.49,258.88Z"/><path class="cls-15" d="M301.09,261.52a1.8,1.8,0,0,0,1.7-1.35,1.7,1.7,0,0,0-.68-2,2,2,0,0,0-2.23,0,1.93,1.93,0,0,1,.84-1,2.7,2.7,0,0,1,1.89-.12.14.14,0,0,0,.17-.09.13.13,0,0,0-.09-.17,2.85,2.85,0,0,0-2.1.14,2.3,2.3,0,0,0-1.1,1.57l-.12.48.35-.35a1.84,1.84,0,0,1,2.24-.28,1.44,1.44,0,0,1,.57,1.67,1.52,1.52,0,0,1-1.46,1.15.14.14,0,0,0-.14.13.14.14,0,0,0,.14.14Z"/><path class="cls-13" d="M276.34,258.88a4.29,4.29,0,1,1-4.29-4.28A4.28,4.28,0,0,1,276.34,258.88Z"/><path class="cls-15" d="M271.74,261.52a1.8,1.8,0,0,1-1.7-1.35,1.68,1.68,0,0,1,.68-2,2,2,0,0,1,2.23,0,1.93,1.93,0,0,0-.84-1,2.7,2.7,0,0,0-1.89-.12.14.14,0,0,1-.17-.09.12.12,0,0,1,.09-.17,2.85,2.85,0,0,1,2.1.14,2.3,2.3,0,0,1,1.1,1.57l.12.48-.35-.35a1.84,1.84,0,0,0-2.24-.28,1.44,1.44,0,0,0-.57,1.67,1.52,1.52,0,0,0,1.46,1.15.14.14,0,0,1,.14.13.14.14,0,0,1-.14.14Z"/><path d="M282.65,256.15a.88.88,0,1,1-.88-.87A.87.87,0,0,1,282.65,256.15Z"/><path d="M291.67,256.32a.88.88,0,1,0,.88-.87A.87.87,0,0,0,291.67,256.32Z"/><path d="M296.16,254.81a.71.71,0,0,1-.46-.17c-2.05-1.74-5-.78-5.05-.77a.71.71,0,1,1-.45-1.34c.15-.06,3.75-1.24,6.42,1a.72.72,0,0,1-.46,1.26Z"/><path d="M278.32,254.74a.71.71,0,0,1-.44-1.27c2.72-2.2,6.29-.92,6.44-.87a.71.71,0,0,1-.49,1.34h0s-3-1.05-5.06.64A.69.69,0,0,1,278.32,254.74Z"/><path class="cls-13" d="M274.53,263.05s1.58,11.59,11.2,11.43Z"/><path class="cls-13" d="M298.89,262.73s-1.58,11.91-11.2,11.75l7.06-16.34Z"/><path d="M297.8,236.66l-11.19-1.12v0l-.23,0-.24,0v0L275,236.66s-3,0-2.89,5.06c.07,3.49.75,15.75,1.17,23a12.94,12.94,0,0,0,4.55,9.15l.18.16a13,13,0,0,0,16.83,0l.19-.16a13,13,0,0,0,4.55-9.15c.41-7.28,1.09-19.54,1.17-23C300.8,236.66,297.8,236.66,297.8,236.66Zm-3.39,25.2-6.93.44-9.28-.44a3.25,3.25,0,0,1-3.25-3.24V246.25s8.95,2.05,13.88-2.74l2.32-3.37-.72,3.9s-.44,5,7.57,6.12l-.34,8.59A3.25,3.25,0,0,1,294.41,261.86Z"/><path class="cls-15" d="M288.15,262.52h0l-3.3-.31.74-7.92a.21.21,0,1,1,.42,0l-.69,7.5,2.87.26a.21.21,0,0,1,.19.23A.21.21,0,0,1,288.15,262.52Z"/><path d="M292.55,236.13c-1.93-.48-14.11-5.91-20.12-4.22s-1.8,19,.1,20.31,1.47-11.66,1.64-11.77,11.56.74,11.56.74Z"/><path d="M290.43,236.5c.35-.06,5.39-1,8.66.05,3.58,1.16,3.66,9.33,2.66,11.29s-1.66,6.81-1.66,6.81-2.81-8.08-3.39-10S290.43,236.5,290.43,236.5Z"/><path class="cls-16" d="M283.83,264.63l5.3-.13s-.66,2.16-2.6,2.21S283.83,264.63,283.83,264.63Z"/><path class="cls-9" d="M286.36,301.13c-10.48-.29-11.09-14.53-11.09-14.68l.85,0c0,.14.59,13.58,10.27,13.86Z"/><rect class="cls-9" x="206.92" y="120.69" width="3.3" height="210.73"/><rect class="cls-9" x="379.91" y="119.98" width="3.3" height="212.61" transform="translate(763.13 452.58) rotate(180)"/><path class="cls-18" d="M508.56,258.41s.57,9,5,13S529,279.85,529,290.52s-21.13,14.81-26.06,14.65-12.44,15.56-14-3.21-10.07-16.51-2.89-23.85,9.41-6.65,13.15-12.17A21.14,21.14,0,0,1,508.56,258.41Z"/><path class="cls-18" d="M461.87,259.16l0,27.48,6,14.86s16.84-4.05,16.71-5.45,2.69-21.14,2.07-21.94-7.93-17.67-10.73-18S461.87,259.16,461.87,259.16Z"/><circle class="cls-18" cx="485.21" cy="260.07" r="23.36" transform="translate(-46.77 118.43) rotate(-13.28)"/><path class="cls-19" d="M417.13,320.1c6-14,12.31-27.52,15-29.51,5.94-4.36,45.19-4.76,45.19-4.76S505.9,284.34,521,287a30.89,30.89,0,0,1,25,17.89c2.13,4.42,4.54,9.75,6.94,15.24Z"/><rect class="cls-9" x="526.67" y="303.74" width="0.86" height="16.56" transform="translate(-56.57 126.23) rotate(-12.97)"/><rect class="cls-9" x="435.46" y="311.6" width="16.56" height="0.86" transform="translate(40.02 674.35) rotate(-77.02)"/><path class="cls-13" d="M484.54,300.4h0c4.63,0,8.34-5.15,8.13-11.37l-.54-16.16H477.49l-1,15.74C476.11,294.93,479.81,300.37,484.54,300.4Z"/><path class="cls-15" d="M492.33,279c-2.58,6.37-14,5.85-15.2-.42l.36-5.75h14.64Z"/><path class="cls-13" d="M473.76,248.39a7.79,7.79,0,0,1,2.54-3A28.4,28.4,0,0,1,485,243h.47a28.4,28.4,0,0,1,8.67,2.37,7.79,7.79,0,0,1,2.54,3,118.84,118.84,0,0,1,.82,12.25A20.94,20.94,0,0,1,494,272.76c-1.8,2.64-4.38,5-8,5.35h-1.65c-3.58-.35-6.16-2.71-8-5.35a20.94,20.94,0,0,1-3.48-12.12A121.76,121.76,0,0,1,473.76,248.39Z"/><circle class="cls-13" cx="471.89" cy="263.45" r="4.03"/><path class="cls-15" d="M471.59,265.94a1.69,1.69,0,0,1-1.59-1.27,1.59,1.59,0,0,1,.64-1.86,1.9,1.9,0,0,1,2.09.05,1.77,1.77,0,0,0-.79-.94,2.46,2.46,0,0,0-1.77-.11.13.13,0,0,1-.16-.08.13.13,0,0,1,.08-.17,2.79,2.79,0,0,1,2,.13,2.2,2.2,0,0,1,1,1.48l.11.45-.33-.32a1.71,1.71,0,0,0-2.1-.27,1.34,1.34,0,0,0-.53,1.57,1.41,1.41,0,0,0,1.36,1.08.13.13,0,0,1,.13.13.12.12,0,0,1-.12.13Z"/><circle class="cls-13" cx="498.88" cy="263.45" r="4.03"/><path class="cls-15" d="M499.18,265.94a1.69,1.69,0,0,0,1.59-1.27,1.59,1.59,0,0,0-.64-1.86,1.9,1.9,0,0,0-2.09.05,1.77,1.77,0,0,1,.79-.94,2.46,2.46,0,0,1,1.77-.11.13.13,0,0,0,.16-.08.13.13,0,0,0-.08-.17,2.79,2.79,0,0,0-2,.13,2.2,2.2,0,0,0-1,1.48l-.11.45.32-.32A1.73,1.73,0,0,1,500,263a1.34,1.34,0,0,1,.53,1.57,1.41,1.41,0,0,1-1.36,1.08.13.13,0,0,0-.13.13.12.12,0,0,0,.12.13Z"/><path d="M488.92,260.89a.83.83,0,1,0,.83-.82A.83.83,0,0,0,488.92,260.89Z"/><path d="M480.44,261.05a.82.82,0,1,1-.82-.82A.82.82,0,0,1,480.44,261.05Z"/><path class="cls-13" d="M496.55,267.37s-1.48,10.89-10.52,10.74Z"/><path class="cls-13" d="M473.66,267.07s1.49,11.19,10.52,11l-6.63-15.35Z"/><path class="cls-18" d="M478.47,258.68a.24.24,0,0,0,.18-.07,4.61,4.61,0,0,1,4.07-.62.28.28,0,0,0,.34-.17.27.27,0,0,0-.17-.34,5.06,5.06,0,0,0-4.59.72.27.27,0,0,0,0,.38A.28.28,0,0,0,478.47,258.68Z"/><path class="cls-18" d="M491.94,258.62a.26.26,0,0,0,.21-.1.27.27,0,0,0,0-.37,5.08,5.08,0,0,0-4.61-.62.27.27,0,0,0,.19.51,4.58,4.58,0,0,1,4.08.53A.26.26,0,0,0,491.94,258.62Z"/><path class="cls-18" d="M478.8,244.4s.75,6.22,9.54,7.62,8.21,15.35,8.21,15.35,9.83,13.55,10.19,9.73,1.55-13.76,0-17-2.82-11.52-5.89-13.55.17-1.13-5.39-3.49-3.74-3.31-9.43-3.07-4.7-.24-7.11.59S478.8,244.4,478.8,244.4Z"/><path class="cls-18" d="M478.17,241s2.13,7.45,1.45,9.37-6.66,9.18-6.66,9.18-2.53-4.65-1.74-6.72-3.42-1.53-2.46-2.56,9.06-9.62,9.06-9.62Z"/><circle class="cls-18" cx="471.89" cy="237.85" r="6.45"/><path class="cls-18" d="M490.57,237.85A6.45,6.45,0,1,0,497,231.4,6.45,6.45,0,0,0,490.57,237.85Z"/><path class="cls-17" d="M501.18,243.7a.67.67,0,0,0,.49-.21.67.67,0,0,0,0-.94l0,0a21,21,0,0,0-10.92-5.84.67.67,0,0,0-.25,1.32,19.61,19.61,0,0,1,10.2,5.45l.08.08A.67.67,0,0,0,501.18,243.7Z"/><path class="cls-17" d="M468.3,244.15a.66.66,0,0,0,.47-.19l.07-.08a19.61,19.61,0,0,1,10-5.81.66.66,0,0,0,.5-.8.67.67,0,0,0-.8-.51A21,21,0,0,0,467.84,243l0,0a.67.67,0,0,0,0,.94A.66.66,0,0,0,468.3,244.15Z"/><path class="cls-9" d="M490.89,250.41h0c-5.94-.19-10.27-4.81-10.45-5a.28.28,0,0,1,0-.4.29.29,0,0,1,.41,0s4.35,4.64,10,4.82a.28.28,0,0,1,.28.29A.29.29,0,0,1,490.89,250.41Z"/><path class="cls-9" d="M523.7,285.7a.29.29,0,0,1-.27-.19c-1.16-3.12-3.93-5.17-7.13-7.55-1.59-1.17-3.22-2.39-4.9-3.87a20.72,20.72,0,0,1-7.22-14.67.28.28,0,0,1,.29-.28.29.29,0,0,1,.28.29,20.15,20.15,0,0,0,7,14.23c1.66,1.47,3.28,2.68,4.86,3.84,3.27,2.43,6.11,4.53,7.33,7.81a.3.3,0,0,1-.17.37Z"/><path class="cls-15" d="M485.06,266.16a.11.11,0,0,0,.12-.09.12.12,0,0,0-.09-.14c-.77-.16-1.25-1.1-1.39-1.41a3.55,3.55,0,0,0,2-2.24,3.86,3.86,0,0,0-.62-2.87.11.11,0,0,0-.16,0,.12.12,0,0,0,0,.17,3.69,3.69,0,0,1,.58,2.68,3.41,3.41,0,0,1-1.94,2.13l-.1.05,0,.1c0,.06.56,1.43,1.6,1.65Z"/><path class="cls-15" d="M487,268.73a2.27,2.27,0,0,0,1.06-.25,3.68,3.68,0,0,0,1.57-2.05.14.14,0,0,0-.09-.17.13.13,0,0,0-.17.09,3.45,3.45,0,0,1-1.44,1.89,2.23,2.23,0,0,1-1.85.05.14.14,0,0,0-.17.09.13.13,0,0,0,.08.17A3.13,3.13,0,0,0,487,268.73Z"/><rect class="cls-9" x="459.98" y="292.5" width="0.86" height="5.58" transform="translate(-86.37 280.69) rotate(-31.15)"/><rect class="cls-9" x="459.42" y="294.79" width="0.86" height="8.47" transform="translate(-86.73 252.91) rotate(-28.21)"/><path class="cls-15" d="M487.6,262.84a.14.14,0,1,1,0-.27.14.14,0,0,1,0,.27Z"/><path class="cls-15" d="M488.7,263.77a.14.14,0,0,1,0-.27.14.14,0,0,1,0,.27Z"/><path class="cls-15" d="M487,264.42a.13.13,0,0,1,0-.26.13.13,0,0,1,0,.26Z"/><path class="cls-15" d="M490.34,263.05a.14.14,0,0,1,0-.27.14.14,0,0,1,0,.27Z"/><path class="cls-15" d="M492.14,264.48a.13.13,0,1,1,0-.26.13.13,0,0,1,0,.26Z"/><path class="cls-15" d="M492.82,262.42a.13.13,0,0,1,0-.26.13.13,0,1,1,0,.26Z"/><path class="cls-15" d="M482.52,262.63a.14.14,0,0,1,0-.27.14.14,0,0,1,0,.27Z"/><path class="cls-15" d="M481.06,264.36a.13.13,0,1,1,0-.26.13.13,0,0,1,0,.26Z"/><path class="cls-15" d="M480.1,263.32a.14.14,0,0,1,0-.27.14.14,0,1,1,0,.27Z"/><path class="cls-15" d="M479.27,264a.13.13,0,0,1,0-.27.13.13,0,0,1,0,.27Z"/><path class="cls-15" d="M477.47,262.42a.13.13,0,0,1,0-.26.13.13,0,1,1,0,.26Z"/><path class="cls-15" d="M476.46,264.25h0l-.05,0-.05,0s0,0,0,0a0,0,0,0,1,0-.05v0l0-.06,0,0a.1.1,0,0,1,.07,0h.08s0,0,0,0,0,0,0,0a.09.09,0,0,1,0,.05v0a.21.21,0,0,1,0,.06l0,0-.07,0Z"/><path class="cls-15" d="M475.8,262.56l0,0s0,0,0,0a.09.09,0,0,1,0-.05.07.07,0,0,1,0-.05s0,0,0-.05l0,0,.07,0h0l.06,0,0,0,0,.05a.43.43,0,0,1,0,.05s0,0,0,0l0,0,0,0h-.1a.09.09,0,0,1-.06,0Z"/><rect class="cls-9" x="210.22" y="319.16" width="345.81" height="12.26"/><path class="cls-12" d="M518.8,216.93c-5.8-13.53-11.86-26.52-14.48-28.45-5.74-4.2-43.57-4.58-43.57-4.58s-27.52-1.43-42,1.1a29.79,29.79,0,0,0-24.08,17.24c-2.06,4.27-4.38,9.41-6.69,14.69Z"/><rect class="cls-9" x="404.81" y="208.72" width="15.97" height="0.86" transform="translate(116.32 564.46) rotate(-77.03)"/><rect class="cls-9" x="492.72" y="201.17" width="0.86" height="15.97" transform="translate(-34.35 115.98) rotate(-12.97)"/><path class="cls-13" d="M453.82,197.94h0c-4.47,0-8-5-7.84-10.95l.53-15.58h14.1l.95,15.17C462,192.68,458.38,197.91,453.82,197.94Z"/><path class="cls-15" d="M446.31,177.36c2.49,6.13,13.5,5.63,14.65-.41l-.35-5.54h-14.1Z"/><path class="cls-13" d="M464.21,147.81a7.49,7.49,0,0,0-2.45-2.89,27.46,27.46,0,0,0-8.35-2.28H453a27.62,27.62,0,0,0-8.36,2.28,7.56,7.56,0,0,0-2.44,2.89,114,114,0,0,0-.8,11.81,20.12,20.12,0,0,0,3.36,11.68c1.73,2.54,4.22,4.82,7.67,5.16H454c3.45-.34,5.94-2.62,7.68-5.16A20.19,20.19,0,0,0,465,159.62,117.42,117.42,0,0,0,464.21,147.81Z"/><path class="cls-13" d="M462.13,162.33a3.88,3.88,0,1,0,3.88-3.88A3.88,3.88,0,0,0,462.13,162.33Z"/><path class="cls-15" d="M466.3,164.72a1.64,1.64,0,0,0,1.54-1.22,1.53,1.53,0,0,0-.62-1.79,1.82,1.82,0,0,0-2,0,1.73,1.73,0,0,1,.75-.9,2.42,2.42,0,0,1,1.71-.11.12.12,0,0,0,.16-.08.12.12,0,0,0-.08-.15,2.58,2.58,0,0,0-1.91.12,2.08,2.08,0,0,0-1,1.43l-.11.43.31-.31a1.68,1.68,0,0,1,2-.26,1.3,1.3,0,0,1,.51,1.51,1.36,1.36,0,0,1-1.32,1,.13.13,0,0,0-.13.13.13.13,0,0,0,.13.12Z"/><path class="cls-13" d="M443.88,162.33a3.88,3.88,0,1,1-3.88-3.88A3.88,3.88,0,0,1,443.88,162.33Z"/><path class="cls-15" d="M439.71,164.72a1.63,1.63,0,0,1-1.54-1.22,1.53,1.53,0,0,1,.62-1.79,1.82,1.82,0,0,1,2,0,1.71,1.71,0,0,0-.76-.9,2.39,2.39,0,0,0-1.7-.11.12.12,0,0,1-.16-.08.12.12,0,0,1,.08-.15,2.56,2.56,0,0,1,1.9.12,2.1,2.1,0,0,1,1,1.43l.11.43-.32-.31a1.66,1.66,0,0,0-2-.26,1.3,1.3,0,0,0-.51,1.51,1.36,1.36,0,0,0,1.32,1,.12.12,0,0,1,.12.13.12.12,0,0,1-.12.12Z"/><path d="M449.59,159.86a.79.79,0,1,1-.79-.79A.79.79,0,0,1,449.59,159.86Z"/><path d="M457.77,160a.79.79,0,1,0,.79-.79A.79.79,0,0,0,457.77,160Z"/><path d="M461.83,158.64a.61.61,0,0,1-.42-.16c-1.85-1.57-4.54-.7-4.57-.69a.64.64,0,0,1-.41-1.22c.14,0,3.4-1.12,5.82.93a.65.65,0,0,1-.42,1.14Z"/><path d="M445.68,158.58a.69.69,0,0,1-.51-.24.65.65,0,0,1,.1-.91c2.47-2,5.7-.84,5.84-.79a.65.65,0,1,1-.45,1.21h0s-2.69-.95-4.58.58A.62.62,0,0,1,445.68,158.58Z"/><path class="cls-13" d="M442.24,166.1s1.43,10.51,10.14,10.36Z"/><path class="cls-13" d="M464.3,165.81s-1.42,10.8-10.14,10.65l6.4-14.8Z"/><path class="cls-15" d="M454.58,165.64h0l-3-.27.67-7.2a.21.21,0,0,1,.42,0L452,165l2.58.24a.21.21,0,0,1,0,.42Z"/><path d="M458.56,141.72c-7-4.68-14.92-5-18.56-1.25-4,4-1.29,14.63.43,15.82s1.33-10.56,1.48-10.66,10.47.67,10.47.67Z"/><path d="M457.77,141.81c.32-.05,4.89-.91,7.84.05,3.25,1,2.84,8.28,2.41,10.22-.88,4-1.48,6.37-1.48,6.37s-2.56-7.52-3.09-9.24S457.77,141.81,457.77,141.81Z"/><path class="cls-16" d="M450.66,167.54c.08,0,4.8-.12,4.8-.12s-.59,2-2.35,2A2.82,2.82,0,0,1,450.66,167.54Z"/><path class="cls-9" d="M453,200.64c-9.54-.27-10.09-13.2-10.09-13.33l.85,0c0,.12.53,12.26,9.26,12.51Z"/><path d="M438.34,150.94l1,7.56a5.34,5.34,0,0,1,2,.2s-.05-10.6,2.51-11.06,6.53,1.92,9.18.53,4-4.88,4-4.88-.12,4.19,2.19,5.57,4.68,10.21,4.68,10.21a4.42,4.42,0,0,1,1.48-.57s-1.46-10.56-1.77-11.17-6.68-5.33-6.68-5.33-3.23-.19-5.41-.35-6.52-.46-7.65,0-3.51.31-3.51,1.76-1.05,1.16-.37,2.84S438.34,150.94,438.34,150.94Z"/><path d="M456.09,141.41l.46-.94s1.67,1.12,5.58.94,4,11.94,3.88,12.17.53,4.87.53,4.87a3.74,3.74,0,0,0-2.63.62s-1.82-11-2.05-11.89S456.09,141.41,456.09,141.41Z"/><rect class="cls-9" x="379.91" y="43.85" width="3.3" height="347.5" transform="translate(599.17 -163.96) rotate(90)"/><rect class="cls-20" x="392.79" y="239.26" width="57.73" height="33.68" rx="4.9"/><polygon class="cls-20" points="449.37 258.82 456.67 267.82 446.14 264.02 449.37 258.82"/><rect class="cls-20" x="480.02" y="130.5" width="67.66" height="39.47" rx="4.9" transform="translate(1027.71 300.47) rotate(180)"/><g class="cls-21"><circle class="cls-20" cx="152.52" cy="152.37" r="14.54" transform="translate(-26.3 31.95) rotate(-11.01)"/></g><g class="cls-21"><circle class="cls-20" cx="152.52" cy="196.18" r="14.54" transform="translate(-34.67 32.75) rotate(-11.01)"/></g><g class="cls-21"><circle class="cls-20" cx="152.52" cy="239.98" r="14.54" transform="translate(-102.76 365.23) rotate(-83.7)"/></g><g class="cls-21"><circle class="cls-20" cx="152.52" cy="283.79" r="14.54" transform="translate(-146.3 404.23) rotate(-83.7)"/></g><g class="cls-21"><path class="cls-20" d="M199.29,158.73H170.44a1,1,0,0,1,0-2h28.85a1,1,0,0,1,0,2Z"/></g><g class="cls-21"><path class="cls-20" d="M190.65,152H170.44a1,1,0,0,1,0-2h20.21a1,1,0,0,1,0,2Z"/></g><g class="cls-21"><path class="cls-20" d="M199.29,201.22H170.44a1,1,0,0,1,0-2h28.85a1,1,0,0,1,0,2Z"/></g><g class="cls-21"><path class="cls-20" d="M190.65,194.5H170.44a1,1,0,0,1,0-2h20.21a1,1,0,0,1,0,2Z"/></g><g class="cls-21"><path class="cls-20" d="M199.29,243.7H170.44a1,1,0,0,1,0-2h28.85a1,1,0,1,1,0,2Z"/></g><g class="cls-21"><path class="cls-20" d="M190.65,237H170.44a1,1,0,0,1,0-2h20.21a1,1,0,0,1,0,2Z"/></g><g class="cls-21"><path class="cls-20" d="M199.29,286.18H170.44a1,1,0,0,1,0-2h28.85a1,1,0,1,1,0,2Z"/></g><g class="cls-21"><path class="cls-20" d="M190.65,279.46H170.44a1,1,0,0,1,0-2h20.21a1,1,0,1,1,0,2Z"/></g><polygon class="cls-20" points="316.73 247.73 309.62 253.41 318.33 252.26 316.73 247.73"/><rect class="cls-20" x="315.21" y="227.9" width="59.83" height="34.9" rx="4.9"/><polygon class="cls-20" points="274.88 150.27 282 155.96 273.28 154.81 274.88 150.27"/><rect class="cls-20" x="216.57" y="130.44" width="59.83" height="34.9" rx="4.9" transform="translate(492.98 295.79) rotate(180)"/><polygon class="cls-20" points="482.44 148 473.97 154.25 484.08 153.31 482.44 148"/><path class="cls-22" d="M174.93,285.34s-3.12-43.51-20-35.06-30.66,63.88-32.49,65.53-1.29,52.32-1.29,52.32l19.65-9.91S146,237.12,174.93,285.34Z"/><path class="cls-10" d="M156,195.26s-37.84,33.86-48.16,91.92,22.3,75.14,22.3,75.14S134.78,240.25,156,195.26Z"/><path class="cls-22" d="M85.81,370.15S79.47,246.57,47.53,193c0,0,56.08,33.46,74.67,121.27,1,4.94,1.67,10.44,2.46,15.73a86,86,0,0,1,1.19,15.25c-.22,8.6-1.41,16-1.76,21.41C121.06,413.56,85.81,370.15,85.81,370.15Z"/><path class="cls-10" d="M86.89,317.67a100.28,100.28,0,0,0-19.62-48.54c-7.76-10.21-16.75-18-23.78-12.43-15.6,12.3-18.72,88.67-18.72,88.67S42.39,292.5,50.1,296,65,371.25,65,371.25l28.82,2.39Z"/><path class="cls-17" d="M150.79,355.08s-1.64,90.35-25.84,88.23H83.83C59.63,445.43,58,355.08,58,355.08,80.89,351.62,127.89,351.62,150.79,355.08Z"/><polygon class="cls-12" points="202.11 369.74 201.86 369.74 176.79 369.74 183.13 444.39 201.86 444.39 202.11 444.39 221.52 444.39 227.18 369.74 202.11 369.74"/><path class="cls-9" d="M220.49,356.64h-37a3.91,3.91,0,0,0-3.89,3.93h44.79A3.91,3.91,0,0,0,220.49,356.64Z"/><path class="cls-23" d="M226.62,362.58a2.51,2.51,0,0,0-2.46-2H179.81a2.51,2.51,0,0,0-2.46,2l-2.09,10a2.53,2.53,0,0,0,2.46,3.06h48.53a2.53,2.53,0,0,0,2.46-3.06Z"/><polygon class="cls-8" points="178.03 392.66 179.67 423 201.83 423 202.14 423 224.3 423 225.94 392.66 202.14 392.66 201.83 392.66 178.03 392.66"/><path class="cls-20" d="M215,407.83a11.79,11.79,0,1,1-11.79-11.89A11.84,11.84,0,0,1,215,407.83Z"/><rect class="cls-17" x="473.67" y="398.01" width="125.84" height="23.92"/><rect class="cls-24" x="487.89" y="398.01" width="8.59" height="23.92"/><rect class="cls-24" x="577.37" y="398.01" width="8.59" height="23.92"/><rect class="cls-12" x="422" y="421.93" width="164.94" height="21.29"/><g class="cls-25"><rect class="cls-12" x="440.63" y="421.93" width="11.27" height="21.29"/></g><g class="cls-25"><rect class="cls-12" x="560.51" y="421.93" width="11.27" height="21.29"/></g><rect class="cls-9" x="29.89" y="443.34" width="578.17" height="1.82"/><path class="cls-3" d="M735.36,297.74a1.5,1.5,0,0,0,0-3,1.5,1.5,0,0,0,0,3Z"/></g></g></g></svg>