<svg xmlns="http://www.w3.org/2000/svg" viewBox="0 0 628.64 428.36"><defs><style>.cls-1{isolation:isolate;}.cls-2{fill:#db9540;}.cls-3{fill:#3190c1;}.cls-4{fill:#45b3dd;}.cls-5{fill:#3c8f7c;}.cls-6{fill:#327f6b;}.cls-7{fill:#fe544e;}.cls-13,.cls-8{fill:#013d5d;}.cls-9{fill:#eefbff;}.cls-10{fill:#dff0f4;}.cls-11{fill:#ff9ac5;}.cls-12,.cls-24{fill:#ff61a4;}.cls-13,.cls-24{opacity:0.3;mix-blend-mode:multiply;}.cls-14{fill:#ffc359;}.cls-15{fill:#3ed5fc;}.cls-16{fill:#f7a491;}.cls-17{fill:#f47458;}.cls-18{fill:#dc4437;}.cls-19{fill:#7be0fd;}.cls-20{fill:#f7b455;}.cls-21{opacity:0.5;}.cls-22{fill:#89d6f4;}.cls-23{fill:#a3e1ff;}</style></defs><g class="cls-1"><g id="Layer_2" data-name="Layer 2"><g id="Layer_1-2" data-name="Layer 1"><path class="cls-2" d="M523.45,307.62l3.69-8.92c2.87-6.55,10.19-9.69,16.37-7h0c15.56,6.79,22.32,25.69,15.11,42.22L553.34,346A15.16,15.16,0,0,0,555,361.24a13.41,13.41,0,0,1,1.33,13.41L553.5,381a25.3,25.3,0,0,1-15.82,14.11,15.37,15.37,0,0,0-9.55,8.63l-3.93,9c-4.36,10-15.5,14.74-24.88,10.64L494,421.08c-9.39-4.1-13.47-15.5-9.12-25.48h0c7-11.92,6.48-20.82,4-26.86a36.07,36.07,0,0,1,.34-28.17l.56-1.28a35.86,35.86,0,0,1,21.9-19.82C515.88,318.12,520.32,314.81,523.45,307.62Z"/><path class="cls-2" d="M300.49,427.32c12.1-9,8.46-64.92,51.72-73,47.75-8.91,72.73,33.92,72.73,33.92s84.7-53.38,115.79-48.57c28.49,4.41,0,37.5,0,37.5s32.09-18.32,71-18.32c37.87,0-26.47,65-29.94,68.46Z"/><path class="cls-3" d="M580.7,339.83a269,269,0,0,0-35.78,85.65l-1.14-.31a270.17,270.17,0,0,1,35.64-84.92c3.86-6,8-13.21,15.28-15.57.14,0,.19.17.06.22C588.15,327.39,584.32,334.18,580.7,339.83Z"/><path class="cls-3" d="M548.94,426.55a335.93,335.93,0,0,1,68.17-69.07c.27-.21.63.26.36.47a335.89,335.89,0,0,0-67.12,69Z"/><path class="cls-3" d="M582.22,323.69a11.83,11.83,0,0,1,2.55,4.44,9.25,9.25,0,0,1,.09,4.53,9.93,9.93,0,0,0,2.53-4.38c.82-2.61.24-6.23-.77-7.43-1.76-2.72-4.83-3-5.43-1.67S581.36,322.26,582.22,323.69Z"/><path class="cls-3" d="M586.21,346.92a12,12,0,0,0-4.39-2.64,9,9,0,0,0-4.52-.17,9.67,9.67,0,0,1,4.43-2.44c2.62-.77,6.23-.13,7.41.91,2.68,1.82,2.89,4.89,1.56,5.46S587.63,347.81,586.21,346.92Z"/><path class="cls-3" d="M580.19,357.1a11.89,11.89,0,0,0-4.38-2.64,9.22,9.22,0,0,0-4.53-.17,9.92,9.92,0,0,1,4.43-2.44c2.63-.77,6.24-.13,7.41.92,2.68,1.81,2.9,4.88,1.57,5.45S581.61,358,580.19,357.1Z"/><path class="cls-3" d="M601.65,380.72a11.73,11.73,0,0,0-4.39-2.64,9.05,9.05,0,0,0-4.52-.17,9.81,9.81,0,0,1,4.43-2.45c2.62-.77,6.23-.12,7.41.92,2.68,1.81,2.89,4.89,1.57,5.46S603.07,381.61,601.65,380.72Z"/><path class="cls-3" d="M612.61,371.06a11.76,11.76,0,0,0-4.38-2.64,9.09,9.09,0,0,0-4.53-.17,9.88,9.88,0,0,1,4.43-2.45c2.63-.76,6.24-.12,7.42.92,2.67,1.81,2.89,4.89,1.56,5.46S614,372,612.61,371.06Z"/><path class="cls-3" d="M573.8,335.21a11.84,11.84,0,0,1,3.23,4,9.15,9.15,0,0,1,.79,4.46,9.87,9.87,0,0,0,1.81-4.72c.4-2.71-.74-6.2-1.94-7.22-2.16-2.4-5.24-2.19-5.62-.8S572.73,333.93,573.8,335.21Z"/><path class="cls-3" d="M565,346.76c.74.39,3.34,1.11,4.65,3.06a7.88,7.88,0,0,1,1.57,4.63A13,13,0,0,0,573,348.4c.18-3.19-1.71-6.59-3.38-7.22-3.09-1.75-7.05-.19-7.38,1.53S563.41,345.79,565,346.76Z"/><path class="cls-3" d="M555.65,364.25c.8.26,3.48.53,5.1,2.23a8,8,0,0,1,2.33,4.3,13.2,13.2,0,0,0,.72-6.26c-.35-3.18-2.79-6.21-4.55-6.55-3.34-1.21-7,1-7,2.75S554,363.55,555.65,364.25Z"/><path class="cls-3" d="M583.2,376.43c.58.36,2.66,1.09,3.61,2.75a6.36,6.36,0,0,1,1,3.86,10.77,10.77,0,0,0,1.79-4.82c.33-2.59-1-5.46-2.34-6.07-2.42-1.6-5.73-.56-6.09.82S582,375.55,583.2,376.43Z"/><path class="cls-3" d="M597.54,327.79a7.09,7.09,0,0,0-2.48-1.76,5.62,5.62,0,0,0-2.67-.3,6,6,0,0,1,2.73-1.25,5.74,5.74,0,0,1,4.35.87c1.5,1.19,1.49,3,.68,3.3S598.34,328.38,597.54,327.79Z"/><path class="cls-3" d="M594.2,320.36a7,7,0,0,1-.12,3,5.53,5.53,0,0,1-1.4,2.3,5.87,5.87,0,0,0,2.66-1.4,5.74,5.74,0,0,0,2-4c0-1.92-1.48-3-2.2-2.56S594.22,319.36,594.2,320.36Z"/><path class="cls-3" d="M620.51,361.22a7,7,0,0,0-2.48-1.75,5.35,5.35,0,0,0-2.67-.3,6.05,6.05,0,0,1,7.07-.39c1.51,1.19,1.5,3,.69,3.3S621.31,361.81,620.51,361.22Z"/><path class="cls-3" d="M616.48,353.73a7.06,7.06,0,0,1,.12,3,5.24,5.24,0,0,1-1.2,2.4,6,6,0,0,0,4.17-5.72c-.18-1.91-1.72-2.9-2.39-2.37S616.42,352.74,616.48,353.73Z"/><path class="cls-3" d="M613.67,402.16c-17,1.87-32.86,9.38-48.11,16.7-10.29,4.94-9.77,6.35-11.87,7.08a.42.42,0,0,1-.51-.58c.81-1.59,2.92-2.67,4.39-3.59a59.3,59.3,0,0,1,5.31-2.9c3.89-1.88,7.87-3.58,11.83-5.3a171.33,171.33,0,0,1,24.74-9A87.8,87.8,0,0,1,613.66,402c.09,0,.1.13,0,.14Z"/><path class="cls-3" d="M598.34,396.89a10.92,10.92,0,0,1,.39,4.72,8.48,8.48,0,0,1-1.72,3.83,9.13,9.13,0,0,0,3.85-2.67c1.72-1.87,2.66-5.13,2.28-6.54-.4-3-2.87-4.4-3.88-3.54S598.18,395.34,598.34,396.89Z"/><path class="cls-3" d="M583.35,402.25a11,11,0,0,1,.39,4.73,8.61,8.61,0,0,1-1.72,3.83,9.21,9.21,0,0,0,3.85-2.68c1.72-1.86,2.67-5.12,2.28-6.53-.4-3-2.87-4.41-3.88-3.54S583.19,400.71,583.35,402.25Z"/><path class="cls-3" d="M568.12,409a11,11,0,0,1,.39,4.73,8.61,8.61,0,0,1-1.72,3.83,9.21,9.21,0,0,0,3.85-2.68c1.72-1.86,2.66-5.12,2.28-6.53-.4-3-2.87-4.41-3.88-3.54S568,407.5,568.12,409Z"/><path class="cls-3" d="M602.81,410.89a10.15,10.15,0,0,0-2.35-3.7,7.77,7.77,0,0,0-3.4-1.86,8.41,8.41,0,0,1,4.33-.18c2.3.42,4.82,2.29,5.33,3.54,1.36,2.41.34,4.85-.89,4.78S603.56,412.12,602.81,410.89Z"/><path class="cls-3" d="M587.22,416.41a10.07,10.07,0,0,0-2.35-3.7,7.77,7.77,0,0,0-3.4-1.86,8.41,8.41,0,0,1,4.33-.18c2.3.41,4.82,2.29,5.33,3.54,1.36,2.41.34,4.85-.89,4.78S588,417.63,587.22,416.41Z"/><path class="cls-3" d="M614.69,405.21a6.48,6.48,0,0,0-2-2,4.92,4.92,0,0,0-2.38-.72,5.41,5.41,0,0,1,2.69-.69,5.31,5.31,0,0,1,3.82,1.52c1.17,1.34.86,3,.07,3.12S615.32,405.88,614.69,405.21Z"/><path class="cls-3" d="M612.89,397.88a6.47,6.47,0,0,1-.62,2.74,5,5,0,0,1-1.66,1.86,5.36,5.36,0,0,0,2.66-.82,5.3,5.3,0,0,0,2.45-3.29c.3-1.75-.84-3-1.57-2.7S613.07,397,612.89,397.88Z"/><path class="cls-4" d="M571.57,158.51s-9.32,17.83-15.35,25.26-11.79,14.52-17.38,35.7-4.93,23.36-6.44,28.83-10.68,27.45-10.93,31.56-17.61,26.66-22.31,37.39-12.82,26-12.82,34l1.87-.37a85.81,85.81,0,0,1,16.18-36.59c13.73-18.1,12.08-21.73,27.08-30.63s25.72-35,25.72-35,16.23-28.16,16.31-43.22S578.19,177,571.57,158.51Z"/><path class="cls-4" d="M553.36,129.43s-1.1,12-5.33,18.9-7.78,11.08-8.88,18.75-4.53,27.42-15.81,36.58-14.14,38.15-22.8,46.52-10.05,14.64-9.3,29.8,4.83,36.32-8.47,63l-2.35-6.92s9.67-22,8.28-35.25-7.57-33.47-4.45-42.86-6.57-11.75.05-25.85,4.45-19.24,13.1-31.28c0,0,.85-.54,3.49-11s20.6-28.88,28.76-35.07S549.62,138.59,553.36,129.43Z"/><path class="cls-5" d="M518.48,187.19s-10.19,15.56-10.85,25.87,0,18.77-5.42,32.67,3.49,23.31.38,31-3.79,16.9-4.06,23.91S486.26,330.26,484,341.92s-.14,11.81-.14,11.81,2.58-15.42,5.33-20.42,11.21-22.28,13.32-29,7.13-10.89,11.85-22.26,11.1-20.83,11.48-37.28S533.75,211.28,518.48,187.19Z"/><path class="cls-3" d="M490.65,343.28s5.4-20.13,23.92-21.22,29.16,3.09,42.93-11.11,22.53-37.42,26.9-41.28c0,0-6.37-3.69-17.76,5.92s-19.41,16.93-26,22.52-11.51,1.48-18.35,5c-5.73,3-13.41,12.07-16.84,16.86a22.3,22.3,0,0,1-3.87,4.19c-1.34,1.11-2.93,2.48-4,3.49-2.06,2-8.39,15.59-8.39,15.59Z"/><path class="cls-5" d="M484.34,339.36s7.76-24.56,4-37-16.88-22.11-15.95-29.74,10.73-27.86,4.39-43.62c0,0-3.41,13.6-6.23,16.52s-21.79,14.31-19.37,30.74,20.05,21.15,24.2,26.16,10.07,5.31,9.94,8.5.44,14.83-2.11,26.16Z"/><path class="cls-6" d="M492.28,323.06l10.46-25.8s6.43-20.86,10.44-38.32,5.3-71.75,5.3-71.75-10.19,15.56-10.85,25.87,0,18.77-5.42,32.67,3.49,23.31.38,31-3.79,16.9-4.06,23.91S486.26,330.26,484,341.92c-1.23,6.39-1.16,9.32-.84,10.66C482.24,342.24,492.28,323.06,492.28,323.06Z"/><path class="cls-4" d="M538,309.7c-8.22,1.21-15.46.29-25.49,7a81,81,0,0,0-16.09,14.09s-4.74,7.54-6.74,11.54l-.46,1h1.43s5.4-20.13,23.92-21.22,29.16,3.09,42.93-11.11,22.53-37.42,26.9-41.28c0,0-14.39,10.07-23.43,19.16S546.22,308.49,538,309.7Z"/><path class="cls-6" d="M470.58,245.56c-2.83,2.92-21.79,14.31-19.37,30.74s20.05,21.15,24.2,26.16,10.07,5.31,9.94,8.5.44,14.83-2.11,26.16l.48,1a146.64,146.64,0,0,0,3.57-16.27c1.13-8.34-.05-11.88-2.39-18.8S466.53,281.44,462.7,274s9.07-19,12.1-24.73,2-20.19,2-20.19S473.4,242.64,470.58,245.56Z"/><path class="cls-4" d="M65.93,309.76a23.42,23.42,0,0,0-2-8.29c-1.6-3.09-4.42-5.31-6.89-7.77a43.16,43.16,0,0,1-10.27-16.37c-1.64-4.75-2.46-9.81-4.73-14.3-1.38-2.73-3.27-5.18-4.84-7.82-3.71-6.23-5.73-13.59-10.77-18.8a22.6,22.6,0,0,0,5.11,17.88,30.35,30.35,0,0,1,3.62,4.4c1.71,3,1.56,6.68,1.76,10.13a44.56,44.56,0,0,0,5.32,18.62c3.3,6.06,8.07,11.47,9.84,18.15,1.32,5,.93,10.62,3.75,15a2.61,2.61,0,0,1,.68,2.44c-.07.4-.13.81-.19,1.21-.65,4.1-1.31,9.31,2.21,12.38,2.44,2.12,5.58,2.17,7.34-.65s1.6-7,1.47-10.21C67.11,320.4,66.53,315.05,65.93,309.76Z"/><path class="cls-3" d="M72.28,306.46c-1.37-4.74-3.5-9.26-4.56-14.08s-1-9.51-1-14.3q0-7.87,0-15.75a59.18,59.18,0,0,0-.55-9.78c-1.16-6.93-4.76-13.34-5.37-20.34-.27-3,0-6.1-.29-9.12a14.35,14.35,0,0,0-1.44-5,2.24,2.24,0,0,0-4,.12c-1.75,3.79-2.86,7.89-2.15,11.95a48.34,48.34,0,0,0,2.27,7.06c3.51,10.44,1.64,22,4.36,32.67.82,3.23,2.06,6.39,2.2,9.71.35,7.95-5.59,15.22-5,23.16.45,6.51,5.13,11.9,7.1,18.12,1.1,3.48,1.33,7.2,2.51,10.66.92,2.68,3,6,6.35,5.13,3.14-.77,2.19-3.34,2-5.78C74.17,322.59,74.61,314.55,72.28,306.46Z"/><path class="cls-4" d="M79.46,310.81c-.13-2.47-.55-4.94-.21-7.39a45.56,45.56,0,0,1,1.7-6,53.63,53.63,0,0,0,1.64-11.58q.73-10.63,1.46-21.26c.75-11,1.5-22.06,3.56-32.9.58-3,1.22-6.27-.14-9-.28-.58-.84-1.2-1.46-1-.44.13-.65.62-.81,1C80.7,234.93,79,248.1,74,260.13a48.18,48.18,0,0,0-3.22,8.78c-.75,3.67-.34,7.47-.25,11.22a52.72,52.72,0,0,1-1.87,16,68,68,0,0,0-2.24,8.13c-.53,3.47-.08,7,.25,10.5a162.3,162.3,0,0,1,.65,20.21c-.13,4,3.22,3.86,5.44,1.43,1.55-1.71,1.53-3.58,2.07-5.7C76.54,323.7,79.89,318.36,79.46,310.81Z"/><path class="cls-3" d="M58.56,321.56c-3-4.76-8.86-7.46-10.75-12.73-.48-1.34-.67-2.79-1.26-4.09-1.3-2.88-4.27-4.51-7.19-5.84a.62.62,0,0,0-.87.56h0a2.1,2.1,0,0,0,.91,1.78,11.83,11.83,0,0,1,4.72,6.43c.9,3.1.51,6.48,1.63,9.5.94,2.53,2.88,4.61,3.79,7.15.83,2.33.74,4.87,1.13,7.31s1.48,5,3.72,6.06C62.49,341.42,60.47,324.63,58.56,321.56Z"/><path class="cls-5" d="M92.27,320c-.13,2.3.22,4.71-.67,6.83a21.1,21.1,0,0,1-2.47,3.65c-3,4.22-4.06,10.2-8.65,12.58a1.61,1.61,0,0,1-1,.23,1.51,1.51,0,0,1-1-1c-1.12-2.62.14-5.57.89-8.32a2,2,0,0,0,0-1.46c-.25-.49-.83-.7-1.22-1.08-.79-.76-.71-2-.56-3.11a70.8,70.8,0,0,1,1.64-8A14,14,0,0,1,81,316a18.89,18.89,0,0,1,3.62-3.58,42.93,42.93,0,0,0,12.53-18.5,12.1,12.1,0,0,1,2.1-4.38c1.09-1.21,3-1.83,4.37-.89,1,.66-2.93,6.91-3.38,7.66-1.3,2.14-1.32,4-2.05,6.38C96.42,308.53,92.61,313.75,92.27,320Z"/><path class="cls-3" d="M87.75,322.65a28.37,28.37,0,0,0,2-6.75c.31-2.6-.1-5.25.35-7.83.57-3.31,2.5-6.22,3.45-9.45a63.46,63.46,0,0,0,1.28-7.16c1.18-6.84,4.4-13.52,3.48-20.4-.21-1.49-.88-3.24-2.37-3.49s-2.56,1-2.91,2.32A12.63,12.63,0,0,0,93,274a16.8,16.8,0,0,1-3,10.8c-2.11,3-5.18,5.24-7.08,8.37-2.33,3.83-2.65,8.52-3.84,12.85-2.36,8.61-8.29,16.12-9.38,25-.43,3.53.4,7.81,3.66,9.22C82.77,344.27,85.62,328.16,87.75,322.65Z"/><path class="cls-7" d="M71.29,333.58H49.68a2.29,2.29,0,0,0-2.23,2.82l7.88,33.22a2.28,2.28,0,0,0,2.22,1.77h26a2.28,2.28,0,0,0,2.22-1.77l7.88-33.22a2.29,2.29,0,0,0-2.23-2.82Z"/><path class="cls-3" d="M143.36,395.59h4.9a4.75,4.75,0,0,0-2.9-1H22.44A11.53,11.53,0,0,0,10.79,406v7.26A11.53,11.53,0,0,0,22.44,424.7l121.55,0Z"/><path class="cls-8" d="M73.57,394.65a11,11,0,0,0-11.14,10.91v8.2a11,11,0,0,0,11.14,10.92h76.52v-1.84h-.31L130.32,421l-3.93-15.13s7.59-8.35,8.08-8.57,15.31-.87,15.31-.87h.31v-1.82Z"/><path class="cls-9" d="M145.13,409.61c0-8.85,4.66-13.13,4.66-13.13H75.13a10.13,10.13,0,0,0-10.22,10v6.3a10.13,10.13,0,0,0,10.22,10h74.66S145.13,420.74,145.13,409.61Z"/><path class="cls-10" d="M64.91,406.51v6.3a10.07,10.07,0,0,0,.29,2.41,21.89,21.89,0,0,1,16.53-13.73c21.45-4.36,68.06-5,68.06-5H75.13A10.13,10.13,0,0,0,64.91,406.51Z"/><path class="cls-11" d="M6.74,371.52H1.83a5.67,5.67,0,0,1,2.9-.77h123c6.43,0,11.65,4.05,11.65,9.06v5.75c0,5-5.22,9.06-11.65,9.06l-121.6,0Z"/><path class="cls-12" d="M76.55,370.77c6.16,0,11.15,3.88,11.15,8.66v6.5c0,4.79-5,8.67-11.15,8.67H0v-1.46H.32l19.46-1.43,3.93-12s-7.59-6.63-8.09-6.8-15.3-.69-15.3-.69H0v-1.45Z"/><path class="cls-9" d="M5,382.64A13.22,13.22,0,0,0,.3,372.22H75c5.65,0,10.23,3.57,10.23,8v5c0,4.39-4.58,7.95-10.23,7.95H.3S5,391.47,5,382.64Z"/><path class="cls-10" d="M85.22,380.18v5a6.09,6.09,0,0,1-.3,1.9c-2.52-4.79-7.35-9.4-16.54-10.89-21.45-3.46-68.08-4-68.08-4H75C80.64,372.22,85.22,375.79,85.22,380.18Z"/><rect class="cls-8" x="274.86" y="77.02" width="61.32" height="31.24" rx="15.62"/><polygon class="cls-8" points="268.62 397.44 221.24 419.28 221.24 424.12 389.99 424.12 389.99 419.28 342.18 397.44 268.62 397.44"/><rect class="cls-8" x="268.62" y="303.83" width="73.58" height="93.65"/><path class="cls-8" d="M528.07,322V103a10.39,10.39,0,0,0-10.39-10.39h-425A10.39,10.39,0,0,0,82.28,103V322Z"/><rect class="cls-13" x="234.06" y="420.53" width="145.47" height="4.17"/><rect class="cls-13" x="268.62" y="386.45" width="73.55" height="10.99"/><rect class="cls-9" x="412.92" y="101.72" width="105.12" height="212.15"/><rect class="cls-12" x="90.4" y="101.72" width="427.64" height="19.59"/><rect class="cls-9" x="90.4" y="121.31" width="161.26" height="96.41"/><rect class="cls-14" x="251.68" y="121.31" width="161.26" height="96.41"/><path class="cls-15" d="M212.11,229.85l-21.67,2.21s-1-17.77-1-26.24c0-10.29.88-23.53,2.12-23.24,3.48.8,8.18,2.72,11,6.56C212.2,202.42,212.11,229.85,212.11,229.85Z"/><path class="cls-15" d="M201.46,204c.46,3.14,8.79,88.36,8.79,88.36-39.46,19.06-61.24,3.4-61.24,3.4s1.29-59.85-.25-68c-1-5.39-2.3-41.2,1.19-42.21a88,88,0,0,1,15.22-3.23c4.78-.5,23.35-.79,26.68.33A42.33,42.33,0,0,1,201.46,204Z"/><path class="cls-15" d="M121.78,221.72l18.78,12.6s10.58-15.74,16.26-21.35c7.11-7-2.59-28.53-7.18-27.31C139.39,188.38,121.78,221.72,121.78,221.72Z"/><path class="cls-16" d="M170.42,164.83l-2.91,17.75s10.63,22.58,17,20.68c5.33-1.6,2-21,2-21s-2.9-10.42-2-15.63S170.42,164.83,170.42,164.83Z"/><path class="cls-17" d="M184.51,166.64c.87-5.21-14.09-1.81-14.09-1.81l-.25,1.53a8.46,8.46,0,0,0,1.63,2.56,20.09,20.09,0,0,0,13.08,5.68A27.23,27.23,0,0,1,184.51,166.64Z"/><path class="cls-16" d="M168,138.78c-.42-.15-3.39,21,2.24,26.78s16.6,7.71,20.53,3.14c4.36-5.07,4.14-27.76-4.62-33.74S168,138.78,168,138.78Z"/><path class="cls-8" d="M170,130.64c-3.07.35-7.24,2-11.55,8.83-5.31,8.42-1.39,17.74,4.78,22.32s6.06,9.82,6.06,9.82l1-2.69a14.56,14.56,0,0,0,.77-6.44,12,12,0,0,0-1-3.87c-1.49-3.06,3.18-5.09,4.5-7.63,1-2,1-6.44,2.64-9.68l1.9-2.47s4.38-3.27,8.66-2.34S186.82,117.36,170,130.64Z"/><path class="cls-16" d="M174.3,154.73c0,2.58-1.18,4.69-2.73,4.72s-2.84-2-2.89-4.62,1.18-4.69,2.73-4.71S174.25,152.16,174.3,154.73Z"/><path class="cls-9" d="M183.88,160.38l7.68-1.52a3.41,3.41,0,0,1-2.95,3.72C184.51,163.52,183.88,160.38,183.88,160.38Z"/><path class="cls-8" d="M309.1,141.41l.22-.43v-.12c.42-1,.87-2.06,1.37-3.08,3.33-6.73,11.55-10.55,19-10.56a24,24,0,0,1,6.71.91c3.07,1.38,10.57,6.15,12.52,20.38a22.75,22.75,0,0,1-2.71,14.27c2,1.27,4.68,3.84,6.6,9,3.53,9.53,21.18,11.65,23,24.37s-16.6,35.66-36,20.83c-14.78-11.29-12.38-32.81-10.39-42.44a21.76,21.76,0,0,1-14.33-3.11c-6.06-3.66-8.51-8.6-9.17-13.44A49.2,49.2,0,0,1,309.1,141.41Z"/><path class="cls-18" d="M326.35,174.64c12,0,20.61-10.9,21-11.36a1.06,1.06,0,1,0-1.68-1.3h0c-.08.11-8.3,10.54-19.29,10.54a1.06,1.06,0,0,0,0,2.12Z"/><path class="cls-11" d="M305.37,200.5c6.5-19.72,13.77-18.88,13.77-18.88l-5.62,41.46c-4-1.1-9.24-3.55-13.25-4.68A180.71,180.71,0,0,1,305.37,200.5Z"/><path class="cls-12" d="M335.77,178.08s12-.76,16.72,4.41S342,228.61,341.12,235.2s4.39,24.1,4.39,24.1-28.14,5.68-36.18.34c0,0-.86-47.37,0-52.07s8-23.84,9.77-25.73S335.77,178.08,335.77,178.08Z"/><path class="cls-16" d="M331.79,162s.06.35.17,1c.53,2.88,2.59,12.46,4,15.09,1.68,3.18-5.75,13.32-12.9,12.08-2.12-.36,1.8-9.32,1.61-10.26l-1.35-6.84c-.28-1.43-.57-2.88-.84-4.24l-1.38-7.06Z"/><path class="cls-17" d="M332,163c-.11-.61-.17-1-.17-1l-10.71-.27,1.38,7.06c.27,1.35.56,2.8.84,4.22a10,10,0,0,0,5.11-2.57,13.5,13.5,0,0,0,3.87-5.77C332.15,164,332,163.44,332,163Z"/><path class="cls-16" d="M324.58,137.64a9.65,9.65,0,0,1,8.21,3.52c3.16,4.1,6.57,16.79-1.29,23.68s-15.62-.91-16.77-9.18S313.13,137.34,324.58,137.64Z"/><path class="cls-16" d="M312.4,155.53c.94,1.83,2.51,2.84,3.52,2.26s1.06-2.53.12-4.36-2.52-2.84-3.52-2.26S311.46,153.71,312.4,155.53Z"/><path class="cls-8" d="M324,136.29s6.75,12.06,11.57,12.62,5.46,7,5.46,7-1.73-14.77-6.5-17.62S324,136.29,324,136.29Z"/><path class="cls-16" d="M334.32,151.94c-.4,2.14.39,4.1,1.76,4.38s2.79-1.22,3.18-3.37-.39-4.1-1.76-4.38S334.71,149.79,334.32,151.94Z"/><path class="cls-11" d="M338.2,223.71s-5.5-24.24-4-31.85,11.06-14.22,17.22-11.18,2.93,39.07,2.93,39.07Z"/><rect class="cls-3" x="90.4" y="217.44" width="161.26" height="96.41"/><path class="cls-7" d="M192.75,248.79a39.36,39.36,0,0,0-4.86-18.72c-2.84-5-9.23-7.58-14.87-7.21-17.91,1.17-18.62,25-29.41,34.88-3.3,3-7,5.56-10.14,8.78-11.43,11.92-4.58,32.12,7.25,41.12,8.2,6.24,20.65,9.27,29.86,3.35,4.81-3.09,8.29-7.93,10.66-13.13,3.35-7.39,5.27-15.78,7.49-23.56C191.1,266,193,257.44,192.75,248.79Z"/><path class="cls-9" d="M166.31,269.75s-16.17,1.71-20.46,6.24l10.5,56.95s20,3,32.68-1.4c0,0,7.16-45.66.71-56.85-2.15-3.73-12-3.88-12-3.88Z"/><path class="cls-16" d="M242.78,246.08c-.6-1.26-5.92,2.48-7.1,1.76s4.77-6.7,4.16-7.74c-1.12-1.93-6.91,6.16-7.48,5.3s5-9.49,3-10-4.84,9.55-5.86,8.91,3.49-9.09,1.57-10.82c-1-.92-5.88,15.42-7.64,16.09s-3.73-6.45-5.39-6.17,5.43,13.12,5.08,14.12-6.83,21.95-10.66,28.28c-2.3-1.1-4.54-2.21-6.68-3.29-.86,4.86-2.85,9.1-4,13.87,7.42,3.27,15.94,6.51,18.09,5.71,6.57-2.42,9.81-34.3,10.87-40.24s3.86-7.13,5.46-10.25S243.37,247.34,242.78,246.08Z"/><path class="cls-9" d="M186.41,272.57,176.87,284s13.68,9.22,26,14.63c1.13-4.77,3.91-12.24,4.77-17.1A198.22,198.22,0,0,0,186.41,272.57Z"/><path class="cls-16" d="M98.77,244.91c.6-1.26,5.92,2.47,7.09,1.76s-4.76-6.7-4.15-7.75c1.11-1.93,6.91,6.16,7.48,5.31s-5-9.49-3-10,4.84,9.56,5.86,8.91-3.49-9.09-1.57-10.81c1-.92,5.88,15.41,7.63,16.09s3.74-6.45,5.4-6.17-5.43,13.11-5.08,14.11,6.83,22,10.65,28.28c2.31-1.1,4.55-2.2,6.69-3.28.86,4.86,3.16,9.46,4.29,14.23-7.42,3.26-16.26,6.14-18.42,5.35-6.56-2.42-9.8-34.3-10.86-40.25s-3.86-7.12-5.46-10.25S98.18,246.17,98.77,244.91Z"/><path class="cls-9" d="M155.93,271.58l1.73,25.89s-6.66-5.4-19,0c-1.13-4.77-3.91-12.25-4.77-17.11A164.46,164.46,0,0,1,155.93,271.58Z"/><path class="cls-16" d="M167.11,252.92s0,.37-.11,1c-.35,3-1.8,12.83-3,15.6-1.49,3.34,6.76,13.14,14,11.4,2.14-.52-2.46-9.35-2.34-10.32.25-1.87.58-4.42.92-7,.19-1.47.39-3,.57-4.37.52-4,.94-7.26.94-7.26Z"/><path class="cls-17" d="M166.69,256.26c.08-.61.11-1,.11-1l10.91-1s-.42,3.27-.94,7.26l-.56,4.35a10.26,10.26,0,0,1-5.39-2.27,13.86,13.86,0,0,1-4.39-5.62C166.52,257.3,166.64,256.72,166.69,256.26Z"/><path class="cls-16" d="M173,227.91a10.46,10.46,0,0,0-8.63,4.38c-3.13,4.64-5.91,18.55,3.09,25.41s16.83-2.11,17.49-11.1S185.37,226.76,173,227.91Z"/><path class="cls-16" d="M187.46,246.3c-.88,2-2.51,3.24-3.64,2.69s-1.32-2.65-.44-4.69,2.51-3.24,3.64-2.69S188.35,244.26,187.46,246.3Z"/><path class="cls-7" d="M173.52,226.41s-6.42,13.47-11.6,14.42-5.41,7.9-5.41,7.9.81-16,5.77-19.44S173.52,226.41,173.52,226.41Z"/><path class="cls-16" d="M163.5,244c.58,2.28-.13,4.46-1.59,4.86s-3.1-1.12-3.68-3.4.13-4.45,1.59-4.85S162.93,241.73,163.5,244Z"/><path class="cls-9" d="M178.47,251.46l-8.4-.62a3.68,3.68,0,0,0,3.64,3.59C178.21,254.89,178.47,251.46,178.47,251.46Z"/><path class="cls-16" d="M268,184.44c.6-1.26,5.91,2.48,7.09,1.76s-4.76-6.7-4.16-7.74c1.12-1.93,6.92,6.16,7.48,5.3s-5-9.49-3-10,4.83,9.55,5.85,8.91-3.49-9.09-1.56-10.82c1-.92,5.87,15.42,7.63,16.09s3.74-6.45,5.39-6.17-5.42,13.12-5.08,14.12,6.83,21.95,10.66,28.28c2.3-1.1,4.55-2.21,6.69-3.29.86,4.86,3.16,9.46,4.29,14.23-7.43,3.27-16.26,6.15-18.42,5.35-6.57-2.42-9.81-34.3-10.86-40.25s-3.86-7.12-5.46-10.24S267.37,185.7,268,184.44Z"/><rect class="cls-9" x="143.68" y="321.89" width="58.61" height="15.79"/><path class="cls-9" d="M321,159l8.66-.63a3.8,3.8,0,0,1-3.76,3.69C321.3,162.49,321,159,321,159Z"/><rect class="cls-19" x="251.68" y="217.44" width="161.26" height="96.41"/><path class="cls-20" d="M295.79,329.12l21.08,2.15s1-17.29,1-25.53c0-10-.86-22.89-2.06-22.61-3.39.78-8,2.65-10.68,6.39C295.7,302.44,295.79,329.12,295.79,329.12Z"/><path class="cls-14" d="M356.89,334.17a58.26,58.26,0,0,1,.53-7.08c1-5.24,2.23-40.08-1.16-41a83.84,83.84,0,0,0-14.81-3.15c-4.65-.49-22.72-.76-25.95.32A41.17,41.17,0,0,0,306.14,304c-.17,1.19-1.5,14.44-3.06,30.2Z"/><path class="cls-14" d="M383.66,321.21l-18.27,12.26s-10.29-15.32-15.82-20.77c-6.92-6.83,2.53-27.76,7-26.57C366.53,288.78,383.66,321.21,383.66,321.21Z"/><path class="cls-8" d="M324.9,229.57s6.26-6.6,11.29,1.43a5,5,0,0,1,6.6,1.7s7-2.11,8.71,8.37c0,0,3.6-.68,4.08,3.6a10.56,10.56,0,0,1-1.7,7.14s2,1.52,1.1,5.46a4.87,4.87,0,0,1-3.55,3.86s-.75,5.65-3.2,7.35-5.78.88-5.78.88-.88,3.06-3.74,2.79-6.39-3-9.59-1.77-11.5-.07-11.5-.07-9.31-4.14-6.52-13.67c0,0-4.9-4.42-.62-9.72,0,0-3.13-8.3,3.06-13.2S324.9,229.57,324.9,229.57Z"/><path class="cls-16" d="M326,274.37l-1.13,8.4s-2.54,12.11.72,14.44,13.89-14.79,13.89-14.79l-1.12-21.29Z"/><path class="cls-17" d="M338.68,268c-2.7,7.26-9.12,11.73-13.68,13.46l1-7.12,12.36-13.24Z"/><path class="cls-8" d="M355.69,246.66c0,3.24-1.84,5.87-4.12,5.87s-4.12-2.63-4.12-5.87,1.85-5.88,4.12-5.88S355.69,243.41,355.69,246.66Z"/><ellipse class="cls-8" cx="338.32" cy="234.03" rx="5.01" ry="3.37"/><path class="cls-16" d="M330.77,238.76a11.23,11.23,0,0,0-14.7,9,85.73,85.73,0,0,0-.91,10.78c-.18,9.81,4.91,19.37,9.36,19.37s16.78-6.36,17.22-20.29C342,249,337.72,241.15,330.77,238.76Z"/><path class="cls-16" d="M338.46,258.67c0,2.16,1.44,3.92,3.21,3.92s3.2-1.76,3.2-3.92-1.43-3.92-3.2-3.92S338.46,256.5,338.46,258.67Z"/><path class="cls-8" d="M311.46,233.87c-4.6,3.65-6.22,9.19-3.6,12.38s8.46,2.82,13.07-.83,6.21-9.19,3.6-12.38S316.07,230.23,311.46,233.87Z"/><path class="cls-8" d="M323.5,236.86c0,1.59,1.91,2.87,4.27,2.87s4.28-1.28,4.28-2.87-1.92-2.87-4.28-2.87S323.5,235.28,323.5,236.86Z"/><path class="cls-8" d="M310.78,249.06a3.65,3.65,0,1,0,3.65-3.69A3.67,3.67,0,0,0,310.78,249.06Z"/><path class="cls-9" d="M319.86,267.09l8.72.34a3.82,3.82,0,0,1-4.17,3.26C319.72,270.64,319.86,267.09,319.86,267.09Z"/><path class="cls-8" d="M82.28,322v33.84c0,7,4.65,12.74,10.39,12.74h425c5.74,0,10.39-5.7,10.39-12.74V322Z"/><rect class="cls-8" x="143.68" y="313.86" width="260.17" height="8.04"/><path class="cls-9" d="M103.41,111.73a3.41,3.41,0,1,1-3.41-3.41A3.41,3.41,0,0,1,103.41,111.73Z"/><circle class="cls-9" cx="112.04" cy="111.73" r="3.4" transform="translate(-10.46 11.58) rotate(-5.65)"/><circle class="cls-9" cx="124.08" cy="111.73" r="3.4" transform="translate(-4.2 4.84) rotate(-2.2)"/><path class="cls-9" d="M243.38,131.58a3.07,3.07,0,1,1-3.07-3.07A3.06,3.06,0,0,1,243.38,131.58Z"/><path class="cls-9" d="M405.24,131.58a3.07,3.07,0,1,1-3.07-3.07A3.07,3.07,0,0,1,405.24,131.58Z"/><path class="cls-9" d="M243.38,227.38a3.07,3.07,0,1,1-3.07-3.07A3.06,3.06,0,0,1,243.38,227.38Z"/><path class="cls-9" d="M405.24,227.38a3.07,3.07,0,1,1-3.07-3.07A3.07,3.07,0,0,1,405.24,227.38Z"/><rect class="cls-10" x="412.94" y="121.31" width="105.1" height="17.02"/><g class="cls-21"><path class="cls-10" d="M507.71,295.81H423.13a4.71,4.71,0,0,1-4.7-4.7v-3.35a4.72,4.72,0,0,1,4.7-4.71h84.58a4.72,4.72,0,0,1,4.7,4.71v3.35A4.71,4.71,0,0,1,507.71,295.81ZM423.13,284a3.77,3.77,0,0,0-3.77,3.77v3.35a3.77,3.77,0,0,0,3.77,3.77h84.58a3.77,3.77,0,0,0,3.77-3.77v-3.35a3.77,3.77,0,0,0-3.77-3.77Z"/></g><path class="cls-10" d="M507.23,306.1H491.94a2.81,2.81,0,0,1-2.81-2.81h0a2.81,2.81,0,0,1,2.81-2.81h15.29a2.81,2.81,0,0,1,2.81,2.81h0A2.81,2.81,0,0,1,507.23,306.1Z"/><path class="cls-10" d="M480.35,306.1H421.7a2.81,2.81,0,0,1-2.81-2.81h0a2.81,2.81,0,0,1,2.81-2.81h58.65a2.81,2.81,0,0,1,2.81,2.81h0A2.81,2.81,0,0,1,480.35,306.1Z"/><path class="cls-9" d="M310,85.31a4.14,4.14,0,1,1-4.14-4.13A4.14,4.14,0,0,1,310,85.31Z"/><path class="cls-3" d="M462.84,114.34H584.5a7.61,7.61,0,0,1,7.61,7.61v50.2a7.61,7.61,0,0,1-7.61,7.61H488.72c-3.88,5.41-10.91,15.1-11.53,15.1s.54-9.15,1.33-15.1H462.84a7.6,7.6,0,0,1-7.61-7.61V122A7.6,7.6,0,0,1,462.84,114.34Z"/><path class="cls-9" d="M466.42,132.79H583.21A1.82,1.82,0,0,0,585,131h0a1.83,1.83,0,0,0-1.83-1.83H466.42A1.83,1.83,0,0,0,464.6,131h0A1.82,1.82,0,0,0,466.42,132.79Z"/><path class="cls-9" d="M466.42,161.29H583.21a1.82,1.82,0,0,0,1.83-1.82h0a1.83,1.83,0,0,0-1.83-1.83H466.42a1.83,1.83,0,0,0-1.82,1.83h0A1.82,1.82,0,0,0,466.42,161.29Z"/><path class="cls-9" d="M508.74,152.05h74.47a1.83,1.83,0,0,0,1.83-1.83h0a1.83,1.83,0,0,0-1.83-1.82H508.74a1.82,1.82,0,0,0-1.82,1.82h0A1.82,1.82,0,0,0,508.74,152.05Z"/><path class="cls-9" d="M466.27,142.44h71.17a1.67,1.67,0,0,0,1.67-1.67h0a1.68,1.68,0,0,0-1.67-1.68H466.27a1.68,1.68,0,0,0-1.67,1.68h0A1.67,1.67,0,0,0,466.27,142.44Z"/><path class="cls-9" d="M545.28,142.59h37.93a1.83,1.83,0,0,0,1.83-1.82h0a1.83,1.83,0,0,0-1.83-1.83H545.28a1.83,1.83,0,0,0-1.82,1.83h0A1.83,1.83,0,0,0,545.28,142.59Z"/><path class="cls-9" d="M466.27,151.9h30.84a1.68,1.68,0,0,0,1.67-1.68h0a1.67,1.67,0,0,0-1.67-1.67H466.27a1.67,1.67,0,0,0-1.67,1.67h0A1.68,1.68,0,0,0,466.27,151.9Z"/><path class="cls-11" d="M543.41,211.93h-104a6.5,6.5,0,0,0-6.5,6.5v42.9a6.5,6.5,0,0,0,6.5,6.5H521.3c3.31,4.62,9.31,12.9,9.84,12.9s-.46-7.82-1.13-12.9h13.4a6.5,6.5,0,0,0,6.5-6.5v-42.9A6.5,6.5,0,0,0,543.41,211.93Z"/><path class="cls-9" d="M540.34,227.7H440.55a1.56,1.56,0,0,1-1.56-1.56h0a1.56,1.56,0,0,1,1.56-1.56h99.79a1.56,1.56,0,0,1,1.56,1.56h0A1.56,1.56,0,0,1,540.34,227.7Z"/><path class="cls-9" d="M540.34,252.05H440.55a1.56,1.56,0,0,1-1.56-1.56h0a1.56,1.56,0,0,1,1.56-1.56h99.79a1.56,1.56,0,0,1,1.56,1.56h0A1.56,1.56,0,0,1,540.34,252.05Z"/><path class="cls-9" d="M504.18,244.15H440.55a1.56,1.56,0,0,1-1.56-1.56h0a1.56,1.56,0,0,1,1.56-1.56h63.63a1.56,1.56,0,0,1,1.56,1.56h0A1.56,1.56,0,0,1,504.18,244.15Z"/><path class="cls-9" d="M540.47,235.94H479.66a1.42,1.42,0,0,1-1.42-1.43h0a1.42,1.42,0,0,1,1.42-1.43h60.81a1.43,1.43,0,0,1,1.43,1.43h0A1.43,1.43,0,0,1,540.47,235.94Z"/><path class="cls-9" d="M473,236.07H440.55a1.56,1.56,0,0,1-1.56-1.56h0a1.56,1.56,0,0,1,1.56-1.56H473a1.56,1.56,0,0,1,1.56,1.56h0A1.56,1.56,0,0,1,473,236.07Z"/><path class="cls-9" d="M540.47,244H514.13a1.43,1.43,0,0,1-1.43-1.43h0a1.43,1.43,0,0,1,1.43-1.43h26.34a1.43,1.43,0,0,1,1.43,1.43h0A1.43,1.43,0,0,1,540.47,244Z"/><path class="cls-22" d="M481.69,10l2.11,15.87-11.27-8.23L438,0l26.68,2.44s13.59,3.3,14.32,4A32,32,0,0,1,481.69,10Z"/><polygon class="cls-23" points="493.5 0.41 438.04 0 481.69 9.98 493.5 0.41"/><polygon class="cls-23" points="463.86 25.94 478.39 14.27 438.04 0 463.86 25.94"/><path class="cls-23" d="M550.28,95.72l-.73-1.08a15.09,15.09,0,0,0,3.06-2.77l1,.84A16,16,0,0,1,550.28,95.72Z"/><path class="cls-23" d="M557.62,85.07l-1.24-.39a37,37,0,0,0,1.48-8.13l1.31.1A37.78,37.78,0,0,1,557.62,85.07Zm1.5-17-1.3.14c0-.36-.08-.72-.12-1.08a36.09,36.09,0,0,0-.7-3.65c-.27-1.11-.61-2.23-1-3.33l1.23-.43c.4,1.14.75,2.3,1,3.45A35.61,35.61,0,0,1,559,67C559,67.36,559.08,67.74,559.12,68.11Zm-6.7-15.38a48.09,48.09,0,0,0-4.95-6.67l1-.86a50.15,50.15,0,0,1,5.09,6.85Zm-40.8-3.09a7.3,7.3,0,0,1-4.61-.59,6.88,6.88,0,0,1-2.62-2.95l1.17-.57a5.47,5.47,0,0,0,2.12,2.39,6,6,0,0,0,3.62.46l.13-.05.19-.12.73,1.09-.23.15A1.69,1.69,0,0,1,511.62,49.64Zm29.9-9.41a69.21,69.21,0,0,0-6.69-5l.72-1.09a68.68,68.68,0,0,1,6.82,5.09ZM517.05,42l-1.28-.27a11.76,11.76,0,0,0,.26-2.44,14.44,14.44,0,0,0-.44-3.52,16.8,16.8,0,0,0-.61-1.95l1.23-.46a19.42,19.42,0,0,1,.65,2.1,16,16,0,0,1,.48,3.84A13.69,13.69,0,0,1,517.05,42Zm-11.48-4-1.18-.56a13.1,13.1,0,0,1,6.1-6l.18-.09.56,1.19-.17.08A11.79,11.79,0,0,0,505.57,37.94Zm21.67-5.86a26.88,26.88,0,0,0-5.16-1.2c-1.05-.05-2-.06-2.92,0l0-1.31c1,0,1.94,0,3,0a29.63,29.63,0,0,1,5.48,1.27ZM510.75,26.8a28,28,0,0,0-6.19-5.39l.7-1.1A29.15,29.15,0,0,1,511.74,26Z"/><path class="cls-23" d="M497.06,18.06a26.15,26.15,0,0,0-4.12-.77l.13-1.3a25.5,25.5,0,0,1,4.34.82Z"/><path class="cls-12" d="M160.12,350h.49l27.22-.3a5.12,5.12,0,0,1,5.17,5.4L189.43,420a5.12,5.12,0,0,1-3.66,4.63,88.8,88.8,0,0,1-49.16.54,5.13,5.13,0,0,1-3.76-4.55l-5-64.83a5.13,5.13,0,0,1,5.05-5.52Z"/><path class="cls-9" d="M126.15,341.67c.68-2.62,2.48-4.37,4.51-4.39L160,337h.49l29.31-.32c2,0,3.87,1.68,4.61,4.29l2.47,8.67a3.84,3.84,0,0,1-3.65,4.89l-32.55.36h-.49l-32.54.36a3.84,3.84,0,0,1-3.76-4.8Z"/><path class="cls-9" d="M130.65,332.56a2.2,2.2,0,0,1,2.17-2.22l27.08-.3h.49l27.08-.3a2.19,2.19,0,0,1,2.22,2.17l.07,6.59L160.22,337l-29.5,2.18Z"/><path class="cls-19" d="M194.57,366.92l-2.15,29.52a1.21,1.21,0,0,1-.86,1.07,119.45,119.45,0,0,1-61.34.67,1.2,1.2,0,0,1-.88-1l-2.8-29.47a1.19,1.19,0,0,1,1.42-1.29c14.5,2.89,50.73,2.49,65.17-.72A1.19,1.19,0,0,1,194.57,366.92Z"/><path class="cls-15" d="M151.61,382.38a11.74,11.74,0,1,0,13.66-9.44A11.74,11.74,0,0,0,151.61,382.38Z"/><path class="cls-8" d="M546.2,362.22s-4.15,5-2.75,15.31l2.43.05a28,28,0,0,1,5-13.47Z"/><path class="cls-15" d="M551.46,374.8c-5.36,1.85-8.9,1.78-14.18-.3s-25.22-1.23-26.18,21.86,19.08,29.4,24.83,29.1a46,46,0,0,0,6-.86,11.74,11.74,0,0,1,1.39-.06,12.86,12.86,0,0,1,1.39.12,46.16,46.16,0,0,0,6,1.11c5.73.54,26-4.92,26-28S556.83,373,551.46,374.8Z"/><path class="cls-24" d="M561.45,375.06a32.27,32.27,0,0,1,.86,7.67c0,23.11-20.3,28.57-26,28a46.16,46.16,0,0,1-6-1.11,12.86,12.86,0,0,0-1.39-.12,11.74,11.74,0,0,0-1.39.06,46,46,0,0,1-6,.86,21.58,21.58,0,0,1-8.73-2.07c4.86,13.34,18.53,17.31,23.12,17.08a46,46,0,0,0,6-.86,11.74,11.74,0,0,1,1.39-.06,12.86,12.86,0,0,1,1.39.12,46.16,46.16,0,0,0,6,1.11c5.73.54,26-4.92,26-28C576.71,383.06,568.68,377,561.45,375.06Z"/><path class="cls-2" d="M626.75,428.13H9a1.88,1.88,0,0,1-1.89-1.88h0A1.88,1.88,0,0,1,9,424.36H626.75a1.89,1.89,0,0,1,1.89,1.89h0A1.89,1.89,0,0,1,626.75,428.13Z"/><rect class="cls-9" x="426.28" y="413.45" width="72.61" height="4.03"/><path class="cls-9" d="M428.31,382.3l-1.1,5.06a3.58,3.58,0,0,0,2.76,4.27l64.84,13.68a3.57,3.57,0,0,0,4.27-2.9l.57-3.32a3.58,3.58,0,0,0-1.82-3.76l-19.42-10.56a3.85,3.85,0,0,0-1.32-.42l-44.49-4.8-.32,0A3.56,3.56,0,0,0,428.31,382.3Z"/><path class="cls-8" d="M493.89,397.35s9.26,6.74,2.52,17.86l.4,2.87,11.88.81,10.87-2.22,2-18.12L495.5,390.8Z"/><rect class="cls-7" x="418.5" y="415.21" width="104.28" height="8.84" rx="1.08"/><path class="cls-7" d="M420.83,381.13l74.11,17.48a3.5,3.5,0,0,0,1.79-.05c2.92-.84,12.81-2.92,21.13,4.18a3.53,3.53,0,0,0,5.7-1.7l1.33-4.66a3.53,3.53,0,0,0-1.53-4c-10.76-6.73-57.86-34.93-88.87-32.78a8.89,8.89,0,0,0-7.05,4.35l-8.08,13.7A2.32,2.32,0,0,0,420.83,381.13Z"/><path class="cls-9" d="M512.58,408.13a4.43,4.43,0,1,1-4.43-4.43A4.43,4.43,0,0,1,512.58,408.13Z"/><polygon class="cls-9" points="383.41 57.34 387.35 60.4 391.87 58.06 396.06 61.8 400.1 57.83 405.02 61.84 409.2 58.65 414.56 61.74 413.39 63.77 409.38 61.46 404.97 64.83 400.25 60.97 396.13 65 391.52 60.88 387.1 63.16 383.44 60.33 380.86 62.43 379.38 60.62 383.41 57.34"/></g></g></g></svg>