<svg xmlns="http://www.w3.org/2000/svg" viewBox="0 0 92.24 88.24"><defs><style>.cls-1{fill:#7a7a7a;}.cls-2{fill:#5a5a5a;}.cls-3{fill:#696969;}.cls-4{fill:#6c6c6c;}.cls-5{fill:#676767;}.cls-6{fill:#6a6a6a;}.cls-7{fill:#6b6b6b;}.cls-8{fill:#6e6e6e;}.cls-9{fill:#666;}.cls-10{fill:#6d6d6d;}.cls-11{fill:#fdfdfd;}.cls-12{fill:#fcfcfc;}.cls-13{fill:#fbfbfb;}.cls-14{fill:#fafafa;}.cls-15{fill:#f3f3f3;}.cls-16{fill:#f5f5f5;}.cls-17{fill:#f8f8f8;}.cls-18{fill:#e4e4e4;}.cls-19{fill:#e5e5e5;}.cls-20{fill:#dfdfdf;}.cls-21{fill:#e2e2e2;}.cls-22{fill:#e3e3e3;}.cls-23{fill:#e0e0e0;}.cls-24{fill:#e1e1e1;}.cls-25{fill:#dadada;}.cls-26{fill:#2e2e2e;}.cls-27{fill:#767676;}.cls-28{fill:#7e7e7e;}.cls-29{fill:#777;}.cls-30{fill:#737373;}.cls-31{fill:#313131;}.cls-32{fill:#323232;}.cls-33{fill:#424242;}.cls-34{fill:#7b7b7b;}.cls-35{fill:#717171;}.cls-36{fill:#5b5b5b;}.cls-37{fill:#5f5f5f;}.cls-38{fill:#5c5c5c;}.cls-39{fill:#646464;}.cls-40{fill:#707070;}.cls-41{fill:#555;}.cls-42{fill:#6f6f6f;}.cls-43{fill:#757575;}.cls-44{fill:#787878;}</style></defs><g id="Layer_2" data-name="Layer 2"><g id="Layer_1-2" data-name="Layer 1"><path class="cls-1" d="M47.43,0A45.9,45.9,0,0,1,81,15.38a42.5,42.5,0,0,1,10.37,21,43.37,43.37,0,0,1,.77,11.81,39.68,39.68,0,0,1-5.38,17.22C80,77,69.85,83.94,56.94,87a44.3,44.3,0,0,1-12.52,1.18C31.8,87.58,20.85,83.07,12,74A41.15,41.15,0,0,1,.83,53.11,37.55,37.55,0,0,1,.22,41.24,45.06,45.06,0,0,1,35.28,1.3,51.8,51.8,0,0,1,47.43,0Z"/><path class="cls-2" d="M12.94,15.52a23.28,23.28,0,0,1,2.16-2.17,20.34,20.34,0,0,1,2.16-1.88h0c.29-.21.54-.46.82-.67h0c.91-.84,2-1.41,3-2.16.9-.52,1.78-1.06,2.68-1.57A53.34,53.34,0,0,1,30,4.17c.84-.18,1.6-.62,2.43-.82h0A52.89,52.89,0,0,1,37.82,2a49.43,49.43,0,0,1,7.39-.7A46.6,46.6,0,0,1,54,2a37.25,37.25,0,0,1,4.31,1A42.88,42.88,0,0,1,67,6.31,44.6,44.6,0,0,1,73.6,10.4c.7.52,1.37,1.07,2.05,1.61.44.33.78.77,1.22,1.09h0c.78.66,1.37,1.52,2.17,2.15a44.48,44.48,0,0,1,5.12,6.56c.49.79,1,1.58,1.48,2.38a49.55,49.55,0,0,1,2.69,5.94,8,8,0,0,0,.29.82l0,.51A49.16,49.16,0,0,1,90,37.12a42.54,42.54,0,0,1,.61,7.47,35.51,35.51,0,0,1-.42,5.35c0,.29,0,.59-.1.86a42.48,42.48,0,0,1-1,4.45c-.16.55-.32,1.1-.53,1.63a41.81,41.81,0,0,1-2,5,40.61,40.61,0,0,1-2.8,5,34,34,0,0,1-3.62,4.74l-.25.3c-.72.73-1.42,1.47-2.15,2.18h0a8.54,8.54,0,0,0-1.34,1.28,44.14,44.14,0,0,1-7.33,5.33L67,81.88a43.33,43.33,0,0,1-6.49,2.7,42.75,42.75,0,0,1-5.2,1.36c-1.36.25-2.73.48-4.11.63a44.74,44.74,0,0,1-10.15,0,47.35,47.35,0,0,1-6.46-1.19c-1.47-.4-2.9-.89-4.35-1.34-.85-.32-1.7-.66-2.54-1a20.15,20.15,0,0,1-2.33-1.15,14,14,0,0,1-2.64-1.42c-1.11-.68-2.19-1.41-3.29-2.12a5.27,5.27,0,0,0-1.23-.92h0c-1.05-.88-2.13-1.73-3.11-2.7A42.67,42.67,0,0,1,10.7,70,43.93,43.93,0,0,1,7.48,65.4a38.07,38.07,0,0,1-3.77-8.23c-.41-1.28-.82-2.56-1.12-3.88A39.51,39.51,0,0,1,1.6,46,40.73,40.73,0,0,1,1.87,39,44.28,44.28,0,0,1,3.67,31a52.18,52.18,0,0,1,2.84-6.67,27,27,0,0,1,1.56-2.48c.43-.73.92-1.43,1.37-2.14h0C10.58,18.3,11.71,16.87,12.94,15.52Z"/><path class="cls-3" d="M69.16,80.67c.18-.44.66-.5,1-.71,1.91-1.2,3.68-2.58,5.47-3.94.3-.23.57-.5.85-.75.07-.06.12-.06.18,0a11.26,11.26,0,0,1-2.21,1.93,47.8,47.8,0,0,1-4.7,3.3A.91.91,0,0,1,69.16,80.67Z"/><path class="cls-4" d="M60.51,84.58c0-.21.17-.21.32-.26A27.29,27.29,0,0,0,66.36,82a1,1,0,0,1,.64-.13,5,5,0,0,1-1.74,1c-1.28.56-2.6,1-3.9,1.56A1.56,1.56,0,0,1,60.51,84.58Z"/><path class="cls-5" d="M12.94,15.52c-.3.76-1,1.23-1.44,1.89a16.35,16.35,0,0,0-1.7,2.18c-.07.14-.22.14-.36.14a10.37,10.37,0,0,1,1.42-2,24.38,24.38,0,0,1,1.83-2.12C12.74,15.55,12.86,15.55,12.94,15.52Z"/><path class="cls-6" d="M25.37,81.9c.43,0,.75.26,1.1.42a21.58,21.58,0,0,0,3.59,1.49c.13,0,.16.13.18.25a2,2,0,0,1-1.14-.33c-1.11-.45-2.2-.94-3.3-1.4C25.57,82.24,25.38,82.18,25.37,81.9Z"/><path class="cls-7" d="M37.82,2a5.19,5.19,0,0,1-2,.53,23.06,23.06,0,0,1-3.38.8,1.9,1.9,0,0,1,1.1-.44A19.29,19.29,0,0,1,37.82,2Z"/><path class="cls-3" d="M15.09,74.74s.1,0,.13,0c1,.92,2.09,1.68,3,2.69,0,0-.05,0-.06,0A11.92,11.92,0,0,1,15.09,74.74Z"/><path class="cls-3" d="M58.35,3a1.77,1.77,0,0,1-.46,0c-1.17-.36-2.38-.55-3.57-.8-.11,0-.22,0-.28-.16A11.19,11.19,0,0,1,58.35,3Z"/><path class="cls-8" d="M21.06,8.64c0,.49-.54.48-.82.68a10.73,10.73,0,0,1-2.16,1.48c0-.45.45-.56.71-.73A10.33,10.33,0,0,1,21.06,8.64Z"/><path class="cls-9" d="M77.83,74.06A7.57,7.57,0,0,1,80,71.88,6.78,6.78,0,0,1,77.83,74.06Z"/><path class="cls-10" d="M79,15.25a7.93,7.93,0,0,1-2.17-2.15c.33,0,.46.25.64.43C78,14.09,78.53,14.68,79,15.25Z"/><path class="cls-8" d="M17.26,11.47a9.93,9.93,0,0,1-2.16,1.88A4.81,4.81,0,0,1,17.26,11.47Z"/><path class="cls-7" d="M32.4,3.35A6.15,6.15,0,0,1,30,4.17,7.2,7.2,0,0,1,32.4,3.35Z"/><path class="cls-3" d="M18.21,77.44a1.44,1.44,0,0,1,1.23.92A2.46,2.46,0,0,1,18.21,77.44Z"/><path class="cls-10" d="M76.87,13.1A2.25,2.25,0,0,1,75.65,12,2.59,2.59,0,0,1,76.87,13.1Z"/><path class="cls-9" d="M76.65,75.29l-.18,0c.41-.45.73-1,1.36-1.21A8.07,8.07,0,0,1,76.65,75.29Z"/><path class="cls-8" d="M18.08,10.8a1,1,0,0,1-.82.67A1,1,0,0,1,18.08,10.8Z"/><path class="cls-11" d="M88.88,37.42a24.25,24.25,0,0,1,.44,3.9A26.06,26.06,0,0,1,89.17,47a13,13,0,0,1-3.83,1,18.79,18.79,0,0,1-7.91-.91c-.89-.24-1.78-.5-2.68-.71a12.85,12.85,0,0,0-7.79.53,17.7,17.7,0,0,1-8.8,1.22,10.53,10.53,0,0,1-4.54-1.81,1.91,1.91,0,0,1-.81-1,4.23,4.23,0,0,1,0-.94,1.43,1.43,0,0,1,.07-.46,3.84,3.84,0,0,1,3.65-2.33,23.5,23.5,0,0,1,7.07.93,34.67,34.67,0,0,0,11.26.85,30.47,30.47,0,0,0,6.69-1.24,13.32,13.32,0,0,0,4.58-2.4,16.4,16.4,0,0,1,1.52-1.11c.35-.16.7-.32.83-.73a1.44,1.44,0,0,1,.14-.55C88.74,37.19,88.82,37.29,88.88,37.42Z"/><path class="cls-11" d="M88.23,53.79A35.55,35.55,0,0,1,85,62.48,40.15,40.15,0,0,1,76.24,74c-.19.1-.23-.36-.46-.14-3.24,0-6.38-.45-9.13-2.35a14.35,14.35,0,0,1-3.49-3.55c-.12-.18-.31-.38-.17-.61s.4-.17.63-.15a42.12,42.12,0,0,1,14,3.68c.69.31.86.29,1.35-.27.76-.89,1.46-1.82,2.19-2.75a.94.94,0,0,0,.05-1.23,6.92,6.92,0,0,1-.73-1.37c-.17-.37-.07-.6.36-.66s.84-.12,1.27-.16c1.41-.11,1.8-.44,2.24-1.89a19.5,19.5,0,0,1-7.76-2.31c-3-1.54-6-3.2-9.16-4.48a5.85,5.85,0,0,1-1.91-1.25c-.19-.19-.41-.41-.3-.71s.43-.27.7-.29a17.25,17.25,0,0,1,8.71,1.75,33.68,33.68,0,0,0,11.08,3.06c.58.07,1.25-.79,1.09-1.37-.08-.27-.31-.22-.5-.25a24.69,24.69,0,0,1-4.86-1.14,8.12,8.12,0,0,1-2.36-1.42,1.72,1.72,0,0,1-.36-.4c-.13-.2-.34-.41-.21-.67a.57.57,0,0,1,.66-.22c.81.13,1.62.08,2.43.14a27.27,27.27,0,0,0,6.19.11.78.78,0,0,1,.4,0C88.39,53.28,88.3,53.54,88.23,53.79Z"/><path class="cls-11" d="M64.84,81.6a44.59,44.59,0,0,1-28.47,3,40.66,40.66,0,0,1-10.86-4c0-.33.34-.26.49-.42,1.12-.75,2.21-1.55,3.26-2.4a5,5,0,0,1,.68-.45c1-.56,1.73-.18,1.81,1a9.9,9.9,0,0,1-.34,3.55c-.16.55-.06.84.51,1s1,.48,1.41.36.3-.84.45-1.29a15.76,15.76,0,0,1,1-2.57c.46-.85.74-.89,1.38-.15a12.21,12.21,0,0,1,2.42,4,2,2,0,0,0,2.08,1.58C42,85,42,85,41.58,83.8a8.31,8.31,0,0,0-1.77-3,35.49,35.49,0,0,1-3-3.89c-1.2-1.82-.75-3.65,1.17-5a9.29,9.29,0,0,1,3.34-1.4c.46-.11.69,0,.64.54a10.55,10.55,0,0,0,1.26,6.06,11.56,11.56,0,0,0,2.74,3.25c0-.51-.09-.88-.12-1.27a9.55,9.55,0,0,1,.84-5.78,4.46,4.46,0,0,1,.86-1.12c.55-.48.87-.48,1.37.11a29.59,29.59,0,0,0,2.23,2.25,30.9,30.9,0,0,0,5.24,4,15.67,15.67,0,0,1,3.73,3.58c.58.71.58.71,1.47.37s1-.4.6-1.36c-.24-.61-.43-1.23-.67-1.84-.1-.24-.27-.56,0-.74s.48.08.65.25c.69.68,1.47,1.25,2.13,2,.19.2.4.37.59.56A.23.23,0,0,1,64.84,81.6Z"/><path class="cls-11" d="M73.24,76.5a36.9,36.9,0,0,1-6.06,3.92c-.25.13-.47.22-.65-.12a1.27,1.27,0,0,0-.68-.59c-2.71-2.27-5.6-4.31-8.49-6.35a46.26,46.26,0,0,1-4.57-3.68,9.19,9.19,0,0,1-3.13-9.3c.18-.8.4-.89,1.12-.5a16.93,16.93,0,0,1,5.63,5.63A55.14,55.14,0,0,0,60,70.63a13.29,13.29,0,0,0,1.83,1.69c1.91,1.5,3.93,2.85,5.79,4.43.5.43.93.91,1.41,1.35a1.16,1.16,0,0,0,1.6-.37c.09-.21-.06-.34-.16-.49a3.7,3.7,0,0,1-.63-1.33c-.07-.36,0-.71.46-.62a16.87,16.87,0,0,1,3.14.74C73.63,76.3,73.32,76.35,73.24,76.5Z"/><path class="cls-11" d="M22.5,78.94a36.06,36.06,0,0,1-7-5.44,1.1,1.1,0,0,1-.22-.84,1.62,1.62,0,0,1,.95-.71,8.8,8.8,0,0,1,3.67-.78c1.62,0,3.24,0,4.86.09A16.14,16.14,0,0,0,27.93,71c1.22-.15,1.79.51,1.45,1.7a6.34,6.34,0,0,1-1.72,2.79A18.72,18.72,0,0,1,23,78.77C22.84,78.85,22.71,79,22.5,78.94Z"/><path class="cls-11" d="M86.46,28.91a32.32,32.32,0,0,1,1.26,3.45c.13.52.27,1,.4,1.55a.29.29,0,0,1-.22.1h-.17c-.33.09-.47.39-.66.62a17.31,17.31,0,0,1-7.13,3.65c-.37.1-.73.13-.91-.32a21.39,21.39,0,0,1,0-3.3.93.93,0,0,1,.52-.58,45.76,45.76,0,0,0,6.52-5C86.18,29,86.27,28.85,86.46,28.91Z"/><path class="cls-12" d="M3.19,38.47l0-.37c0-.41.2-.56.54-.21,1.66,1.1,3.08,2.56,4.91,3.43A22.28,22.28,0,0,0,14,42.92a17.85,17.85,0,0,0,3.41.41.54.54,0,0,1,.53.23c0,.53-.3.74-.83.72a9.87,9.87,0,0,1-3.06-.41.72.72,0,0,0-.74.12.77.77,0,0,1-1.28-.3.92.92,0,0,0-1.15-.56,1,1,0,0,1-1.08-.36,1.9,1.9,0,0,0-1.66-.71c-.29,0-.59,0-.88,0-.48,0-.86-.12-.76-.74A.34.34,0,0,0,6.44,41a17.15,17.15,0,0,0-1.35-1.21c-.24-.15-.46-.2-.44.25a6.09,6.09,0,0,0,0,1.54c.07.26-.1.42-.36.47a1.14,1.14,0,0,0-.45.1c-.23.16-.45.22-.24.64a1.66,1.66,0,0,1-.11,1.74,1.5,1.5,0,0,0-.28.95.63.63,0,0,0,.42.67,1.29,1.29,0,0,1,.68,1.72c-.27.16-.59-.22-.75,0s0,.64,0,1a21.71,21.71,0,0,0,.36,2.4.59.59,0,0,1,0,.13A1.59,1.59,0,0,0,5.4,53a9.67,9.67,0,0,1,1.78.63c.18.08.42.14.4.4s-.27.28-.46.33c-.54.17-1.1.25-1.65.37-.29.07-.65.06-.58.55.1.71.36,1.08.82,1,1.31-.12,2.61,0,3.92-.06a19.48,19.48,0,0,1,2.15.18c.24,0,.53.06.6.34s-.14.41-.29.57a4.79,4.79,0,0,1-1.22.83A20.69,20.69,0,0,1,7,59.87a2.26,2.26,0,0,1-1-.28,35.29,35.29,0,0,1-2.49-8.28A37.83,37.83,0,0,1,3,40.53C3,39.84,3.14,39.16,3.19,38.47Z"/><path class="cls-12" d="M80,18.11A31.7,31.7,0,0,1,82.87,22,32.44,32.44,0,0,1,85,25.67a.85.85,0,0,1,0,.7,23.52,23.52,0,0,1-3.49,3.42,17,17,0,0,1-2.18,1.57c-.21.11-.4.31-.66.08A1.85,1.85,0,0,1,78.43,30c.14-.16.33-.12.5-.09a.61.61,0,0,0,.51-.13,5.62,5.62,0,0,1,2.14-1.53c.19-.07.23-.32.25-.53a3.79,3.79,0,0,1,.06-.67c.22-1,.52-1.22,1.55-1.06,0,0,0-.09,0-.09-1.13.05-2.3-.12-3.29.62a.81.81,0,0,1-.83.13,1.06,1.06,0,0,0-1.42.34.26.26,0,0,1-.25.07,1.18,1.18,0,0,1-.46-1.18c.16-.32.48-.38.79-.46A16.48,16.48,0,0,1,82.51,25,4.43,4.43,0,0,0,84,25a8,8,0,0,0-.87-1.61c-.24-.34-.6-.34-1-.36a24.68,24.68,0,0,0-5.87.58,2.53,2.53,0,0,1-1-1.65,10.58,10.58,0,0,1,4.24-3.66C79.68,18.22,79.77,18.07,80,18.11Z"/><path class="cls-11" d="M61.33,5.11a34.77,34.77,0,0,1,6.75,3.13.34.34,0,0,1-.11.37,7.49,7.49,0,0,1-3.67,1.76,3.26,3.26,0,0,1-1-.51,38.05,38.05,0,0,0-5.37-2.52A1.15,1.15,0,0,1,57.39,7c-.06-.25.12-.37.29-.48a11,11,0,0,1,2.4-1.33A1.14,1.14,0,0,1,61.33,5.11Z"/><path class="cls-11" d="M18.48,12a36.1,36.1,0,0,1,5-3.39c.25-.11.37,0,.43.23a.79.79,0,0,0,.34.46,9.14,9.14,0,0,1,1.63,2.44,6.63,6.63,0,0,1-1.57,1.42c-.43.37-.75.91-1.39,1A8,8,0,0,1,19,12.53C18.87,12.3,18.47,12.35,18.48,12Z"/><path class="cls-12" d="M14.57,15.55a22.85,22.85,0,0,1,2-1.93c.41,0,.34.53.66.68a5,5,0,0,0,.76.41c.8.39,1.54.9,2.34,1.3a.61.61,0,0,1,.38.43A15.25,15.25,0,0,1,18.9,19c-.32.46-.52,1.05-1.09,1.33a2.52,2.52,0,0,1-1.18-.93,14.93,14.93,0,0,1-2-3.34C14.62,15.89,14.38,15.76,14.57,15.55Z"/><path class="cls-12" d="M3.87,34.83a8.87,8.87,0,0,1,.54-2c.32-.64.83-.63,1.4-.38a6.35,6.35,0,0,1,2.71,2.26,23.78,23.78,0,0,0,2.8,3.52c.16.14.4.33.23.57s-.41.11-.63.07a13.49,13.49,0,0,1-3.6-1.49c-.66-.38-1.34-.74-2-1.18a7.44,7.44,0,0,0-1.43-1A.28.28,0,0,1,3.87,34.83Z"/><path class="cls-13" d="M6.85,26.46a27.73,27.73,0,0,1,2-3.66c.18-.06.23.08.3.2A17.48,17.48,0,0,0,12,27a12.32,12.32,0,0,0,1.7,1.61.84.84,0,0,1,.36.48,2.58,2.58,0,0,1-.3,1.18.61.61,0,0,1-.69-.13,18.14,18.14,0,0,0-5.65-2.64,1,1,0,0,1-.58-.31A.75.75,0,0,1,6.85,26.46Z"/><path class="cls-12" d="M10.5,20.37a22.36,22.36,0,0,1,1.63-2.14c.23-.08.37.08.52.19a27.49,27.49,0,0,0,2.62,3.82c.3.37.76.64.89,1.15A11.32,11.32,0,0,1,15,26.07c-.3.11-.45-.12-.62-.28a16.36,16.36,0,0,1-3.78-5C10.57,20.66,10.42,20.55,10.5,20.37Z"/><path class="cls-12" d="M33.63,4.2a34.89,34.89,0,0,1,6.06-1.26c.4-.18.3.27.48.37a3.6,3.6,0,0,1,1.11,1.61c.06.19.18.38,0,.56-.34.28-.77.22-1.16.29-1.19.21-2.35.57-3.54.8A6.3,6.3,0,0,1,34.38,5a1.58,1.58,0,0,0-.65-.43C33.57,4.5,33.26,4.44,33.63,4.2Z"/><path class="cls-13" d="M70.94,10a21.44,21.44,0,0,1,3.23,2.45c.09.46-.31.6-.56.83a9.78,9.78,0,0,1-2.88.54c-.48.08-1,.12-1.46.21s-.68-.26-1-.5a3.67,3.67,0,0,1-1.09-1.06.37.37,0,0,1,.25-.35,17.35,17.35,0,0,0,3-2.11A.46.46,0,0,1,70.94,10Z"/><path class="cls-14" d="M76.77,14.69a6.83,6.83,0,0,1,1.08,1.07c.06.3-.22.36-.35.53a17.88,17.88,0,0,0-3.51,3,.31.31,0,0,1-.24.1c-.51-.25-.7-.78-1-1.17s-.57-.74-.88-1.1c-.16-.19-.37-.4-.18-.7.85-.38,1.78-.4,2.66-.7a8.28,8.28,0,0,0,2.16-1A.47.47,0,0,1,76.77,14.69Z"/><path class="cls-15" d="M5.91,59.59c.36-.25.63.16,1,.14a2.81,2.81,0,0,0,.63,2.05.44.44,0,0,0,.44,0,.75.75,0,0,1,.64,0c.07.41-.37.64-.35,1-.19.24,0,.43.09.62.41.75.85,1.48,1.31,2.2a1.32,1.32,0,0,0,.93.6l2.11.43c.16,0,.41,0,.4.27s-.24.3-.44.32c-.36,0-.72,0-1.08.1-.63.13-.63.12-.28.62.13.19.27.36.39.56a1.41,1.41,0,0,0,1.8.76,2.11,2.11,0,0,1,1,0c.48.06.57.28.26.68a8.2,8.2,0,0,1-.65.67c-.2.21-.28.41-.05.64a8.59,8.59,0,0,0,1.36,1.4l.13.8a36,36,0,0,1-5.75-6.75A34.32,34.32,0,0,1,5.91,59.59Z"/><path class="cls-14" d="M51.48,2.81a31.84,31.84,0,0,1,4.44.72c.16.44-.37.44-.47.71-.7.56-1.33,1.19-2.08,1.68a15.26,15.26,0,0,1-3.22-.54.26.26,0,0,1,0-.29,21.13,21.13,0,0,0,1.41-1.86.6.6,0,0,0-.13-.09c-.14-.07-.37-.1-.32-.28S51.33,2.75,51.48,2.81Z"/><path class="cls-16" d="M26.18,7.14a25.86,25.86,0,0,1,4.46-1.92,1.78,1.78,0,0,1,.27,1.39,2.52,2.52,0,0,0,.18,1.88c-.07.34-.3.39-.59.36-.45-.32-.38-.83-.43-1.28a10.92,10.92,0,0,1,0-1.28c0-.25-.11-.32-.34-.24a8.71,8.71,0,0,0-1.28.59.66.66,0,0,0-.3.63,7.92,7.92,0,0,0,.1,1.54c0,.27.08.61-.19.74s-.47-.17-.66-.35A1.76,1.76,0,0,1,27,8.64a2.1,2.1,0,0,0-.6-.84C26.26,7.62,26,7.45,26.18,7.14Z"/><path class="cls-17" d="M31.07,8.5A.41.41,0,0,1,30.65,8a5.38,5.38,0,0,1,.13-1.64c.14-.36-.23-.75-.14-1.15,0-.12.15-.12.25-.12s.32-.1.46,0c.28.74,1,1.15,1.45,1.72.2.23.52.38.47.76A4.06,4.06,0,0,1,31.07,8.5Z"/><path class="cls-16" d="M47.85,2.53l1.17,0c0,.34-.31.26-.51.3a1.65,1.65,0,0,0-.66.09,5.74,5.74,0,0,0-1.14,1.61c-.09.19-.13.43-.37.51A.45.45,0,0,1,46,5a5,5,0,0,1-.83-1.25,1.45,1.45,0,0,0-1.35-.93c-.23,0-.56.09-.64-.29l1.06,0A28.35,28.35,0,0,1,47.85,2.53Z"/><path class="cls-18" d="M55.39,4.15c0-.36.51-.28.53-.62a29.94,29.94,0,0,1,5.41,1.58c-.46-.15-.83.14-1.24.26,0-.26-.26-.27-.45-.34-1-.38-2.06-.56-3.08-.89C56.15,4,55.78,4.29,55.39,4.15Z"/><path class="cls-19" d="M43.22,2.56c.23.22.51.1.77.12a1.6,1.6,0,0,1,1.39,1.09.53.53,0,0,1-.53-.22A1.92,1.92,0,0,0,43,3c-1,.11-2,.22-3,.31-.25,0,0-.44-.31-.41A19.16,19.16,0,0,1,43.22,2.56Z"/><path class="cls-20" d="M26.18,7.14c0,.36.34.5.53.74s.45.32.41.65a.68.68,0,0,1-.56-.32.77.77,0,0,0-1.17-.15,3.58,3.58,0,0,1-.48.24c-.48.22-.88.5-.73,1.13-.56,0-.26-.74-.72-.82A14.88,14.88,0,0,1,26.18,7.14Z"/><path class="cls-18" d="M73.24,76.5l.25-.47c.05-.46.43-.67.73-.92l1.69-1.45c.28-.1.17.25.33.29A18.74,18.74,0,0,1,73.24,76.5Z"/><path class="cls-21" d="M12.55,18.48l-.42-.25a22.18,22.18,0,0,1,2.44-2.68c0,.2.23.23.24.41C14,16.75,13.28,17.62,12.55,18.48Z"/><path class="cls-22" d="M22.5,78.94l.32-.29c1.08.58,2.13,1.23,3.23,1.77-.11.22-.42,0-.54.25A15.55,15.55,0,0,1,22.5,78.94Z"/><path class="cls-23" d="M18,14.84a1.81,1.81,0,0,1-1.37-1.22A17.28,17.28,0,0,1,18.48,12c.12.23.53,0,.55.4a5.06,5.06,0,0,0-1.62,1.12c-.3.24-.29.45,0,.69S18,14.47,18,14.84Z"/><path class="cls-22" d="M76.77,14.69l-.34,0a1.67,1.67,0,0,1-1-.63,2.53,2.53,0,0,0-1.8-1c.14-.25.48-.34.54-.66A14.08,14.08,0,0,1,76.77,14.69Z"/><path class="cls-20" d="M77.41,16.18l.44-.42A13.79,13.79,0,0,1,80,18.11c-.11.05-.11.23-.27.23a5.73,5.73,0,0,1-1.19-1.22A5.36,5.36,0,0,0,77.41,16.18Z"/><path class="cls-22" d="M70.94,10l-.44.13A8.9,8.9,0,0,1,68,8.49l.12-.25A13.88,13.88,0,0,1,70.94,10Z"/><path class="cls-24" d="M65.94,79.59a1,1,0,0,1,.73.61c.13.31.32.2.51.22a10.93,10.93,0,0,1-2.34,1.18v-.28c.12-.41.52-.45.82-.61s.81-.38.29-.88A.17.17,0,0,1,65.94,79.59Z"/><path class="cls-24" d="M10.5,20.37l.26.33c-.41.79-1,1.47-1.44,2.25a.3.3,0,0,1-.27.16l-.19-.31A13.63,13.63,0,0,1,10.5,20.37Z"/><path class="cls-19" d="M47.68,2.82c.4-.35.94.06,1.34-.26a10.7,10.7,0,0,1,2.46.25l-.31,0,.43.22a.64.64,0,0,1-.56.18c-1-.09-2-.2-2.94-.26A.56.56,0,0,1,47.68,2.82Z"/><path class="cls-25" d="M31.32,5.24c-.1-.15-.28-.1-.43-.14a16.57,16.57,0,0,1,2.74-.9c-.12.18,0,.22.14.25s0,.11,0,.12A4.52,4.52,0,0,1,31.32,5.24Z"/><path class="cls-19" d="M47.85,2.53H44.28A12.56,12.56,0,0,1,47.85,2.53Z"/><path class="cls-26" d="M89,47a25.22,25.22,0,0,1-.38,3.36c-.13.29-.41.33-.67.41a13.44,13.44,0,0,1-5.28.4,25.47,25.47,0,0,1-7-1.86,13.5,13.5,0,0,0-5.5-1.19,18,18,0,0,0-3.86.61,47.62,47.62,0,0,1-6.11,1.46,11.19,11.19,0,0,1-2.95.18,9.18,9.18,0,0,1-4.05-1.74c-1.32-.87-2.55-1.86-3.78-2.85-.41-.29-.68-.12-.84.29-.79,2-.68,3.52,1.63,4.81A20.22,20.22,0,0,0,52.45,52c.19.08.53.15.46.39s-.42.19-.65.15a13.29,13.29,0,0,1-3.42-1.22A2.17,2.17,0,0,0,47.42,51a3.82,3.82,0,0,0-.76,2.5A11.31,11.31,0,0,1,46.37,55c0,.16-.06.39-.31.35s-.28-.23-.29-.42a12.39,12.39,0,0,0-.16-1.6,4.14,4.14,0,0,0-.28-1.1.75.75,0,0,1-.09-.29,1.21,1.21,0,0,0-.52-1l-.16-.11c-.82-.61-.83-.68-.34-1.55a2.4,2.4,0,0,0,.29-1.36c0-.58-.23-1.14-.3-1.72a.74.74,0,0,0-.56-.62c-.32-.07-.48.17-.63.4s-.17.27-.26.39a19.33,19.33,0,0,1-4.15,2.87,7.43,7.43,0,0,1-4.57.29c-1.29-.21-2.54-.6-3.82-.83a16.49,16.49,0,0,0-6.88.5,29.76,29.76,0,0,0-4.44,1.41,22.82,22.82,0,0,1-10.16,1.7,21.36,21.36,0,0,1-4.2-.66,1.17,1.17,0,0,1-.8-.45,38,38,0,0,1-.54-3.77c.45,0,.71.36,1.09.37s.49,0,.71.14a12.73,12.73,0,0,0,4.66,1,16.71,16.71,0,0,0,4.85-.76c1.55-.42,3.07-.89,4.63-1.25a22.5,22.5,0,0,1,11.55.11,22.59,22.59,0,0,0,3.67.56,6.08,6.08,0,0,0,2.2-.24A3.32,3.32,0,0,0,39,45.2a2.49,2.49,0,0,1,1-.29,5,5,0,0,0,4.32-5.16q0-4.39,0-8.78c0-.78,0-.79-.8-.79H37.23c-.27,0-.56-.06-.6-.41s.24-.51.53-.61c.7-.25,1.42-.41,2.1-.72a8.17,8.17,0,0,0,5.13-8c0-.77,0-.76-.83-.71a8.37,8.37,0,0,1-3.34-.23,3.69,3.69,0,0,1-2.39-2.12c-.08-.19-.17-.41,0-.58s.42-.12.62-.05a8.58,8.58,0,0,0,3.57.63,3.46,3.46,0,0,0,3.27-2.55c.16-.76.06-.9-.69-1a3.47,3.47,0,0,1-2-1c-.14-.15-.29-.32-.19-.54s.3-.15.48-.14a3.31,3.31,0,0,0,2.84-.93.56.56,0,0,1,.85-.06,3.43,3.43,0,0,0,2.61,1c.26,0,.61-.05.69.29s-.18.54-.42.72a3.2,3.2,0,0,1-1.79.71c-.49,0-.62.27-.58.7a2.92,2.92,0,0,0,1.72,2.41,4.8,4.8,0,0,0,3,.38,9.55,9.55,0,0,0,1.95-.53c.23-.08.48-.23.69,0s.09.51,0,.76a3.43,3.43,0,0,1-2,1.85,7.51,7.51,0,0,1-3.12.4c-1.37,0-1.4,0-1.34,1.38a8.52,8.52,0,0,0,1.47,4.57,8.11,8.11,0,0,0,3.78,2.72,7.35,7.35,0,0,0,1.85.63.75.75,0,0,1,.25.09c.26.13.45.31.39.63s-.32.36-.57.37c-.86,0-1.71,0-2.57,0-1.3,0-2.61,0-3.91,0-.54,0-.72.2-.71.71,0,.7,0,1.4,0,2.1.05,1.57-.2,3.13-.14,4.71,0,.94.1,1.89.17,2.83a5,5,0,0,0,4.2,4.4c.27,0,.55,0,.7.32.42,1,1.41,1.35,2.28,1.79a11.63,11.63,0,0,0,7.58.77,24.13,24.13,0,0,0,5-1.37,11.42,11.42,0,0,1,7.35-.15c1.81.46,3.58,1,5.42,1.38a15.94,15.94,0,0,0,7.67-.45C88.49,47.13,88.75,47.09,89,47Z"/><path class="cls-26" d="M53,43.92l-.08.43c-.09.42-.42.43-.74.42a3.92,3.92,0,0,1-3.09-1.66A4.92,4.92,0,0,1,48,39.86a23.79,23.79,0,0,0-.11-3.16c-.11-1,.16-2,.05-3,0-.41-.11-.87.42-1.09a1.14,1.14,0,0,1,1.36.26c2.5,2,5.2,2.43,8,.85a5.07,5.07,0,0,0,.4-8.92A5.45,5.45,0,0,0,55,23.79c-.55,0-1.15-.05-1.36-.75-.16-.54,0-.8.49-1a4.67,4.67,0,0,0,2-1.21c2.07-2.2,1-5.49-2.17-6.33a4.27,4.27,0,0,0-2.13-.06,3.23,3.23,0,0,1-.87.14.88.88,0,0,1-.95-1.19,4.87,4.87,0,0,0,.22-1.74A4,4,0,0,0,45.64,8.3a4.58,4.58,0,0,0-2.31.87A3.43,3.43,0,0,0,42,13.12c.3,1.09-.16,1.61-1.28,1.43l-.8-.13a4.31,4.31,0,0,0-4.18,1.67,3.71,3.71,0,0,0,1.45,5.64A6.17,6.17,0,0,0,38,22c.48.15.59.49.56.95s-.32.64-.75.71a17.38,17.38,0,0,0-2,.37,5.43,5.43,0,0,0-4.2,4.6,4.93,4.93,0,0,0,1,3.55c2.12,2.84,6.33,3.16,9.14,1.34a4.54,4.54,0,0,0,.78-.74.91.91,0,0,1,1.1-.24.94.94,0,0,1,.61,1c0,1.45,0,2.89,0,4.33,0,.79.05,1.58,0,2.36C44,43,42.32,44.75,39.75,44.77a1.2,1.2,0,0,1-.72-.14.4.4,0,0,1-.13-.31c0-.38.27-.52.58-.61s.68-.15,1-.22A3,3,0,0,0,43,40.4c.12-1.95,0-3.91,0-5.86,0-.48-.15-.48-.49-.24a8.22,8.22,0,0,1-8.26.71,6,6,0,0,1-1.65-1,3,3,0,0,0-.79-.8,6.2,6.2,0,0,1,1.27-9.11,17.29,17.29,0,0,1,1.67-.83c.59-.21,1.2-.34,1.87-.54A10.38,10.38,0,0,1,35,21.36c-2.36-3-.88-7,2.94-7.93a4.37,4.37,0,0,1,2.27-.13c.54.15.63-.07.6-.59A4.66,4.66,0,0,1,41.1,10a5.58,5.58,0,0,1,5.36-2.82A7.12,7.12,0,0,1,49.22,8a4.54,4.54,0,0,1,2.21,4.52c-.12.81-.12.85.73.8a6.39,6.39,0,0,1,3.83.85,4.77,4.77,0,0,1,.94,7.58,7,7,0,0,1-1.16.91,8.6,8.6,0,0,1,3.58,1.63,6.12,6.12,0,0,1,.17,9.66,8,8,0,0,1-10,.25c-.3-.21-.46-.12-.45.24.05,2-.12,4,.1,6a4.54,4.54,0,0,0,.74,2A2.41,2.41,0,0,0,52,43.58C52.36,43.65,52.81,43.42,53,43.92Z"/><path class="cls-27" d="M53,43.92c-.36-.24-.76-.07-1.14-.15a.72.72,0,0,1-.15-.57,4.72,4.72,0,0,1,4.37-3.14,25.68,25.68,0,0,1,8.13,1,36.24,36.24,0,0,0,5.18.81,38.66,38.66,0,0,0,6.72-.17c.63,0,1.23-.29,1.86-.29a.82.82,0,0,0,.87-.9c0-.58.17-1.16.16-1.74,0-.22,0-.46.21-.61a5.16,5.16,0,0,0,2.44-.55A17,17,0,0,0,87,34.46c.29-.13.4-.55.79-.53h0c.27,1.13.54,2.25.8,3.37v.64a4.84,4.84,0,0,1-.8.7A27.8,27.8,0,0,1,84,41.34a23.86,23.86,0,0,1-8,2.09,34.51,34.51,0,0,1-12.07-.66,27.2,27.2,0,0,0-6.64-1,7.89,7.89,0,0,0-1.61.13A3.57,3.57,0,0,0,53,43.92Z"/><path class="cls-8" d="M49.71,33.09c-.29-.18-.51-.5-1-.38s-.68.28-.67.82c.07,2.34,0,4.7.16,7a4.12,4.12,0,0,0,4,4,.71.71,0,0,0,.66-.23c0,.3,0,.6,0,.89a5.91,5.91,0,0,1-2.54-.77,5.72,5.72,0,0,1-2.62-4.54c-.23-3.12.12-6.24,0-9.36,0-.48.15-.62.61-.61,1.42,0,2.84,0,4.25,0-.09.46-.48.32-.75.33-1,0-2,0-3,0-.55,0-.78.22-.74.76,0,.16,0,.31,0,.47,0,.76,0,.76.77.82S49.76,32.56,49.71,33.09Z"/><path class="cls-28" d="M49.46,45.69c1.28.94,2.55,1.9,3.84,2.82a7.88,7.88,0,0,0,5.33,1.72A35.12,35.12,0,0,0,64.89,49a23.12,23.12,0,0,1,5.48-1,16,16,0,0,1,6,1.49,21.78,21.78,0,0,0,8.8,1.64,11.69,11.69,0,0,0,3.42-.69l-.51,2.71a11.13,11.13,0,0,1-3.94.24L78.53,53a2.05,2.05,0,0,0,.84,1.15,10,10,0,0,0,4.09,1.82,20.27,20.27,0,0,0,3.19.55c.36,0,.47.12.37.49-.42,1.56-.44,1.59-2,1.41A36.54,36.54,0,0,1,73.67,55a15.91,15.91,0,0,0-8-1.34c-.15,0-.36-.05-.43.13s.11.28.21.39a5.62,5.62,0,0,0,2,1.32c3.32,1.4,6.48,3.13,9.7,4.74a16.24,16.24,0,0,0,7.62,2c-.35.65-.67,1.23-1,1.82-.15.29-.41.32-.68.36l-2.64.32a12.19,12.19,0,0,0,1.09,2.09.55.55,0,0,1,0,.72c-.89,1.18-1.8,2.36-2.79,3.46a.55.55,0,0,1-.75.16,42.26,42.26,0,0,0-11-3.4,37.84,37.84,0,0,0-4-.49,13.18,13.18,0,0,0,5.5,5,17.39,17.39,0,0,0,7.44,1.37c0,.35-.31.46-.5.65A24,24,0,0,0,73.49,76a25.55,25.55,0,0,1-2.9-.54c-.66-.13-.72-.06-.51.58a3.8,3.8,0,0,0,.73,1.28c.08.1.23.27.21.31-.3.45-.81.61-1.23.91a.36.36,0,0,1-.53-.07C66.91,76,64,74.27,61.4,72.14A21.69,21.69,0,0,1,57,66.66a23.31,23.31,0,0,0-4.5-5.44A13.57,13.57,0,0,0,50.62,60c-.43-.25-.66-.27-.79.34-.82,3.79.41,6.84,3.23,9.38,3,2.68,6.36,4.84,9.56,7.24,1.13.85,2.22,1.76,3.32,2.65.7.8.7.8-.3,1.29l-.81.44c-.23.06-.33-.11-.48-.26a36.63,36.63,0,0,0-3-2.65c.42,1.2.76,2.22,1.15,3.21.18.46.1.64-.38.82-1.57.59-1.62.65-2.57-.68a18.12,18.12,0,0,0-4.86-4.12,33.4,33.4,0,0,1-6.1-5.41c-.34-.37-.53-.33-.86,0a6,6,0,0,0-1.82,4.23,16.64,16.64,0,0,0,.29,4.33A11.42,11.42,0,0,1,43,77a10.85,10.85,0,0,1-1.19-6c0-.17.19-.47-.22-.37a7.84,7.84,0,0,0-4.33,2.18A3.1,3.1,0,0,0,37,77a40.33,40.33,0,0,0,3.09,3.92,8.74,8.74,0,0,1,1.92,3.89c.08.32,0,.43-.29.39l-2.48-.3c-.32,0-.33-.31-.42-.54a17,17,0,0,0-3-5.12c-.4-.46-.61-.43-.88.1A12.45,12.45,0,0,0,33.75,83c-.08.47-.24.65-.74.44s-1.43-.25-1.8-.68.16-1.2.25-1.82a10.43,10.43,0,0,0,.15-2.49c-.11-1.17-.7-1.49-1.67-.84-1.33.89-2.53,2-3.89,2.81-.91,0-1.53-.68-2.28-1.06a1.76,1.76,0,0,1-.95-.71,15.34,15.34,0,0,0,5.69-4.54,4.79,4.79,0,0,0,.75-1.64c.24-1-.19-1.43-1.17-1.32l-1.74.19c-2,.22-4-.11-6.07,0a9.27,9.27,0,0,0-4.53,1.09,2,2,0,0,0-.37.28c-.45.12-.58-.29-.79-.5-1.11-1.15-1.1-1.16,0-2.32.09-.09.16-.2.3-.36a4,4,0,0,0-1.83.06.93.93,0,0,1-1.14-.43c-.33-.48-.69-.93-1.05-1.39s-.23-.45.21-.47A7.11,7.11,0,0,0,13,67c-.82-.17-1.63-.35-2.45-.49a1.35,1.35,0,0,1-1.06-.72c-.48-.89-1-1.75-1.53-2.62-.28-.46.06-.32.28-.3a3.48,3.48,0,0,1,1.55.41A36.12,36.12,0,0,0,20,65.79c6,.36,11.45-1,15.77-5.47a20.42,20.42,0,0,1-7.42,1.37c-3,0-6-.28-9-.51a34,34,0,0,0-9.86.61,1.73,1.73,0,0,1-.93.07c-.42-.07-.83.45-1.19.13a4.06,4.06,0,0,1-.6-1.11,3.23,3.23,0,0,0-.22-.41c-.24-.37-.15-.61.27-.74,2.38-.71,4.74-1.95,5.51-2.93a5.51,5.51,0,0,0-2-.28,25.25,25.25,0,0,0-4.84.07.51.51,0,0,1-.64-.4c-.48-1.4-.5-1.39.91-1.69.55-.11,1.09-.24,1.74-.39a4.44,4.44,0,0,0-1.26-.56,4.29,4.29,0,0,0-1.08-.36c-1.2-.15-1.5-.94-1.51-2a22.59,22.59,0,0,0,8.65.85c2.89-.24,5.52-1.33,8.21-2.26a23.82,23.82,0,0,1,8.11-1.45,31,31,0,0,1,4.69.87,12,12,0,0,0,4,.22,5.52,5.52,0,0,0,2.08-.89,24.52,24.52,0,0,0,3.2-2.34.37.37,0,0,1,.3-.1,2,2,0,0,1,.38,2.9c-.45.55-1,1-1.48,1.54a6.4,6.4,0,0,1-1.17.88,4.54,4.54,0,0,1-3.12.24c-1-.22-2-.46-3-.7a1.8,1.8,0,0,1-.32-.06c-1.35-.5-2.75-.89-4.12-1.35a20.08,20.08,0,0,0-5-.11,9.6,9.6,0,0,0-3,.61,1.56,1.56,0,0,1-.49.19,2.71,2.71,0,0,0-1.35.6l-.17.08A9.82,9.82,0,0,0,18,52.77c-.47.44-.73,1.17-1.53,1.18a9,9,0,0,1-5,.12,9.72,9.72,0,0,0,4.85.06l.19-.07a1.61,1.61,0,0,0,1.34-.65,9.17,9.17,0,0,1,3.45-2.78A9.41,9.41,0,0,1,24.45,50a26.88,26.88,0,0,1,5.15.14,5.12,5.12,0,0,1,1.52.5.75.75,0,0,1,.2.1,1.37,1.37,0,0,0,.93.48c.83.08,1.51.71,2.37.7A33.27,33.27,0,0,0,39.76,53a10.07,10.07,0,0,0,1.82,0c.78-.08,1.06.25.76,1a11,11,0,0,1-1.13,2.21,1.58,1.58,0,0,0-.75,1.19.53.53,0,0,1-.12.14c-.44.57-.93,1.11-1.33,1.72a.91.91,0,0,1-.11.16c-.49.57-1,1.1-1.58,1.64a1.35,1.35,0,0,0-.45.65,10.3,10.3,0,0,1-2.32,1.78c-.16.07-.36.07-.49.19a12.74,12.74,0,0,1-3.62,2c-.59.27-1.22.5-1.8.83a30.26,30.26,0,0,1-8.21,1.66,16.14,16.14,0,0,1-2.6.27,11.84,11.84,0,0,0-2,0A45.12,45.12,0,0,0,28,67.33c.88-.07,1.65-.56,2.52-.68a.76.76,0,0,0,.49-.34c.69-.46,1.47-.75,2.2-1.14a25,25,0,0,0,3.18-2c.21-.15.42-.42.7-.17s.06.45,0,.67-.12.34-.2.5c-.42.69-.82,1.4-1.18,2.13a.86.86,0,0,1-.1.16,51.76,51.76,0,0,1-4.21,6c-.19.22-.37.45-.58.66-.89.88-1.69,1.85-2.56,2.75a12.64,12.64,0,0,1-1.51,1.42,25.79,25.79,0,0,0,4.68-4.36,54.24,54.24,0,0,0,3.69-4.71,18.27,18.27,0,0,0,1.53-2.6,40.47,40.47,0,0,0,1.86-3.94,1.24,1.24,0,0,1,.37-.48,17.81,17.81,0,0,0,1.76-1.92,31.41,31.41,0,0,0,2.81-4,1.14,1.14,0,0,1,.1-.19c.16-.26.26-.62.66-.57s.47.44.54.75c.1.51.13,1,.2,1.53a1.41,1.41,0,0,0,.22.69,14.88,14.88,0,0,1,.48,4c-.14,1.57.23,3.13.14,4.67A15.93,15.93,0,0,0,46,63.61c.19-2.63.65-5.21,1-7.82a2.54,2.54,0,0,1,.13-.45c.23-.65.42-.7,1-.31l.17.11a7.79,7.79,0,0,0,1.42,1.39,3.44,3.44,0,0,1,.76.81,5.05,5.05,0,0,0,1.34,1.46.74.74,0,0,1,.13.12,2.55,2.55,0,0,0,.69.7.57.57,0,0,1,.12.15A7.61,7.61,0,0,0,54,61.25a.76.76,0,0,1,.11.14c.72.73,1.34,1.54,2,2.28l.12.14c1.11,1.49,2,3.12,3.26,4.52l.13.13a2.26,2.26,0,0,0,.78.63.41.41,0,0,1,.14.12,2.46,2.46,0,0,0,1,.67l.16.1c.81.85,2,1.19,2.85,2-1.34-1.26-2.76-2.42-4.11-3.65-.8-1-1.41-2.13-2.21-3.13a1.05,1.05,0,0,1,0-.19,1.6,1.6,0,0,0-.23-.54c-.17-.32-.08-.5.3-.51a.76.76,0,0,1,.2.06,8.3,8.3,0,0,0,2.94,1.1,34.28,34.28,0,0,0,4.82,1.08c-1.27-.29-2.49-.8-3.78-1A30.55,30.55,0,0,1,55.92,62c-1.37-1.73-2.82-3.4-4.18-5.13a16.22,16.22,0,0,1-1.29-1.46,2.56,2.56,0,0,0-.79-.88l-.12-.16c-.11-.22-.31-.43-.12-.67s.41-.1.62-.07c.61.08,1.22.19,1.84.22,2,.31,4,.71,6,1.12a40.77,40.77,0,0,1,7.72,2.37,18.74,18.74,0,0,1,4.2,2.27,11.38,11.38,0,0,0,3.58,1.88,6.49,6.49,0,0,1,.87.33,5.49,5.49,0,0,0,2.81.6,2.11,2.11,0,0,0-1.37-.34,23.31,23.31,0,0,1-4.68-2l-.36-.18a27.3,27.3,0,0,0-3-2,24.07,24.07,0,0,0-3.82-1.68c-.76-.27-1.53-.5-2.27-.84a3.39,3.39,0,0,0-.93-.36c-1.65-.41-3.3-.82-5-1.19-.23,0-.54-.1-.49-.43a.54.54,0,0,1,.62-.42,15.11,15.11,0,0,0,2.59-.37,22.13,22.13,0,0,0,4.58-1.36c2-.05,4-.46,6-.31l.22,0c.73.07,1.37.52,2.12.55a6,6,0,0,1,2.18,1.43,19.06,19.06,0,0,0,4.61,2.88,3.45,3.45,0,0,1,.61.3,3.25,3.25,0,0,0,1.51.52l.18.05a4.71,4.71,0,0,0,2.33.13,6.81,6.81,0,0,1-2.5-.29,20,20,0,0,1-4.52-2.23,9.62,9.62,0,0,1-2.32-1.81,6.85,6.85,0,0,0-5.2-2.15,30.21,30.21,0,0,0-5.78.24,12.34,12.34,0,0,0-1.22.38A59.2,59.2,0,0,1,54,52,4.78,4.78,0,0,1,51,51a4.59,4.59,0,0,0-1.34-1.22A3.14,3.14,0,0,1,49.19,46,.47.47,0,0,1,49.46,45.69Z"/><path class="cls-11" d="M42.55,83.36a2,2,0,0,1-.18-1,1.68,1.68,0,0,0-1.4-2c-.66-.19-.78-.42-.68-1.39.45.27.79.22.89-.34,0-.24.07-.52-.22-.65s-.42.14-.6.3,0,.58-.33.29-1,.07-.88-.73c.1-.49-.09-.84-.67-.85s-.73-.66-1.12-1c-.13-.11,0-.25.18-.21a2.43,2.43,0,0,1,.37.16c.19.07.27.45.54.22a.63.63,0,0,0,.16-.63c-.07-.26-.14-.54-.48-.58s-.49,0-.74,0a.35.35,0,0,1-.33-.19.27.27,0,0,1,.16-.34,1.14,1.14,0,0,0,.58-.85c0-.14.08-.29.23-.31s.23.18.29.31.08.58.41.53.26-.37.31-.61c.11-.58,1.49-1,1.92-.61a.47.47,0,0,1,.13.61c-.27.35-.12.78-.29,1.16a.44.44,0,0,0,.12.5,4.18,4.18,0,0,1,1.14,2.34c0,.19,0,.46.18.56.5.39.91.79.74,1.51a.21.21,0,0,0,.1.16c.72.08.93.74,1.36,1.16s.77.35.89.9c.08.39,1.17.42,1.43.08s0-.41-.22-.5-.43-.14-.4-.38.38-.36.59-.52.31,0,.42.18c.24.37.41.26.54-.09a1.32,1.32,0,0,0,0-.92,6.3,6.3,0,0,1-.11-3.7,11.36,11.36,0,0,0,.19-2.19c0-.19,0-.46.26-.47s.26.24.27.41a.63.63,0,0,0,.4.58c.93.29.93,1,.84,1.77,0,.31,0,.67.34.8a.45.45,0,0,0,.54-.31c.13-.3-.09-.51-.25-.72s-.29-.25-.13-.46.17-.22.33-.2a.4.4,0,0,1,.31.4c0,.68.31.94.93,1,.22,0,.37.18.17.44a.29.29,0,0,0,.08.46.3.3,0,0,0,.46-.12c.16-.27.35-.15.51,0,.42.3,1,.41,1.08,1.08,0,.39.67.07.76.38s-.53.27-.52.66.39.45.71.55.75-.35,1,0,0,.66.05,1a1,1,0,0,0,.72,1c.24.06.4.19.26.49a.54.54,0,0,0,0,.33c.21.9.21.94-.76.89S54,84,52.86,83.9c-1.59-.16-3.17.18-4.75.1-1.35-.06-2.69,0-4-.07-.55,0-.61-.36-.71-.73s0-.64-.28-.68-.2.42-.36.61S42.65,83.24,42.55,83.36Z"/><path class="cls-11" d="M57.34,81c.35-.06.58,0,.72.27,0,0,0,.17-.07.17A.68.68,0,0,1,57.34,81Z"/><path class="cls-11" d="M58.18,82.2c0,.13-.07.32-.26.31a.28.28,0,0,1-.28-.24c0-.24.2-.27.36-.3S58.19,82.06,58.18,82.2Z"/><path class="cls-26" d="M79.21,38.13c-.06.84-.12,1.68-.19,2.51,0,.57-.23,1-.93.83-.29-.5,0-1,0-1.51a32.46,32.46,0,0,0-.48-9.33A29.45,29.45,0,0,0,71.54,18,31.73,31.73,0,0,0,54.68,7.16a34.12,34.12,0,0,0-7.12-1.07,33.51,33.51,0,0,0-15,2.8,30.21,30.21,0,0,0-10,6.94,30.3,30.3,0,0,0-8.2,15.91,27.23,27.23,0,0,0-.16,9.14c0,.27.17.58-.16.79-.75-.07-1-.25-1.05-.88a29.53,29.53,0,0,1-.28-4.31c.09-1.28.17-2.56.29-3.84.12-.57.23-1.14.35-1.71a1,1,0,0,1,.31-.65L14,29.05c-.19-.5.09-.92.23-1.36A3.46,3.46,0,0,1,14.94,26l1.15-2.68a7,7,0,0,1,1.69-3c.93-1.34,1.89-2.66,2.94-3.9a.29.29,0,0,1,0-.26,11.5,11.5,0,0,1,2.16-2.08l2.88-2.37a2.55,2.55,0,0,1,.85-.75,27.28,27.28,0,0,1,3.08-1.92,1.08,1.08,0,0,1,.76-.22l.59-.33,2.2-1c.24-.42.71-.41,1.09-.55a5.31,5.31,0,0,1,2-.53l4.93-1.08a4.27,4.27,0,0,1,2-.38,12,12,0,0,1,2.81,0l.25,0a12.26,12.26,0,0,1,3.42.09.53.53,0,0,1,.35.17c1.12.2,2.23.44,3.36.53a10.27,10.27,0,0,1,4,1.19,38.75,38.75,0,0,1,6.9,3.32,7.63,7.63,0,0,1,2.94,2.11,13.44,13.44,0,0,0,1.88,1.5,9.51,9.51,0,0,1,2.44,2.58l2.19,2.83a6.88,6.88,0,0,1,1.6,2.57,9.38,9.38,0,0,0,.82,1.61,5,5,0,0,1,1,2.43L77.66,27a5.68,5.68,0,0,1,.84,3l.3,1.51a.9.9,0,0,1,.29.72,7.68,7.68,0,0,1,.1,2.19C79.2,35.65,79.2,36.89,79.21,38.13Z"/><path class="cls-29" d="M79.19,34.41,78.8,31.5a25,25,0,0,0,6-5.17,8.52,8.52,0,0,1,1.32,2.83A37.82,37.82,0,0,1,80,34C79.71,34.14,79.45,34.27,79.19,34.41Z"/><path class="cls-11" d="M39,44.25l0,.32a.54.54,0,0,1,0,.69c0,1-.72,1.5-1.47,1.92a7.35,7.35,0,0,1-4.69.48c-1.72-.21-3.38-.77-5.08-1a24.07,24.07,0,0,0-10.15.89,34.67,34.67,0,0,1-6.9,1.57,12.19,12.19,0,0,1-6.47-1.28c-.11-.68,0-1.48-1-1.61-.33,0-.45-1.09-.14-1.45a1.6,1.6,0,0,0,.31-1.91c-.38-.6.19-.62.3-.9,0-.07.15-.16.19-.15,1.07.41.44-.4.44-.67a1.1,1.1,0,0,1,0-.57,1.32,1.32,0,0,0,.13-.38c0-.24-.41-.52-.06-.69a.89.89,0,0,1,1,.35,8.4,8.4,0,0,0,1,1c.19.18.41.32.18.67s.13.39.38.41A12.83,12.83,0,0,1,9,42a1,1,0,0,1,.75.46.91.91,0,0,0,1.21.46.89.89,0,0,1,1.15.53c.31.77.7.83,1.22.22a.35.35,0,0,1,.47-.1c1.11.58,2.34.43,3.52.59.46.06.3-.5.63-.53a1.43,1.43,0,0,1,1-.18A38.53,38.53,0,0,0,26.13,43c1.88-.32,3.71-.9,5.59-1.22a21.37,21.37,0,0,1,4.3-.25,3.46,3.46,0,0,1,1.85.56A2.17,2.17,0,0,1,39,44.25Z"/><path class="cls-27" d="M39,44.25c-.53-1.84-1.2-2.35-3.16-2.49a19.26,19.26,0,0,0-6.42.74,35.81,35.81,0,0,1-11.1,1.1l-.33,0c-1.82-.22-3.64-.44-5.44-.82A16.56,16.56,0,0,1,4.93,39c-.41-.37-.87-.69-1.31-1a9.19,9.19,0,0,1,.29-1.88c.41-.67.41-.67,1-.28a1.35,1.35,0,0,0,.47.26A25.05,25.05,0,0,0,9.71,38.3a5.84,5.84,0,0,0,1.95.44C10,37.43,9.14,35.6,7.85,34.13a6.22,6.22,0,0,0-2.08-1.58c-.84-.59-.85-.59-.45-1.64.09-.22.21-.43.32-.65a.41.41,0,0,1,.44,0,13,13,0,0,1,5.34,4.53c.42.66,1.11,1,1.53,1.7,0,1.43.17,2.85.26,4.28,0,.65.49.65.92.72.73-.3,1.39.1,2.08.2a24.44,24.44,0,0,0,6.1.26,40.43,40.43,0,0,0,5.27-.7,46.19,46.19,0,0,1,4.81-1,10.88,10.88,0,0,1,6.4.63,3.79,3.79,0,0,1,1.8,2.46.22.22,0,0,1-.11.28c-.34.09-.67.18-1,.24S39.06,44,39,44.25Z"/><path class="cls-27" d="M77.24,25.92c-.35-.81-.69-1.62-1-2.43a20.94,20.94,0,0,1,6.54-.68.4.4,0,0,1,.39.21l1.33,2.26a31.46,31.46,0,0,0-4.23,0A8.87,8.87,0,0,0,77.24,25.92Z"/><path class="cls-29" d="M75.39,21.88l-1.6-2.57a14.09,14.09,0,0,1,3.62-3.13.63.63,0,0,1,.6.18,16.51,16.51,0,0,1,1.67,2,18.88,18.88,0,0,0-1.91,1.18C76.87,20.21,76.3,21.22,75.39,21.88Z"/><path class="cls-11" d="M78.5,30l-.84-3a1.2,1.2,0,0,1,1.83-.48.46.46,0,0,0,.55-.14,2.14,2.14,0,0,1,1.69-.6c.53,0,1-.16,1.54-.15a.64.64,0,0,1,.58.26.27.27,0,0,1,0,.23c-.19.19-.37.12-.6,0a.64.64,0,0,0-1,.43A2.38,2.38,0,0,0,82,27.64a.86.86,0,0,1-.69,1,2,2,0,0,0-1.31.93A1.08,1.08,0,0,1,78.5,30Z"/><path class="cls-29" d="M67.28,12.4l-2.94-2.11A11,11,0,0,0,68,8.49,17.27,17.27,0,0,1,70.5,10.1,14.64,14.64,0,0,1,67.28,12.4Z"/><path class="cls-29" d="M57.44,7l-4-1.19a10.35,10.35,0,0,1,1.92-1.63A1.46,1.46,0,0,1,56.72,4c1.09.33,2.19.65,3.29,1,.36.09.34.21.08.4A12.14,12.14,0,0,0,57.44,7Z"/><path class="cls-29" d="M30.48,8.83a30.54,30.54,0,0,0-4.12,2.53c-.18.13-.38.24-.57.36L24.18,9.43c-.39-.5-.3-.86.32-1.06l.05,0c1.42-.86,1.42-.86,2.57.2a4.58,4.58,0,0,0,.89,1,10.84,10.84,0,0,0-.08-2.22c0-.52.09-.84.63-1a10.62,10.62,0,0,0,1.31-.54c.34-.14.43,0,.42.32,0,.72,0,1.44,0,2.16A.75.75,0,0,0,30.48,8.83Z"/><path class="cls-29" d="M22.91,14.09l-2.19,2.34L18,14.84c-.29-.23-.59-.47-.89-.69s-.29-.28,0-.47c.49-.42,1-.84,1.47-1.27.2-.18.36-.06.55,0a9.34,9.34,0,0,0,3.18,1.48Z"/><path class="cls-27" d="M17.78,20.33l-1.69,3a20,20,0,0,1-3.54-4.88c.14-.69.72-1.06,1.14-1.53s.56-.88,1.12-1A11.6,11.6,0,0,0,17.78,20.33Z"/><path class="cls-29" d="M14.94,26c-.32,1-.64,2-.95,3a18.88,18.88,0,0,1-4.94-5.94,11.33,11.33,0,0,1,1.71-2.41A15.67,15.67,0,0,0,14.94,26Z"/><path class="cls-29" d="M13.7,30.28a18,18,0,0,1-.51,2.29.8.8,0,0,1-.65-.28,12.48,12.48,0,0,0-5.4-2.64.56.56,0,0,1-.4-.22c-.81-.24-.82-.25-.44-1,.2-.41.24-.92.67-1.2A20.88,20.88,0,0,1,13.7,30.28Z"/><path class="cls-29" d="M46.09,5a1.05,1.05,0,0,1-.38.12c-1.47,0-2.93.17-4.39.28a4.68,4.68,0,0,0-1.32-2c.5-.45,1.15-.21,1.72-.36.25-.07.54,0,.8-.06a2.53,2.53,0,0,1,2.86.84C45.56,4.2,46,4.49,46.09,5Z"/><path class="cls-29" d="M36.39,6.44,33.27,7.52c-.57-.55-1.15-1.1-1.71-1.67-.14-.15-.44-.3-.24-.61l2.45-.79c.44,0,.59.41.87.64C35.21,5.55,35.81,6,36.39,6.44Z"/><path class="cls-29" d="M71.6,16.48,69.16,13.9a9.83,9.83,0,0,1,2.52-.41,8.57,8.57,0,0,0,1.95-.41,1.13,1.13,0,0,1,1.35.36c.46.45,1,.85,1.45,1.28-.19.54-.73.61-1.16.81A14.48,14.48,0,0,1,71.6,16.48Z"/><path class="cls-11" d="M8.61,61.86A24,24,0,0,1,14.38,61c3.31-.27,6.6.25,9.89.44s6.66.33,9.9-.73c.7-.22,1.38-.5,2.22-.81a12.62,12.62,0,0,1-2.73,2.65,19.07,19.07,0,0,1-8.52,3.31c-4.66.75-9.08-.25-13.45-1.7a36.34,36.34,0,0,1-3.48-1.29C7.92,62.33,8.4,62.15,8.61,61.86Z"/><path class="cls-29" d="M50.11,5.25c-1.25-.08-2.52-.07-3.77-.26a7.71,7.71,0,0,1,1.34-2.17c1.31,0,2.61.18,3.92.26a.17.17,0,0,0,.1,0c.08.13,0,.22-.08.29a7.84,7.84,0,0,0-1.39,1.7Z"/><path class="cls-19" d="M50.23,5.1a6.14,6.14,0,0,1,1.47-2c.11,0,.18.12.12.18C51.3,3.9,50.76,4.5,50.23,5.1Z"/><path class="cls-13" d="M6.74,29.43A11.55,11.55,0,0,1,12.39,32c.26.21.54.4.8.6l-.24,4a3.55,3.55,0,0,1-1.46-1.36,13.08,13.08,0,0,0-5.44-4.69l-.41-.23L5.4,30C5.63,29.28,6.31,29.66,6.74,29.43Z"/><path class="cls-29" d="M49.71,33.09c-.06-.71-.63-.58-1-.51-.65.12-.77-.09-.76-.7,0-1.76,0-1.76,1.76-1.76h2.36c.21,0,.45.08.62-.14H55c.22,0,.54.13.6-.25s-.29-.41-.54-.47a16,16,0,0,1-2.82-1.07A7.39,7.39,0,0,1,48,22.41a20.52,20.52,0,0,1-.17-2.48c0-.38,0-.42.43-.4a9.07,9.07,0,0,0,4.2-.33,3.46,3.46,0,0,0,1.93-1.86c.07-.16.18-.35,0-.5s-.32,0-.47.09c-1.69.58-3.37,1-5.12.21a3.23,3.23,0,0,1-1.94-2.9c0-.43.11-.61.57-.6a3,3,0,0,0,2.16-.92.35.35,0,0,0,.15-.36c0-.16-.22-.09-.35-.1L48,12.15a1.87,1.87,0,0,1-1.42-.8c-.24-.32-.54-.4-.78-.1-.9,1.09-2.1,1.05-3.43,1a3,3,0,0,0,2.36,1.41c.76.08.86.18.75,1a3.6,3.6,0,0,1-3.45,3,9.66,9.66,0,0,1-4.21-.83A3.21,3.21,0,0,0,40,19.24a7.27,7.27,0,0,0,3.73.27c.81-.11.8-.12.83.72a8.83,8.83,0,0,1-1.45,5.37,8.48,8.48,0,0,1-3.81,3,21.69,21.69,0,0,1-2.24.73c-.16,0-.35.09-.36.33s.23.28.43.31a1.15,1.15,0,0,0,.66.06c2,0,4,0,6,0,.5,0,.7.17.69.65s0,1.12,0,1.69c0,.39-.22.5-.51.34-.72-.38-1.17-.13-1.74.41a5.91,5.91,0,0,1-4,1.58,6.29,6.29,0,0,1-5.36-2.11,2.34,2.34,0,0,0-.43-.33,5.2,5.2,0,0,1,1.23-7.42,8.41,8.41,0,0,1,4.1-1.34c.32,0,.59-.06.6-.47s.08-.72-.46-.87a4.13,4.13,0,0,1-3.1-4.13A4,4,0,0,1,37,14.84a5,5,0,0,1,4-.44c.79.19,1.23-.31,1-1.07-.76-2.51.43-4.32,2.81-5a4.6,4.6,0,0,1,4.65,1,3.75,3.75,0,0,1,.91,4c-.24.91.15,1.36,1.08,1.11a4.87,4.87,0,0,1,4.47.82,3.82,3.82,0,0,1-.2,6.34,4.39,4.39,0,0,1-1.38.66c-.27.07-.56.13-.46.51s0,.72.54.81a13.11,13.11,0,0,1,2.39.34c3.35,1.21,5.24,4.65,3.43,7.85a6.18,6.18,0,0,1-5,3.1A6.91,6.91,0,0,1,49.71,33.09Z"/><path class="cls-2" d="M58.35,65.13a25.81,25.81,0,0,1,2.17,3.11c.4.52,1,.84,1.41,1.33.17.21.61.36.33.68s-.42-.19-.66-.25h0a5.71,5.71,0,0,1-1.09-.81h0c-.32-.21-.59-.5-.93-.68h0c-1.2-1.53-2.2-3.19-3.39-4.72h0c-.76-.78-1.36-1.69-2.15-2.44h0c-.44-.55-1-1-1.37-1.61h0c-.28-.26-.51-.56-.8-.82h0c-.5-.49-1-1-1.48-1.49l-.69-.8c-.44-.46-.88-.92-1.35-1.35l-.12,0c-.12-.11-.16-.28-.28-.38-.32-.27-.53-.19-.69.21A6.51,6.51,0,0,0,47,56.66c-.31,2.22-.74,4.43-.83,6.68,0,.24,0,.49-.34.48s-.25-.27-.26-.47a8.45,8.45,0,0,0-.12-1.88,27.56,27.56,0,0,0-.43-4,13.85,13.85,0,0,1-.33-2c-.08-.38-.06-1-.48-1s-.47.55-.68.87h0a39.29,39.29,0,0,1-2.78,3.89c-.6.69-1.14,1.43-1.8,2.06-.47,1-.93,2-1.4,2.93-.25.52-.52,1-.78,1.54-.34.21-.39.61-.59.92s-.27.31-.49.23-.25-.27-.11-.47h0a11.7,11.7,0,0,0,1.19-2.2,1.13,1.13,0,0,1,.27-.74c.07-.1.15-.25,0-.36s-.25,0-.35.09a21.31,21.31,0,0,1-3.76,2.38c-.59.3-1.21.56-1.82.84a12.75,12.75,0,0,1-3,1c-.72.3-1.52.25-2.24.57a.49.49,0,0,1-.27,0c-.19,0-.44,0-.47-.25a.35.35,0,0,1,.38-.39,18.23,18.23,0,0,0,2.4-.58,2.67,2.67,0,0,0,1-.39C30.35,65.61,32,65,33.4,64.14a4.88,4.88,0,0,1,1.16-.77,26.34,26.34,0,0,0,2.17-1.75,24.7,24.7,0,0,0,2.16-2.3h0a19.19,19.19,0,0,0,1.37-1.88l.11,0a3.66,3.66,0,0,1,.68-1.2c.39-.78.81-1.55,1.16-2.35.25-.58.06-.76-.55-.67a9.26,9.26,0,0,1-2.41-.08A24.35,24.35,0,0,1,34.56,52a31.67,31.67,0,0,1-3.25-1.2l-.12,0c-1.1-.78-2.4-.69-3.63-.77a14.3,14.3,0,0,0-4,.16c-.17,0-.44.14-.53-.12s.25-.31.4-.43a17.28,17.28,0,0,1,2.37-.31h3.08a1,1,0,0,1,.34,0,26.23,26.23,0,0,1,4.08,1.22c.32.09.66.12,1,.22l.26,0a19.34,19.34,0,0,0,4.57,1c.48,0,1,.41,1.45.09l.2,0a2,2,0,0,0,1.34-.38c.48-.27,1-.44,1.49-.71a1.24,1.24,0,0,1,1.08,0l.12,0a4.3,4.3,0,0,1,.54,1.07l0,.26a18.88,18.88,0,0,1,.6,5.78,16.21,16.21,0,0,1,.44-3.62,13,13,0,0,1,.64-2.94,1.25,1.25,0,0,1,.34-.56,3,3,0,0,1,1.58.38,11.46,11.46,0,0,0,3.94,1.25c-1-.5-1.94-.89-2.81-1.36-2.46-1.33-2.59-3-1.64-5.24.19-.45.55-.7,1-.15A5,5,0,0,0,49,48.36c.14.52.54.87.71,1.36a8.34,8.34,0,0,0,1.22,1.08c.33,0,.53.3.8.44,1.44.79,2.94.55,4.44.33l5-.78c2.48-.74,5-.49,7.56-.52a6.38,6.38,0,0,1,1.13.2c.21,0,.41.17.38.39s-.26.21-.44.21a2,2,0,0,1-.6,0,34,34,0,0,0-6.46.31,25.66,25.66,0,0,1-4.93,1.4c-1,.25-2,.25-3,.49-.46.1-.18.26-.07.42.21.55-.19.57-.53.56A7.17,7.17,0,0,1,52.65,54a6.45,6.45,0,0,0-1.58-.2,6,6,0,0,1-1.19-.15c-.18,0-.39-.23-.53,0a.46.46,0,0,0,.18.59c.06.05.11.13.18.19h0c.34.2.48.6.81.82,1,1.21,2.16,2.39,3.15,3.66a22.28,22.28,0,0,1,2.26,2.94,8.27,8.27,0,0,0,1.22.8c.2.09.39.25.32.45-.26.81.26,1.29.71,1.81A1.06,1.06,0,0,0,58.35,65.13Z"/><path class="cls-30" d="M32.43,32.28a.67.67,0,0,1,.58.28,6,6,0,0,0,5.28,2,6.82,6.82,0,0,0,3.52-1.21,1.91,1.91,0,0,0,.6-.53,1,1,0,0,1,1.5-.32c.42.21.53.12.52-.3V30.82c0-.5-.19-.71-.72-.7-2,0-3.91,0-5.87,0-.23,0-.5.09-.69-.13,2.29,0,4.58,0,6.88,0,.4,0,.55.13.55.54,0,3.29.09,6.57,0,9.85a5.11,5.11,0,0,1-4.48,4.76c-.34.06-.67.1-1,.14a1.35,1.35,0,0,1,0-.69,4.24,4.24,0,0,0,3.8-1.31A4.87,4.87,0,0,0,44,40.05c0-2.17,0-4.33,0-6.49a.81.81,0,0,0-1.44-.6C40.16,35.66,34.68,35.55,32.43,32.28Z"/><path class="cls-31" d="M40.78,52h-.13c-.15.07-.33.15-.4-.05s.11-.29.25-.35c.6-.27,1.19-.53,1.77-.82a5.48,5.48,0,0,0,1.32-1,3.2,3.2,0,0,0,.32-3.42c-.24-.66-.64-.19-1-.19l-.25,0c.27-.35.39-1,1-.8s.7.69.77,1.27a4.69,4.69,0,0,1,.12,2.17c-.07.22-.09.47-.26.61-.6.5-.25.82.17,1.16l.21.16c-1-.1-1.69.62-2.56.83A3.86,3.86,0,0,1,40.78,52Z"/><path class="cls-32" d="M47.42,50.81c-1,2.42-1,5-1.45,7.7-.1-1.69-.13-3.24-.32-4.77a4.77,4.77,0,0,1-.25-1.59,5.2,5.2,0,0,1,.52,2.22c.06.3-.09.63.17,1a17.19,17.19,0,0,0,.52-2.93A2,2,0,0,1,47.42,50.81Z"/><path class="cls-33" d="M45.36,51.89a2.18,2.18,0,0,1-.54-1.07C45.14,51.11,45.47,51.39,45.36,51.89Z"/><path class="cls-34" d="M40.48,43.65a4.38,4.38,0,0,0-1.59-2.58,8.58,8.58,0,0,0-5-.84,29.25,29.25,0,0,0-5.87,1,27.89,27.89,0,0,1-2.9.51,29.15,29.15,0,0,1-5,.34,33.67,33.67,0,0,1-3.88-.24l-2.05-.34c-.14-1.36-.36-2.71-.37-4.08A30.21,30.21,0,0,1,19.2,19.7,31.37,31.37,0,0,1,31,9.42,33.85,33.85,0,0,1,56.57,7.53a32,32,0,0,1,11.12,6.28,31.2,31.2,0,0,1,7.87,10.24,28.41,28.41,0,0,1,2.67,9.42,32,32,0,0,1-.14,8,16.76,16.76,0,0,1-2.64.46,34.56,34.56,0,0,1-7.94-.06A30.28,30.28,0,0,1,63.44,41a23.37,23.37,0,0,0-7.06-.81c-2.07.15-3.72,1-4.52,3-.43.45-.87.29-1.28,0a9.06,9.06,0,0,0-.75-.64,4.48,4.48,0,0,1-.91-2.83c0-1.83,0-3.65,0-5.48,0-.19-.1-.44.12-.55s.32.12.45.22a7.82,7.82,0,0,0,6.28,1.6c3.21-.52,6.4-3.33,5.81-7.25a6.37,6.37,0,0,0-4-4.89,13.39,13.39,0,0,0-2.19-.65c.52-.5,1.12-.77,1.56-1.24A4.63,4.63,0,0,0,55.37,14c-1.5-.62-1.5-.62-4.26-.5a6.74,6.74,0,0,0,0-2.72,4.43,4.43,0,0,0-3.75-3.35,5.56,5.56,0,0,0-4.72,1A4.32,4.32,0,0,0,41,13c.1.53.1.69-.51.57a5.43,5.43,0,0,0-5,1.48,4.4,4.4,0,0,0-.6,5.93l.28.39c.21.45.67.63,1,.94s.4.5-.14.68a16,16,0,0,0-1.77.59,3.68,3.68,0,0,0-1,.63,6.58,6.58,0,0,0-2.64,4.44,4.93,4.93,0,0,0,.33,2.5,6.47,6.47,0,0,0,1.08,2,1.24,1.24,0,0,0,.69.66,7.4,7.4,0,0,0,4.39,1.79,7.61,7.61,0,0,0,5.78-1.73c.25-.23.39-.19.39.17,0,2.2.08,4.41-.07,6.61a3.24,3.24,0,0,1-1.85,2.87A1.94,1.94,0,0,1,40.48,43.65Z"/><path class="cls-6" d="M33.22,24.17c.32-.85,1.22-.71,1.84-1.05.37-.22,1.06-.07,1.18-.46s-.55-.54-.83-.83c-.15-.14-.32-.27-.29-.5a15.84,15.84,0,0,0,2,1.48A11.87,11.87,0,0,0,33.22,24.17Z"/><path class="cls-35" d="M49.83,42.57c.21,0,.41,0,.51.2.35.68.9.69,1.52.46v.54A2.47,2.47,0,0,1,49.83,42.57Z"/><path class="cls-5" d="M32.68,33.77c-.37-.08-.86,0-.69-.66A1.57,1.57,0,0,1,32.68,33.77Z"/><path class="cls-11" d="M33.94,55c-4.19,1.7-8.42,2.27-12.71.46-1.39-.59-1.41-.81-.42-2a4.56,4.56,0,0,1,4.73-1.41A58.86,58.86,0,0,1,33.94,55Z"/><path class="cls-11" d="M53.67,57.4a13.46,13.46,0,0,1,10.26,4.78c.46.53.86,1.1,1.28,1.65.1.14.25.3.17.49s-.32.12-.48.11a13.72,13.72,0,0,1-7.83-3.11,14.65,14.65,0,0,1-3.29-3.64S53.74,57.57,53.67,57.4Z"/><path class="cls-11" d="M42.81,60.76c.06,3.35-.68,6.25-3.45,8.29a8.91,8.91,0,0,1-2.58,1.14c-.52.17-.68,0-.63-.52a10,10,0,0,1,4-7.29A10.64,10.64,0,0,1,42.81,60.76Z"/><path class="cls-11" d="M66.62,61.17A12.67,12.67,0,0,1,77,69.28C73.73,69.52,68.45,65.4,66.62,61.17Z"/><path class="cls-36" d="M50.92,53.64a6.4,6.4,0,0,1,2.29.34A5.94,5.94,0,0,0,54.4,54c.35,0,.26-.2.17-.4a.43.43,0,0,1,.44-.1l4,1a19.31,19.31,0,0,1,2.57.74,26.52,26.52,0,0,1,9,4.47c0,.39-.24.42-.53.3s-.27-.21-.42-.29A30.86,30.86,0,0,0,62,56.21,85.51,85.51,0,0,0,52,54s-.07,0-.11-.07C51.57,53.76,51.14,54.05,50.92,53.64Z"/><path class="cls-37" d="M69.17,50.94h1.1a1.54,1.54,0,0,0-1.44-.51c-2.28,0-4.59-.35-6.84.34a2.73,2.73,0,0,1-.81,0,5.78,5.78,0,0,1,3-.61,21.23,21.23,0,0,1,5.9.21,6.75,6.75,0,0,1,4,2.59A5.08,5.08,0,0,0,75.66,54a20.8,20.8,0,0,0,4.59,2.31c.13.14.52,0,.43.32s-.26.16-.42.08h0a6.54,6.54,0,0,1-1.62-.53,18.46,18.46,0,0,1-4.86-2.78,19.66,19.66,0,0,0-2.44-1.83,17.46,17.46,0,0,0-2.16-.53h0s-.06-.06,0-.1S69.15,50.94,69.17,50.94Z"/><path class="cls-36" d="M28.9,66.36a1,1,0,0,1-.74.42c-.85.13-1.63.56-2.49.64-.18,0-.38,0-.47.18a.17.17,0,0,0,0,.17.69.69,0,0,0,.58,0,21.28,21.28,0,0,1,2.27-.49.09.09,0,0,1,0,.09s0,.05,0,.05a18.68,18.68,0,0,1-4.23.91,39.91,39.91,0,0,1-5.78.3c-.94,0-1.87-.19-2.81-.17a16.28,16.28,0,0,1,2.51-.24,47.67,47.67,0,0,0,7.42-1c1.19-.29,2.36-.67,3.56-.94A.09.09,0,0,1,28.9,66.36Z"/><path class="cls-36" d="M35.52,66.35c0,.14,0,.33.17.37s.26-.1.36-.23.19-.75.67-.82a32.11,32.11,0,0,1-4.82,6.8l-.45.5c-.17.08-.2.28-.35.39a.32.32,0,0,1-.43,0c-.15-.11-.12-.26,0-.41,1.1-1.4,2.28-2.75,3.24-4.26.46-.71.91-1.42,1.34-2.14C35.3,66.45,35.36,66.35,35.52,66.35Z"/><path class="cls-17" d="M18.58,56.79a4.54,4.54,0,0,1,2.54,1.11c.22.17.17.32-.09.36a7.3,7.3,0,0,1-.94.08,10.52,10.52,0,0,0-2.74.24c-.2.05-.34.1-.32-.21A1.66,1.66,0,0,1,18.58,56.79Z"/><path class="cls-14" d="M36.58,57.66a12.65,12.65,0,0,0-3.65-.36c-.18,0-.44.07-.51-.19s.19-.28.32-.38A5.15,5.15,0,0,1,34.16,56C35.53,55.48,36.42,56.08,36.58,57.66Z"/><path class="cls-36" d="M42.93,46.17c.73-.65.94-.59,1.24.39.56,1.84.34,3.09-1.77,4.37-.19.1-.39.14-.53,0s0-.35.12-.51c.34-.52.91-.82,1.23-1.36A2.18,2.18,0,0,0,42.93,46.17Z"/><path class="cls-38" d="M58.35,65.13a1.63,1.63,0,0,1-1-1.92c.07-.3-.14-.39-.34-.49a2.48,2.48,0,0,1-1.07-.85,14.24,14.24,0,0,1,2.33,1.27c1.36.68,2.75,1.28,4.15,1.85.29.14.62.06.9.22s.28.17.23.36-.22.14-.38.1a14.35,14.35,0,0,1-1.79-.48,14.8,14.8,0,0,1-3-1.14h0c-.15-.17-.37-.13-.58-.19-.05.51.51.7.58,1.13Z"/><path class="cls-6" d="M45.4,61.47a4,4,0,0,1,.26,1.84c0,.14-.07.37.14.38s.24-.22.25-.39a39,39,0,0,1,.55-5.06c.15-1,.34-2.06.52-3.1.05-.27.06-.73.35-.68s.8.25.76.79c-.76-.46-.93-.39-1.06.59-.34,2.64-.82,5.26-1,7.93a5.34,5.34,0,0,1-.43,2.6A24.33,24.33,0,0,1,45.4,61.47Z"/><path class="cls-38" d="M23.49,49.72c-.06.16-.31.09-.35.33.42.22.83,0,1.22-.08a16.9,16.9,0,0,1,5,.13c.66.13,1.36,0,1.81.69a14.23,14.23,0,0,0-4.85-.67,16.83,16.83,0,0,0-5.14.69,1.69,1.69,0,0,1-.67.3c-.26,0-.42,0-.29-.31h0a14.11,14.11,0,0,1,1.35-.67L22,50C22.5,50,22.93,49.49,23.49,49.72Z"/><path class="cls-39" d="M30.65,73c0,.38.14.51.46.24.11-.09.16-.26.34-.25a18.3,18.3,0,0,1-2.4,2.58c-.63.59-1.35,1.1-2,1.64-.18.15-.34.31-.67.16.9-.71,1.57-1.6,2.37-2.35A20.37,20.37,0,0,1,30.65,73Z"/><path class="cls-37" d="M69.71,59.73c.31,0,.63.59,1,0,.75.38,1.49.79,2.27,1.13s1.82.69,2.73,1c.11.12.32,0,.46.28a2.49,2.49,0,0,1-2-.27,15.63,15.63,0,0,1-4-1.76A1,1,0,0,1,69.71,59.73Z"/><path class="cls-39" d="M20.24,50.8c0,.2.1.27.31.19s.43-.12.65-.18c-.23.48-.77.52-1.15.74A6.72,6.72,0,0,0,18.2,53.3a1.09,1.09,0,0,1-.26.21,2.62,2.62,0,0,1-1.35.67h-.13c-.08.06-.16.1-.24,0a.16.16,0,0,1,0-.23c.09-.12.25-.09.35-.18.67,0,.83-.7,1.25-1,.59-.48,1.08-1.07,1.64-1.58A.93.93,0,0,1,20.24,50.8Z"/><path class="cls-40" d="M61.61,55.25a6.82,6.82,0,0,1-2.27-.52c-1.59-.36-3.15-.85-4.77-1.09-.15-.14-.53,0-.5-.34s.36-.18.55-.21l3.18-.4a.58.58,0,0,1,.57,0,10.48,10.48,0,0,1-2.29.41,2.43,2.43,0,0,0-.6,0c-.13,0-.27.12-.25.27s.15.17.25.18a23.1,23.1,0,0,1,3.39.77A6.45,6.45,0,0,1,61.61,55.25Z"/><path class="cls-41" d="M42.13,50.39c-.28.36-.33.61.27.54l-2.19,1,.44.06a1.52,1.52,0,0,1-.82.25c-.12,0-.49.24-.39-.26.05-.21-.24-.12-.37-.12a10.83,10.83,0,0,1-3.13-.59,9.15,9.15,0,0,0-1-.22c-.17,0-.31-.06-.33-.26l2.81.63a4.38,4.38,0,0,0,3.31-.21c.43-.24.76-.6,1.17-.85A.19.19,0,0,1,42.13,50.39Z"/><path class="cls-6" d="M61.6,70c.24-.07.35.27.65.17A3.8,3.8,0,0,0,61.17,69c-.26-.22-.62-.37-.65-.79.74.33,1.16,1,1.79,1.49a26.78,26.78,0,0,1,2.21,1.91c.15.13.39.25.25.62C63.73,71.44,62.45,71,61.6,70Z"/><path class="cls-4" d="M61.33,65.13a17,17,0,0,0,2.15.48c-.22-.53-.78-.33-1.07-.62.88-.15,1.54.61,2.38.59s1.37.61,2.3.5c-.8.47-3,.11-5.76-.82,0,0-.06-.05,0-.08S61.31,65.13,61.33,65.13Z"/><path class="cls-8" d="M16.59,53.78c.06.17-.54.12-.13.4-.36.46-.91.33-1.36.39a11,11,0,0,1-3.9-.41.38.38,0,0,1-.32-.33,19.67,19.67,0,0,0,3.58.36A19.06,19.06,0,0,0,16.59,53.78Z"/><path class="cls-40" d="M38.89,61.2a10.57,10.57,0,0,1,1.56-2,43.25,43.25,0,0,0,2.84-3.91s.12,0,.18-.07a.66.66,0,0,1-.22.6A22.89,22.89,0,0,0,41.83,58a24.62,24.62,0,0,1-2,2.4C39.51,60.65,39.41,61.17,38.89,61.2Z"/><path class="cls-4" d="M28.9,66.36l-.15,0c.73-.77,1.82-.77,2.67-1.3a11.09,11.09,0,0,0,2.46-1.46.82.82,0,0,1,.68-.21,5,5,0,0,1-1.74,1.24c-1.14.64-2.34,1.15-3.52,1.7A1.07,1.07,0,0,1,28.9,66.36Z"/><path class="cls-39" d="M23.49,49.72c-.53-.07-1,.35-1.5.27a6.79,6.79,0,0,1,2.62-.69,31.75,31.75,0,0,1,4-.11,4.47,4.47,0,0,1,1.62.25,1.41,1.41,0,0,1-.95,0H29a16,16,0,0,0-3.25,0Z"/><path class="cls-42" d="M69.17,50.94v.14c-2.13-.14-4.22.31-6.34.27-.06.06-.12.06-.16,0a1.33,1.33,0,0,1,.82-.23c1.35-.12,2.72-.19,4.08-.29A9.59,9.59,0,0,1,69.17,50.94Z"/><path class="cls-10" d="M56.19,63.78a7.08,7.08,0,0,1,1.29,1.6,30.24,30.24,0,0,0,2,2.68.54.54,0,0,1,.13.44,6.88,6.88,0,0,1-1.51-1.84c-.58-.87-1.15-1.74-1.81-2.56C56.2,64,56.21,63.89,56.19,63.78Z"/><path class="cls-43" d="M74.17,61.9c.59,0,1.13.39,1.78.22l-.29-.23a2.6,2.6,0,0,1,1.43.24c.1,0,.23.09.23.22a.21.21,0,0,1-.23.2A4.6,4.6,0,0,1,74.17,61.9Z"/><path class="cls-38" d="M29.3,49.45h.95a33.94,33.94,0,0,1,4.06,1.36c-.89.18-1.63-.34-2.42-.56S30.18,49.64,29.3,49.45Z"/><path class="cls-40" d="M43.48,55.25v-.13c.06-.47.3-1.07.63-1.09s.49.61.56,1a12.12,12.12,0,0,1,.3,2.4c-.51-.41-.21-1-.38-1.52-.09-.26-.07-.56-.14-.85s-.06-.42-.31-.45-.34.16-.4.37A.33.33,0,0,1,43.48,55.25Z"/><path class="cls-40" d="M62.67,51.33l.16,0a3.94,3.94,0,0,1-1.93.78c-.86.14-1.66.51-2.53.57H57.8a28.11,28.11,0,0,1,3-.76C61.43,51.78,62,51.28,62.67,51.33Z"/><path class="cls-8" d="M80.26,56.75c.11,0,.32,0,.31-.13s-.2-.18-.32-.27a17.07,17.07,0,0,0,2.82.41A3.22,3.22,0,0,1,80.26,56.75Z"/><path class="cls-40" d="M28.08,67.43v-.14c1-.17,1.93-.8,3-.93,0,.2-.12.37-.3.39C29.83,66.86,29,67.45,28.08,67.43Z"/><path class="cls-42" d="M31.31,50.83c.7-.06,1.22.46,1.87.59a7,7,0,0,1,1.38.61,2,2,0,0,1-1.22-.28,3,3,0,0,0-1.35-.4A.65.65,0,0,1,31.31,50.83Z"/><path class="cls-4" d="M50.92,53.64c.25.3.7,0,.94.29a8.65,8.65,0,0,1-1.9-.15c-.15,0-.31-.18-.44,0s.11.29.15.44a1.26,1.26,0,0,1,0,.27.57.57,0,0,1-.5-.82c.14-.42.48-.19.73-.11A2.72,2.72,0,0,0,50.92,53.64Z"/><path class="cls-35" d="M38.89,59.32c.07.37-.25.56-.45.76a7.61,7.61,0,0,1-1.71,1.54c.08-.47.49-.68.78-1A10.82,10.82,0,0,1,38.89,59.32Z"/><path class="cls-10" d="M54,61.34c.1,0,.24,0,.3.12a20.68,20.68,0,0,1,1.85,2.32c-.5-.14-.63-.66-1-1s-.48-.86-1-1C54,61.78,54,61.51,54,61.34Z"/><path class="cls-1" d="M61.33,65.13v.13c-.86,0-1.54-.62-2.39-.7-.28,0-.38-.35-.58-.51C59.42,64.21,60.29,64.9,61.33,65.13Z"/><path class="cls-36" d="M36.71,64.15a3.45,3.45,0,0,1-1.19,2.2A7.12,7.12,0,0,1,36.71,64.15Z"/><path class="cls-10" d="M52.67,59.73A3.76,3.76,0,0,1,54,61.34,2.9,2.9,0,0,1,52.67,59.73Z"/><path class="cls-43" d="M50.93,50.8a1.49,1.49,0,0,1-1.22-1.08A1.65,1.65,0,0,1,50.93,50.8Z"/><path class="cls-35" d="M40.26,57.44a3.74,3.74,0,0,1-1.37,1.88.47.47,0,0,1,.16-.48C39.58,58.48,39.71,57.78,40.26,57.44Z"/><path class="cls-10" d="M50.39,57.42a3.44,3.44,0,0,1,1.48,1.49A3.33,3.33,0,0,1,50.39,57.42Z"/><path class="cls-1" d="M58.36,65a3.45,3.45,0,0,1-.94-1.46c.36.2.75.14.94.52-.22,0-.54,0-.25.35A.76.76,0,0,1,58.36,65Z"/><path class="cls-6" d="M48.35,55.27a2.65,2.65,0,0,1,1.35,1.35A2.9,2.9,0,0,1,48.35,55.27Z"/><path class="cls-42" d="M41.05,56.21a2,2,0,0,1-.68,1.2C40.38,56.88,40.41,56.37,41.05,56.21Z"/><path class="cls-42" d="M69.17,51.08a4.17,4.17,0,0,1,2.16.53C70.54,51.71,69.9,51.23,69.17,51.08Z"/><path class="cls-40" d="M42.13,50.39h-.27A8.27,8.27,0,0,1,43.22,49c.06.46-.41.53-.6.81A6.13,6.13,0,0,1,42.13,50.39Z"/><path class="cls-6" d="M60.51,69.19A2.67,2.67,0,0,1,61.6,70,1.32,1.32,0,0,1,60.51,69.19Z"/><path class="cls-10" d="M59.58,68.51a1,1,0,0,1,.93.68C60,69.2,59.82,68.84,59.58,68.51Z"/><path class="cls-8" d="M16.59,54.18l1.35-.67A1.28,1.28,0,0,1,16.59,54.18Z"/><path class="cls-8" d="M78.63,56.22a6.54,6.54,0,0,1,1.62.53A2.17,2.17,0,0,1,78.63,56.22Z"/><path class="cls-39" d="M21.59,50.13a3.12,3.12,0,0,1-1.35.67A2,2,0,0,1,21.59,50.13Z"/><path class="cls-10" d="M51.87,58.91c.46.08.64.45.8.82A1.05,1.05,0,0,1,51.87,58.91Z"/><path class="cls-4" d="M50.52,55.27c-.51,0-.55-.54-.81-.82C50.18,54.53,50.34,54.9,50.52,55.27Z"/><path class="cls-44" d="M16.19,41.88q1.81,0,3.63.09a23.07,23.07,0,0,0,4.63-.16c1.57-.26,3.14-.62,4.7-1a18,18,0,0,1,8.51-.43,1.83,1.83,0,0,1,1.23.67,11.52,11.52,0,0,1-1.84-.58,16.9,16.9,0,0,0-6.14.24c-2,.35-3.94,1-6,1.21A27.88,27.88,0,0,1,17,42C16.75,42,16.44,42.1,16.19,41.88Z"/><path class="cls-38" d="M25.78,49.45a8.08,8.08,0,0,1,3.25,0Z"/><path class="cls-41" d="M40.78,52a5.3,5.3,0,0,1,1.36-.39A1.44,1.44,0,0,1,40.78,52Z"/></g></g></svg>