<svg xmlns="http://www.w3.org/2000/svg" viewBox="0 0 136.84 46.96"><defs><style>.cls-1{fill:gray;}.cls-2{fill:#282828;}</style></defs><g id="Layer_2" data-name="Layer 2"><g id="Layer_1-2" data-name="Layer 1"><path class="cls-1" d="M134.09,4.06a6.31,6.31,0,0,1,2.74,5.45A27.67,27.67,0,0,1,131.75,26a35.12,35.12,0,0,1-15.7,13,26.41,26.41,0,0,1-8.2,2c-1,.09-1.08,0-.87-1a28,28,0,0,1,5.09-10.65c2.65-3.59,6.18-6.12,10-8.38a42.07,42.07,0,0,0,6.58-4.58,15.8,15.8,0,0,0,3-3.5c.16-.26.37-.5.27-.85,2.2-1.76,2.3-4.17,2.08-6.67C133.9,4.92,133.7,4.46,134.09,4.06Z"/><path class="cls-2" d="M134.09,4.06a16.92,16.92,0,0,1,0,4.82,5.32,5.32,0,0,1-1.3,2.67,1.22,1.22,0,0,1-.93.49c-2.42-.79-4.61,0-6.76,1a11.7,11.7,0,0,1-5.41,1.36.82.82,0,0,1-.91-.78c-.12-.62.3-.61.7-.71a2.07,2.07,0,0,0,1.72-2.1,8.26,8.26,0,0,0-1.63-5.36,4,4,0,0,0-5.06-1.1,4.23,4.23,0,0,0-1.56,5.12c.35.82.8,1.59,1.16,2.41.46,1.06.13,1.55-1,1.62a15.15,15.15,0,0,1-8.63-2.23A22.21,22.21,0,0,1,95.1.77,7.44,7.44,0,0,1,94.86,0c1.43.32,2.79.47,4.14.65a104.89,104.89,0,0,0,19.08.58,44.19,44.19,0,0,1,11.31.63A9.26,9.26,0,0,1,134.09,4.06Z"/><path class="cls-2" d="M19.13,24.92A11,11,0,0,0,14,23.77a11.85,11.85,0,0,0-4.09.62,5.56,5.56,0,0,0-3,1.94c-.16.21-.41.46-.29.73s.51.29.82.31a7.27,7.27,0,0,0,1.91-.26A16.7,16.7,0,0,1,13,26.5a1.94,1.94,0,0,1,2.15,1.93c.23,1.57-.45,2.57-2.29,3.31-2.11.86-4.35,1.33-6.5,2.06S2.05,35.57.87,37.85C-.86,41.2,0,44.19,3.44,45.72a14.3,14.3,0,0,0,11.57,0A5.9,5.9,0,0,0,18.44,42a58.1,58.1,0,0,0,2.64-13.62A3.32,3.32,0,0,0,19.13,24.92Zm-5.27,9.54c-.48,2.16-.73,4.35-1.41,6.46a9.31,9.31,0,0,1-1.21,2.57,2.51,2.51,0,0,1-4.09.3A4.68,4.68,0,0,1,6,40.23c.11-1.9,1.52-3.56,3.44-4.88a9.19,9.19,0,0,1,3.92-1.52C13.81,33.77,14,33.84,13.86,34.46Z"/><path class="cls-2" d="M73.18,46.91A22.69,22.69,0,0,1,67,46c-.58-.18-1.29-.25-1.4-1s.72-1.48,1.53-1.65a6.81,6.81,0,0,1,2.66.09,22.77,22.77,0,0,0,4.27.69,2.61,2.61,0,0,0,2.7-1.54A2.52,2.52,0,0,0,76,39.56a24.89,24.89,0,0,0-4.53-3,15.31,15.31,0,0,1-1.43-1c-3.36-2.62-2.55-6.48-.72-8.65,2.36-2.81,5.5-3.42,8.94-3a18.72,18.72,0,0,1,5,1.29c.86.35.88.63.23,1.31a2.44,2.44,0,0,1-2.23.59c-1.12-.14-2.24-.38-3.36-.56-1.62-.26-2.55.09-3,1.13a2.79,2.79,0,0,0,1,3.74,40.78,40.78,0,0,0,3.89,2.28c4.15,2.19,3.94,7.67,1.13,10.31A11,11,0,0,1,73.18,46.91Z"/><path class="cls-2" d="M97.29,18.53c-.3,1.57-.59,3.11-.87,4.65-.21,1.11-.2,1.12.9,1.14,1.26,0,2.52,0,3.78,0,.5,0,.65.12.5.64a2.38,2.38,0,0,1-2,1.91,19.29,19.29,0,0,1-3.13.13c-.42,0-.67.08-.77.55-1,4.91-2.18,9.77-2.69,14.76,0,.34,0,.68,0,1a1.13,1.13,0,0,0,.61,1.23,1.16,1.16,0,0,0,1.35-.27c.53-.43,1-.91,1.52-1.34a1.77,1.77,0,0,1,2.44-.12c.32.3.41.58,0,.93a9.57,9.57,0,0,1-9,2.94c-1.82-.37-2.83-1.83-2.94-3.88a27.2,27.2,0,0,1,.84-6.28c.55-3,1.14-6,1.74-9,.14-.65-.09-.8-.69-.78-.83,0-1.66,0-2.49,0-.24,0-.48.05-.51-.34a2,2,0,0,1,1.74-2.05c.4,0,.8,0,1.2,0,1.59,0,1.59,0,2-1.55.9-3.06,2.91-4.54,6-4.37C97,18.46,97.09,18.5,97.29,18.53Z"/><path class="cls-2" d="M43.61,24.46c-2.15,3.27-4,6.51-5.78,9.74a125.62,125.62,0,0,1-6.91,11.31,2.13,2.13,0,0,1-2,1c-1.91-.07-1.89,0-2.22-1.9q-1.38-7.89-2.78-15.78c-.23-1.27-.43-2.54-.67-3.81-.09-.51,0-.71.59-.7,1.81,0,3.63.05,5.44,0,.63,0,.75.25.82.8.47,3.84,1,7.68,1.49,11.51,0,.31.12.6.22,1.08.94-1.5,1.81-2.89,2.67-4.28,1.42-2.3,2.83-4.61,4.27-6.89C39.8,24.82,41.55,24.5,43.61,24.46Z"/><path class="cls-2" d="M40.23,46.52c1.58-5.24,2-10.69,3.76-15.82a13,13,0,0,1,2.8-5,5.66,5.66,0,0,1,4.85-1.79,39.75,39.75,0,0,1,5.71,1c.76.2.7.43.3.95a2.71,2.71,0,0,1-3.11,1.05c-2.83-.8-3.72-.09-4.57,2.8s-1.19,6-1.83,8.93a23.16,23.16,0,0,1-1.71,5.43A4,4,0,0,1,43,46.42,26,26,0,0,1,40.23,46.52Z"/><path class="cls-2" d="M65.15,24.32c1.58,0,1.62,0,1.27,1.54-1.07,4.89-1.9,9.82-2.89,14.73A19.69,19.69,0,0,1,62.9,43c-.8,2.45-2.25,3.46-5,3.54-1.51,0-1.49,0-1.25-1.39.77-4.54,1.47-9.09,2.37-13.61.2-1,.4-1.92.65-2.87C60.52,25.41,61.81,24.4,65.15,24.32Z"/></g></g></svg>