<svg xmlns="http://www.w3.org/2000/svg" viewBox="0 0 154.06 36.22"><defs><style>.cls-1{fill:#454545;}</style></defs><g id="Layer_2" data-name="Layer 2"><g id="Layer_1-2" data-name="Layer 1"><path class="cls-1" d="M154.06,27.07l-2,0c-.81,0-1.63,0-2.44,0-.27,0-.35-.06-.35-.34q0-6.72,0-13.44c0-1.32,0-2.63,0-3.94,0-.23.06-.29.29-.29,1.5,0,3,0,4.51,0Z"/><path class="cls-1" d="M36.21,18V6.08a8,8,0,0,0-.05-1.2A5.62,5.62,0,0,0,30.43,0H7C6.37,0,5.75,0,5.13,0a5.07,5.07,0,0,0-2.7,1A5.53,5.53,0,0,0,0,5.66Q0,18,0,30.38a5.78,5.78,0,0,0,.86,3.19A5.26,5.26,0,0,0,5.45,36.2q12.63,0,25.25,0a5,5,0,0,0,2.62-.69,5.57,5.57,0,0,0,2.88-5C36.23,26.33,36.21,22.16,36.21,18ZM13,31.3a5.5,5.5,0,0,1-3.66,2,11.46,11.46,0,0,1-2.55,0,2.92,2.92,0,0,1-2.58-2.52,24.38,24.38,0,0,1-.06-3.42c0-3.08,0-6.16,0-9.23h0q0-6.06,0-12.12A3.07,3.07,0,0,1,5.66,3.23a2.87,2.87,0,0,1,1.52-.36c1,0,2,0,3,0a4.21,4.21,0,0,1,2.9,1.42,4.84,4.84,0,0,1-.06,6.73L8.62,15.54C7.8,16.37,7,17.21,6.15,18c-.14.14-.09.2,0,.3l4.73,4.8A30,30,0,0,1,13,25.38,4.65,4.65,0,0,1,13,31.3Zm16.08,2H16.82c-.21,0-.24,0-.16-.23a18.17,18.17,0,0,0,1.27-3.88,6.75,6.75,0,0,0,0-2.15,8.91,8.91,0,0,0-1-3.28,6.85,6.85,0,0,0-1.1-1.52q-2-2-3.91-4c-.14-.14-.16-.21,0-.37,1.36-1.39,2.7-2.79,4.07-4.18a7.8,7.8,0,0,0,2.17-4.61,9.73,9.73,0,0,0-.44-4.51,7.51,7.51,0,0,0-.87-1.75h.76l2.47,0a4.13,4.13,0,0,1,2.48.89,4.68,4.68,0,0,1,1.8,2.84,4.58,4.58,0,0,1-1.13,4.26c-1.14,1.23-2.33,2.41-3.5,3.61s-2.24,2.29-3.37,3.43c-.15.15-.14.23,0,.37l7.87,8L30,32.18c.22.23.47.43.72.67A2.87,2.87,0,0,1,29,33.32Zm3.07-5v.31a.56.56,0,0,1-.28-.19L25.6,22.12,21.85,18.3c-.16-.16-.17-.24,0-.4,1.42-1.41,2.81-2.84,4.23-4.25a7.38,7.38,0,0,0,2-4,9.43,9.43,0,0,0,.17-2.54A8.43,8.43,0,0,0,26.94,3l-.08-.15A18.24,18.24,0,0,1,29.74,3a3.07,3.07,0,0,1,2.32,2.42,5.26,5.26,0,0,1,0,.89Z"/><path class="cls-1" d="M88.45,21.35V21q0-5.78-.07-11.55c0-.28.06-.36.36-.36,1.23,0,2.47,0,3.7,0,.21,0,.3,0,.3.27q0,8.75,0,17.48c0,.21-.07.26-.27.26-1.81,0-3.62,0-5.42,0a.36.36,0,0,1-.38-.25Q84.41,22.41,82.13,18L80.6,15c0-.07,0-.16-.13-.2s-.07,0-.07.08c0,1.71,0,3.41.08,5.11s0,3.23,0,4.84c0,.67,0,1.35,0,2,0,.21-.07.24-.26.24-1.29,0-2.59,0-3.88,0-.22,0-.27-.06-.27-.27q0-8.73,0-17.47c0-.22.06-.27.27-.27H82a.35.35,0,0,1,.35.24Q85.29,15.2,88.22,21A.59.59,0,0,0,88.45,21.35Z"/><path class="cls-1" d="M131,19.77a4,4,0,0,0-2.4-1.66l-.72-.19a1.71,1.71,0,0,1,.52-.24,4.24,4.24,0,0,0,2.15-1.74,4.6,4.6,0,0,0,.48-3,4,4,0,0,0-2.67-3.28,8.4,8.4,0,0,0-3.25-.56h-7.95c-.18,0-.22.06-.22.22,0,2.28,0,4.56,0,6.84,0,3.54,0,7.07,0,10.6,0,.25,0,.34.32.34h7.47a9.88,9.88,0,0,0,3.92-.68,4.59,4.59,0,0,0,2.42-2.17,5.25,5.25,0,0,0,.49-2.1A3.87,3.87,0,0,0,131,19.77Zm-9.25-5.42V12.7c0-.14,0-.23.18-.23a16.29,16.29,0,0,1,3,.17,1.56,1.56,0,0,1,1.36,1.14,1.62,1.62,0,0,1-.52,1.81,3.29,3.29,0,0,1-1.64.59,18.87,18.87,0,0,1-2.13.07c-.16,0-.22-.05-.22-.22C121.78,15.47,121.77,14.91,121.77,14.35ZM125,23.59a20.43,20.43,0,0,1-3,.13c-.17,0-.16-.09-.16-.21V19.66c0-.14,0-.21.19-.21a18.65,18.65,0,0,1,3.08.16,2,2,0,0,1,1.73,1.51A2,2,0,0,1,125,23.59Z"/><path class="cls-1" d="M56.28,21.5a3.47,3.47,0,0,0-.77-2.06A4.58,4.58,0,0,0,53.09,18c-.13,0-.39,0-.39-.15s.26-.14.4-.2a4.25,4.25,0,0,0,2-1.54,4.47,4.47,0,0,0,.55-3.61,4,4,0,0,0-2.56-2.87,8.93,8.93,0,0,0-3.43-.57H42c-.24,0-.31.06-.31.31,0,2.9,0,5.8,0,8.69s0,5.8,0,8.7c0,.24.05.31.31.31h7.44a10.12,10.12,0,0,0,3.92-.67,4.55,4.55,0,0,0,2.42-2.13A5.37,5.37,0,0,0,56.28,21.5Zm-9.82-7.15c0-.55,0-1.1,0-1.65,0-.15,0-.23.19-.23a16.29,16.29,0,0,1,3,.17A1.53,1.53,0,0,1,51,13.82a1.64,1.64,0,0,1-1,2,4.66,4.66,0,0,1-1.8.36c-.48,0-1,0-1.45,0-.21,0-.29-.05-.28-.28C46.47,15.43,46.46,14.89,46.46,14.35Zm3.77,9.07a6.82,6.82,0,0,1-2.15.3H46.69c-.18,0-.24,0-.23-.24,0-.64,0-1.28,0-1.92V19.7c0-.15,0-.25.2-.25a16.7,16.7,0,0,1,3.08.16,2,2,0,0,1,1.64,1.19A1.91,1.91,0,0,1,50.23,23.42Z"/><path class="cls-1" d="M147.79,26.78c-.77-2.09-1.52-4.2-2.29-6.29-.36-1-.74-1.93-1.9-2.3l.25-.08a4.24,4.24,0,0,0,1.9-1,4.68,4.68,0,0,0,1.15-4.61,4,4,0,0,0-2.67-2.86A8.69,8.69,0,0,0,141,9.1h-8c-.21,0-.29,0-.29.28q0,8.73,0,17.47c0,.22.07.26.27.26h4.13c.44,0,.38.06.38-.38,0-2.12,0-4.25,0-6.37,0-.32.09-.4.38-.37s.58,0,.88,0a2.35,2.35,0,0,1,2.09,1.2,8.79,8.79,0,0,1,.66,1.43c.52,1.4.92,2.83,1.38,4.25a.29.29,0,0,0,.34.24c1.46,0,2.93,0,4.4,0C147.86,27.1,147.88,27,147.79,26.78Zm-7.3-10.3a17.21,17.21,0,0,1-2.78.13c-.2,0-.26-.06-.26-.25,0-.6,0-1.21,0-1.81V12.72c0-.12,0-.25.17-.24a12.41,12.41,0,0,1,3.16.23,1.72,1.72,0,0,1,1.39,1.17A1.91,1.91,0,0,1,140.49,16.48Z"/><path class="cls-1" d="M99.18,18.94v7.84c0,.24,0,.32-.3.32-1.4,0-2.79,0-4.19,0-.22,0-.28-.05-.28-.28q0-8.71,0-17.44c0-.22,0-.29.28-.29H98.9c.24,0,.28.07.28.29v7.09a.51.51,0,0,0,.27-.25q2.56-3.45,5.11-6.92a.4.4,0,0,1,.36-.21h5.49a5.94,5.94,0,0,1-.66.88l-5.58,7c-.39.49-.39.48,0,1l6.77,9.08a.59.59,0,0,1-.32,0h-5.39a.58.58,0,0,1-.55-.3l-4.4-6.43-.81-1.18A.48.48,0,0,0,99.18,18.94Z"/><path class="cls-1" d="M75.35,26.82c-.73-1.89-1.47-3.78-2.19-5.67q-2.28-5.89-4.54-11.79a.36.36,0,0,0-.39-.27h-5.3a.31.31,0,0,0-.38.23q-3.31,8.75-6.64,17.49c-.1.26,0,.28.2.28,1.43,0,2.87,0,4.3,0,.2,0,.27-.07.34-.25.4-1.12.83-2.23,1.23-3.35a.31.31,0,0,1,.35-.23h6.32a.29.29,0,0,1,.32.23c.38,1.12.78,2.23,1.16,3.35a.31.31,0,0,0,.35.26h5C75.4,27,75.38,26.9,75.35,26.82Zm-7.86-6.95c-1.36,0-2.71,0-4.07,0-.14,0-.25,0-.17-.21.74-2.23,1.47-4.46,2.21-6.7,0,0,0-.12.14-.15.3,1,.61,2,.91,3,.38,1.28.76,2.56,1.16,3.84C67.74,19.84,67.7,19.87,67.49,19.87Z"/></g></g></svg>