<svg xmlns="http://www.w3.org/2000/svg" viewBox="0 0 141.03 41.08"><defs><style>.cls-1{fill:#282828;}.cls-2{fill:#c1c1c1;}</style></defs><g id="Layer_2" data-name="Layer 2"><g id="Layer_1-2" data-name="Layer 1"><path class="cls-1" d="M14.58,25.83a9.56,9.56,0,0,1,.7-.94,6.61,6.61,0,0,1,3.59-2.19,6.15,6.15,0,0,1,3.4.16A5.37,5.37,0,0,1,25.51,26a9.18,9.18,0,0,1,.7,2.83,17.06,17.06,0,0,1,.06,1.75q0,4.91,0,9.82c0,.34.05.3-.29.3H22c-.09,0-.12,0-.12-.12V31a9,9,0,0,0-.28-2.48,3.77,3.77,0,0,0-.74-1.45,2.68,2.68,0,0,0-2.24-.91A3.21,3.21,0,0,0,16,27.82a4,4,0,0,0-.56,1.87c0,.21,0,.43,0,.65q0,5,0,10c0,.37,0,.33-.32.33h-4a.09.09,0,0,1-.1-.1V30.48a7.19,7.19,0,0,0-.24-2,3.58,3.58,0,0,0-.73-1.39,2.61,2.61,0,0,0-2.16-.89A3.29,3.29,0,0,0,5,28.12a4.52,4.52,0,0,0-.52,2.2q0,5,0,10c0,.41.06.35-.36.35H.28c-.1,0-.15,0-.14-.12a1.77,1.77,0,0,0,0-.23V28.09c0-1.47,0-2.95-.1-4.42,0-.2,0-.4,0-.6s0-.14.13-.13h3.5a.45.45,0,0,1,.22,0l.09,1.28c0,.38.05.75.08,1.13,0,.06,0,.15.06.17s.12-.07.16-.13a6.54,6.54,0,0,1,1.41-1.56,5.92,5.92,0,0,1,3.14-1.27,6.1,6.1,0,0,1,2.33.16,5,5,0,0,1,3.29,2.81A.48.48,0,0,0,14.58,25.83Z"/><path class="cls-1" d="M82,40.26c-.1-1.64-.13-3.28-.13-4.93V16c0-.08,0-.13-.12-.12H77.69c-.34,0-.3,0-.3.3v8.73a.23.23,0,0,1-.15-.1,4.52,4.52,0,0,0-1.68-1.48,6.41,6.41,0,0,0-2.51-.7,7.31,7.31,0,0,0-5.54,1.74A8.65,8.65,0,0,0,64.73,29a12.72,12.72,0,0,0-.3,3.89,10.27,10.27,0,0,0,1,3.92,7.5,7.5,0,0,0,3,3.26,7,7,0,0,0,4.82.85,6.09,6.09,0,0,0,4.45-3s0-.14.15-.11c.06.84.12,1.68.17,2.53,0,.26,0,.24.25.24h3.36C82,40.66,82,40.66,82,40.26Zm-4.62-7a4.39,4.39,0,0,1-1,2.78,3.79,3.79,0,0,1-2.83,1.39,4,4,0,0,1-4-2.47,7.18,7.18,0,0,1-.61-2.7,8.68,8.68,0,0,1,.4-3.12,4.81,4.81,0,0,1,1.7-2.43,4,4,0,0,1,6.21,2.39,4.66,4.66,0,0,1,.12,1.06V31.7h0C77.38,32.23,77.4,32.76,77.38,33.28Z"/><path class="cls-1" d="M46.4,32c0-2.33,0-4.66,0-7,0-.57-.06-1.15-.09-1.72,0-.08,0-.15,0-.23a.07.07,0,0,1,.08-.08h3.59c.26,0,.26,0,.28.26,0,.74.11,1.48.17,2.22,0,.06,0,.15.07.17s.12-.08.15-.14a5.67,5.67,0,0,1,1.53-1.63,6.67,6.67,0,0,1,3.23-1.23,6.88,6.88,0,0,1,2.82.26,5.7,5.7,0,0,1,3.61,3.45,9.18,9.18,0,0,1,.62,2.79c.05.57.05,1.13.05,1.69v9.57c0,.35,0,.31-.32.31h-4c-.13,0-.2,0-.18-.16a1.77,1.77,0,0,0,0-.23V30.93a8.16,8.16,0,0,0-.26-2.31,3.41,3.41,0,0,0-1.16-1.83,3,3,0,0,0-1.45-.58,3.72,3.72,0,0,0-4,2.68A4.17,4.17,0,0,0,50.92,30c0,.26,0,.52,0,.79v9.59c0,.39.05.33-.32.33h-4c-.11,0-.16,0-.15-.14a1.62,1.62,0,0,0,0-.22Z"/><path class="cls-1" d="M43.53,40.5a21.65,21.65,0,0,1-.21-3c0-2.33,0-4.67,0-7,0-.39,0-.79,0-1.18a9,9,0,0,0-.42-2.41,5.82,5.82,0,0,0-2.33-3.2,7.26,7.26,0,0,0-3.29-1.09,14,14,0,0,0-4.73.34,10.55,10.55,0,0,0-2.66,1c-.28.15-.28.16-.19.45l.72,2.39a.32.32,0,0,0,.1.2,9,9,0,0,1,2.64-1,7.84,7.84,0,0,1,3.27-.14,3,3,0,0,1,1.66.84A3.13,3.13,0,0,1,38.83,29c0,.08,0,.12-.13.11h-.14a21.78,21.78,0,0,0-3.51.29,11.11,11.11,0,0,0-3.5,1.12,6.16,6.16,0,0,0-2.19,1.83,5.61,5.61,0,0,0-1,4.06,4.92,4.92,0,0,0,3.27,4.26,6.71,6.71,0,0,0,5-.13A5.85,5.85,0,0,0,39,38.84c0-.06.08-.15.17-.13s.07.13.08.21c.08.5.16,1,.23,1.5,0,.24,0,.24.27.24h3.56a.37.37,0,0,0,.23,0A.57.57,0,0,0,43.53,40.5Zm-4.6-7v1a3.25,3.25,0,0,1-1.58,2.83,3.56,3.56,0,0,1-2.73.53,2.21,2.21,0,0,1-1.86-2.14,3.27,3.27,0,0,1,.08-1.12,2.79,2.79,0,0,1,1.49-1.75,6.4,6.4,0,0,1,2.06-.63A13,13,0,0,1,38.72,32c.2,0,.21,0,.21.2Z"/><path class="cls-1" d="M102.63,26.85l-.85-.11a4.12,4.12,0,0,0-3,.89A4.17,4.17,0,0,0,97.38,30a7.53,7.53,0,0,0-.18,1.71v8.63c0,.39.06.34-.34.34h-4c-.13,0-.2,0-.19-.16a1.77,1.77,0,0,0,0-.23c0-4.22,0-8.45,0-12.67,0-1.48,0-3-.13-4.45,0-.2,0-.21.19-.21h3.5c.19,0,.19,0,.2.21,0,.91.07,1.81.11,2.71,0,.1,0,.21,0,.31s0,.14.08.15.1-.07.13-.13a5.06,5.06,0,0,1,.62-1.2,4.67,4.67,0,0,1,3-1.93,10.78,10.78,0,0,1,2-.14c.22,0,.22,0,.22.23,0,1.19,0,2.37,0,3.56A.19.19,0,0,1,102.63,26.85Z"/><path class="cls-1" d="M85,31.8V23.25c0-.36,0-.31.32-.31h4.09c.08,0,.1,0,.11.11V40.37a.4.4,0,0,0,0,.11c0,.16-.06.19-.2.19-1.38,0-2.76,0-4.15,0-.14,0-.18-.05-.17-.18a1.34,1.34,0,0,0,0-.2Z"/><path class="cls-1" d="M104.74,31.83V23.28c0-.4,0-.34.33-.34h4.06c.09,0,.12,0,.12.12v17.3c0,.34,0,.3-.29.3h-4.1c-.08,0-.12,0-.12-.11V31.83Z"/><path class="cls-2" d="M141,8.71l-.07-.09c-1-1.39-2-2.71-3.16-4a9,9,0,0,0-.95-1,3.69,3.69,0,0,0-3.22-.89A10.31,10.31,0,0,0,130.36,4h0l-.1,0-4.84,2.7a9.31,9.31,0,0,1-1.4.73,6,6,0,0,1-3.1.32c-.32-.05-.63-.16-1-.23l-.23-.11a4.5,4.5,0,0,1-2.41-2.11c0-.1-.11-.19-.17-.29A14.1,14.1,0,0,0,115,2.3a7.94,7.94,0,0,0-3.33-2,8.73,8.73,0,0,0-4.51,0A14.13,14.13,0,0,0,103,2c-.42.26-.87.47-1.28.76h0l-.2.09Q97,5.4,92.52,8A5.67,5.67,0,0,1,89,8.58a7.52,7.52,0,0,1-1.41-.38h0L87.27,8a4.57,4.57,0,0,1-2-1.81,18.32,18.32,0,0,0-1.28-2,9.23,9.23,0,0,0-3.31-2.8A7.16,7.16,0,0,0,78,.76,10,10,0,0,0,75,1a14.38,14.38,0,0,0-3.21,1.19c-.83.43-1.62.92-2.43,1.38L56.05,11.19l-1.52.87a.74.74,0,0,0,.17.24c.81,1,1.64,2,2.44,3a7.86,7.86,0,0,0,1.51,1.43,5.7,5.7,0,0,0,4.54,1.13,5.77,5.77,0,0,0,1.86-.63l8-4.6c1.07-.61,2.12-1.26,3.23-1.8a14.53,14.53,0,0,1,5.27-1.52,8.65,8.65,0,0,1,4.34.79,9.91,9.91,0,0,1,3.53,3l.53.7c.24.39.47.79.72,1.18a4.92,4.92,0,0,0,1.25,1.36,4.46,4.46,0,0,0,3.81.82,6.17,6.17,0,0,0,1.72-.77L104,12.51c.59-.34,1.18-.66,1.75-1,.39-.18.75-.42,1.13-.64a16.49,16.49,0,0,1,5.88-2.16,9.55,9.55,0,0,1,3.11.07,8.78,8.78,0,0,1,4.38,2.3,13.59,13.59,0,0,1,2.27,2.9,4.48,4.48,0,0,0,.57.8,4.45,4.45,0,0,0,1.2,1.09,4.06,4.06,0,0,0,2.94.61,5.93,5.93,0,0,0,1.94-.73c1.1-.63,2.2-1.26,3.29-1.9.63-.36,1.26-.7,1.87-1.1l.13-.05,5.44-3.14c.32-.18.64-.36.95-.55S141.06,8.88,141,8.71Z"/></g></g></svg>