<svg xmlns="http://www.w3.org/2000/svg" viewBox="0 0 63.04 91.92"><defs><style>.cls-1{fill:#bbb;}.cls-2{fill:#7f7f7f;}.cls-3{fill:gray;}.cls-4{fill:#828282;}.cls-5{fill:#818181;}.cls-6{fill:#838383;}.cls-7{fill:#848484;}.cls-8{fill:#868686;}.cls-9{fill:#bdbdbd;}.cls-10{fill:#fdfdfd;}.cls-11{fill:#e9e9e9;}.cls-12{fill:#bcbcbc;}</style></defs><g id="Layer_2" data-name="Layer 2"><g id="Layer_1-2" data-name="Layer 1"><path class="cls-1" d="M56.11,33.55c-.38-.3-.5-.1-.74.2-.51.66-1.17.59-1.45-.13-.12-.27-.09-.65-.55-.44s-.63.34-.47.83c.25.79.69,1.28,1.48,1.23a2,2,0,0,0,1.85-.76A.59.59,0,0,0,56.11,33.55Zm0,0c-.38-.3-.5-.1-.74.2-.51.66-1.17.59-1.45-.13-.12-.27-.09-.65-.55-.44s-.63.34-.47.83c.25.79.69,1.28,1.48,1.23a2,2,0,0,0,1.85-.76A.59.59,0,0,0,56.11,33.55Zm4-5.66A47.21,47.21,0,0,0,52,27.62a2.26,2.26,0,0,0-2.27,1.71c-2.21,6.1-3.38,12.49-5.28,18.68a4.82,4.82,0,0,0-.12,2.2,1.45,1.45,0,0,0,1.24,1.29c.77.15,1-.4,1.2-.94a12.47,12.47,0,0,0,.54-1.41c.65-2.25,1.27-4.52,1.93-6.77s.86-2.32,3.09-2.23h.23a19.12,19.12,0,0,1,3,.18c.79.17,1.13.51,1.1,1.35a17.8,17.8,0,0,1-.92,5.84,11.26,11.26,0,0,0-.53,2.15c-.19,1.1.13,1.5,1.18,1.62a1.64,1.64,0,0,0,2-1.33c.5-3.21,1-6.43,1.56-9.63.66-3.53,1.6-7,1.71-10.62C61.68,28.29,61.5,28,60.12,27.89ZM54.73,31c.1-.3.09-.71.53-.72s.21.27.15.45,0,.83-.48.86C54.64,31.62,54.74,31.25,54.73,31Zm-5,1.7c.53-.13.93.1,1.57.46A2.14,2.14,0,0,1,49.68,32.72Zm.69,3c.21-.54.66-.69,1.24-.86C51.36,35.56,50.85,35.65,50.37,35.76Zm1.2-5.21c.27.45.57.7.49,1.31C51.65,31.48,51.33,31.25,51.57,30.55Zm1.92,7.25s-.21-.08-.21-.12a1.29,1.29,0,0,1,.51-1.18c.08.08.15.13.15.17A1.34,1.34,0,0,1,53.49,37.8Zm2.87-1.59c.73.37.74.39,1,1.55A6.19,6.19,0,0,1,56.36,36.21Zm.93-1.9a3.08,3.08,0,0,1-3.17,1.47,2.06,2.06,0,0,1-2-1.5c-.37-1-.15-1.43,1-1.7a8,8,0,0,1,1.2-.12,3.65,3.65,0,0,1,2.76,1C57.31,33.66,57.52,33.91,57.29,34.31Zm.56-1.74s0-.07,0-.09a2.68,2.68,0,0,1,1.54-.94c.14,0,.19.13.15.28C59.44,32.17,58.68,32.51,57.85,32.57Zm.32,1.73a1.82,1.82,0,0,1,1.65.57A2.1,2.1,0,0,1,58.17,34.3Zm-2.06-.75c-.38-.3-.5-.1-.74.2-.51.66-1.17.59-1.45-.13-.12-.27-.09-.65-.55-.44s-.63.34-.47.83c.25.79.69,1.28,1.48,1.23a2,2,0,0,0,1.85-.76A.59.59,0,0,0,56.11,33.55Z"/><path class="cls-1" d="M24.72,33.93c-.23.82-.66,1.38-1.51,1.31a2,2,0,0,1-1.85-.76.59.59,0,0,1,.14-.93c.38-.31.5-.09.73.2.55.69,1.14.59,1.47-.23.12-.3.2-.52.54-.34S24.86,33.47,24.72,33.93Z"/><path class="cls-1" d="M33.27,48.38c-.28-1.63-1-3.15-1.35-4.74-1.06-4.23-2-8.49-3.46-12.61-1.26-3.62-.52-3.24-4.78-3.5a51.14,51.14,0,0,0-6.22.36c-1.34.16-1.57.41-1.49,1.73s.16,2.62.36,3.91c.6,3.82,1.68,7.53,2.05,11.4.17,1.73.92,3.37.87,5.14a1,1,0,0,0,.35.71,2,2,0,0,0,2.33.31c.9-.38.6-1.15.44-1.74-.66-2.57-1.53-5.08-1.39-7.8a1.08,1.08,0,0,1,.94-1.18,17.44,17.44,0,0,1,3.61-.22c1.9-.12,2.16.08,2.75,1.86.1.29.16.58.24.88a63.09,63.09,0,0,0,2.4,7.79c.18.42.33.89,1,.83a1.41,1.41,0,0,0,1.3-.95A4,4,0,0,0,33.27,48.38ZM22.4,30.29c.41.15.43.55.49.9s0,.54-.27.44c-.43-.17-.35-.67-.47-1C22.09,30.39,22.22,30.23,22.4,30.29Zm-4.61,4.56a1.69,1.69,0,0,1,1.54-.52A1.79,1.79,0,0,1,17.79,34.85Zm.14-3.39a3.27,3.27,0,0,1,1.84,1.07A1.77,1.77,0,0,1,17.93,31.46Zm2.42,6.17a1.86,1.86,0,0,1,.74-1.55A2.67,2.67,0,0,1,20.35,37.63Zm3.93.12a.35.35,0,0,1-.25,0,1.49,1.49,0,0,1-.35-1.23h.19A1.13,1.13,0,0,1,24.28,37.75Zm-.51-2c-1.27.08-2.48.06-3.3-1.2-.35-.53-.27-.85.17-1.18a3.57,3.57,0,0,1,2.8-.88,2.71,2.71,0,0,1,.4,0c.76.08,1.65.09,1.83,1A2.2,2.2,0,0,1,23.77,35.75Zm1.78-4c-.1-.52.22-.76.47-1.31A.93.93,0,0,1,25.55,31.78ZM26,35a1.46,1.46,0,0,1,1.36.83A2,2,0,0,1,26,35Zm.56-1.83a1.31,1.31,0,0,1,1.37-.46A2.13,2.13,0,0,1,26.56,33.19Z"/><path class="cls-1" d="M24.13,61.05c-.23.83-.67,1.38-1.54,1.3a2,2,0,0,1-1.82-.79c-.28-.4-.14-.67.18-.93s.47,0,.69.21c.61.72,1.14.64,1.47-.17.1-.24.07-.6.48-.41S24.29,60.53,24.13,61.05Z"/><path class="cls-1" d="M32.64,75.25c-.43-2.28-1.42-4.41-1.88-6.68a106.86,106.86,0,0,0-3.49-12.29,2,2,0,0,0-2.08-1.53c-1,0-2,0-3,0a31.29,31.29,0,0,0-5.72.34,1.07,1.07,0,0,0-1.06,1.2c0,.34,0,.68,0,1,.48,5.73,2,11.29,2.86,17a20.2,20.2,0,0,1,.38,2.59c0,1.1.8,1.69,2,1.56s1.41-.57,1.2-1.81c0-.2-.09-.39-.14-.59a23.76,23.76,0,0,1-1.3-7.1c0-1,.41-1.34,1.3-1.51A24.52,24.52,0,0,1,25,67.24c1.84-.11,2.06.06,2.67,1.84.1.29.17.58.25.88a66.79,66.79,0,0,0,2.34,7.69c.21.48.34,1.08,1.07,1a1.49,1.49,0,0,0,1.37-1.28A5.77,5.77,0,0,0,32.64,75.25ZM21.69,57.31c.64.38.66.86.42,1.58A1.59,1.59,0,0,1,21.69,57.31ZM17.2,62a1.41,1.41,0,0,1,1.4-.43A1.77,1.77,0,0,1,17.2,62Zm.3-3.23a2.79,2.79,0,0,1,1.84,1A1.85,1.85,0,0,1,17.5,58.72Zm2.12,6.06c.18-.61.31-1.1.85-1.37C20.21,63.83,20.28,64.45,19.62,64.78Zm3.85.13a1.46,1.46,0,0,1-.36-1.34,1.28,1.28,0,0,1,.67,1.24A.18.18,0,0,1,23.47,64.91Zm.39-2.21a3.51,3.51,0,0,1-4-1.05.71.71,0,0,1,.18-1.18,3.61,3.61,0,0,1,2.56-.92c.36,0,.6,0,.83.06.67.1,1.38.22,1.66.93C25.32,61,24.45,62.41,23.86,62.7ZM25,59c-.15-.59.21-.85.53-1.39A1.12,1.12,0,0,1,25,59Zm.39,3.17a1.67,1.67,0,0,1,1.45.82A2.08,2.08,0,0,1,25.36,62.12Zm.51-1.78a1.89,1.89,0,0,1,1.64-.58A2.48,2.48,0,0,1,25.87,60.34Z"/><path class="cls-1" d="M10.47,79.35a15.14,15.14,0,0,0-1.82-.07,4.13,4.13,0,0,1-3.76-2c-1.4-1.83-2.61-3.74-2.64-6.17,0-.84.15-1.57,1-1.86a1.59,1.59,0,0,1,2,.88,28,28,0,0,1,2,3.95,3.21,3.21,0,0,0,3.94,1.93,1.75,1.75,0,0,0,1.52-2,45.45,45.45,0,0,0-2-10.35,29.53,29.53,0,0,1-1-4A1.53,1.53,0,0,0,8.4,58.29a12.69,12.69,0,0,0-3.31-.15c-.88.06-1.13.77-1.21,1.5-.1.9-.13,1.81-.2,2.71-.05.74-.31,1.33-1.15,1.4a1.47,1.47,0,0,1-1.61-1.1,7.37,7.37,0,0,1-.21-3.3c.15-1.3.4-2.58.57-3.88a1,1,0,0,1,1.05-1,45.45,45.45,0,0,1,8.65.06,2.36,2.36,0,0,1,2.09,1.79,36.2,36.2,0,0,1,1.65,8c.3,3,1.25,5.84,1.77,8.78a18.69,18.69,0,0,1,.33,3.5,2.18,2.18,0,0,1-1.67,2.34A13,13,0,0,1,10.47,79.35Z"/><path class="cls-1" d="M6.67,26.8A35.41,35.41,0,0,1,11,27a2.44,2.44,0,0,1,2.17,2,33.11,33.11,0,0,1,1.5,7.18c.29,3.19,1.28,6.23,1.85,9.37a19.4,19.4,0,0,1,.34,3.4A2.3,2.3,0,0,1,15,51.45a9.1,9.1,0,0,1-2.88.39c-1.48,0-3-.11-4.44-.16a2.08,2.08,0,0,1-1.29-.51,10.6,10.6,0,0,1-4.1-7.55,1.6,1.6,0,0,1,1.11-1.9c1-.3,1.45.19,1.9.88a25.5,25.5,0,0,1,2,4,3,3,0,0,0,3.08,2c1.71,0,2.49-.82,2.35-2.51a48,48,0,0,0-2-9.86,33.3,33.3,0,0,1-1-4.19,1.5,1.5,0,0,0-1.41-1.35,24.68,24.68,0,0,0-2.71-.19,1.51,1.51,0,0,0-1.74,1.54c-.11.9-.11,1.81-.19,2.71-.06.66-.19,1.28-1,1.38a1.47,1.47,0,0,1-1.73-1,7.2,7.2,0,0,1-.22-3.29c.16-1.3.41-2.59.57-3.89a1,1,0,0,1,1-1C3.59,26.79,4.86,26.83,6.67,26.8Z"/><path class="cls-1" d="M36.38,58.3a37.12,37.12,0,0,1,6.75,0c1.15.15,1.38.39,1.36,1.54a8.11,8.11,0,0,1-.69,2.83A53.54,53.54,0,0,1,37.64,74c-.19.26-.53.52-.37.87s.59.27.91.26c1.41,0,2.82-.11,4.23-.13.67,0,.73-.26.49-.81A4.92,4.92,0,0,1,42.64,72a1.43,1.43,0,0,1,1.55-1.36c.89,0,1.12.45,1.25,1.22.33,1.92.77,3.82,1.12,5.73.23,1.32.06,1.53-1.22,1.55a63.09,63.09,0,0,1-8.36-.2c-1.1-.13-2-.39-2.21-1.71a4.18,4.18,0,0,0-.35-1,5.12,5.12,0,0,1,.25-4.87,95.25,95.25,0,0,0,4.68-9.24c.49-1.19.44-1.27-.88-1.27s-2.49.08-3.73,0c-.82,0-1,.35-.65,1,.43.89.07.92-.74,1a1.63,1.63,0,0,1-2.05-1.31c-.28-.86-.65-1.69-1-2.53-.24-.56-.2-.84.54-.82C32.68,58.33,34.53,58.3,36.38,58.3Z"/><path class="cls-1" d="M48.43,59.92C46,60,46,60,45.07,57.83c-.26-.62-.46-1.25-.7-1.88-.17-.43-.07-.6.42-.61a118.91,118.91,0,0,1,12.09,0c1.71.13,2.06.7,1.64,2.52a25.24,25.24,0,0,1-2.22,5.6,52.31,52.31,0,0,1-4.59,7.68c-.18.24-.48.5-.3.8a.89.89,0,0,0,.91.28,33,33,0,0,1,4.33-.16c.57,0,.61-.25.43-.69a5.22,5.22,0,0,1-.31-2.28,1.46,1.46,0,0,1,1.52-1.42c.83,0,1.15.4,1.28,1.21.33,1.91.78,3.81,1.13,5.72.24,1.3.1,1.49-1.18,1.57a45.13,45.13,0,0,1-8.85-.26A1.68,1.68,0,0,1,49,74.52c-.2-.91-.62-1.76-.89-2.66A3.79,3.79,0,0,1,48.56,69c1.66-3.26,3.54-6.4,4.94-9.79.48-1.16.42-1.24-.83-1.24S50.25,58,49,58c-.88,0-1.15.33-.79,1.17C48.34,59.37,48.54,59.6,48.43,59.92Z"/><path class="cls-1" d="M45.69,29.57a37.06,37.06,0,0,1-1.9,8.54,46,46,0,0,0-1.35,6.39,17.94,17.94,0,0,1-1.19,4.15,6.72,6.72,0,0,1-.65,1.14c-1.2,1.6-2.45,1.54-3.35-.22a61.15,61.15,0,0,1-3.48-9.75c-.93-3-1.77-6-2.87-8.91a10.84,10.84,0,0,0-.84-1.83c-.38-.61-.64-1.14.12-1.62s1.42-.61,2.07.14a11.61,11.61,0,0,1,2.49,4.78,78.91,78.91,0,0,0,2.91,8.89c.28.73.53,1.77,1.5,1.66s.87-1.23,1-2c.7-3.45,1.35-6.9,2-10.35a4.89,4.89,0,0,1,.83-1.93,1.68,1.68,0,0,1,2-.72C45.91,28.21,45.6,28.92,45.69,29.57Z"/><path class="cls-2" d="M27,14.09,26.2,14c1-.21,1.21-.88,1.36-1.66a16.51,16.51,0,0,0,.13-3.22.92.92,0,0,0-1-1L21.55,8c-.56,0-.87.19-1,.85-.39,2.29-.91,4.55-1.3,6.83a32.45,32.45,0,0,0-.7,6.2c0,.4,0,.87.52.93A17.66,17.66,0,0,0,26,22.61,1.74,1.74,0,0,0,27.41,21a51.18,51.18,0,0,1,.64-5.5A1.1,1.1,0,0,0,27,14.09Zm-2.75,4A15.21,15.21,0,0,1,23.78,20c-.18.59-.71.51-1.18.46s-.3-.49-.35-.76c.08-.62.19-1.22.23-1.82.05-.78.48-.92,1.16-.84S24.32,17.6,24.22,18.1Zm-.59-5.28c-.35-.12-1,.08-.77-.61.13-.47-.19-1.28.79-1.19.59,0,1.08.1,1,1S24.11,12.72,23.63,12.82Z"/><path class="cls-2" d="M31.84,14.35a13.11,13.11,0,0,0-.17,3.82,14.5,14.5,0,0,1-.3,4.1,1.1,1.1,0,0,1-1.27,1,1.21,1.21,0,0,1-1.22-1.22,15.65,15.65,0,0,1,0-3.21c.27-3.12.38-6.24.46-9.36,0-.37-.26-1,.43-1.05s1.4-.44,2,.28a6.24,6.24,0,0,1,.91,2,46.79,46.79,0,0,0,2.47,6c.1.21.22.41.33.62a.74.74,0,0,0,.74.43c.39-.05.45-.4.46-.68.07-1.54.45-3.05.37-4.6,0-.94-.06-1.89,0-2.83a5,5,0,0,1,.17-1.08A.84.84,0,0,1,38,8c.49,0,.69.31.79.75a16.65,16.65,0,0,1,.36,5.21c-.24,2.24-.07,4.5-.36,6.73,0,.33-.1.66-.17,1-.14.59-.21,1.28-1,1.33s-1.78.24-2.38-.81a58.24,58.24,0,0,1-2.93-6.61Z"/><path class="cls-2" d="M41.21,83.79v0h0a.7.7,0,0,1-.78.78.66.66,0,0,1-.71-.42c0-.13-.12-.25,0-.35a.39.39,0,0,1,.25-.06C40.38,84.49,40.8,83.77,41.21,83.79Z"/><path class="cls-2" d="M41.5,81.23a5.31,5.31,0,0,0-.66,0c-2.34,0-2.36,0-3,2-.36,1.18-.67,2.39-1,3.58s-.66,2.46-.95,3.7c-.11.49-.16,1.09.5,1.24s.64-.5.76-.87c.34-1,.61-2.06.9-3.09.19-.7.51-1.15,1.34-1a3.65,3.65,0,0,0,.81,0c.74,0,1.07.21,1.05,1a13.13,13.13,0,0,1-.61,2.94c-.12.49,0,.81.54.87a.68.68,0,0,0,.86-.61c.44-2.47,1-4.93,1.31-7.42S44,81.5,41.5,81.23Zm-.23,3.32a1.32,1.32,0,0,1-1.79-.13c-.18-.3-.47-.7.09-.9s1.2-.43,1.65.25c0,0,.07,0,.09,0C41.93,84.06,41.5,84.34,41.27,84.55Z"/><path class="cls-2" d="M40.42,20.55c.35-3.87.36-7.77.92-11.62.06-.4-.06-.91.66-.87s.79.29.89.85a50,50,0,0,1,.52,5.6q.21,3.36.33,6.72c0,.61.24,1.41-.53,1.68a3.75,3.75,0,0,1-2.55-.22c-.23-.09-.23-.4-.23-.63C40.42,21.56,40.42,21.05,40.42,20.55Z"/><path class="cls-2" d="M18.79,87.55a17.55,17.55,0,0,1-.29,2.7,1.43,1.43,0,0,1-1.36,1.24,15.72,15.72,0,0,1-2.91,0,.9.9,0,0,1-1-1,5.85,5.85,0,0,1,.6-2.62c.1-.2.19-.47.49-.43s.37.26.47.48c.22.44.07.93.17,1.38s.24.8.69.91a1,1,0,0,0,1-.39,4.53,4.53,0,0,0,.86-3.22c0-.41-.35-.48-.74-.46a7.06,7.06,0,0,1-2.1-.09.94.94,0,0,1-.8-1.18c.19-1,.4-2,.68-2.93s1.26-1.33,2.7-.89c1.12.34,1.48.92,1.22,1.93-.09.33-.19.68-.58.73s-.48-.3-.61-.57-.18-.43-.28-.64c-.18-.36-.4-.32-.58,0a7.68,7.68,0,0,0-.41.81c-.55,1.29-.4,1.52,1,1.48s1.59.11,1.72,1.56C18.75,86.75,18.77,87.15,18.79,87.55Z"/><path class="cls-2" d="M36.84,82.21c-.34,2.63-1.21,5.39-1.8,8.2a2.18,2.18,0,0,1-.27.65c-.23.42-.5.84-1,.86s-.73-.53-.9-.94c-.89-2.15-1.37-4.42-2-6.63a19.22,19.22,0,0,0-1-2.85c-.16-.34-.22-.64.17-.86a.65.65,0,0,1,.95.23,6.91,6.91,0,0,1,1,2.29,31.48,31.48,0,0,0,1.28,3.92c.14.33.28.77.73.72s.34-.5.44-.8a35.23,35.23,0,0,0,.77-4,8.94,8.94,0,0,1,.32-1.26c.16-.48.44-.9,1-.73S36.84,81.59,36.84,82.21Z"/><path class="cls-2" d="M10.1,81c.57,0,1.14,0,1.71,0,.34,0,.72,0,.78.47a.78.78,0,0,1-.66.88,2.86,2.86,0,0,1-1.3,0c-.73-.17-1.05.16-1.25.77-.08.22-.17.44-.24.66-.45,1.44-.22,1.74,1.3,1.64.2,0,.4,0,.6,0,.35,0,.69,0,.73.5a.73.73,0,0,1-.56.84,3.29,3.29,0,0,1-2,0c-.71-.25-.91.09-1,.65a5.58,5.58,0,0,0-.09.59c-.31,2.13-.31,2.13,1.78,2.28.43,0,.84.08.87.61s-.52.54-.87.55c-.91,0-1.82,0-2.72,0S6,91.06,6.1,90.23c.26-1.93.7-3.82,1.09-5.73.18-.88.42-1.76.52-2.66.09-.71.35-1,1.08-.9a9.53,9.53,0,0,0,1.31,0Z"/><path class="cls-1" d="M35.75,54.91H41.3a2,2,0,0,1,1,.12c.46.25.88.57.84,1.14s-.6.59-1,.64a55.56,55.56,0,0,1-8,.27c-1.28,0-2.55-.11-3.83-.11a1.27,1.27,0,0,1-1.28-.77c-.35-.71-.15-1.1.64-1.11,2,0,4,0,6,0Z"/><path class="cls-2" d="M46,91.44H44.1c-.62,0-.83-.27-.76-.87.36-2.94,1.07-5.8,1.64-8.7.05-.27.11-.52.48-.53a1,1,0,0,1,1,.52,2.93,2.93,0,0,1,.15,1.87,18.23,18.23,0,0,1-1.19,4.15c-.5,1.2-.19,1.68,1.13,1.72.8,0,1.61,0,2.42,0,.43,0,.79.17.82.69a.8.8,0,0,1-.68.87A9.22,9.22,0,0,1,46,91.44Z"/><path class="cls-2" d="M4.73,82.39c-.42.06-1-.36-1.24.29a4,4,0,0,0-.58,2.4c.07.36.44.38.74.39s.73-.06,1.1-.06.87-.12.93.48-.31.85-.84.91a3.73,3.73,0,0,1-1.79-.1c-.63-.24-.86,0-1,.57a11.83,11.83,0,0,0-.58,3.06,1.15,1.15,0,0,1-.34.9.78.78,0,0,1-.76.16C0,91.27,0,90.94,0,90.63a27.81,27.81,0,0,1,.69-4.26c.31-1.61.68-3.22,1-4.83.09-.47.27-.61.73-.6,1,0,2.08,0,3.12,0,.42,0,1,0,1,.58s-.45.79-1,.84A5.48,5.48,0,0,1,4.73,82.39Z"/><path class="cls-2" d="M23.06,88.86c0,.52.08,1.23.09,1.93s-.36.9-1,.85-1-.07-1-.89c.05-2.26.5-4.48.6-6.73,0-.72-.15-.83-.79-.84-.49,0-1.35.33-1.37-.51s.78-.76,1.4-.74,1.1.12,1.07-.75c0-.32.4-.28.66-.31s.53,0,.54.31c0,.8.57.66,1.07.68s.87,0,1.3.09.64,0,.65.46a.71.71,0,0,1-.5.69,3.09,3.09,0,0,1-1.59.17c-.64-.08-.9.12-.92.78C23.25,85.6,23.15,87.14,23.06,88.86Z"/><path class="cls-1" d="M55,79.31c-1.34,0-2.68,0-4,0a1.15,1.15,0,0,1-1.21-.85c-.26-.67-.12-1.12.72-1.13l9.56-.12a1.13,1.13,0,0,1,.91.34,1.14,1.14,0,0,1,.41,1c-.07.47-.49.52-.84.59a23.21,23.21,0,0,1-3.91.25H55Z"/><path class="cls-2" d="M28.94,87.51v3c0,.61,0,1.15-.86,1.15-1.22,0-1.56-.19-1.55-1.14s.08-1.88.16-2.82c.19-2,.17-4.09.52-6.11.06-.31,0-.69.53-.66s.54.28.6.65C28.68,83.55,28.68,85.53,28.94,87.51Z"/><path class="cls-2" d="M61.82,89.13c-.47-2.66-.47-2.66-3.18-2.71-.56.14-.55.54-.51,1a26.94,26.94,0,0,1,.43,3.23c.13.74.73.68,1.25.71C61.82,91.45,62.17,91.07,61.82,89.13Zm-1.14,1.06c-.39,0-.92.25-1.12-.33a8.35,8.35,0,0,1-.34-1.46c0-.28-.26-.72.32-.75s1-.25,1.11.47c.09.5.21,1,.33,1.53C61,89.85,61.08,90.19,60.68,90.19Z"/><path class="cls-2" d="M60.23,84a15.64,15.64,0,0,1-.35-1.68c-.35-1.47-.36-1.47-1.84-1.47h-.4c-1.25,0-1.25,0-1.09,1.23.12.93.28,1.86.4,2.79.07.46.27.75.78.74s1,0,1.49-.07C60.23,85.45,60.58,85,60.23,84ZM59,84.48c-.43,0-1,.21-1.15-.46-.1-.42-.18-.85-.26-1.27s0-.86.61-.75c.5-.09.75.08.81.54s.15.78.22,1.17S59.54,84.42,59,84.48Z"/><path class="cls-3" d="M58.38,90.65c0,.37-.06.65-.54.63s-.87,0-1.3,0a1.1,1.1,0,0,1-1-1.72c.24-.51.55-1,.79-1.51.09-.19.46-.47.06-.66-.22-.1-.64-.21-.77.19s-.36.36-.52.22a1.6,1.6,0,0,1-.49-1.15c0-.26.29-.23.47-.22a8.33,8.33,0,0,1,2.77.18c0,1.4-1,2.42-1.58,3.72.53-.12,1.24.33,1.14-.68,0-.18.15-.29.33-.32s.28.13.35.29C58.2,90,58.12,90.35,58.38,90.65Z"/><path class="cls-4" d="M29,3.25a9.27,9.27,0,0,0,.13-2.14c-.05-.33-.07-.81.29-.86s.4.45.43.75a17.87,17.87,0,0,1-.12,3.1c0,.27-.05.56-.39.63a.68.68,0,0,1-.8-.46c-.27-.56-.51-1.13-.85-1.86,0,.79-.08,1.38-.15,2,0,.23-.17.45-.47.4a.42.42,0,0,1-.35-.43c0-1.27.09-2.55.16-3.82,0-.19.21-.23.38-.23.34,0,.48.23.57.48A8.17,8.17,0,0,0,29,3.25Z"/><path class="cls-4" d="M55.41,3.14A9,9,0,0,0,55.59.77c0-.24,0-.52.32-.54s.31.3.35.5a14.72,14.72,0,0,1-.1,3.51.46.46,0,0,1-.42.48.55.55,0,0,1-.66-.32c-.27-.56-.55-1.13-.94-1.95,0,.75-.07,1.25-.12,1.74,0,.26-.07.59-.43.59s-.44-.36-.43-.66c0-1,.08-2.07.16-3.11,0-.26-.14-.66.34-.71s.54.3.66.62A6.45,6.45,0,0,0,55.41,3.14Z"/><path class="cls-3" d="M52.73,2.37A5,5,0,0,1,52.59,4a1.06,1.06,0,0,1-1.05.78.88.88,0,0,1-1-.7A5,5,0,0,1,50.87.61a.74.74,0,0,1,.92-.4,1.14,1.14,0,0,1,.93,1A6.85,6.85,0,0,1,52.73,2.37Z"/><path class="cls-3" d="M41.15,3.19A7.94,7.94,0,0,0,41.4.75c0-.22,0-.53.3-.52s.3.24.32.44a19.57,19.57,0,0,1-.08,3.51c0,.28-.14.52-.49.54a.61.61,0,0,1-.64-.39,9.85,9.85,0,0,0-1-1.79c0,.53,0,1.07,0,1.6,0,.3-.07.65-.48.64S39,4.43,39,4.17c0-1.1,0-2.21.1-3.31,0-.21,0-.5.32-.55s.54.16.66.48A8.28,8.28,0,0,0,41.15,3.19Z"/><path class="cls-3" d="M54.4,84.59c.6-.07,1.26.34,1.18-.65,0-.17.19-.35.33-.28.48.22.36.73.46,1.13s.22.66-.23.73a3.28,3.28,0,0,1-2-.13c-.6-.31-.64-1-.33-1.58s.67-1.29,1-1.91c-.58-.56-2.05,1.1-1.87-1,.75,0,1.52,0,2.28,0s.88.39.63,1A14.39,14.39,0,0,1,54.4,84.59Z"/><path class="cls-3" d="M44.82.12c-.66,0-1.65-.28-1.88.52a24.82,24.82,0,0,0-.53,3.88c0,.18.05.37.24.39s.31-.2.35-.38c.08-.46.15-.93.21-1.4s.54-.5.92-.51.4.38.4.66-.05.67-.06,1,0,.53.29.53.32-.28.34-.51l.1-2.12h0c0-.37,0-.74,0-1.1S45.43.13,44.82.12Zm-.88,1.67c-.26,0-.47-.14-.46-.36s.29-.43.57-.39.4.14.36.39S44.14,1.76,43.94,1.79Z"/><path class="cls-4" d="M59.17.11c-.64,0-1.58-.24-1.83.45a13.77,13.77,0,0,0-.55,4.06.37.37,0,0,0,.21.3c.2.07.31-.1.34-.26.09-.5.17-1,.22-1.49s.51-.54.9-.55.48.39.48.7a8.73,8.73,0,0,1-.11,1c0,.19,0,.43.24.48s.42-.18.43-.42c0-.65,0-1.28,0-1.92h.1c0-.47,0-.94,0-1.41S59.78.12,59.17.11Zm-.53,1.52a.43.43,0,0,1-.69,0c-.41-.47.39-.51.32-.88C58.4,1.06,59,1.15,58.64,1.63Z"/><path class="cls-3" d="M12.09,4.26c-.14-1-.25-2.06-.41-3.09A1.74,1.74,0,0,0,9.52.1a.4.4,0,0,0-.24.4c0,1.34.06,2.67.1,4a.31.31,0,0,0,.34.3c.22,0,.27-.18.27-.36s0-.4-.05-.6a1.05,1.05,0,0,1,0-.3c.11-.33-.25-.88.42-.93s1,.12,1,.8a3.9,3.9,0,0,0,.12.9c.06.22,0,.65.35.6S12.13,4.55,12.09,4.26Zm-1.57-2.5c-.22-.05-.52-.12-.49-.39s.27-.29.44-.32a.42.42,0,0,1,.46.39C10.9,1.72,10.73,1.81,10.52,1.76Z"/><path class="cls-3" d="M20.28.13c-.64,0-1.62-.3-1.85.51a24.79,24.79,0,0,0-.58,3.86.36.36,0,0,0,.32.43c.22,0,.24-.2.27-.36.07-.46.14-.93.2-1.39s.49-.55.9-.57S20,3,20,3.29s0,.54-.05.81-.21.68.27.68.35-.41.36-.7V2.47h0a7.33,7.33,0,0,0,.06-1.4C20.64.74,20.92.11,20.28.13Zm-1,1.65A.36.36,0,0,1,19,1.36c0-.24.32-.33.54-.31s.31.18.46.27C19.76,1.62,19.58,1.82,19.28,1.78Z"/><path class="cls-3" d="M5.43.08C4,.06,3.84.2,3.64,1.59c-.1.65-.13,1.33-.19,2-.13.19-.09.44-.16.65s0,.67.32.7.25-.34.29-.56a8.43,8.43,0,0,0,.16-1.09c0-.63.45-.65.91-.67.61,0,.48.45.5.77s-.07.6-.08.9,0,.53.3.52S6,4.56,6,4.3c0-1.21,0-2.41.06-3.61C6.13.17,5.86.08,5.43.08ZM4.84,1.79c-.25,0-.45-.11-.48-.31s.26-.39.47-.43.51.05.49.33S5.06,1.75,4.84,1.79Z"/><path class="cls-5" d="M14.72,5c-.76-.37-1-1.12-1.52-1.68-.13.55.13,1.22-.6,1.5A24.66,24.66,0,0,1,12.19,1c0-.36.1-.75.55-.66S14.1.06,14.32,1c0,.13.07.32,0,.4-.95,1.21,0,2.15.42,3.17C14.78,4.63,14.74,4.74,14.72,5Z"/><path class="cls-3" d="M37.92,1.26c.43-.9-.68-.85-1.3-.95s-.82.3-.75.85a17.64,17.64,0,0,0,.41,3.63c.69-.4.41-1,.57-1.54.56.51.71,1.37,1.49,1.65,0-.13.08-.21.06-.25C37.93,3.57,37.26,2.63,37.92,1.26Zm-1,.53c-.27,0-.28-.22-.32-.39s-.06-.34.14-.39.36.12.41.31A.36.36,0,0,1,37,1.79Z"/><path class="cls-4" d="M3.45,3.58c0,.23.06.47-.16.65-.38.76-1,.74-1.72.55S.64,4,.61,3.3c0-.18-.06-.43.22-.48s.34.08.44.3c.2.41.13,1.23.82,1s.27-.94.31-1.44a10.83,10.83,0,0,0-.1-1.39c0-.24.07-.5-.31-.49s-.55-.08-.7.25,0,.66-.48.63C.62,1.7.6,1.47.62,1.3c0-.42,0-.92.49-1.11,1.27-.52,2.09.09,2,1.42,0,.6,0,1.2,0,1.81C3.1,3.71,3.21,3.79,3.45,3.58Z"/><path class="cls-6" d="M7.6,3.14c-.4.53-.19,1.14-.81,1.62L6.51.2c.91.31.4,1.18,1,1.59.29-.42.59-.89.91-1.34.12-.16.31-.33.51-.2s0,.36,0,.54c0,0,0,.06-.05.09-.87,1-1.1,2.05,0,3.09.15.15.3.51-.06.68s-.44-.07-.56-.28C8,4,7.84,3.61,7.6,3.14Z"/><path class="cls-7" d="M34.21.28a5.34,5.34,0,0,1,.72,0c.19,0,.44,0,.43.31S35.15.92,35,1a1.79,1.79,0,0,1-.4,0c-.59,0-.6.45-.65.83s.3.42.61.41.52,0,.52.3-.26.38-.5.33c-.52-.11-.64.12-.61.59s0,.91.65.83c.23,0,.56,0,.57.27s-.39.26-.62.28c-1.38.12-1.4.11-1.37-1.28,0-.77.16-1.53.14-2.3S33.49.05,34.21.28Z"/><path class="cls-7" d="M60.29,2.39c0-.53,0-1.07,0-1.61,0-.24-.1-.59.33-.6s.42.28.49.54a3.79,3.79,0,0,1-.15,2c-.23.93,0,1.28,1,1.21a4,4,0,0,1,.6,0c.23,0,.5,0,.51.36s-.23.36-.46.42a7.52,7.52,0,0,1-2,.1c-.49,0-.5-.36-.48-.7,0-.57.1-1.14.15-1.71Z"/><path class="cls-8" d="M31,4c.05-.87.08-1.44.12-2s.13-.89-.58-.82c-.23,0-.44-.29-.24-.35.55-.15,1-.79,1.65-.41a1.37,1.37,0,0,1,.07.87c-.2.19-.14.44-.14.66,0,.71,0,1.42,0,2.12,0,.35.1.82-.49.79S31,4.36,31,4C31,3.93,31,3.83,31,4Z"/><path class="cls-4" d="M15.78,4.15c0-.7,0-1.4,0-2.11,0-.43.15-.91-.58-.85-.28,0-.36-.29-.18-.39A3.14,3.14,0,0,1,16.42.27c.21,0,.52.37.9.34.19,0,.46,0,.44.29a.38.38,0,0,1-.45.32c-.77-.11-.77.37-.75.92s0,1.34,0,2c0,.33,0,.72-.46.72S15.69,4.47,15.78,4.15Z"/><path class="cls-5" d="M46.52,3c0-.33,0-.67.09-1,.08-.49.08-.87-.59-.83-.22,0-.45-.28-.25-.33.55-.14,1-.84,1.66-.42,0,0,0,.07,0,.09.32.21,1-.18,1,.34s-.63.27-1,.39-.21.39-.22.6c0,.81,0,1.61,0,2.42,0,.31,0,.62-.45.6s-.39-.36-.39-.65V3Z"/><path class="cls-9" d="M51.43,85c.58,0,1.19.2,1.08,1-.08.53,0,1.41-.82,1.33-.47,0-1.31,0-1.39-.83A1.26,1.26,0,0,1,51.43,85Z"/><path class="cls-4" d="M49.74,3.31v1c0,.41-.25.5-.59.5s-.47-.2-.45-.51c.07-1.23.14-2.47.22-3.7,0-.2.09-.41.36-.37s.2.24.21.39C49.57,1.45,49.64,2.28,49.74,3.31Z"/><path class="cls-7" d="M26.29,3c0,.4.06.8.07,1.2s-.11.59-.52.59-.57-.15-.54-.54L25.51.68c0-.2.06-.45.3-.46.39,0,.26.31.29.51.09.76.15,1.53.23,2.29Z"/><path class="cls-9" d="M51.92,83.86c0,.61-.05.9-.53.86a1,1,0,0,0-1.06.37.32.32,0,0,1-.52,0c-.37-.57,0-1.1.22-1.59s.74-.29,1.15-.26A.75.75,0,0,1,51.92,83.86Z"/><path class="cls-9" d="M51.49,87.63c.53.26.94.29,1.07-.41,0-.24.24-.22.38-.09.56.52.23,1.09.06,1.66s-.56.55-.94.37-1.44-.17-1-1.21C51.17,87.75,51.28,87.61,51.49,87.63Z"/><path class="cls-10" d="M56.23,34.48a2,2,0,0,1-1.85.76c-.79,0-1.23-.44-1.48-1.23-.16-.49.13-.67.47-.83s.43.17.55.44c.28.72.94.79,1.45.13.24-.3.36-.5.74-.2A.59.59,0,0,1,56.23,34.48Z"/><path class="cls-10" d="M24.72,33.93c-.23.82-.66,1.38-1.51,1.31a2,2,0,0,1-1.85-.76.59.59,0,0,1,.14-.93c.38-.31.5-.09.73.2.55.69,1.14.59,1.47-.23.12-.3.2-.52.54-.34S24.86,33.47,24.72,33.93Z"/><path class="cls-10" d="M24.13,61.05c-.23.83-.67,1.38-1.54,1.3a2,2,0,0,1-1.82-.79c-.28-.4-.14-.67.18-.93s.47,0,.69.21c.61.72,1.14.64,1.47-.17.1-.24.07-.6.48-.41S24.29,60.53,24.13,61.05Z"/><path class="cls-11" d="M41.22,83.77v0c-.41,0-.83.7-1.21,0a.39.39,0,0,0-.25.06c-.14.1-.07.22,0,.35a.66.66,0,0,0,.71.42.7.7,0,0,0,.78-.78h0Zm-1.07.49A.73.73,0,0,0,41,84,.61.61,0,0,1,40.15,84.26Z"/><path class="cls-9" d="M56.23,34.48a2,2,0,0,1-1.85.76c-.79,0-1.23-.44-1.48-1.23-.16-.49.13-.67.47-.83s.43.17.55.44c.28.72.94.79,1.45.13.24-.3.36-.5.74-.2A.59.59,0,0,1,56.23,34.48Z"/><path class="cls-12" d="M24.72,33.93c-.23.82-.66,1.38-1.51,1.31a2,2,0,0,1-1.85-.76.59.59,0,0,1,.14-.93c.38-.31.5-.09.73.2.55.69,1.14.59,1.47-.23.12-.3.2-.52.54-.34S24.86,33.47,24.72,33.93Z"/><path class="cls-9" d="M24.13,61.05c-.23.83-.67,1.38-1.54,1.3a2,2,0,0,1-1.82-.79c-.28-.4-.14-.67.18-.93s.47,0,.69.21c.61.72,1.14.64,1.47-.17.1-.24.07-.6.48-.41S24.29,60.53,24.13,61.05Z"/><path class="cls-7" d="M41.21,83.79h0a.7.7,0,0,1-.78.78.66.66,0,0,1-.71-.42c0-.13-.12-.25,0-.35a.39.39,0,0,1,.25-.06C40.38,84.49,40.8,83.77,41.21,83.79Z"/><path class="cls-7" d="M41.23,83.79h0v0Z"/></g></g></svg>