<svg xmlns="http://www.w3.org/2000/svg" viewBox="0 0 130.79 37.93"><defs><style>.cls-1{fill:#5c5c5c;}</style></defs><g id="Layer_2" data-name="Layer 2"><g id="Layer_1-2" data-name="Layer 1"><path class="cls-1" d="M37.49,28.12c-.4-.79-.76-1.6-1.08-2.42a16.23,16.23,0,0,1-1.11-5.2c0-1.07,0-2.15,0-3.23a14.69,14.69,0,0,1,.4-2.77A20.68,20.68,0,0,1,37.42,10a11.23,11.23,0,0,0,.5-1.12,3,3,0,0,0,.18-1.58,3.34,3.34,0,0,0-4.19-2.59,7.19,7.19,0,0,0-.78.3c.07-.14.11-.25.16-.35a3.06,3.06,0,0,0,.25-1.81A3.37,3.37,0,0,0,31.4.2,2.59,2.59,0,0,0,30.08,0,5.22,5.22,0,0,0,28.36.6c-.7.35-1.41.67-2.14,1a16.54,16.54,0,0,1-5.8,1.26c-1.05,0-2.11,0-3.17,0a16.47,16.47,0,0,1-2.79-.41A22.75,22.75,0,0,1,10,.68,9.27,9.27,0,0,0,8.83.19,2.91,2.91,0,0,0,7.13.08,3.44,3.44,0,0,0,4.85,2a3.13,3.13,0,0,0,0,2.69c0,.08.13.15.08.28a2,2,0,0,0-.26-.12,3.41,3.41,0,0,0-1.33-.31A3.41,3.41,0,0,0,.18,6.77,2.71,2.71,0,0,0,.05,8.18,5.23,5.23,0,0,0,.59,9.69a28.32,28.32,0,0,1,1.18,2.64,15.93,15.93,0,0,1,1,4.76c.06,1.17.06,2.35,0,3.52a15.5,15.5,0,0,1-.41,2.88A21.45,21.45,0,0,1,.71,28a8.54,8.54,0,0,0-.5,1.11A2.81,2.81,0,0,0,0,30.61a3.35,3.35,0,0,0,2,2.5,2.87,2.87,0,0,0,1.66.27A4.62,4.62,0,0,0,5,33a.67.67,0,0,1-.11.32A3.25,3.25,0,0,0,4.58,35a3.35,3.35,0,0,0,2,2.68,2.75,2.75,0,0,0,1.83.21,6.2,6.2,0,0,0,1.48-.57,25.32,25.32,0,0,1,2.78-1.2A15.59,15.59,0,0,1,17,35.15a32.71,32.71,0,0,1,3.43,0,16.64,16.64,0,0,1,3,.38,22.69,22.69,0,0,1,4.72,1.75,8.51,8.51,0,0,0,1.16.51,3,3,0,0,0,1.68.12,3.31,3.31,0,0,0,2.27-4.59L33.13,33l.34.15a3.15,3.15,0,0,0,1.6.29,3.34,3.34,0,0,0,2.73-1.86,2.81,2.81,0,0,0,.28-1.89A6,6,0,0,0,37.49,28.12ZM22.35,20.29a5,5,0,0,0,.82,1.24q3.81,4.51,7.61,9a.48.48,0,0,1,.09.16.62.62,0,0,1-.17-.11L21.6,23a5.66,5.66,0,0,0-1.25-.8,3,3,0,0,0-2.6,0,5.84,5.84,0,0,0-1.2.77Q12,26.79,7.48,30.57a.61.61,0,0,1-.26.17l.17-.23c2.48-2.94,5-5.87,7.44-8.8a6.32,6.32,0,0,0,1-1.59,2.85,2.85,0,0,0,0-2.29A5.46,5.46,0,0,0,15,16.47L7.37,7.39a.38.38,0,0,1-.12-.2l.22.16,9.1,7.6a5.27,5.27,0,0,0,1.34.83,2.91,2.91,0,0,0,2.45,0A5.82,5.82,0,0,0,21.59,15l9.14-7.64.17-.13a.76.76,0,0,1-.19.29l-7.39,8.76a6.91,6.91,0,0,0-1,1.42A2.92,2.92,0,0,0,22.35,20.29Z"/><path d="M104.88,26.05a8.59,8.59,0,0,0-3-5.49,12.27,12.27,0,0,0-4.31-2.36c-.42-.14-.84-.25-1.3-.39l.34-.17a13.79,13.79,0,0,0,3.53-2.26,8.19,8.19,0,0,0,2.19-3,7.58,7.58,0,0,0,.12-5.06,6.3,6.3,0,0,0-3-3.79,9.29,9.29,0,0,0-2.7-1,19.42,19.42,0,0,0-4.24-.41H76.67a.49.49,0,0,0-.29,0c0,.31,0,.31.31.37a2,2,0,0,1,1.69,1.45,3.31,3.31,0,0,1,.12.42,10.07,10.07,0,0,1,.16,2.05q0,9.09-.09,18.18c0,2.45,0,4.9,0,7.35a5.44,5.44,0,0,1-.27,1.87,2.32,2.32,0,0,1-1.64,1.52,2.66,2.66,0,0,1-.47.11c-.08,0-.12.05-.12.13,0,.3,0,.27.25.27H95.61A11.45,11.45,0,0,0,100,35a7.28,7.28,0,0,0,3.81-3.25A9.09,9.09,0,0,0,104.88,26.05ZM98,30.22a5.58,5.58,0,0,1-4.73,4.15,14.57,14.57,0,0,1-2.55.23c-1.42,0-2.83,0-4.24-.1a3.22,3.22,0,0,1-.87-.19,1.07,1.07,0,0,1-.7-1c0-.26,0-.53,0-.8,0-4.4.09-8.79.18-13.19v-.52q.1-6,.23-12c0-.75,0-1.51,0-2.27a2.71,2.71,0,0,1,0-.56.64.64,0,0,1,.57-.6l.48,0c1.17-.05,2.34,0,3.52,0a8.12,8.12,0,0,1,2.51.5A5.35,5.35,0,0,1,95.73,7a8.93,8.93,0,0,1,.49,5.16A6,6,0,0,1,93.6,16a10.1,10.1,0,0,1-3.52,1.47,12.45,12.45,0,0,1-2.18.31h-.09c-.12,0-.16.07-.17.18s.07.12.16.13c.41,0,.83.06,1.24.11A14.67,14.67,0,0,1,94,19.48a7.45,7.45,0,0,1,4.33,5.83A10.87,10.87,0,0,1,98,30.22Z"/><path d="M75,13.48a14.75,14.75,0,0,0-4.29-7A16.35,16.35,0,0,0,59.45,2.1c-5.24-.05-10.47,0-15.71,0h-.21a.11.11,0,0,0-.11.08.25.25,0,0,0,.19.32,3.82,3.82,0,0,1,.48.15A2.37,2.37,0,0,1,45.66,4.8c.08,1.15.12,2.3.15,3.45,0,2.47.1,4.94.12,7.4,0,4.68,0,9.34-.1,14,0,1.35-.07,2.7-.23,4.05a1.34,1.34,0,0,1-.48.89,2.24,2.24,0,0,1-.51.36,4.5,4.5,0,0,1-1.21.48c-.16,0-.21.13-.19.3s.13.09.21.1h9.26c2.71,0,5.41,0,8.12,0a12.86,12.86,0,0,0,5.9-1.38A15.57,15.57,0,0,0,73.9,27a18.17,18.17,0,0,0,1.74-6.95A19.91,19.91,0,0,0,75,13.48Zm-5.92,8.19a17.46,17.46,0,0,1-2.15,7.86,12.38,12.38,0,0,1-1.22,1.77A7.8,7.8,0,0,1,61.45,34a20.69,20.69,0,0,1-6.07.56c-.56,0-1.13-.06-1.7-.15a2.45,2.45,0,0,1-.86-.3,1.33,1.33,0,0,1-.67-1,6.65,6.65,0,0,1-.06-.89C52,29.23,52,26.19,52,23.15c0-1.45,0-2.89,0-4.58,0-3.89,0-8,.12-12.17a19.71,19.71,0,0,1,.1-2v0c.09-.74.32-1,1.06-1A33.2,33.2,0,0,1,57,3.5a13.3,13.3,0,0,1,3.13.58,10.92,10.92,0,0,1,6.6,5.6,18.14,18.14,0,0,1,1.72,5A27.19,27.19,0,0,1,69.05,21.67Z"/><path d="M106.45,35.51v-.29c0-2,0-3.92,0-5.88,0,0,0,0,0-.06s-.07-.21.1-.23.27,0,.32.2.14.62.23.93A4,4,0,0,0,108.29,32,10.06,10.06,0,0,0,114,34.57a13.45,13.45,0,0,0,4.69-.2,7.32,7.32,0,0,0,3.52-1.85A6.67,6.67,0,0,0,124.07,29a7.07,7.07,0,0,0,0-3.45,5,5,0,0,0-3.17-3.52,28.39,28.39,0,0,0-2.86-.84c-1.52-.4-3-.78-4.52-1.31a14.53,14.53,0,0,1-3.46-1.67,8.83,8.83,0,0,1-3.19-3.66,7.88,7.88,0,0,1-.62-4.49,10.2,10.2,0,0,1,.9-3A8.47,8.47,0,0,1,111.52,3a14.13,14.13,0,0,1,3.66-1,24.29,24.29,0,0,1,5-.14c1.35.09,2.7.22,4,.44.55.09,1.1.2,1.64.34a3.45,3.45,0,0,0,1.5.09,1.28,1.28,0,0,0,.78-.4c.09-.12.21-.08.33-.08s.06,0,.06.08a.49.49,0,0,1,0,.12c0,1.86.07,3.72.11,5.58a.35.35,0,0,1,0,.2c-.06.05-.13,0-.19,0s-.16-.05-.19-.15A6.24,6.24,0,0,0,124.42,4a10.75,10.75,0,0,0-3.07-.73,12.44,12.44,0,0,0-2.2,0,8.13,8.13,0,0,0-3.51,1,6,6,0,0,0-3,6,4.86,4.86,0,0,0,.35,1.41,4.23,4.23,0,0,0,1.65,1.92A9.75,9.75,0,0,0,117,14.61c1.5.49,3,.85,4.58,1.19a18.14,18.14,0,0,1,4,1.32,9.63,9.63,0,0,1,3.25,2.52,8.32,8.32,0,0,1,1.73,3.82,12,12,0,0,1-.18,5.32,8.82,8.82,0,0,1-4.21,5.42,13.86,13.86,0,0,1-4.31,1.61,22.51,22.51,0,0,1-5.79.4,30.91,30.91,0,0,1-4.17-.55q-1.81-.34-3.6-.84l-.09,0a1,1,0,0,0-1.29.53C106.81,35.52,106.81,35.52,106.45,35.51Z"/></g></g></svg>