<svg xmlns="http://www.w3.org/2000/svg" viewBox="0 0 79.24 92.84"><defs><style>.cls-1{fill:#5f5f5f;}.cls-2{fill:#606060;}.cls-3{fill:#656565;}.cls-4{fill:#424242;}.cls-5{fill:#454545;}.cls-6{fill:#464646;}.cls-7{fill:#474747;}.cls-8{fill:#444;}</style></defs><g id="Layer_2" data-name="Layer 2"><g id="Layer_1-2" data-name="Layer 1"><path class="cls-1" d="M0,75.1c0-2,0-4.09,0-6.13,0-.57.17-.71.72-.71q5.16,0,10.34,0c.57,0,.74.17.7.72a14.68,14.68,0,0,0,0,2c0,.49-.16.63-.64.62-2.15,0-4.29,0-6.44,0-.63,0-.83.17-.79.79a19.78,19.78,0,0,1,0,2.31c0,.51.17.62.65.61,1.88,0,3.76,0,5.64,0,.55,0,.86.07.78.72s.33,1.83-.19,2.28-1.47.12-2.23.13c-1.33,0-2.66,0-4,0-.53,0-.71.15-.67.68s0,1.11,0,1.67a2.4,2.4,0,0,0,2.67,2.7c1.48,0,3,0,4.46,0,.62,0,.79.19.73.77-.09.78.33,1.83-.18,2.27s-1.47.14-2.23.13a21.29,21.29,0,0,1-4.91-.28A5.71,5.71,0,0,1,0,80.59C.11,78.76,0,76.93,0,75.1Z"/><path class="cls-1" d="M40.27,82.45c0,1.38,0,2.47,0,3.55,0,.51-.17.64-.64.61-.84,0-1.94.27-2.46-.16S37.05,84.87,37,84a27,27,0,0,0-.13-4.12,3.14,3.14,0,0,0-3.12-2.55,2.91,2.91,0,0,0-3,2.53A2.83,2.83,0,0,0,34,83.16c.77-.1,1.16.07,1.41.8a9.8,9.8,0,0,0,.75,1.57c.23.41.09.56-.3.67a6.64,6.64,0,0,1-6.7-1.6,5.51,5.51,0,0,1-1.56-6,6.11,6.11,0,0,1,5.18-4.45,6.54,6.54,0,0,1,7.43,4.75A22.56,22.56,0,0,1,40.27,82.45Z"/><path class="cls-1" d="M13.59,80.29c0-1.86,0-3.72,0-5.57,0-.54.11-.76.69-.73,2.23.1,4.46-.2,6.67.18a5.44,5.44,0,0,1,4.83,5.75c0,2,0,4,0,6,0,.46-.1.67-.61.64a18.44,18.44,0,0,0-2.23,0c-.47,0-.58-.16-.57-.6,0-1.61-.06-3.24,0-4.85.17-3.45-1.76-4.17-4.48-3.93-.74.07-1.08.3-1.05,1.16.07,2.51,0,5,0,7.55,0,.52-.14.7-.66.67a17.87,17.87,0,0,0-2.07,0c-.47,0-.58-.15-.58-.59C13.6,84.1,13.59,82.2,13.59,80.29Z"/><path class="cls-1" d="M73.05,76.15c-.8.71-1.55,1.34-2.27,2-.32.31-.5.07-.73-.08a2.86,2.86,0,0,0-3.83.32,2.72,2.72,0,0,0-.29,3.74,2.79,2.79,0,0,0,3.8.81.8.8,0,0,1,1.24.17,14.64,14.64,0,0,0,1.6,1.55c.41.36.36.56,0,.89a6.37,6.37,0,0,1-10.25-3.73,6.15,6.15,0,0,1,3.17-6.71,6.27,6.27,0,0,1,7.07.59Z"/><path class="cls-2" d="M57,80.4c0-1.78,0-3.56,0-5.33,0-.62.18-.78.77-.74a20.21,20.21,0,0,0,2.06,0c.38,0,.51.12.5.5q0,5.61,0,11.22c0,.43-.16.54-.56.53-.72,0-1.43,0-2.15,0-.5,0-.63-.15-.62-.63C57,84.11,57,82.25,57,80.4Z"/><path class="cls-2" d="M60.41,71.07a1.84,1.84,0,0,1-1.73,1.82,1.8,1.8,0,0,1-.14-3.59A1.85,1.85,0,0,1,60.41,71.07Z"/><path class="cls-1" d="M54.6,80A4.43,4.43,0,0,0,54.22,78a6.52,6.52,0,0,0-6.1-4.11A6.12,6.12,0,0,0,42.22,78,6.43,6.43,0,0,0,47,86.79a7.59,7.59,0,0,0,4.18-.61c.22,2.54-1.32,4.14-3.4,3.18-1.77-.82-2.57-.08-3.51,1a.57.57,0,0,1-.11.11c-.58.38-.35.67.08,1a6.86,6.86,0,0,0,5,1.28c2.67-.3,5.54-2.26,5.36-5.8C54.53,84.65,54.6,82.31,54.6,80ZM48.19,83.6a3.2,3.2,0,1,1,3.18-3.18A3.18,3.18,0,0,1,48.19,83.6Z"/><path class="cls-3" d="M75.88,67.19a3.33,3.33,0,0,0,0,6.66,3.33,3.33,0,1,0,0-6.66Zm0,6.16a2.83,2.83,0,1,1,2.85-2.82A2.88,2.88,0,0,1,75.89,73.35Z"/><path class="cls-1" d="M53.14,8.86a27.65,27.65,0,0,0-31.2,2.8,54.08,54.08,0,0,0,6.52.59c2.28-.14,4.57.1,6.85-.06a.81.81,0,0,1,.46.06,29.12,29.12,0,0,0,9.56-1.79,5.2,5.2,0,0,1,4.38.19,9.1,9.1,0,0,1,3,2.43,22.13,22.13,0,0,1,3.46,6,.78.78,0,0,1,0,.9c-.25.28-.58.19-.89.09a5.38,5.38,0,0,1-1.62-.82c-1-.68-1.89-1.37-2.85-2a5.51,5.51,0,0,0-3.07-1.15,1.89,1.89,0,0,1-.78.06c-1.63-.06-3.26-.11-4.89-.08a12.46,12.46,0,0,1-2.59,0,2.82,2.82,0,0,0-1.41.15c.36.15,0,.37,0,.54,0,3.81,0,7.61,0,11.41,3.6.42,6.85-.18,9.24-3.31V36.19a6.73,6.73,0,0,0-3-2.95A12.73,12.73,0,0,0,38.16,32a1.18,1.18,0,0,0-.15.84V46.43a1.18,1.18,0,0,0,.15.84c1.09,0,2.17,0,3.26.12,3.5.22,6.89,1.19,10.37,1.59,2.13.25,4.25.48,6.35-.38,2.67-1.09,5.62-4.37,4.9-7.89-.36-1.75-1-3.26-2.77-4a7.07,7.07,0,0,0-4.14-.42,3.31,3.31,0,0,0-2.85,2.91,1.12,1.12,0,0,0,.65,1.29c1.06.54,1.38,1.3,1,2.18a2,2,0,0,1-2.49,1.13A3.58,3.58,0,0,1,50,41.06c-.85-3.14,1.51-6.83,4.92-7.73a9,9,0,0,1,11.17,5.6c.1.25.1.57.39.73A27.76,27.76,0,0,0,53.14,8.86Z"/><path class="cls-1" d="M39.56,0a33,33,0,1,0,33,33.07A33,33,0,0,0,39.56,0Zm-.05,63a30,30,0,1,1,30-30A30,30,0,0,1,39.51,63Z"/><path class="cls-1" d="M24.67,47.78c-1.22.35-2.44.69-3.66,1.06a8.37,8.37,0,0,0-2.8,1.27c-.45.34-.54,0-.71-.22A25.81,25.81,0,0,1,13,41.26a27.5,27.5,0,0,1,4.68-25.39,1.2,1.2,0,0,1,1.38-.54c1.63.31,3.29.5,4.94.73.91.23.91.23.91,1.31V46.53C25,47,25,47.43,24.67,47.78Z"/><path class="cls-1" d="M58.71,53.05a25.64,25.64,0,0,1-9,5.75q-15.37,5.61-28.19-4.66c-.68-.54-.67-.57.09-1a14.91,14.91,0,0,1,5.27-1.42,54.33,54.33,0,0,1,12.29-.3c3.47.34,6.92,1,10.38,1.48a29.72,29.72,0,0,0,6.72.55C57.07,53.39,57.83,53.2,58.71,53.05Z"/><path class="cls-1" d="M30.21,47.42H27.34a1.59,1.59,0,0,1-.07-.78q0-14.46,0-28.94c0-1,0-1,1-1,.5,0,1,0,1.51,0s.59.16.55.58c0,.1,0,.21,0,.31v29.1A1.28,1.28,0,0,1,30.21,47.42Z"/><path class="cls-4" d="M30.21,47.42q0-14.79,0-29.59c0-.78-.21-1-1-1-1.91.05-1.91,0-1.91,1.91V47.42c-.35-.15-.17-.46-.17-.69,0-9.77,0-19.55,0-29.33,0-.64.19-.83.8-.77a9.31,9.31,0,0,0,1.67,0c.6-.06.8.12.79.77,0,3.26,0,6.52,0,9.78,0,6.49,0,13,0,19.47C30.37,46.9,30.56,47.23,30.21,47.42Z"/><path class="cls-5" d="M24.67,47.78a3.84,3.84,0,0,0,.13-1.26q0-14.52,0-29c0-1.19,0-1.19-1.1-1.29-.1,0,0-.13,0-.09s.2,0,.3-.05c.85-.17,1,.21,1,1,0,9.94,0,19.89,0,29.83C25,47.22,25.28,47.7,24.67,47.78Z"/><path class="cls-6" d="M38.16,32V47.27c-.37,0-.24-.29-.24-.47q0-7.15,0-14.3C37.92,32.32,37.8,32,38.16,32Z"/><path class="cls-7" d="M38,16.26h.55a.68.68,0,0,0-.43.73c0,3.49,0,7,0,10.49a.65.65,0,0,0,.13.51c.32.36-.19.08-.18.22-.18-.11-.13-.28-.13-.43,0-3.76,0-7.53,0-11.29A1.85,1.85,0,0,1,38,16.26Z"/><path class="cls-5" d="M47.71,16.11a.63.63,0,0,1-.52.14H40c-.18,0-.38,0-.51-.14A61.54,61.54,0,0,1,47.71,16.11Z"/><path class="cls-8" d="M28.46,12.25c.05,0,.09-.09.13-.09,2.35-.08,4.71-.08,7.06,0,0,0,.08.06.12.09A59.43,59.43,0,0,1,28.46,12.25Z"/><path class="cls-7" d="M47.7,24.9V36.09h-.08V24.87Z"/><path class="cls-3" d="M77.35,71.85l-.78-1.18c.84-.55,1-1.35.34-1.73a4.34,4.34,0,0,0-2.18-.14c-.14,0-.16.18-.16.31,0,.92,0,1.85,0,2.77,0,.16,0,.35.24.32S75,72,75,71.9s0-.43,0-.63c-.08-.7.37-.64.8-.56s.46.34.62.58.37.58.58.85a.28.28,0,0,0,.42,0C77.55,72.07,77.42,72,77.35,71.85Zm-1.52-1.59c-.46,0-.87.12-.87-.54s.24-.63.68-.59,1.15-.12,1.16.6S76.18,70.21,75.83,70.26Z"/></g></g></svg>