<svg xmlns="http://www.w3.org/2000/svg" viewBox="0 0 92.01 87.63"><defs><style>.cls-1{fill:#d9d9d9;}.cls-2{fill:#d8d8d8;}.cls-3{fill:#d6d6d6;}.cls-4{fill:#d5d5d5;}.cls-5{fill:#d3d3d3;}.cls-6{fill:#ccc;}.cls-7{fill:#959595;}.cls-8{fill:#040404;}.cls-9{fill:#030303;}.cls-10{fill:#a2a2a2;}.cls-11{fill:#010101;}.cls-12{fill:#070707;}.cls-13{fill:#050505;}</style></defs><g id="Layer_2" data-name="Layer 2"><g id="Layer_1-2" data-name="Layer 1"><path d="M0,35V32.11a9.88,9.88,0,0,0,.07-1.33.86.86,0,0,1,.21-.59c1.24-1.53,2.51-3,3.88-4.43.72-.73,1.4-1.49,2.14-2.19,1.45-1.37,2.9-2.73,4.39-4,1.89-1.66,3.82-3.24,5.8-4.76,2.75-2.11,5.6-4.08,8.52-5.93q3.68-2.32,7.56-4.29c1-.53,2.09-1,3.15-1.48A45.55,45.55,0,0,1,43.06.52,20.28,20.28,0,0,1,45.75,0h.46a35.33,35.33,0,0,1,8.66,2.49,70.81,70.81,0,0,1,8,3.89c1.77,1,3.51,2,5.21,3.15,2.15,1.4,4.26,2.86,6.31,4.4,1.61,1.2,3.19,2.43,4.73,3.72,1.15,1,2.27,1.93,3.38,2.94,1.66,1.51,3.31,3,4.87,4.66s2.88,3.1,4.21,4.75A2.1,2.1,0,0,1,92,31.33a45,45,0,0,1,0,4.93A66.82,66.82,0,0,1,90.1,47.32c-.49,2.07-1.09,4.12-1.72,6.16q-1.69,5.46-3.82,10.79-1.64,4.07-3.5,8c-1.78,3.8-3.71,7.51-5.85,11.11a1.53,1.53,0,0,1-.93.72c-2.21.68-4.47,1.18-6.73,1.66A70.22,70.22,0,0,1,60.18,87c-1.72.18-3.45.34-5.18.42-1.49.06-3,.1-4.48.15q-3.27.11-6.54.07c-1.42,0-2.83,0-4.25-.09-2.51-.09-5-.24-7.51-.51A84.45,84.45,0,0,1,19.4,84.61c-.65-.17-1.28-.37-1.92-.53a.93.93,0,0,1-.57-.42c-1-1.66-1.95-3.33-2.85-5s-1.79-3.45-2.63-5.2c-1.12-2.34-2.17-4.7-3.17-7.09C6.71,62.62,5.3,58.85,4.07,55c-1-3-1.81-5.93-2.5-9-.53-2.3-1-4.63-1.26-7A27.56,27.56,0,0,1,0,35.35C0,35.24.08,35.12,0,35Z"/><path class="cls-1" d="M29.24,56.94a16.86,16.86,0,0,0-3.73.52A11.62,11.62,0,0,0,20.67,60a.27.27,0,0,0-.07.41c.39.69.86,1.32,1.29,2,.15.22.28.14.45,0a19.2,19.2,0,0,1,2.89-1.39,13.14,13.14,0,0,1,4-.62,24.83,24.83,0,0,1,5.31.25A30.07,30.07,0,0,1,38.82,62,21.49,21.49,0,0,0,43.16,63c.73.09,1.48.13,2.21.16.24,0,.3.07.31.3,0,1,0,1-1,1A14.32,14.32,0,0,1,39.4,63.4a26,26,0,0,0-11.25-1.55,12.69,12.69,0,0,0-5.21,1.4c-.26.14-.33.22-.11.48.61.71,1.19,1.44,1.78,2.16.08.1.14.21.31.14a13.24,13.24,0,0,1,4.88-.77,20,20,0,0,1,6.84.81c1.35.45,2.67,1,4,1.3a19.69,19.69,0,0,0,4.65.66c.27,0,.36.07.34.34a4.87,4.87,0,0,0,0,.54c0,.59,0,.58-.61.61a13.22,13.22,0,0,1-5.52-1.06,26,26,0,0,0-9.48-1.69,18.06,18.06,0,0,0-4.21.47c.47.44.87.85,1.32,1.22.64.54,1.32,1.05,2,1.57a1,1,0,0,0,.7.24,20.6,20.6,0,0,1,5.59.46c1.33.34,2.6.83,3.9,1.25a20.13,20.13,0,0,0,6,1c.21,0,.29.06.29.28,0,1,0,2,0,3,0,.27-.13.28-.33.27a29.87,29.87,0,0,1-7.75-1.12,29.43,29.43,0,0,1-10.91-5.77A30,30,0,0,1,16.34,52.21a30.39,30.39,0,0,1-.57-5.79c0-.29.06-.38.37-.38H24.5c.28,0,.37.08.4.35a11,11,0,0,0,.48,2.38l.12-1.51c0-.32.07-.64.08-1s.08-.26.28-.26h8.35c.36,0,.2.21.16.35-.45,1.65-1,3.28-1.34,5a2.69,2.69,0,0,1-1.62,2.09c-1,.44-1.9,1-2.85,1.56-.2.11-.21.2-.12.38C28.71,55.88,29,56.39,29.24,56.94Z"/><path class="cls-1" d="M65.43,67.24a19,19,0,0,0-3.62-.45,25.93,25.93,0,0,0-10,1.62,17.34,17.34,0,0,1-3.95,1.06c-.44,0-.89,0-1.33,0-.19,0-.25-.06-.24-.24a7.69,7.69,0,0,0,0-1c0-.28.11-.31.34-.32a19,19,0,0,0,3.52-.51,37.48,37.48,0,0,0,3.89-1.25,19.53,19.53,0,0,1,7.47-1,20,20,0,0,1,3.28.27,9.79,9.79,0,0,1,1.39.45.47.47,0,0,0,.66-.2A12.46,12.46,0,0,1,68,64.35a4.9,4.9,0,0,0,.52-.74c.13-.19-.07-.21-.16-.26a12.81,12.81,0,0,0-3.75-1.28A24.85,24.85,0,0,0,53,63a35.28,35.28,0,0,1-4.39,1.34,12.43,12.43,0,0,1-2,.18c-.23,0-.31-.07-.3-.3s-.09-.74.07-1,.59-.11.91-.13a26.88,26.88,0,0,0,6.84-1.75,18.53,18.53,0,0,1,7.05-1,24.54,24.54,0,0,1,3,.18,11.92,11.92,0,0,1,4.08,1.48c1,.54,1,.55,1.57-.36a8.2,8.2,0,0,0,.84-1.32.29.29,0,0,0-.08-.41A12.34,12.34,0,0,0,63.9,57.1,12.81,12.81,0,0,0,62.27,57c-.31,0-.27-.11-.16-.31.22-.41.41-.82.63-1.22.13-.22.12-.33-.13-.47-1-.52-1.91-1.08-2.87-1.62a.57.57,0,0,1-.32-.39q-.9-3.3-1.83-6.6c-.07-.25,0-.31.23-.31H65c.26,0,.31.11.34.33.11.78.23,1.56.42,2.37.09-.4.2-.79.27-1.19a9.91,9.91,0,0,0,.15-1.22c0-.24.11-.29.33-.29h8.92c.24,0,.33.05.33.32a31.07,31.07,0,0,1-1,7.61A30.22,30.22,0,0,1,58,73.9a29.28,29.28,0,0,1-8.7,2.42c-.92.1-1.83.17-2.75.2-.19,0-.25,0-.24-.23v-3c0-.19.07-.23.25-.24a21.71,21.71,0,0,0,6.51-1.44,18.8,18.8,0,0,1,8-1.3,2.28,2.28,0,0,0,1.7-.57,29.87,29.87,0,0,0,2.59-2.31A1.12,1.12,0,0,0,65.43,67.24Z"/><path class="cls-1" d="M36.71,28.32a6.26,6.26,0,0,0-3.3.68,12.89,12.89,0,0,0-4.06,3.2.54.54,0,0,1-.64.22,45.38,45.38,0,0,1-7.57-2.67c-.31-.15-.29-.25-.11-.51a30.58,30.58,0,0,1,5.06-5.71,31.34,31.34,0,0,1,2.5-2,.36.36,0,0,1,.44,0A34.72,34.72,0,0,0,39.89,25c.31,0,.38.12.29.45-.76,2.7-1.5,5.41-2.25,8.11,0,.12-.1.24-.12.36s-.1.2-.26.18c-1.86-.21-3.71-.53-5.62-.92A14.49,14.49,0,0,1,36.71,28.32Z"/><path class="cls-1" d="M59.74,33.15c-1.78.38-3.5.66-5.24.88-.23,0-.33,0-.4-.26q-1.16-4.25-2.34-8.49c-.06-.2,0-.28.19-.32a36.68,36.68,0,0,0,8.17-2.26,21,21,0,0,0,2.36-1.1.4.4,0,0,1,.51,0A31,31,0,0,1,68.8,27c.62.75,1.19,1.53,1.75,2.33.22.31.12.4-.17.52q-2.23,1-4.56,1.69c-1.18.37-2.37.69-3.57,1a.54.54,0,0,1-.57-.16,24.94,24.94,0,0,0-4.43-3.7c-.9-.56-.63-.54-1.17.26-.23.34-.42.72-.65,1.08a.26.26,0,0,0,.06.39c.36.34.71.69,1.07,1.05.1.1.18.18.33,0A.82.82,0,0,1,58,31.47,6.83,6.83,0,0,1,59.74,33.15Z"/><path class="cls-1" d="M62.46,21.25a32.53,32.53,0,0,1-6.17,2.43,37.45,37.45,0,0,1-4.32,1c-.29.05-.4,0-.47-.31-.59-2.17-1.2-4.35-1.79-6.53a.31.31,0,0,0-.36-.27c-2.24,0-4.47,0-6.71,0-.31,0-.34.19-.4.4q-.89,3.2-1.76,6.42c-.09.33-.2.4-.54.34A35.22,35.22,0,0,1,29.48,21.4a2.91,2.91,0,0,1-.3-.17c2-2.12,9.77-4.78,14.7-5.05A29.82,29.82,0,0,1,62.46,21.25Z"/><path class="cls-1" d="M70.92,45.72h-4.4c-.18,0-.35,0-.34-.26a31.61,31.61,0,0,0-1.07-7.86.56.56,0,0,1,.29-.7c.2-.11.14-.2.08-.36a16.56,16.56,0,0,1-.82-1.49c-.07-.25-.22-.32-.45-.17s-.45.18-.63-.2a5.92,5.92,0,0,0-1.21-1.53c-.17-.17-.17-.24.09-.3a52.28,52.28,0,0,0,7.91-2.6c.62-.25.62-.23.95.33a30.32,30.32,0,0,1,4.05,11.19c.18,1.21.28,2.43.34,3.66,0,.29-.13.29-.34.29Z"/><path class="cls-1" d="M28.82,32.78l-1.07,1.46c-.21.3-.48.18-.73.11-.55-.15-.55-.16-.83.36-.14.26-.27.52-.42.78s-.47.76-.08,1.23c.18.22.09.55,0,.85a24,24,0,0,0-.94,6.8,8.88,8.88,0,0,0,0,1c0,.25,0,.33-.3.32H20.72c-1.5,0-3,0-4.48,0-.38,0-.47-.09-.46-.46A31.15,31.15,0,0,1,16.93,38a30.61,30.61,0,0,1,3.47-7.85c.16-.25.27-.3.56-.17a43.79,43.79,0,0,0,7.38,2.63Z"/><path class="cls-1" d="M26.62,21l-14.86,8.7c.44-.48,1-1.19,1.7-1.84,2-2,4.07-3.95,6.1-5.92.66-.64,1.31-1.3,2-1.91.3-.27.25-.43,0-.69-.7-.8-1.36-1.63-2.06-2.43-.21-.24-.17-.34.08-.5l12.72-8.8,4-2.78c.11-.08.21-.22.39-.07C38.2,6,39.67,7.22,41.13,8.46c-.07.15-.21.16-.3.19-.57.15-1,.59-1.53.77-2.13.68-4.13,1.68-6.19,2.55-3.69,1.55-7.36,3.14-11,4.72l-.11.08Z"/><path class="cls-1" d="M80.19,29.75a.32.32,0,0,1-.27-.08L66.54,21.84c-.41-.24-.81-.49-1.23-.71-.26-.14-.24-.23,0-.42l4.22-3.77a2.11,2.11,0,0,1,.27-.16C63.29,14,56.93,11.25,50.51,8.56a.88.88,0,0,1,.32-.36l4-3.41c.19-.17.31-.14.49,0l7.08,4.89,9.51,6.57c.49.34.49.33.11.78-.67.79-1.33,1.59-2,2.37-.17.2-.18.3,0,.49,2.53,2.44,5,4.89,7.56,7.33Z"/><path class="cls-1" d="M30.13,45.72c-1.37,0-2.74,0-4.1,0-.29,0-.38-.06-.33-.36a21.77,21.77,0,0,1,1.3-5,4.39,4.39,0,0,1,.86-1.3.59.59,0,0,1,.29-.18,3.2,3.2,0,0,1,2.05.21c1.69,1,3.36,1.94,5,2.91a.38.38,0,0,1,.22.53c-.29,1-.55,1.91-.8,2.88-.07.26-.16.34-.44.34C32.86,45.71,31.49,45.72,30.13,45.72Z"/><path class="cls-1" d="M61.28,45.72H57.76c-.24,0-.36,0-.43-.3-.26-1-.55-2-.83-3a.31.31,0,0,1,.17-.43l5.45-3.11a.93.93,0,0,1,1.25.47,11.4,11.4,0,0,1,1,2.53c.31,1.14.56,2.3.78,3.47,0,.28,0,.4-.32.4C63.63,45.71,62.45,45.72,61.28,45.72Z"/><path class="cls-1" d="M30.72,56.89c.78-.45,1.49-.87,2.22-1.28a.78.78,0,0,1,.38,0h12c.3,0,.38.07.38.38,0,1.12,0,2.24,0,3.37,0,.26-.08.32-.34.34a12.8,12.8,0,0,1-5.57-1,26.5,26.5,0,0,0-8.88-1.74Z"/><path class="cls-1" d="M60.33,56.85c-1.12.11-2.22.21-3.32.35a28.16,28.16,0,0,0-5.71,1.53,14.19,14.19,0,0,1-4.59,1c-.31,0-.42-.07-.41-.4,0-1.12,0-2.24,0-3.37,0-.25.05-.35.33-.35h11.3a.56.56,0,0,1,.33.06Z"/><path class="cls-1" d="M45.32,39.07,42.5,40.79c-.71.44-1.42.86-2.12,1.3a.38.38,0,0,1-.42,0c-1-.57-2-1.13-3-1.68a.32.32,0,0,1-.19-.45c.46-1.65.92-3.29,1.37-4.94,0-.2.08-.33.34-.17L45.18,39A1,1,0,0,1,45.32,39.07Z"/><path class="cls-1" d="M46.59,39.05l3.22-2,3.52-2.16c.36-.22.36-.22.48.21.43,1.52.85,3,1.28,4.57.06.2.08.33-.16.46-1.06.58-2.11,1.19-3.16,1.79-.11.06-.21.12-.35,0C49.83,41,48.24,40.05,46.59,39.05Z"/><path class="cls-1" d="M30.65,35.8c-.11-.44.21-.81.43-1.21s.36-.84.67-1,.81.08,1.21.15c1.47.26,2.94.53,4.43.69.25,0,.28.11.22.33-.46,1.65-.92,3.3-1.36,5-.07.25-.16.26-.36.15l-4.82-2.76C30.6,36.79,30.66,36.31,30.65,35.8Z"/><path class="cls-1" d="M34.25,54.85a18.31,18.31,0,0,1,2.07-1.13c3-1.08,6-2.14,9-3.23.34-.12.39,0,.39.29,0,1.28,0,2.56,0,3.83,0,.23-.06.31-.3.31h-11Z"/><path class="cls-1" d="M56.88,54.92H50.61c-1.31,0-2.62,0-3.94,0-.27,0-.37-.05-.37-.35,0-1.28,0-2.55,0-3.83,0-.32.07-.36.36-.25,2.24.81,4.48,1.63,6.73,2.41a28.74,28.74,0,0,1,3.54,1.92Z"/><path class="cls-1" d="M61.23,36c.1.43-.13.72-.61,1-1.53.83-3,1.71-4.54,2.59-.27.15-.35.13-.43-.17Q55,37,54.36,34.67c-.07-.23,0-.31.22-.34,1.71-.22,3.41-.47,5.09-.84a.42.42,0,0,1,.49.18c.29.4.61.78.89,1.19A1.79,1.79,0,0,1,61.23,36Z"/><path class="cls-1" d="M51.19,25.62l2.15,7.77-6.82-4.61Z"/><path class="cls-1" d="M45.36,28.78,38.68,33.3c.13-.49.23-.9.35-1.31.55-2,1.11-4,1.65-6,.08-.29.14-.33.4-.15,1.27.88,2.55,1.73,3.83,2.59Z"/><path class="cls-1" d="M58.65,52.73,51.1,48.44A7.8,7.8,0,0,1,52.25,48a13.86,13.86,0,0,0,2.39-.86c.67-.27,1.35-.48,2-.73.17-.06.27-.09.33.14.54,2,1.1,4,1.65,6C58.65,52.58,58.64,52.62,58.65,52.73Z"/><path class="cls-1" d="M45.67,29.35V32c0,.76,0,1.53,0,2.3,0,.2,0,.29-.28.28q-3.34-.07-6.68-.4s0,0-.12-.07Z"/><path class="cls-1" d="M53.32,34.16c-1.93.23-3.76.37-5.6.41l-1.14,0c-.16,0-.28,0-.27-.21v-5Z"/><path class="cls-1" d="M40.51,48.3l-7,3.92c-.1-.14,0-.25,0-.35.48-1.75,1-3.49,1.44-5.24.07-.25.15-.28.39-.19.74.28,1.5.5,2.23.81a11.59,11.59,0,0,0,2.14.76A5.57,5.57,0,0,1,40.51,48.3Z"/><path class="cls-1" d="M45.65,45.35l-4.86-2.76,4.86-3Z"/><path class="cls-1" d="M50.92,42.43,46.39,45c-.12-.09-.08-.19-.08-.27,0-1.57,0-3.13,0-4.7,0-.28,0-.37.32-.19C48,40.69,49.45,41.54,50.92,42.43Z"/><path class="cls-1" d="M40.15,80.33c-.41.77-.82,1.55-1.24,2.32-.07.14-.11.31-.35.28s-.3-.09-.32-.32c-.09-.9-.21-1.8-.32-2.74a1.73,1.73,0,0,0-.21.74c-.13.61-.26,1.22-.36,1.83,0,.26-.18.25-.34.18s-.46.06-.38-.31c.24-1.2.47-2.4.69-3.61,0-.2.12-.23.31-.19,1,.17,1,.16,1.1,1.15a8.85,8.85,0,0,0,.21,1.46c.36-.66.7-1.26,1-1.87.11-.2.22-.28.45-.21s.72,0,.88.25-.06.59-.12.89c-.18.95-.37,1.9-.54,2.85,0,.21-.11.31-.33.23a1,1,0,0,0-.3-.06c-.24,0-.31-.11-.25-.37.18-.82.33-1.64.49-2.47Z"/><path class="cls-1" d="M72.68,67.69l1.47,2.21c.1.16.24.28.06.5s-.32.12-.5,0c-.81-.31-1.63-.63-2.49-.89l1.26,1,.6.48c.38.31.38.32,0,.69-.11.11-.18.13-.31,0l-2.89-2.32c-.13-.11-.15-.19,0-.31s0,0,0,0c.62-.81.62-.81,1.57-.43a9.71,9.71,0,0,0,1.35.45c-.38-.58-.77-1.16-1.16-1.73-.13-.18-.18-.31,0-.48s.35-.66.63-.69.5.34.75.53c.73.58,1.44,1.18,2.18,1.75.24.19.27.32.06.56s-.31.37-.68.07l-1.87-1.5Z"/><path class="cls-1" d="M39.44,34.62l1.2.08c1.58.12,3.16.21,4.74.21.2,0,.3,0,.3.27,0,1.07,0,2.14,0,3.31L39.42,34.7Z"/><path class="cls-1" d="M52.55,34.64l-1.32.81c-1.53.94-3.07,1.87-4.6,2.82-.24.15-.33.16-.33-.17,0-1,0-1.92,0-2.87,0-.24.07-.3.3-.3C48.58,34.89,50.55,34.78,52.55,34.64Z"/><path class="cls-1" d="M49.2,18.43l1.58,5.74a2,2,0,0,1-.62-.45c-1.16-.95-2.3-1.9-3.45-2.86-.13-.1-.29-.17-.05-.36C47.49,19.84,48.32,19.15,49.2,18.43Z"/><path class="cls-1" d="M42.78,18.45l2.53,2.1c.21.17,0,.23-.08.3-1.15,1-2.32,1.91-3.48,2.87l-.55.43Z"/><path class="cls-1" d="M44.74,81.41c.6.54.71,1,.41,1.55a1,1,0,0,1-.93.57c-.61,0-1.22,0-1.83,0-.25,0-.26-.13-.25-.31,0-1.21.08-2.42.11-3.64,0-.2.09-.22.25-.21.53,0,1,0,1.57.07a1.11,1.11,0,0,1,1.12.77A1,1,0,0,1,44.74,81.41Z"/><path class="cls-1" d="M11.3,60.54c-.37-.78-.37-.77.26-1.32l.56-.47a.3.3,0,0,0,.11-.39c-.19-.56-.18-.56-.76-.37a3.42,3.42,0,0,0-.54.18c-.35.18-.52.1-.64-.28s-.08-.39.23-.52c1.07-.43,2.17-.78,3.26-1.19.21-.08.31-.07.39.17.18.55.4,1.1.58,1.65a1.23,1.23,0,0,1-1.85,1.45c-.18-.12-.27-.05-.39.06l-1.14,1S11.32,60.53,11.3,60.54Z"/><path class="cls-1" d="M78.76,53.7a1.18,1.18,0,0,1,1.09.77c.07.21.17.23.36.2.43-.07.86-.11,1.29-.17.23,0,.35,0,.26.27a1.32,1.32,0,0,0-.08.33c0,.24-.16.31-.39.32-.4,0-.79.06-1.18.09s-.34.48-.42.74.21.19.34.23c.3.1.61.18.92.25s.26.13.19.32a2.49,2.49,0,0,0-.09.37c0,.21-.14.23-.33.18-1.15-.32-2.31-.63-3.47-.93-.23-.05-.28-.15-.21-.37.16-.55.29-1.11.45-1.66A1.2,1.2,0,0,1,78.76,53.7Z"/><path class="cls-1" d="M53.19,80.16a.81.81,0,0,1-.32.75c-.18.14-.15.25,0,.41.25.39.48.79.73,1.17.11.18.1.28-.13.29a.85.85,0,0,0-.23,0c-.32.12-.51,0-.65-.31a6.9,6.9,0,0,0-.55-1c-.23-.35-.53,0-.79,0s-.12.23-.1.35c0,.33.09.66.16,1s0,.34-.24.35a1.86,1.86,0,0,0-.34.06c-.16,0-.24,0-.27-.17-.21-1.23-.43-2.46-.65-3.69,0-.18,0-.22.2-.24.61-.1,1.23-.22,1.85-.3A1.19,1.19,0,0,1,53.19,80.16Z"/><path class="cls-1" d="M11.07,49.48c-.73.08-1.45.14-2.17.25-.4.06-.34-.21-.39-.43s.09-.31.3-.33c1.17-.11,2.34-.22,3.51-.36.23,0,.27,0,.34.26.24.73-.37.92-.75,1.23s-1,.69-1.46,1l0,.09,2-.2a.43.43,0,0,1,.45.6c0,.12-.13.11-.22.11l-3.61.38c-.17,0-.26,0-.3-.22A.78.78,0,0,1,9.17,51c.66-.43,1.29-.93,1.93-1.4Z"/><path class="cls-1" d="M77.13,62.62c-.62-.31-1.23-.64-1.87-.93-.27-.13-.23-.26-.12-.47s.16-.37.47-.21c1,.56,2.11,1.09,3.17,1.62.19.1.22.18.13.38a.76.76,0,0,1-.8.53,17.12,17.12,0,0,0-2.45.21l1.92,1c.12.06.34.08.31.24a1.43,1.43,0,0,1-.28.53c-.06.1-.16,0-.24,0L74.1,63.78c-.16-.07-.19-.13-.12-.31a.91.91,0,0,1,1-.66c.73,0,1.45-.07,2.18-.11Z"/><path class="cls-1" d="M59.7,79.56a1.91,1.91,0,0,1-1.38,1.86c-.36.15-.75.24-1.12.38-.15,0-.23,0-.28-.13-.4-1.18-.81-2.36-1.22-3.54-.05-.15,0-.21.12-.25.55-.18,1.08-.38,1.64-.52a1.58,1.58,0,0,1,1.41.42A2.41,2.41,0,0,1,59.7,79.56Z"/><path class="cls-1" d="M25,74.09c-.42.59-.83,1.19-1.25,1.77-.1.12-.14.45-.43.2s-.45-.24-.18-.6c.7-.91,1.34-1.87,2-2.82.14-.2.22-.22.45-.09a.82.82,0,0,1,.45,1,13.59,13.59,0,0,0-.12,2.23c.4-.57.81-1.13,1.18-1.72.18-.29.31-.17.5,0s.29.23.12.46c-.7,1-1.38,2-2.07,2.95-.1.15-.16.17-.32.07a.78.78,0,0,1-.46-.92c.11-.8.14-1.61.21-2.42Z"/><path class="cls-1" d="M18.91,71.2a1.51,1.51,0,0,1-1.26-.51c-.34-.36-.66-.74-1-1.1-.11-.12-.08-.18,0-.27l2.86-2.49c.12-.11.19-.07.27,0,.35.42.73.82,1.06,1.26a1.66,1.66,0,0,1,.23,1.39A2.33,2.33,0,0,1,18.91,71.2Z"/><path class="cls-1" d="M16.47,62A1.6,1.6,0,0,1,16,63.1c-.12.13-.19.12-.3,0s-.46-.43-.09-.77a.59.59,0,0,0,0-.75.74.74,0,0,0-.79-.37,2.52,2.52,0,0,0-1.63.91.73.73,0,0,0,.74,1.15c.17,0,.22-.11.12-.26l-.05-.1c-.22-.46-.22-.45.26-.66.15-.07.22,0,.29.1.18.36.36.73.56,1.09.11.19,0,.24-.14.31l-1.47.74c-.1,0-.22.19-.31,0s-.2-.26,0-.41.11-.23-.09-.32a1.49,1.49,0,0,1-.53-2.21,2.83,2.83,0,0,1,2.17-1.19A1.68,1.68,0,0,1,16.47,62Z"/><path class="cls-1" d="M41.35,24.88l4.32-3.55v3.54c0,.12,0,.26-.17.26A40.27,40.27,0,0,1,41.35,24.88Z"/><path class="cls-2" d="M46.31,21.37l4.13,3.43a1.11,1.11,0,0,1-.57.12c-1.06.11-2.13.17-3.2.21-.27,0-.38,0-.37-.34C46.32,23.68,46.31,22.58,46.31,21.37Z"/><path class="cls-1" d="M30.58,80.3a1.91,1.91,0,0,1-1.92-1.67c0-.11-.09-.39.17-.31s.62-.07.67.34a1,1,0,0,0,1.1.86.33.33,0,0,0,.31-.24.42.42,0,0,0-.09-.43l-.76-.7a1.12,1.12,0,0,1-.31-1.5,1.21,1.21,0,0,1,1.51-.56,1.8,1.8,0,0,1,1.25,1.09c.07.19.13.41,0,.56s-.73-.18-.77-.35a.79.79,0,0,0-.71-.6.36.36,0,0,0-.39.18.32.32,0,0,0,0,.42l.78.74c.5.47.61.83.4,1.35A1.22,1.22,0,0,1,30.58,80.3Z"/><path class="cls-1" d="M55.58,46.13c-1.07.39-2.14.75-3.19,1.15a13.32,13.32,0,0,1-1.83.66.59.59,0,0,1-.47-.06l-1.85-1.07c.65-.3,1.12-.79,1.88-.78,1.69,0,3.39,0,5.09,0h.36Z"/><path class="cls-1" d="M82.5,50.15c0,.14,0,.28-.06.42a.3.3,0,0,1-.33.32c-.12,0-.23.06-.34.06a.33.33,0,0,0-.38.37c0,.1,0,.2,0,.31-.13.76-.13.76.53,1.13a.66.66,0,0,1,.13.77c-.08.1-.16,0-.23,0-1.17-.57-2.34-1.15-3.51-1.71a.26.26,0,0,1-.16-.33c.1-.78.1-.78.9-.93L82.14,50C82.27,50,82.53,49.8,82.5,50.15Z"/><path class="cls-2" d="M10.44,45c.6,0,1.2,0,1.8,0,.2,0,.3,0,.3.27,0,.71,0,1.42,0,2.14,0,.37-.22.28-.43.3s-.38,0-.36-.31,0-.82,0-1.23c0-.22-.06-.29-.28-.28-.77,0-.64-.15-.65.67,0,.13,0,.26,0,.38,0,.48,0,.48-.49.46-.18,0-.25-.06-.25-.24s0-.59,0-.88-.11-.4-.39-.37a1,1,0,0,1-.3,0c-.22,0-.3.07-.29.28,0,.45,0,.9,0,1.34s-.21.25-.38.25-.39.08-.38-.25c0-.74,0-1.48-.05-2.22,0-.21.08-.26.27-.25h1.8Z"/><path class="cls-1" d="M60.31,76.29c0-.14,0-.2.13-.25.7-.43.7-.43,1.27.15L64,78.57c.21.2.16.27-.08.38-.66.3-.45.33-.94-.17-.21-.22-.39-.3-.64-.1a1.79,1.79,0,0,1-.24.12c-.66.31-.66.31-.6,1,0,.22-.39.6-.59.56s-.09-.09-.09-.15C60.67,78.92,60.49,77.6,60.31,76.29Z"/><path class="cls-1" d="M13.27,55.41c-.21.07-.21-.06-.24-.17-.1-.41-.21-.82-.29-1.23-.05-.25-.13-.31-.38-.24-.57.16-.57.15-.47.7,0,.15.07.3.11.45.13.46.12.47-.35.56-.18,0-.29,0-.32-.2s-.15-.6-.21-.9-.1-.27-.33-.22c-.67.16-.68.15-.52.81.07.31.14.62.24.93s-.21.27-.36.33-.34.16-.4-.14c-.17-.73-.35-1.46-.55-2.19,0-.21,0-.26.21-.31,1.18-.28,2.35-.57,3.52-.87.2,0,.27,0,.32.18.17.72.37,1.43.53,2.15C13.88,55.53,13.4,55.27,13.27,55.41Z"/><path class="cls-1" d="M70.58,74.24l-.25.18c-.59.48-.4.45-1,.07-.27-.18-.44-.19-.65.05a1.66,1.66,0,0,1-.21.16c-.59.45-.59.45-.33,1.15.07.2-.27.71-.47.68s-.1-.11-.12-.18c-.47-1.21-.92-2.43-1.39-3.64a.26.26,0,0,1,.08-.33c.58-.55.58-.55,1.25-.12Z"/><path class="cls-1" d="M19.27,72.57l2.33-1.35c.41-.24.83-.46,1.23-.7a.29.29,0,0,1,.4,0c.58.48.6.47.31,1.15-.45,1-.93,2.1-1.39,3.15-.07.17-.14.23-.28.06a.57.57,0,0,0-.14-.13.48.48,0,0,1-.18-.78.49.49,0,0,0-.16-.79.87.87,0,0,1-.15-.13c-.53-.49-.54-.5-1.17-.13-.17.1-.29.11-.43,0A3.26,3.26,0,0,0,19.27,72.57Z"/><path class="cls-1" d="M46.37,81.49c0-.59-.06-1.18-.1-1.76,0-.2,0-.29.26-.29.71,0,1.43-.06,2.14-.13.37,0,.29.22.31.42s0,.36-.28.36-.82,0-1.22,0c-.24,0-.3.08-.29.32.05.79,0,.6.64.61l.42,0c.48,0,.49,0,.48.46,0,.21-.1.25-.29.25l-.91,0c-.18,0-.27,0-.26.27,0,.72,0,.72.73.69.32,0,.64,0,1-.06s.26.14.23.29.16.45-.2.47l-2.25.13c-.2,0-.27-.06-.27-.26C46.44,82.71,46.4,82.1,46.37,81.49Z"/><path class="cls-1" d="M76.82,57.42c.45,0,.6.26.44.68s-.24.67-.39,1,0,.31.18.39c.58.22.57.23.8-.35A2.23,2.23,0,0,0,78,58.7c.07-.33.21-.38.53-.25s.3.24.18.48-.14.41-.24.6-.1.49.28.6.47.17.65-.3.26-.67.38-1,.15-.24.36-.16c.46.19.46.18.28.65s-.48,1.21-.7,1.82c-.08.22-.18.23-.37.16-1.1-.44-2.2-.87-3.31-1.28-.23-.09-.29-.17-.19-.41.27-.64.51-1.3.77-2C76.66,57.56,76.67,57.42,76.82,57.42Z"/><path class="cls-1" d="M32.71,80.53a2.6,2.6,0,0,1,.19-.93c.23-.69.49-1.37.7-2.06.08-.26.2-.29.41-.19a.81.81,0,0,0,.22.07c.25,0,.32.16.22.43-.28.75-.53,1.51-.78,2.28-.15.46-.07.66.29.82s.74.13.92-.33c.29-.78.56-1.56.82-2.35.07-.22.15-.32.4-.2s.44.09.29.45c-.33.83-.55,1.7-.91,2.52a1.24,1.24,0,0,1-1.53.75A1.34,1.34,0,0,1,32.71,80.53Z"/><path class="cls-1" d="M43.23,46.76l-1.83,1a.39.39,0,0,1-.35.05L36.3,46.07l.45,0h4.59A2.42,2.42,0,0,1,43.23,46.76Z"/><path class="cls-1" d="M45.67,28.2l-4.39-3a6.73,6.73,0,0,1,1.14.05c1,.09,2,.14,3,.16.17,0,.28,0,.28.24C45.66,26.49,45.67,27.3,45.67,28.2Z"/><path class="cls-1" d="M50.71,25.15l-2.22,1.52-1.88,1.26c-.08.05-.15.17-.26.11s0-.16,0-.25c0-.69,0-1.37,0-2.06,0-.21.05-.31.27-.31C47.92,25.41,49.26,25.3,50.71,25.15Z"/><path class="cls-2" d="M50.18,45.7,51.35,45l1.75-1c.13-.07.23-.13.39,0,.88.55,1.78,1.09,2.67,1.63,0,0,0,0,0,.09Z"/><path class="cls-1" d="M62.22,75.17l.07-.08c.77-.51.77-.51,1.61-.07l.75.39a3.62,3.62,0,0,0-.05-1,.83.83,0,0,1,.68-1.08,13.48,13.48,0,0,1,.12,1.56,1.22,1.22,0,0,1,0,.27,2.89,2.89,0,0,0,.78,2c.17.25.13.37-.11.5-.57.31-.48.41-.75-.16a3.81,3.81,0,0,0-2.1-1.77C62.89,75.53,62.57,75.35,62.22,75.17Z"/><path class="cls-2" d="M41.38,45.7H35.71l.78-.48,1.83-1.12c.11-.07.21-.17.37-.07l2.72,1.61Z"/><path class="cls-2" d="M80.58,48.77c-.6,0-1.2-.09-1.8-.11-.25,0-.33-.08-.31-.34,0-.61,0-.6.65-.56.82.06,1.63.09,2.44.18.29,0,.32-.09.34-.31,0-.38,0-.76.07-1.15,0-.17.07-.2.23-.2.6,0,.6,0,.56.56s-.1,1.19-.13,1.79c0,.23-.09.28-.3.27-.58,0-1.17-.09-1.75-.12Z"/><path class="cls-2" d="M73.33,64.56l.23.14,3,1.91c.21.13.28.23.11.46-.3.44-.29.45-.75.16-.91-.59-1.81-1.19-2.73-1.75-.27-.17-.28-.3-.09-.52A4,4,0,0,0,73.33,64.56Z"/><path class="cls-2" d="M17.91,64.2c0,.1-.06.12-.11.16l-3.14,2c-.11.08-.18.07-.28,0-.43-.53-.43-.53.12-.89.88-.57,1.76-1.12,2.63-1.7.29-.2.45-.2.59.13A2.2,2.2,0,0,0,17.91,64.2Z"/><path class="cls-2" d="M56.59,45.12,54,43.52l1.73-1c.15-.09.16,0,.19.11C56.11,43.43,56.34,44.23,56.59,45.12Z"/><path class="cls-2" d="M35.4,45.13l.68-2.47c.06-.2.16-.09.25,0l1.6,1Z"/><path class="cls-2" d="M39.74,51.7l3.82-2.21a.25.25,0,0,1,.22,0l1.24.46-5.25,1.88Z"/><path class="cls-3" d="M45.67,20l-2.21-1.82h2.07c.18,0,.14.15.14.26Z"/><path class="cls-4" d="M48.4,18.26,46.31,20V18.33c0-.18.14-.15.25-.15h1.79Z"/><path class="cls-3" d="M50.34,51.12,47,49.92l.94-.35a.28.28,0,0,1,.25,0L50.5,51C50.5,51.19,50.42,51.15,50.34,51.12Z"/><path class="cls-5" d="M44.44,49l1.05-.6c.13-.08.19,0,.18.11v0c.08,1,.08,1-.79.63Z"/><path class="cls-6" d="M46.32,48.55l.9.53s-.07.07-.1.08C46.28,49.54,46.28,49.54,46.32,48.55Z"/><path class="cls-7" d="M50.34,51.12c.06,0,.13,0,.16-.08.2,0,.31.18.47.26A1.1,1.1,0,0,1,50.34,51.12Z"/><path class="cls-8" d="M43.62,82.78a3,3,0,0,0-.39,0c-.19,0-.26-.07-.24-.24s-.1-.63.1-.71a1.48,1.48,0,0,1,1,.06.41.41,0,0,1,.28.45c0,.21-.11.4-.35.43A4.05,4.05,0,0,1,43.62,82.78Z"/><path class="cls-8" d="M43.56,81.06c-.12,0-.38.09-.47-.08s0-.52,0-.79a.1.1,0,0,1,.06-.08,1.53,1.53,0,0,1,1.16.21.47.47,0,0,1-.29.74A3.35,3.35,0,0,1,43.56,81.06Z"/><path class="cls-9" d="M14,58.2a.48.48,0,0,1-.36.53.43.43,0,0,1-.56-.2,8.66,8.66,0,0,1-.35-.89c0-.09,0-.14.09-.17l.07,0c.25-.08.59-.35.73-.21A2.11,2.11,0,0,1,14,58.2Z"/><path class="cls-9" d="M79.18,55.19c-.07.28-.15.56-.22.85s-.11.15-.22.11h0c-.24-.13-.7,0-.73-.28a1.73,1.73,0,0,1,.3-1,.45.45,0,0,1,.58-.15A.53.53,0,0,1,79.18,55.19Z"/><path class="cls-9" d="M52.27,80.15a.41.41,0,0,1-.29.44c-.29.09-.6.13-.89.19-.13,0-.2,0-.2-.16a0,0,0,0,1,0,0c0-.27-.26-.65-.06-.78a1.61,1.61,0,0,1,1.07-.15A.43.43,0,0,1,52.27,80.15Z"/><path class="cls-10" d="M76.8,61.81a1.08,1.08,0,0,1-.63-.26C76.46,61.51,76.62,61.69,76.8,61.81Z"/><path class="cls-11" d="M58.78,79.7a1.21,1.21,0,0,1-1.09,1.13c-.13,0-.15-.09-.17-.17-.25-.71-.49-1.42-.73-2.14a.16.16,0,0,1,.08-.24,1.12,1.12,0,0,1,1.68.5A2,2,0,0,1,58.78,79.7Z"/><path class="cls-11" d="M18.76,70.35c-.45,0-.73-.32-1-.66-.09-.1,0-.16.06-.22L19.54,68c.06-.06.11-.12.22,0a1.19,1.19,0,0,1,.46,1.42A1.73,1.73,0,0,1,18.76,70.35Z"/><path class="cls-12" d="M79.16,51.43l1.3-.25c.16,0,.18,0,.18.18,0,.76,0,.79-.73.45Z"/><path class="cls-13" d="M61.13,76.89l.93.91s.1.08.07.16a4.26,4.26,0,0,1-.75.35c-.07,0-.06-.07-.07-.12C61.25,77.78,61.2,77.37,61.13,76.89Z"/><path class="cls-12" d="M67.19,73.1c.33.21.66.43,1,.63.14.09.16.15,0,.28-.57.52-.56.52-.84-.2-.08-.22-.17-.44-.25-.67Z"/><path class="cls-12" d="M22.63,71.54c-.16.37-.33.74-.48,1.11-.07.16-.13.14-.25,0-.61-.48-.62-.48.05-.87l.62-.35Z"/></g></g></svg>