<svg xmlns="http://www.w3.org/2000/svg" viewBox="0 0 139.89 39.5"><defs><style>.cls-1{fill:#202020;}.cls-2{fill:#212121;}.cls-3{fill:#fefefe;}.cls-4{fill:#565656;}.cls-5{fill:#4d4d4d;}.cls-6{fill:#939393;}.cls-7{fill:#bbb;}.cls-8{fill:#4a4a4a;}</style></defs><g id="Layer_2" data-name="Layer 2"><g id="Layer_1-2" data-name="Layer 1"><path class="cls-1" d="M32.24,18.09c0-2.33,0-4.67,0-7,0-1.11.4-1.53,1.56-1.51,2.93.07,5.87.07,8.8,0,1.41,0,1.42.77,1.41,1.77s.07,1.86-1.38,1.8c-1.88-.08-3.77,0-5.65,0-.71,0-1,.09-1,.92,0,3.32-.07,3.32,3.26,3.32,1.13,0,2.26,0,3.39,0,.75,0,1.08.32,1.07,1.05q0,.69,0,1.38c0,.78-.32,1.13-1.13,1.11-1.89,0-3.77,0-5.66,0-.71,0-1,.19-.92.91a17.19,17.19,0,0,1,0,2.38c-.06.8.3,1,1,1,1.89,0,3.78,0,5.66,0,1.19,0,1.41.62,1.35,1.59s.3,2-1.28,2c-2.52,0-5,0-7.55-.06-1.79,0-2.62-.89-2.83-2.68a4.2,4.2,0,0,1-.08-.62C32.24,22.93,32.25,20.51,32.24,18.09Z"/><path class="cls-1" d="M124,22.89c1.51,0,3,0,4.53,0s2.84,0,4.27,0,2.13-.64,2-2.16c-.35-3.79-3.26-6.91-6.69-7.18a7.85,7.85,0,0,0-4.17,15A7.93,7.93,0,0,0,133.45,26c.23-.35.53-.71.26-1.14s-.64-.35-1-.35a5.8,5.8,0,0,0-3.57.81,4.18,4.18,0,0,1-5.6-1.45C123.14,23.2,123.08,22.86,124,22.89ZM123.4,19A4.33,4.33,0,0,1,127.2,17,4.07,4.07,0,0,1,130.84,19c.37.61.2.8-.48.78-1.13,0-2.26,0-3.39,0s-2.09,0-3.14,0C123.08,19.83,123.05,19.52,123.4,19Z"/><path class="cls-1" d="M71.78,22.9c1.49,0,1.93-.47,1.92-2a7.68,7.68,0,0,0-9.48-7.23,7.88,7.88,0,0,0,.51,15.39,8,8,0,0,0,7.69-3.21c.37-.6.61-1.3-.38-1.37-1.26-.08-2.52-.26-3.72.63-2.12,1.57-5.7.2-6.17-2.24C65.41,22.9,68.6,22.91,71.78,22.9Zm-9-3.09c-.66,0-.87-.17-.47-.77A4.39,4.39,0,0,1,66,17a4.06,4.06,0,0,1,3.71,1.94c.42.62.41,1-.49.93s-2.1,0-3.14,0S63.87,19.79,62.78,19.81Z"/><path class="cls-1" d="M104.71,22.9c1.29,0,1.72-.45,1.74-1.74a7.34,7.34,0,0,0-2-5.23,7.57,7.57,0,0,0-9.08-1.6,8,8,0,0,0-4.22,8.23,7.81,7.81,0,0,0,14,3.52c.69-.86.56-1.57-.26-1.59-1.27,0-2.52-.2-3.73.65a4.12,4.12,0,0,1-6.17-2.24C98.26,22.9,101.49,22.91,104.71,22.9Zm-9.14-3.08c-.88,0-.8-.32-.43-.85a4.35,4.35,0,0,1,4.07-2,4,4,0,0,1,3.67,2.85C100.33,19.81,98,19.78,95.57,19.82Z"/><path class="cls-1" d="M51.72,23.33c1-2.58,1.89-4.94,2.78-7.29.82-2.16.81-2.16,3.13-2.1,1.36,0,1.54.3,1,1.59-1,2.37-2,4.73-3,7.1q-2.13,4.92-4.27,9.84c-.45,1-2.74,1.67-3.63,1-.51-.37-.27-.82-.1-1.23.56-1.35,1.12-2.69,1.74-4a2.05,2.05,0,0,0,0-1.87C47.85,22.85,46.44,19.3,45,15.76c-.62-1.53-.43-1.81,1.25-1.82,2.08,0,2.08,0,2.8,2Z"/><path class="cls-1" d="M113.06,23.35c1-2.76,1.91-5.46,2.86-8.15.39-1.12,2.84-1.81,3.8-1.07.38.29.29.65.15,1-1.72,4.24-3.46,8.46-5.17,12.71-.37.91-1.11.84-1.87.86a1.51,1.51,0,0,1-1.69-.95q-2.49-6.26-5.06-12.47c-.42-1,0-1.28.89-1.35,2.35-.19,2.53-.08,3.33,2.16.72,2,1.43,4.07,2.17,6.11A2.21,2.21,0,0,0,113.06,23.35Z"/><path class="cls-1" d="M80.19,18.27c0-2.42,0-4.84,0-7.25,0-1.11.4-1.54,1.48-1.43a4.31,4.31,0,0,0,.88,0c1-.11,1.3.34,1.29,1.3,0,4.26,0,8.51,0,12.76,0,1.08.21,1.6,1.46,1.51,1.58-.12,3.18,0,4.77-.05,1,0,1.41.33,1.34,1.31a7,7,0,0,0,0,1.12c.07.89-.39,1.18-1.21,1.17-2.3,0-4.6,0-6.9,0-2.07-.06-3-1.07-3-3.15C80.17,23.1,80.19,20.68,80.19,18.27Z"/><path class="cls-2" d="M139.87,19.2c0,2.67,0,5.34,0,8,0,1-.28,1.6-1.43,1.46a3.72,3.72,0,0,0-1,0c-.93.11-1.31-.32-1.3-1.21V10.83c0-.88.37-1.33,1.29-1.24a4.42,4.42,0,0,0,.63,0c1.76,0,1.79,0,1.79,1.72C139.88,14,139.87,16.58,139.87,19.2Z"/><path class="cls-3" d="M19.87,25.64c-.29-1.18-.61-2.36-.92-3.54a11.08,11.08,0,0,0,2.52-2.31A11.72,11.72,0,0,0,24,9.94a11.5,11.5,0,0,0-6.39-8.52A11.47,11.47,0,0,0,5.5,2.06,11.55,11.55,0,0,0,.13,13.92a11.38,11.38,0,0,0,5,8.08,1.64,1.64,0,0,1,0,.23c-.56,2.07-1,4.16-1.57,6.24-.6,2.45-1.26,4.88-1.8,7.33,0,0,0,.08,0,.12-.28,1-.53,2-.83,3.07-.12.42,0,.51.41.51H19l.46,0,3.11,0c.78,0,.77,0,.58-.77Q21.5,32.18,19.87,25.64ZM18.38,35.71a3.29,3.29,0,0,0-.7,0H6.29a4.56,4.56,0,0,0-.64,0,1.14,1.14,0,0,0,.15-.45c.35-1.17.6-2.37.89-3.56C7.32,29.14,8,26.59,8.61,24c.26-1.15.57-2.29.87-3.42a.57.57,0,0,0-.4-.77,9.19,9.19,0,0,1-2.36-1.43c-.16-.12-.29-.29-.51-.31-.06-.43-.45-.63-.68-1A8,8,0,0,1,4.36,9.31a8.09,8.09,0,0,1,7.77-5.37A7.94,7.94,0,0,1,18,6.39a8.23,8.23,0,0,1,0,11.55A9.22,9.22,0,0,1,15,19.87c-.25.11-.53.22-.44.56.24,1,.47,2.05.77,3.06a.41.41,0,0,0,.17.22h0c-.15.2,0,.4,0,.6.34,1.61.75,3.2,1.17,4.79.55,2.1,1,4.23,1.56,6.33a.88.88,0,0,0,.12.28Z"/><path class="cls-4" d="M21.47,19.79A11.31,11.31,0,0,1,19,22.1a.85.85,0,0,1-.32.33A13.65,13.65,0,0,1,16,23.7a.58.58,0,0,1-.41,0h0a.46.46,0,0,1-.17-.22c-.3-1-.53-2-.78-3.06-.08-.35.2-.45.45-.57A9.05,9.05,0,0,0,18,17.93,8.22,8.22,0,0,0,18,6.39a8,8,0,0,0-5.83-2.46A8.1,8.1,0,0,0,4.36,9.31a8,8,0,0,0,1.17,7.84c.23.31.61.52.68,1v0h0C6,19.34,5.6,20.5,5.37,21.69c0,.13-.08.28-.25.31a11.4,11.4,0,0,1-5-8.08A11.56,11.56,0,0,1,5.5,2.05a11.45,11.45,0,0,1,12.07-.63A11.49,11.49,0,0,1,24,9.94,11.73,11.73,0,0,1,21.47,19.79Z"/><path class="cls-5" d="M19.43,39.46c-.15,0-.31,0-.47,0-5.89,0-11.78,0-17.67,0-.44,0-.53-.09-.41-.52.3-1,.55-2,.83-3.06a.3.3,0,0,1,.1-.07A.48.48,0,0,1,2,35.8H2a1.69,1.69,0,0,1,.32,0H4.9a1.72,1.72,0,0,0,.55-.06l.11,0h.09a4.52,4.52,0,0,1,.64,0H17.68a3.29,3.29,0,0,1,.7,0h0l.08,0a.48.48,0,0,1,.22.31c.29,1,.56,2,.77,3.09A.32.32,0,0,1,19.43,39.46Z"/><path class="cls-6" d="M9.48,20.6c-.31,1.14-.61,2.28-.87,3.42-.6,2.57-1.29,5.11-1.92,7.67-.29,1.19-.54,2.39-.89,3.56a1.1,1.1,0,0,1-.15.44.28.28,0,0,1-.1.09h0l-.07,0c-1,.11-2.05,0-3.07,0a1.35,1.35,0,0,1-.6,0l-.08-.05c.54-2.46,1.2-4.89,1.8-7.33.52-2.08,1-4.17,1.57-6.24a2,2,0,0,0,0-.23l.93-3.59c0-.11.07-.21.1-.31h.06c.22,0,.35.19.5.31a9.72,9.72,0,0,0,2.37,1.43A.56.56,0,0,1,9.48,20.6Z"/><path class="cls-7" d="M22.54,39.49l-3.11,0c-.27-1.23-.54-2.46-.93-3.66a.34.34,0,0,1-.08-.09h0a.83.83,0,0,1-.12-.27c-.55-2.11-1-4.23-1.56-6.34-.42-1.59-.83-3.18-1.17-4.79,0-.19-.16-.4,0-.6v0A12.45,12.45,0,0,0,19,22.1c.31,1.18.63,2.35.92,3.54q1.64,6.52,3.25,13.07C23.31,39.49,23.32,39.49,22.54,39.49Z"/><path class="cls-8" d="M5.48,35.82c-.12.15-.29.1-.44.1H1.71a.5.5,0,0,1,0-.12H2Z"/></g></g></svg>