<svg xmlns="http://www.w3.org/2000/svg" viewBox="0 0 106.97 88.43"><defs><style>.cls-1{fill:#414141;}.cls-2{fill:#646464;}.cls-3{fill:#686868;}.cls-4{fill:#fefefe;}.cls-5{fill:#fbfbfb;}.cls-6{fill:#676767;}.cls-7{fill:#fdfdfd;}.cls-8{fill:#fcfcfc;}.cls-9{fill:#f9f9f9;}.cls-10{fill:#f8f8f8;}</style></defs><g id="Layer_2" data-name="Layer 2"><g id="Layer_1-2" data-name="Layer 1"><path class="cls-1" d="M100.25,59.5a7.44,7.44,0,0,1-14.18.58,1.38,1.38,0,0,1,0-.2l0-.06h0a1.62,1.62,0,0,1,0-.19,1.59,1.59,0,0,1,.12-.83,13.63,13.63,0,0,0,.68-6.36c0-.47,0-.95,0-1.27a6,6,0,0,1-.85,3.12,20.85,20.85,0,0,1-3.63,4.05,7.3,7.3,0,0,1-1.64,1.24l-.23.05c-.22,0-.44,0-.67,0h0c0-.22.18-.25.3-.33a27.42,27.42,0,0,0,4.87-4.7,7.34,7.34,0,0,0,1.33-4c0-.34-.18-.26-.37-.21l-3,.78L84,49.65a2.82,2.82,0,0,0-2.79.67l-1,1.06c-.38.42-.7.79-.32,1.45a1.37,1.37,0,0,1-.24,1.49,13.76,13.76,0,0,1-2.81,2.79c-.14-.18,0-.27.09-.37a25.22,25.22,0,0,0,1.39-2.19,3.29,3.29,0,0,0,.17-.39c.34-.88.1-1.23-.84-1.21h-.26c-.08-.17.09-.2.17-.27a28.67,28.67,0,0,0,2.61-2.56c.28-.31.67-.66.44-1.11s-.78-.31-1.2-.25a15.87,15.87,0,0,0-1.66.36l2-2.14A37.65,37.65,0,0,0,83,43.16c.19-.26.55-.6.34-.85s-.62,0-.9.2c-.78.42-1.53.87-2.3,1.31l-.37.2c-.24.1-.53.36-.72.16s.07-.48.21-.68c.65-.93,1.31-1.84,2-2.77a6.3,6.3,0,0,0,.5-.87c.12-.27,0-.41-.29-.37a6.6,6.6,0,0,0-1.55.53c-1.31.57-2.56,1.25-3.93,2a19.47,19.47,0,0,0,1.72-3.21c-3,.93-5.43,2.76-8,4.32L69.53,43c.15-.18.3-.36.46-.52q2.52-2.48,5.26-4.7A10.57,10.57,0,0,0,76,37c.08-.08.19-.19.13-.32s-.22-.06-.33-.06a9.35,9.35,0,0,0-4.33,1.28,36.51,36.51,0,0,0-9.1,7.7c-.78.87-1.54,1.76-2.3,2.64a4.11,4.11,0,0,1-.29.31c-.16.15-.35.3-.56.14s-.09-.4,0-.57c.46-.53.94-1,1.4-1.59.26-.3.66-.6.4-1a1,1,0,0,0-1.18-.39,14.33,14.33,0,0,0-4.19,1.61c-.16.08-.39.36-.53.14s.17-.37.34-.5a9.46,9.46,0,0,1,6.06-2.17,2.16,2.16,0,0,0,1.73-.8A27.67,27.67,0,0,1,73,36.54a4,4,0,0,0,1.74-1.27c-3.05-.08-5.63,1.26-8.26,2.42,1.57-1.4,3.48-2.41,4.88-4.19a7.58,7.58,0,0,0-3.12.58,46,46,0,0,0-5,2.62l-.53.31c-.1-.33.12-.48.29-.63a18.85,18.85,0,0,1,2.34-1.73,18,18,0,0,0,2-1.56,6,6,0,0,0,.69-.73c.11-.13.25-.29.15-.47s-.33-.19-.52-.17a9.94,9.94,0,0,0-2.45.64,28.11,28.11,0,0,0-8.94,5.48c-1.42,1.25-2.77,2.57-4.1,3.92a4.69,4.69,0,0,0-1.3,3,40.28,40.28,0,0,0-.22,4.66c0,.57-.3.42-.62.44-.48,0-.38-.23-.34-.52a61.2,61.2,0,0,0,.56-6.76c.08-4.74-2.06-8.24-5.88-10.86a8.91,8.91,0,0,0-6.69-1.52,9.06,9.06,0,0,0-3,1,4.24,4.24,0,0,0-2.22,3.35c-.11.9.34,1.29,1.23,1.13A3.69,3.69,0,0,0,35,35.17c.13-.08.27-.17.41-.24s.49-.15.65.12a.45.45,0,0,1-.18.68,14.48,14.48,0,0,1-1.42.82.75.75,0,0,0-.54.88c0,.15.09.36-.12.47-.13-.11-.06-.26-.09-.38s.08-.42-.16-.45-.54-.16-.76.09a19.49,19.49,0,0,1-3.08,2.41,1.12,1.12,0,0,0-.44.45A8.3,8.3,0,0,0,33,39.43c1.35-.65,2.65-1.42,4.06-1.94A6.87,6.87,0,0,1,41,37.22a4.11,4.11,0,0,1,3.21,5.08A10.21,10.21,0,0,1,41.66,47a24.13,24.13,0,0,0-1.61,1.9c-2,2.65-2.65,5.49-1.29,8.65.27.63.48,1.28.72,1.93l0,.06-.19.05h-.14a.61.61,0,0,1-.18-.05,1.21,1.21,0,0,1-.31-.48,22.77,22.77,0,0,1-1.22-4.05,6.28,6.28,0,0,1,.36-3.13,12.46,12.46,0,0,1,3-4.85,10.87,10.87,0,0,0,2.78-4.86A3.65,3.65,0,0,0,40,37.74a9.81,9.81,0,0,0-5.2,1.56,13.7,13.7,0,0,1-3.47,1.39.47.47,0,0,0-.67-.14c-.21.11,0,.32.07.49a1.67,1.67,0,0,0,.08.3c.08.35-.14.6-.3.87a22.74,22.74,0,0,0-3,7.27,22.26,22.26,0,0,0-.2,7.89,8.34,8.34,0,0,0,.53,1.55,1,1,0,0,1,.1.71l0,.06a7,7,0,0,1-4.17,4.7,7.44,7.44,0,0,1-10.11-4.94,43.4,43.4,0,0,1-1.52-13.84,44.26,44.26,0,0,1,10-26.07,2.44,2.44,0,0,1,.22-.23,1.26,1.26,0,0,1,.51,1.13.3.3,0,0,1,0,.1.36.36,0,0,1,0,.09,4,4,0,0,1-.26.35,43.49,43.49,0,0,0-9.22,29,41.8,41.8,0,0,0,1.4,8.89,6.25,6.25,0,0,0,11.8,1.27,1.06,1.06,0,0,0,.08-.48,1,1,0,0,0-.07-.34,32,32,0,0,1-2.1-13A36,36,0,0,1,25.36,40a29.61,29.61,0,0,1,2.14-6,1.16,1.16,0,0,1,.26-.39h.09c.3,0,.26.36.37.54,0,0,0,0,0,0s0,0,0,0c.48,1.25.93,2.52,1.43,3.76a1.51,1.51,0,0,0,.13.29c.06.12.08.32.27.24s.11-.25.07-.38c-.26-.79-.61-1.54-.89-2.32s-.5-1.35-.76-2l0-.07,0-.09a2.27,2.27,0,0,1-.26-.92l0-.08,0-.08a17.39,17.39,0,0,1,1.89-3.16A33.34,33.34,0,0,1,35,23.84a31.67,31.67,0,0,1,5.45-4,32.45,32.45,0,0,1,38.21,3.78l.29.26a32.35,32.35,0,0,1,6.26,7.81A31.89,31.89,0,0,1,88.57,40c.24,1,.44,2,.59,3a32.34,32.34,0,0,1-.59,12.4c-.11.46-.24.93-.37,1.39a19.16,19.16,0,0,1-.75,2.21,1.56,1.56,0,0,0-.13.58,1.77,1.77,0,0,0,.23.83,6.24,6.24,0,0,0,9.08,2.19,6.08,6.08,0,0,0,2.42-3.38,40.49,40.49,0,0,0,1.4-7.86,38.07,38.07,0,0,0,.2-4.13,45.93,45.93,0,0,0-1.89-12.1,41.44,41.44,0,0,0-2.49-6.37,44,44,0,0,0-24-21.87A44.78,44.78,0,0,0,62.11,4.48a43.72,43.72,0,0,0-7.84-.2,42.16,42.16,0,0,0-15,3.63A44.5,44.5,0,0,0,23.83,19.43a.69.69,0,0,1-.46.32h0l0,0a1,1,0,0,1-.41-1.08h0A45.42,45.42,0,0,1,36.13,8.12,43.52,43.52,0,0,1,56.21,3,44,44,0,0,1,88.37,15.86a43.69,43.69,0,0,1,12.42,22.35A44.21,44.21,0,0,1,100.25,59.5Z"/><path class="cls-2" d="M28.26,32.71l.29.88c-.07.26-.07.56-.4.67l-.3-.66c-.22-.1-.25-.33-.32-.52-1.53-4-3.08-8-4.6-12.07a1,1,0,0,1-.1-.57,5.19,5.19,0,0,0-.44-1.13C22,18,21.44,16.7,21,15.4Q18.11,7.93,15.25.48C15.09.05,15.18,0,15.6,0L29.65.1,39,.17h.65L36.76,2.7Q29.43,9,22.1,15.3a.59.59,0,0,0-.22.8c.37.84.69,1.69,1,2.54.14.38.28.75.43,1.12.19.1.23.3.3.48C25.09,24,26.51,27.82,28,31.6A2.69,2.69,0,0,1,28.26,32.71Z"/><path class="cls-3" d="M31.32,40.69a.85.85,0,0,1,.49-.29,12.17,12.17,0,0,0,2.95-1.25,12,12,0,0,1,3.66-1.47,5.15,5.15,0,0,1,3.5.44,3.47,3.47,0,0,1,1.75,4.36A10.15,10.15,0,0,1,41,47.08a13.93,13.93,0,0,0-2.83,4.17A7.27,7.27,0,0,0,38,56.8c.33.92.65,1.85,1,2.78-.44.16-.53-.15-.65-.46L32.83,44.75C32.32,43.4,31.82,42.05,31.32,40.69Z"/><path class="cls-3" d="M27.94,59.69a4.94,4.94,0,0,0-.48-1.4A6.81,6.81,0,0,1,27,55.82a23.73,23.73,0,0,1,.1-4.69,21.78,21.78,0,0,1,1.79-6.21,24.19,24.19,0,0,1,1.75-3.2,1.84,1.84,0,0,0,.17-.38l3.06,7.94q1.89,5,3.79,9.94c0,.11.06.23.11.39h-9.2A1.11,1.11,0,0,0,27.94,59.69Z"/><path class="cls-1" d="M62.48,81.06a14,14,0,0,0,8.19-3.35c.09-.07.16-.14.25-.2a.64.64,0,0,1,.91,0,.63.63,0,0,1-.08.94,14.48,14.48,0,0,1-1.35,1.11,16.33,16.33,0,0,1-7.52,3.16,7.38,7.38,0,0,1-2.48-.11,3.66,3.66,0,0,1-2.92-4.87A12.25,12.25,0,0,1,61,72.05a16.25,16.25,0,0,1,8.77-4.79,7.36,7.36,0,0,1,3.1,0,2.16,2.16,0,0,1,1.66,3.07,6.28,6.28,0,0,1-4.86,4,3.38,3.38,0,0,1-2-.11,1.81,1.81,0,0,1-.82-2.58.62.62,0,0,1,.72-.32c.31.08.36.34.36.63,0,.91.22,1.15,1.12,1a5.6,5.6,0,0,0,4-2.72c.61-1,.19-1.62-1-1.73a7.59,7.59,0,0,0-3.37.5,17.31,17.31,0,0,0-8,5.66,6.27,6.27,0,0,0-1.49,3.87A2.29,2.29,0,0,0,61.38,81C61.74,81,62.12,81,62.48,81.06Z"/><path class="cls-3" d="M80.64,59.58c.49-.44,1-.89,1.49-1.32a21.79,21.79,0,0,0,3.53-3.84c.78-1.05.82-2.33,1.1-3.66A24.79,24.79,0,0,1,87,55.52a12.16,12.16,0,0,1-.86,3.78,1.82,1.82,0,0,0,0,.58c-.08-.31-.32-.27-.55-.27H81.21Z"/><path class="cls-4" d="M28.26,32.71q-1.61-4.17-3.2-8.34c-.58-1.54-1.15-3.07-1.72-4.61a44.32,44.32,0,0,1,8.94-8.08A43,43,0,0,1,63.35,4.53,43.8,43.8,0,0,1,99.22,36.3a42.76,42.76,0,0,1,0,23,6.37,6.37,0,0,1-12,.9,1.09,1.09,0,0,1,0-.9A32.38,32.38,0,0,0,28.56,32.22C28.47,32.39,28.36,32.55,28.26,32.71Z"/><path class="cls-4" d="M22.83,20.44c.7,1.81,1.4,3.61,2.09,5.42q1.47,3.87,2.93,7.74a30.92,30.92,0,0,0-3.1,10.67,31.76,31.76,0,0,0,2,15.13.85.85,0,0,1,0,.7,6.38,6.38,0,0,1-12-1,41.81,41.81,0,0,1-1.51-11.68,43.15,43.15,0,0,1,9.42-26.71C22.66,20.62,22.75,20.54,22.83,20.44Z"/><path class="cls-3" d="M67.39,33.79c.31-.29.62-.57.92-.87a1.07,1.07,0,0,0,.4-1.22c-.17-.39-.74-.55-1.37-.41a16.65,16.65,0,0,0-3.17,1,28.71,28.71,0,0,0-7.79,4.93c-1.21,1-2.41,2.11-3.55,3.25a19.17,19.17,0,0,0-2,2.26c-.07-.61-.1-1.13-.12-1.64a9.36,9.36,0,0,0-.82-3.57,13.51,13.51,0,0,0-5.34-6.25c-.12-.08-.29-.15-.29-.29s.21-.17.33-.21a32.84,32.84,0,0,1,7.28-1.92,34.93,34.93,0,0,1,6.7-.33A34.49,34.49,0,0,1,67.21,30a30.93,30.93,0,0,1,10.61,5.67A23.23,23.23,0,0,1,81,38.77c.15.18.2.27-.08.36a37.28,37.28,0,0,0-3.53,1.53,1,1,0,0,1,.22-.58,3.19,3.19,0,0,0,.51-1.32c.07-.5,0-.63-.51-.46-.7.23-1.38.52-2.07.8s-1.43.66-2.14,1a6.5,6.5,0,0,1,1.33-1.29c.46-.43,1-.8,1.46-1.21a1.55,1.55,0,0,0,.37-.51.62.62,0,0,0,0-.7.66.66,0,0,0-.7-.26,9.46,9.46,0,0,0-1.28.19c.35-.38.63-.7.92-1s.24-.32-.11-.39a7.31,7.31,0,0,0-3.09.08c-.7.15-1.41.28-2.15.47l.75-.74a10.1,10.1,0,0,0,1-1.14c.09-.13.28-.25.21-.4s-.3-.16-.47-.17a8.39,8.39,0,0,0-3.47.53l-.77.3Z"/><path class="cls-3" d="M84.16,50.33c.13-.18.22-.29.3-.41.47-.66.47-.63-.37-.75a3.78,3.78,0,0,0-2.89.49c0-1.4-.65-1.42-1.82-1.44a41.33,41.33,0,0,0,4.48-5.5A13.56,13.56,0,0,1,85,44.91a23.49,23.49,0,0,1,1.45,4.18c.11.45,0,.71-.48.81S84.83,50.17,84.16,50.33Z"/><path class="cls-5" d="M28.15,34.26l.4-.67c.6,1.54,1.19,3.09,1.8,4.63.15.36-.12.45-.32.55s-.24-.18-.29-.31C29.2,37.07,28.68,35.66,28.15,34.26Z"/><path class="cls-3" d="M82.15,40.16a11.67,11.67,0,0,1,1.11,1.57,14.17,14.17,0,0,0-3.32,1.63C80.73,42.22,81.52,41.26,82.15,40.16Z"/><path class="cls-6" d="M79,54.4c.2-.74.28-1.33-.37-1.72-.19-.13,0-.22.07-.27s.14-.32.37-.1A1.48,1.48,0,0,1,79,54.4Z"/><path class="cls-3" d="M61.71,45.65c-.1-.39-.42-.56-.65-.87a6.59,6.59,0,0,1,1.41-.05A4.9,4.9,0,0,1,61.71,45.65Z"/><path class="cls-1" d="M55.56,77.77c-.34-.21-.55.17-.77.39a2.73,2.73,0,0,0-.32.42A7.64,7.64,0,0,1,53,80.18a1.86,1.86,0,0,1-.85.4c-.56.08-.79-.11-.78-.68a4.8,4.8,0,0,1,.55-2c.26-.54.58-1.05.86-1.58a.87.87,0,0,0-.2-1.15.83.83,0,0,0-1.12,0,8.08,8.08,0,0,0-1,1l-1.59,1.72c.25-.84.47-1.53.64-2.22.13-.52-.1-.75-.62-.68a1.26,1.26,0,0,0-1.07,1c-.11.48-.19,1-.32,1.44a2.2,2.2,0,0,1-.36,1,6.62,6.62,0,0,1-3,2c-.41.11-.8.13-1-.32a1.13,1.13,0,0,1,.41-1.33,7.92,7.92,0,0,0,1.68-1.2,3.75,3.75,0,0,0,1.18-1.77,1.08,1.08,0,0,0-1.34-1.4,2.93,2.93,0,0,0-1.23.59,6.2,6.2,0,0,0-2,2.9,4.43,4.43,0,0,1-1.12,1.76c-.29.3-.58.82-1.06.62s-.35-.73-.37-1.14a3.7,3.7,0,0,1,.92-2.94,32.18,32.18,0,0,0,4.41-6.14,7.18,7.18,0,0,0,.92-2.63,1.45,1.45,0,0,0-2.13-1.64,3.08,3.08,0,0,0-.72.42,5.17,5.17,0,0,0-1.26,1.42A24.52,24.52,0,0,0,38.66,74c-.08.27-.17.42-.48.45a2.67,2.67,0,0,0-1.25.53,8.64,8.64,0,0,0-2.51,2.9A10.15,10.15,0,0,1,33,79.75a3.74,3.74,0,0,1-1.42,1.07c-.71.25-1,0-.94-.74a6.19,6.19,0,0,1,1-2.53,5.39,5.39,0,0,0,.64-1.21,1,1,0,0,0-.37-1.25c-.47-.25-.8,0-1.11.32a2.19,2.19,0,0,1-.55.5.52.52,0,0,1-.67-.13c-.21-.21,0-.35.11-.49a6.16,6.16,0,0,0,.59-.94,1.69,1.69,0,0,0-.07-1.62.79.79,0,0,0-1.5,0,3.24,3.24,0,0,0-.44,1.67,4.24,4.24,0,0,1-.79,2.46A10.93,10.93,0,0,1,25,80.13c-.58.46-.89.34-1-.39A7.83,7.83,0,0,1,24.15,77a1.42,1.42,0,0,1,.66-1.09c.26-.13.2-.42.08-.66a1.45,1.45,0,0,0-1.34-.8,2.8,2.8,0,0,0-1.33.31,8,8,0,0,0-3.64,4.43,3.27,3.27,0,0,0-.27,1.18,1.15,1.15,0,0,0,1.61,1.26,2.86,2.86,0,0,0,1.29-.9c.3-.33.58-.68.9-1.08.08.3.12.53.2.76A1.66,1.66,0,0,0,24,81.64a2.44,2.44,0,0,0,1.65-.73,15,15,0,0,0,2.74-3.49c.4-.65.39-.64,1.08-.35.28.11.32.21.19.48A5.86,5.86,0,0,0,29,80c-.1,1.66.81,2.46,2.43,2.09a4.16,4.16,0,0,0,1.62-.86c.16-.13.26-.34.49-.37a1.13,1.13,0,0,0,1.57.75,3.3,3.3,0,0,0,1.46-1.1c.3-.35.58-.72.9-1.12.2,1.57.61,2.19,1.47,2.28a3.2,3.2,0,0,0,2.6-1.28,1.78,1.78,0,0,0,1.86,1.35,3.8,3.8,0,0,0,1.78-.46c.46-.24.89-.51,1.38-.8a2.44,2.44,0,0,0-.13.72.66.66,0,0,0,.4.63c.28.09.46-.12.61-.32s.25-.35.36-.52A19.17,19.17,0,0,1,50,78.32a6.74,6.74,0,0,0-.08,1.79,1.73,1.73,0,0,0,2.19,1.68,3.52,3.52,0,0,0,1.18-.45,7.34,7.34,0,0,0,2.37-2.67C55.77,78.39,55.92,78,55.56,77.77ZM45,75.83c-.09.71-.64,1.1-1.13,1.52A3,3,0,0,1,45,75.83Zm-2.59-7.6a3,3,0,0,1,.93-1.06c.11-.07.23-.18.38-.11s.11.24.11.38a3.27,3.27,0,0,1-.29,1.27,28.18,28.18,0,0,1-3.62,6.06A27.84,27.84,0,0,1,42.43,68.23ZM20.37,80.08c-.13.12-.29.31-.49.2s-.14-.35-.11-.53a2.85,2.85,0,0,1,.22-.64,9.43,9.43,0,0,1,1.86-2.48A2.27,2.27,0,0,1,23,76,12.28,12.28,0,0,1,20.37,80.08Zm15.42-.18a2.6,2.6,0,0,1-.32.26c-.12.09-.26.17-.39.08S35,80,35,79.89a3.18,3.18,0,0,1,.41-1.19,6.9,6.9,0,0,1,1.65-2.11,1.52,1.52,0,0,1,1.1-.47A15.15,15.15,0,0,1,35.79,79.9Z"/><path class="cls-1" d="M106.35,78.16a2.44,2.44,0,0,0-.51.46,6.29,6.29,0,0,1-2.9,1.87c-.39.1-.78.14-1-.33a1.13,1.13,0,0,1,.4-1.33,7.14,7.14,0,0,0,2.1-1.68,4,4,0,0,0,.71-1.11,1.17,1.17,0,0,0-.19-1.29,1.13,1.13,0,0,0-1.18-.26,2.7,2.7,0,0,0-1.09.53,6.3,6.3,0,0,0-2.11,2.91,2.24,2.24,0,0,1-1.45,1.34c-.15.06-.33.12-.36-.14a13.63,13.63,0,0,0-.85-2.55c-.3-1,0-1.5,1-1.62l.37,0c.24,0,.51-.08.59-.37a.75.75,0,0,0-.22-.72,1.62,1.62,0,0,0-1.39-.51,2.75,2.75,0,0,0-1.75,1,16.4,16.4,0,0,0-1.94,3,1.48,1.48,0,0,1-1.11.72c-.43.08-.69.27-.73.64-.11,1.11-1,1.55-1.75,2.09a1,1,0,0,1-.6.18c-.37,0-.57-.15-.57-.52a3.78,3.78,0,0,1,.27-1.24c.35-1,.9-1.83,1.34-2.75.29-.61.23-.92-.23-1.24s-.82-.12-1.15.23a2,2,0,0,1-.65.54.52.52,0,0,1-.62-.14c-.22-.22,0-.33.11-.48.2-.31.42-.61.59-.94a1.67,1.67,0,0,0-.08-1.67c-.39-.67-1-.71-1.42-.07A3.61,3.61,0,0,0,87.48,75c0,.15.06.3,0,.46a14.48,14.48,0,0,1-3.31,4.8,2.34,2.34,0,0,1-1.09.62c-.57.1-.87-.17-.78-.73a5.05,5.05,0,0,1,.26-.92,23.29,23.29,0,0,1,1.31-2.71A1.72,1.72,0,0,0,84,76a.82.82,0,0,0-.53-1,.75.75,0,0,0-1,.38c-.55.94-1,1.93-1.63,2.84a7.3,7.3,0,0,1-1.13,1.4c-.12.12-.25.29-.45.19s-.13-.32-.13-.48a2.06,2.06,0,0,1,.28-.91c.29-.54.61-1.07.89-1.62s.06-.85-.53-.86a1.22,1.22,0,0,0-1,.47,4.58,4.58,0,0,0-.94,1.75,1.66,1.66,0,0,1-1.72,1.11c-.25,0-.32-.08-.2-.32a6.31,6.31,0,0,0,.39-.93,4.68,4.68,0,0,0,.28-3.19,1.56,1.56,0,0,0-2.69-.71,3.23,3.23,0,0,0-1.13,2.53,1.61,1.61,0,0,1-.26.94,6.64,6.64,0,0,0-1,2.77c-.13,1.23.66,1.89,1.84,1.51A3.16,3.16,0,0,0,75,80.68c.2-.27.37-.44.76-.33a2.06,2.06,0,0,0,1.5-.18c.28-.13.35-.08.43.23a1.12,1.12,0,0,0,1.78.77,3.27,3.27,0,0,0,.93-.77c.08-.09.11-.29.31-.23.1,2,1.66,2.33,3,1.68A5.14,5.14,0,0,0,85,80.93a14.29,14.29,0,0,0,2.52-3.26c.18-.3.31-.78.56-.85s.64.24,1,.4l-.25.54a5.91,5.91,0,0,0-.54,2.51,1.72,1.72,0,0,0,2.32,1.82,4.18,4.18,0,0,0,2.22-1.35c.23-.24.32-.22.49,0A3.64,3.64,0,0,0,94.83,82a2.68,2.68,0,0,0,3.41-.64,2.81,2.81,0,0,1,1.62-1.17.39.39,0,0,0,.15-.06c.21-.14.3-.13.39.15a1.82,1.82,0,0,0,2.36,1.39,6.69,6.69,0,0,0,4-2.69.7.7,0,0,0,.16-.44C107,78.13,106.7,78,106.35,78.16Zm-2.51-2.33c-.06.72-.6,1.1-1.11,1.49A3.1,3.1,0,0,1,103.84,75.83Zm-29-.9c.49.09.48.68.54,1.2a1.17,1.17,0,0,0-1.26-.29C74.19,75.35,74.36,74.85,74.82,74.93Zm-.55,5c-.23.23-.43.47-.65.69s-.24.24-.41.17-.1-.27-.15-.42.1-.44.16-.65c.3-.93.29-.92,1-.27C74.45,79.63,74.45,79.74,74.27,79.92ZM75,78.68c-.39-.31-.74-.66-.68-1.09s.57-.7,1.11-.75A6.82,6.82,0,0,1,75,78.68Zm19.56,1.59a10.76,10.76,0,0,0,2.12.42C96,81.2,95.2,81,94.52,80.27Zm2.1-.8A9.25,9.25,0,0,1,95,79c-.14-.06-.34-.06-.16-.3l1.56-2.18c.23.9.42,1.7.63,2.5C97.14,79.4,97.08,79.59,96.62,79.47Z"/><path class="cls-1" d="M20.56,67.82a2.64,2.64,0,0,0-.61-.17,1.18,1.18,0,0,1-.73-.36.75.75,0,0,0-1.27.1.74.74,0,0,1-.4.23,20,20,0,0,0-5.19,2.57,11.74,11.74,0,0,0-3.67,3.62A4.53,4.53,0,0,0,7.92,77c.07.38,0,.48-.32.61a19.69,19.69,0,0,0-4.77,2.7A6.73,6.73,0,0,0,.07,84.36a3.2,3.2,0,0,0,2.28,3.93,6.41,6.41,0,0,0,1.95.12H5.57a2.2,2.2,0,0,0,.37-.06,13.8,13.8,0,0,0,8.4-5A19.1,19.1,0,0,0,18,76c.09-.3.2-.41.5-.39s.71,0,1.06,0,.61-.1.68-.46-.19-.55-.49-.67a2.47,2.47,0,0,0-.93-.13c-.32,0-.38-.09-.31-.41.34-1.6.65-3.21,1-4.82,0-.15,0-.39.26-.35s.41.22.34.49a4,4,0,0,1-.25.69.49.49,0,0,0,.06.63.53.53,0,0,0,.64,0,2,2,0,0,0,1-1.59A1.35,1.35,0,0,0,20.56,67.82ZM12.33,83.89A10.14,10.14,0,0,1,4.05,87c-2-.14-2.95-1.63-2.18-3.54a5.76,5.76,0,0,1,1.74-2.23,19.79,19.79,0,0,1,4.91-2.76.43.43,0,0,1,.41,0,2.9,2.9,0,0,0,2.6,0A5.69,5.69,0,0,0,13.8,77.1,4.78,4.78,0,0,1,16.34,76,17.53,17.53,0,0,1,12.33,83.89Zm3.77-9.15.6-.82C16.77,74.35,16.78,74.77,16.1,74.74Zm.16-2.29c-.19.32-.42.62-.62.92a5.26,5.26,0,0,1-3.56,2.57,10.45,10.45,0,0,0-2.15.72c-.46.19-.46,0-.4-.35a5.21,5.21,0,0,1,.56-1.53c1.64-3.11,4.36-4.83,7.68-6A11,11,0,0,1,16.26,72.45Z"/><path class="cls-1" d="M64,6.77c1.25.29,2.51.57,3.76.87A2.9,2.9,0,0,1,69,8.16a1.33,1.33,0,0,1-.22,2.3l-.26.13a1.69,1.69,0,0,1,.63,1.31,1.61,1.61,0,0,1-1.66,1.53,7.07,7.07,0,0,1-1.93-.31l-3-.69a.82.82,0,0,0,.55-.75l1-4.12A.92.92,0,0,0,64,6.77Z"/><path class="cls-1" d="M92.3,42.81l-.56-2.23c.33.23.52.15.71-.09a3.58,3.58,0,0,1,.71-.79c.84-.59.51-1.32.32-2.06,0-.17-.13-.21-.31-.17-.51.14-1,.27-1.54.38-.23,0-.28.23-.46.42l-.47-1.86a.77.77,0,0,0,.74.18c1.46-.39,2.94-.75,4.42-1.1.24-.06.38-.2.53-.54.36,1.51.71,2.87,1,4.24A1.86,1.86,0,0,1,97,41a1.62,1.62,0,0,1-2.17.08,4.65,4.65,0,0,1-.63-.78A9.85,9.85,0,0,0,92.3,42.81Z"/><path class="cls-1" d="M35,17.44l-.8-1.13c.47.13.74-.16,1-.36L37,14.7a2,2,0,0,0,1,1.6c.17.06.19.11.11.25-.83,1.51-1.83,2.83-3.66,3.17a2.93,2.93,0,0,1-3-4.44A4.66,4.66,0,0,1,34,13.33a3.19,3.19,0,0,0,1-.39c.16-.13.24-.06.26.13,0,.42.11.84.16,1.29a2.2,2.2,0,0,0-1.74.23,2.64,2.64,0,0,0-1.31,1.18,1.86,1.86,0,0,0,.16,2.09,1.82,1.82,0,0,0,1.92.72,3.54,3.54,0,0,0,2.3-1.65c.23-.32-.14-.46-.24-.67s-.29,0-.38.06C35.73,16.66,35.13,16.76,35,17.44Z"/><path class="cls-1" d="M87.73,30c.36.11.48-.07.58-.31.18-.4.38-.79.56-1.2a1.88,1.88,0,0,0-.49-1.25.11.11,0,0,0-.1,0,8.83,8.83,0,0,0-1.35.82c-.07.07,0,.22-.14.3L86,27a11.41,11.41,0,0,0,4.17-2.42c.6,1.07,1.21,2.1,1.78,3.15A1.78,1.78,0,0,1,92.11,29a1.29,1.29,0,0,1-2.15.53c-.3-.24-.38-.17-.49.13a7.32,7.32,0,0,0-.75,2Z"/><path class="cls-1" d="M82.86,17.08a6.6,6.6,0,0,1-1.21.62,2.38,2.38,0,0,0-1.94-2,1.5,1.5,0,0,0-1.48.75,1.35,1.35,0,0,0,0,1.55,3.15,3.15,0,0,0,1.66,1.25c.26.11.34-.1.46-.24s0-.28-.15-.35c-.33-.23-.57-.64-1.14-.5L79.92,17c0,.62.54.78.88,1.07s.73.58,1.14.9a1.53,1.53,0,0,0-1.11,1.21c0,.14,0,.17-.16.18a4.33,4.33,0,0,1-3.76-2.88,2.4,2.4,0,0,1,2.78-2.83,3.87,3.87,0,0,1,2.39,1.55A2.61,2.61,0,0,0,82.86,17.08Z"/><path class="cls-1" d="M73.6,16.1a3.23,3.23,0,0,1-2.39-1.35,2.3,2.3,0,0,1-.14-2.68,2.36,2.36,0,0,1,2.43-1.16A3.23,3.23,0,0,1,75.62,12a2.36,2.36,0,0,1,.51,2.64A2.45,2.45,0,0,1,73.6,16.1Z"/><path class="cls-1" d="M41.33,10.54A2.5,2.5,0,0,1,43.89,12a2.42,2.42,0,0,1-.58,2.68,3.29,3.29,0,0,1-2.37,1,2.35,2.35,0,0,1-2.28-1.43,2.3,2.3,0,0,1,.49-2.69A3.2,3.2,0,0,1,41.33,10.54Z"/><path class="cls-1" d="M85.22,24.82a3.22,3.22,0,0,1-3-3.08,2.4,2.4,0,0,1,2.45-2.38,3.21,3.21,0,0,1,3,3.1A2.38,2.38,0,0,1,85.22,24.82Z"/><path class="cls-1" d="M97.19,45v1.95c-.29-.37-.56-.23-.86-.06-1,.55-2,1.09-3,1.63a2.44,2.44,0,0,0-.84.63V47.32c.22.33.49.18.8,0s.29-.44.28-.72,0-.81,0-1.22,0-.52-.35-.61-.59-.36-.88.09V43.33a39.2,39.2,0,0,0,4.19,2C96.83,45.47,96.94,45.23,97.19,45Z"/><path class="cls-1" d="M95.47,59.14c-.2-.36-.46-.33-.76-.27-1.19.26-2.38.51-3.58.75a1.85,1.85,0,0,0-.9.48L90.78,58c.15.57.45.5.78.46s.43-.28.5-.57.2-.78.31-1.18.19-.48-.12-.69-.49-.47-.94,0l.48-1.75a18.47,18.47,0,0,0,2.66,2.51c.18.17.37.33.56.49.4.35.4.35.9.16Z"/><path class="cls-1" d="M56.16,10.31c-.32-.38-.66-.28-1-.26s-.6.07-.9.06-.43.12-.38.43c.09.52-.07,1.1.38,1.62l-1.67.12c.33-.54.06-4.33-.36-4.79l2.65-.19,1.58-.11a.74.74,0,0,0,.59-.25l.14,1.48a1.12,1.12,0,0,0-1.05-.24c-.65.05-1.31.14-2,.13-.47,0-.41.24-.42.56s.17.46.52.41a9.1,9.1,0,0,1,1.05-.07.88.88,0,0,0,.74-.29Z"/><path class="cls-1" d="M50.91,13c-.32-.4-.58-.28-.85-.22l-3.93.91A11.07,11.07,0,0,0,45,9l1.76-.4a.69.69,0,0,0-.22.84c.21.86.41,1.72.59,2.58.06.3.15.42.49.33.78-.2,1.57-.37,2.37-.54a.55.55,0,0,0,.46-.48A8.06,8.06,0,0,1,50.91,13Z"/><path class="cls-1" d="M96.54,55.08a8.34,8.34,0,0,0-2.36-2.34,2.76,2.76,0,0,0-2.16-.2l.17-1.46a3.05,3.05,0,0,0,2.54.12l1.57-.88a1.64,1.64,0,0,0,.8-.74l.11.07-.28,2.26c-.27-.6-.57-.41-.88-.21s-.63.37-1,.57c.32.31.6.59.88.85s.46.56.83.12Z"/><path class="cls-1" d="M17.67,60.63,17.22,59c.84.21,1.54-.28,2.48-.39l-1.31-1c-.34-.25-.69-.49-1-.76s-.48-.3-.67.18l-.63-2.39c.81.56,1.59,1.12,2.37,1.68s.67.49,1.13-.2a16.36,16.36,0,0,0,2-3.12,6.38,6.38,0,0,1,.66,2.23c-.35-.26-.52-.09-.71.2-.4.62-.83,1.23-1.27,1.82-.15.21-.15.34.08.45s.44.52.85.46a2.4,2.4,0,0,0,1.69-.8l.51,1.92a.81.81,0,0,0-.92-.15l-4,1.08C18.15,60.28,17.83,60.28,17.67,60.63Z"/><path class="cls-1" d="M21.53,33.45c.22-.12.39-.24.58-.32a1.24,1.24,0,0,1,1.58.77,1.79,1.79,0,0,1,0,1c-.31,1.24-.8,2.43-1.21,3.68-.33-.51-3.91-1.76-4.55-1.6l1.24-3.49a1.6,1.6,0,0,1,.6-.78C20.47,32.24,21.21,32.55,21.53,33.45Z"/><path class="cls-1" d="M17.07,41.35l.25-1.73a.85.85,0,0,0,.73.42l2.26.32a1.6,1.6,0,0,1,1.55,1.79,5.5,5.5,0,0,1-.32,2,1.46,1.46,0,0,1-1.72,1.15c-.84-.07-1.68-.22-2.52-.33a.81.81,0,0,0-.76.14l.26-1.77a.69.69,0,0,0,.7.48c.68.09,1.36.21,2,.29.86.1,1.2-.21,1.34-1.17s-.16-1.29-.94-1.43-1.54-.21-2.31-.33C17.43,41.12,17.31,41.25,17.07,41.35Z"/><path class="cls-1" d="M16.83,52.25l-.09-1.78a.81.81,0,0,0,.83.29c.88-.07,1.76-.14,2.64-.19.3,0,.4-.1.37-.4-.08-.83-.14-1.66-.19-2.49,0-.23-.14-.34-.31-.49a6.64,6.64,0,0,1,1.5-.15c-.37.41-.21.85-.19,1.26.08,1.18.17,2.36.25,3.55C21.07,51.54,17.27,51.83,16.83,52.25Z"/><path class="cls-7" d="M67,12.39c-.8-.1-1.58-.32-2.37-.5a.17.17,0,0,1-.1,0c-.28-.43.11-.81.12-1.22,0-.15,0-.37.31-.3a16.49,16.49,0,0,1,2.39.63.72.72,0,0,1,.52.9C67.77,12.31,67.43,12.41,67,12.39Z"/><path class="cls-7" d="M65,9c.1-.94.18-1,1.06-.8.56.13,1.13.27,1.69.43.34.1.62.3.51.72a.59.59,0,0,1-.78.45c-.77-.15-1.54-.34-2.31-.51C65,9.27,65,9.15,65,9Z"/><path class="cls-4" d="M96.37,39.28c0,.45-.06.78-.49.89A.71.71,0,0,1,95,39.7a14.85,14.85,0,0,1-.65-2.28c0-.16,0-.23.16-.26l.1,0c1.23-.39,1.23-.39,1.54.87A7.34,7.34,0,0,1,96.37,39.28Z"/><path class="cls-8" d="M91.14,28.24c0,.46-.32.69-.63.48a4.74,4.74,0,0,1-1.28-1.9c-.11-.19.28-.28.46-.39s.32-.31.45-.12A7.11,7.11,0,0,1,91.14,28.24Z"/><path class="cls-4" d="M73.66,15.09a1.79,1.79,0,0,1-1.8-1.6,1.57,1.57,0,0,1,1.52-1.58,1.75,1.75,0,0,1,1.79,1.6A1.54,1.54,0,0,1,73.66,15.09Z"/><path class="cls-7" d="M42.9,13.09a1.7,1.7,0,0,1-1.76,1.62,1.55,1.55,0,0,1-1.54-1.56,1.73,1.73,0,0,1,1.77-1.61A1.5,1.5,0,0,1,42.9,13.09Z"/><path class="cls-7" d="M86.57,22.2A1.59,1.59,0,0,1,85,23.73,1.85,1.85,0,0,1,83.31,22a1.6,1.6,0,0,1,1.54-1.5A1.85,1.85,0,0,1,86.57,22.2Z"/><path class="cls-9" d="M94.4,46.74l-.07-.07a4.71,4.71,0,0,1,0-1.3,8.72,8.72,0,0,1,1.52.59Z"/><path class="cls-10" d="M93.09,56.8l1.29,1.11L93,58.19c-.25.06-.32,0-.24-.27S93,57.21,93.09,56.8Z"/><path class="cls-7" d="M22.85,34.83a14.56,14.56,0,0,1-.6,1.91c-.06.19-.18.16-.33.12-1-.24-1-.24-.67-1.19a5.22,5.22,0,0,1,.5-1.22.59.59,0,0,1,1.1.38Z"/><path class="cls-5" d="M20.86,34.24a19.19,19.19,0,0,1-.67,1.84c-.17.36-.44,0-.67,0s-.34,0-.24-.3c.22-.58.41-1.16.64-1.74.1-.23.27-.44.57-.35S20.86,34,20.86,34.24Z"/><path class="cls-7" d="M86.24,50.59a7.34,7.34,0,0,1-1.33,4A27.42,27.42,0,0,1,80,59.3c-.12.08-.31.11-.3.33H39.27l.19-.05,0-.06c-.24-.65-.45-1.3-.72-1.93-1.36-3.16-.71-6,1.29-8.65A24.13,24.13,0,0,1,41.66,47a10.21,10.21,0,0,0,2.55-4.74A4.11,4.11,0,0,0,41,37.22a6.87,6.87,0,0,0-3.91.27c-1.41.52-2.71,1.29-4.06,1.94A8.3,8.3,0,0,1,29.3,40a1.12,1.12,0,0,1,.44-.45,19.49,19.49,0,0,0,3.08-2.41c.22-.25.51-.12.76-.09s.12.29.16.45,0,.27.09.38c.21-.11.14-.32.12-.47a.75.75,0,0,1,.54-.88,14.48,14.48,0,0,0,1.42-.82.45.45,0,0,0,.18-.68c-.16-.27-.41-.23-.65-.12s-.28.16-.41.24a3.69,3.69,0,0,1-1.23.47c-.89.16-1.34-.23-1.23-1.13a4.24,4.24,0,0,1,2.22-3.35,9.06,9.06,0,0,1,3-1,8.91,8.91,0,0,1,6.69,1.52c3.82,2.62,6,6.12,5.88,10.86a61.2,61.2,0,0,1-.56,6.76c0,.29-.14.56.34.52.32,0,.64.13.62-.44a40.28,40.28,0,0,1,.22-4.66,4.69,4.69,0,0,1,1.3-3c1.33-1.35,2.68-2.67,4.1-3.92a28.11,28.11,0,0,1,8.94-5.48,9.94,9.94,0,0,1,2.45-.64c.19,0,.42,0,.52.17s0,.34-.15.47a6,6,0,0,1-.69.73,18,18,0,0,1-2,1.56,18.85,18.85,0,0,0-2.34,1.73c-.17.15-.39.3-.29.63l.53-.31a46,46,0,0,1,5-2.62,7.58,7.58,0,0,1,3.12-.58c-1.4,1.78-3.31,2.79-4.88,4.19,2.63-1.16,5.21-2.5,8.26-2.42A4,4,0,0,1,73,36.54a27.67,27.67,0,0,0-9.7,6.86,2.16,2.16,0,0,1-1.73.8,9.46,9.46,0,0,0-6.06,2.17c-.17.13-.5.27-.34.5s.37-.06.53-.14a14.33,14.33,0,0,1,4.19-1.61,1,1,0,0,1,1.18.39c.26.44-.14.74-.4,1-.46.54-.94,1.06-1.4,1.59-.14.17-.26.39,0,.57s.4,0,.56-.14a4.11,4.11,0,0,0,.29-.31c.76-.88,1.52-1.77,2.3-2.64a36.51,36.51,0,0,1,9.1-7.7,9.35,9.35,0,0,1,4.33-1.28c.11,0,.26-.09.33.06s-.05.24-.13.32a10.57,10.57,0,0,1-.77.73Q72.51,40,70,42.45c-.16.16-.31.34-.46.52l.09.13c2.58-1.56,5-3.39,8-4.32A19.47,19.47,0,0,1,75.91,42c1.37-.72,2.62-1.4,3.93-2a6.6,6.6,0,0,1,1.55-.53c.31,0,.41.1.29.37a6.3,6.3,0,0,1-.5.87c-.65.93-1.31,1.84-2,2.77-.14.2-.43.46-.21.68s.48-.06.72-.16l.37-.2c.77-.44,1.52-.89,2.3-1.31.28-.15.67-.48.9-.2s-.15.59-.34.85A37.65,37.65,0,0,1,79.77,47l-2,2.14a15.87,15.87,0,0,1,1.66-.36c.42-.06,1-.23,1.2.25s-.16.8-.44,1.11a28.67,28.67,0,0,1-2.61,2.56c-.08.07-.25.1-.17.27h.26c.94,0,1.18.33.84,1.21a3.29,3.29,0,0,1-.17.39A25.22,25.22,0,0,1,77,56.74c-.06.1-.23.19-.09.37a13.76,13.76,0,0,0,2.81-2.79,1.37,1.37,0,0,0,.24-1.49c-.38-.66-.06-1,.32-1.45l1-1.06A2.82,2.82,0,0,1,84,49.65l-1.15,1.51,3-.78C86.06,50.33,86.28,50.25,86.24,50.59Z"/><path class="cls-7" d="M37.76,59.61l.77.08-.86-2.25L31.38,40.85s-.09-.4-.43-.38a.66.66,0,0,0-.3.08c-.08.05-.1.1-.08.16a1.81,1.81,0,0,0,.12.22,1.14,1.14,0,0,0,0,.23Z"/></g></g></svg>