<svg xmlns="http://www.w3.org/2000/svg" viewBox="0 0 155.56 36.78"><defs><style>.cls-1{fill:#7e7e7e;}</style></defs><g id="Layer_2" data-name="Layer 2"><g id="Layer_1-2" data-name="Layer 1"><path class="cls-1" d="M87,18.32q0-4.41,0-8.81a1.06,1.06,0,0,1,.23-.69,10.22,10.22,0,0,1,7-4.21c5.76-.67,9.49,3.1,10,7.73,0,.41,0,.81,0,1.22q0,6.78,0,13.57c0,.39-.11.46-.47.46-1.19,0-2.39,0-3.58,0-.34,0-.44-.07-.44-.43q0-6.75,0-13.5A4.48,4.48,0,0,0,98,9.81a4.73,4.73,0,0,0-5.12-.26,5.55,5.55,0,0,0-1.15.78.84.84,0,0,0-.32.71c0,5.37,0,10.75,0,16.12,0,.34-.08.44-.43.43-1.21,0-2.42,0-3.62,0-.34,0-.44-.07-.44-.42C87,24.22,87,21.27,87,18.32Z"/><path class="cls-1" d="M118.37,12.36c0-2.41,0-4.82,0-7.23,0-.28.08-.36.36-.35,1.25,0,2.51,0,3.76,0,.32,0,.37.1.36.38V18.91a4.4,4.4,0,0,0,3.26,4.36,4.32,4.32,0,0,0,5.42-3.85c0-.21,0-.43,0-.64q0-6.8,0-13.58c0-.35.09-.43.43-.43,1.24,0,2.49,0,3.73,0,.23,0,.33,0,.33.3,0,4.78.06,9.55,0,14.33a8.37,8.37,0,0,1-7.33,8.31,8.94,8.94,0,0,1-7-1.71,8.55,8.55,0,0,1-3.19-5.77,33.51,33.51,0,0,1-.08-4C118.36,14.94,118.37,13.65,118.37,12.36Z"/><path class="cls-1" d="M148,4.54a17.1,17.1,0,0,1,6.42,1.74c.19.09.18.19.12.36-.42,1.17-.85,2.33-1.25,3.5-.09.28-.19.26-.42.16A14.84,14.84,0,0,0,148,9a5.46,5.46,0,0,0-2.77.37,1.78,1.78,0,0,0-.42,3.22,8,8,0,0,0,3.08,1.31,17.16,17.16,0,0,1,4.25,1.64,6.16,6.16,0,0,1,3.12,3.67,6.31,6.31,0,0,1-3.59,7.73,11.32,11.32,0,0,1-7.08.62,21.1,21.1,0,0,1-5.49-2.09c-.17-.09-.2-.16-.12-.33.52-1.25,1-2.49,1.53-3.74.1-.24.18-.23.38-.12a22.34,22.34,0,0,0,4.51,1.9,6.25,6.25,0,0,0,4-.16,2.86,2.86,0,0,0,1.12-.76,1.74,1.74,0,0,0-.15-2.55,6.72,6.72,0,0,0-3-1.36,16.21,16.21,0,0,1-4.38-1.6,6.86,6.86,0,0,1-3.15-3.4,6.08,6.08,0,0,1,3.54-8A11.2,11.2,0,0,1,148,4.54Z"/><path class="cls-1" d="M61.36,16.61c0,3.71,0,7.42,0,11.14a8.6,8.6,0,0,1-6,8.27,12.94,12.94,0,0,1-4,.76c-.29,0-.39-.07-.39-.37q0-1.92,0-3.84c0-.32.1-.4.4-.41a7.6,7.6,0,0,0,3.28-.77,4,4,0,0,0,2.25-3.83q0-11.05,0-22.1c0-.55-.07-.49.5-.49C58.58,5,59.8,5,61,5c.29,0,.35.09.35.36,0,3.76,0,7.52,0,11.29Z"/><path class="cls-1" d="M109.19,16.14c0-3.67,0-7.33,0-11,0-.3.09-.37.38-.36,1.23,0,2.46,0,3.69,0,.37,0,.42.12.42.44q0,9,0,18c0,1.35,0,2.7,0,4.05,0,.25-.07.32-.32.32-1.27,0-2.55,0-3.83,0-.29,0-.32-.11-.32-.35Z"/><path class="cls-1" d="M42,16.5c0-.36-.07-.73-.12-1.1A16.66,16.66,0,0,0,36.48,4.94,18.41,18.41,0,0,0,19,.61,16.57,16.57,0,0,0,9.82,6.16a.84.84,0,0,1-.31.22A16.7,16.7,0,0,0,3.57,10.9,14.32,14.32,0,0,0,.14,22.37,13.13,13.13,0,0,0,6.19,32a19,19,0,0,0,15.42,2.58,1.49,1.49,0,0,1,.63,0,18.27,18.27,0,0,0,6.3-.16A16.88,16.88,0,0,0,42,17.83C42,17.39,42,16.94,42,16.5ZM12.72,8.61a7.11,7.11,0,0,1,9.24.5,8.66,8.66,0,0,1,3.1,7.06,9.11,9.11,0,0,1-2.46,6.24,7.29,7.29,0,0,1-11.35-1.07,10.45,10.45,0,0,1-1.81-6.21A8.22,8.22,0,0,1,12.72,8.61ZM8.67,30.4a13.39,13.39,0,0,1-4.84-8.47A13.23,13.23,0,0,1,6.44,11.38a7.46,7.46,0,0,1,1.11-1.14,18.5,18.5,0,0,0,.63,13.59,17.52,17.52,0,0,0,9.61,9.57A11.66,11.66,0,0,1,8.67,30.4ZM21.5,32.5a1.26,1.26,0,0,1-.79.06,15.3,15.3,0,0,1-8.12-5,15.55,15.55,0,0,1-2.54-4,2.64,2.64,0,0,1-.15-.45A11,11,0,0,0,17,26,10.11,10.11,0,0,0,24.2,23.6c4-3.41,4.41-7.68,2.82-12.47a11.45,11.45,0,0,1,1.74,2.37,13.47,13.47,0,0,1,1.66,6,12.57,12.57,0,0,1-3.7,9.41A14.8,14.8,0,0,1,21.5,32.5Zm14.82-6.85a15.34,15.34,0,0,1-9.45,6.89.57.57,0,0,1-.32,0c.06-.13.18-.16.28-.22A13.76,13.76,0,0,0,30.07,12a17.64,17.64,0,0,0-7-5.28c-.74-.33-1.44-.74-2.21-1a14.42,14.42,0,0,0-4.6-.77h-.84a12.44,12.44,0,0,1,1.94-1.25,15.52,15.52,0,0,1,7.8-1.91A12.49,12.49,0,0,1,32.62,4.4a15.27,15.27,0,0,1,6.19,10.42A15.72,15.72,0,0,1,36.32,25.65Z"/><path class="cls-1" d="M70.1,18.61c1.59,0,3.17,0,4.76,0h3.91a13.56,13.56,0,0,0,1.43-.07,3,3,0,0,0,3-2.88,10.52,10.52,0,0,0-.38-4.25A8.8,8.8,0,0,0,71.12,5a7.49,7.49,0,0,0-4.94,4.78,17.48,17.48,0,0,0-.37,11.68,8.37,8.37,0,0,0,4.49,5.39,11,11,0,0,0,4.76,1,13.22,13.22,0,0,0,7.85-2.59c.21-.14.11-.24,0-.37-.66-1-1.32-2-2-3.07-.13-.21-.22-.25-.43-.11a11.83,11.83,0,0,1-1.87,1,8.21,8.21,0,0,1-4.66.64,5.15,5.15,0,0,1-4.2-4.37C69.76,18.65,69.82,18.6,70.1,18.61Zm-.35-4.67a7.17,7.17,0,0,1,1.34-3.61,4,4,0,0,1,6.12,0A7.14,7.14,0,0,1,78.53,14c0,.28-.16.19-.27.19H70C69.86,14.17,69.72,14.19,69.75,13.94Z"/></g></g></svg>