<svg xmlns="http://www.w3.org/2000/svg" viewBox="0 0 86.88 119.58"><defs><style>.cls-1{fill:#2d2d2d;}.cls-2{fill:#2e2e2e;}.cls-3{fill:#303030;}.cls-4{fill:#636363;}</style></defs><g id="Layer_2" data-name="Layer 2"><g id="Layer_1-2" data-name="Layer 1"><path class="cls-1" d="M64.74,96.11c1.64,0,3.28,0,4.92,0,.39,0,.44.1.43.47,0,1.14,0,2.28-.06,3.43,0,.16.13.42-.17.46s-.29-.24-.34-.45a6.91,6.91,0,0,0-.9-2.4,2.44,2.44,0,0,0-2.1-1.08c-.26,0-.38.07-.38.36,0,3.37,0,6.74,0,10.11,0,.8.3,1.07,1.09,1.17l.45,0c.13,0,.27,0,.27.2s-.15.19-.28.18l-1.42,0c-1.43,0-2.85,0-4.27,0-.17,0-.46.13-.49-.15s.3-.21.48-.23c1.1-.14,1.31-.27,1.32-1.34,0-3.31,0-6.61.06-9.91,0-.36-.14-.44-.46-.43a2.41,2.41,0,0,0-2.09,1.19,8.71,8.71,0,0,0-.87,2.36c-.05.18,0,.43-.31.38s-.17-.31-.16-.46a22.38,22.38,0,0,0-.08-3.17c0-.53,0-.77.68-.74C61.63,96.15,63.19,96.11,64.74,96.11Z"/><path class="cls-1" d="M9.24,96.11c.78,0,1.55,0,2.33,0,.13,0,.32-.1.35.14s-.14.24-.29.24c-.72,0-1,.43-1,1.14,0,2.94,0,5.87,0,8.81a15.88,15.88,0,0,1-.16,2.06c-.28,2-2.08,3.44-4.51,3.42-.13,0-.28,0-.29-.17a.19.19,0,0,1,.17-.23c1.88-.37,1.93-1.88,2-3.31.07-1.66,0-3.32,0-5,0-1.84,0-3.67,0-5.51,0-.89-.13-1-1-1.22-.14,0-.31,0-.3-.23s.21-.16.34-.16C7.64,96.1,8.44,96.11,9.24,96.11Z"/><path class="cls-1" d="M47.81,114.68c0,1.39,0,2.79,0,4.18,0,.44,0,.65-.57.65s-.57-.24-.57-.65c0-1.9,0-3.8,0-5.7,0-.21-.15-.57.16-.6s.84-.24,1.16.26c.88,1.41,1.79,2.79,2.69,4.19l.32.47a1.32,1.32,0,0,0,.09-.75c0-1.25,0-2.5,0-3.75,0-.48.22-.47.54-.45s.64-.1.63.45c0,1.92,0,3.84,0,5.76,0,.24.2.65-.19.72s-.9.2-1.24-.36c-.78-1.3-1.63-2.54-2.45-3.81l-.42-.63Z"/><path class="cls-1" d="M35.23,116c0,1,0,2,0,3,0,.51-.26.48-.6.49s-.57,0-.55-.47c0-.73,0-1.47,0-2.2,0-.33-.09-.46-.44-.46-.79,0-1.59,0-2.39,0-.31,0-.41.09-.4.41,0,.75,0,1.51,0,2.26,0,.47-.22.47-.55.45s-.62.07-.61-.46q0-3,0-6c0-.53.27-.47.6-.48s.62,0,.58.49,0,1.29,0,1.94c0,.35.07.49.45.48.76,0,1.51,0,2.27,0,.38,0,.53-.09.51-.5,0-.67,0-1.34,0-2,0-.46.25-.42.53-.4s.63-.13.62.4C35.21,114,35.23,115,35.23,116Z"/><path class="cls-1" d="M61.29,116c0,1,0,2,0,3,0,.52-.26.48-.6.49s-.57,0-.55-.47c0-.73,0-1.47,0-2.2,0-.33-.09-.46-.44-.46-.79,0-1.59,0-2.39,0-.31,0-.41.09-.4.41,0,.75,0,1.51,0,2.26,0,.48-.23.46-.56.45s-.62.07-.61-.46q0-3,0-6c0-.53.26-.47.59-.48s.61,0,.58.49c-.05.66,0,1.34,0,2,0,.3.07.42.39.41.8,0,1.6,0,2.39,0,.41,0,.46-.17.45-.5,0-.67,0-1.34,0-2,0-.46.25-.41.53-.4s.62-.13.61.4C61.27,114,61.29,115,61.29,116Z"/><path class="cls-1" d="M67.84,115.05c0,.69,0,1.39,0,2.07a2.41,2.41,0,0,1-2.36,2.43c-1.66.07-2.67-.69-2.85-2.24a39.19,39.19,0,0,1-.07-4.47c0-.57.48-.23.74-.3s.41.06.4.38c0,1.27,0,2.55,0,3.82,0,1,.42,1.54,1.18,1.69a1.38,1.38,0,0,0,1.79-1.28c.07-1.33.07-2.68,0-4,0-.47.1-.63.6-.63s.57.17.55.6c0,.65,0,1.29,0,1.94Z"/><path class="cls-1" d="M26.46,119.56a2.38,2.38,0,0,1-2.31-1.24c-.12-.23-.36-.63,0-.72s.86-.32,1.11.24a1.26,1.26,0,0,0,.77.73,1.09,1.09,0,0,0,1.39-.49,1,1,0,0,0-.56-1.34c-.6-.29-1.25-.47-1.85-.76a1.76,1.76,0,0,1-.95-2.27,1.89,1.89,0,0,1,.26-.51,2.61,2.61,0,0,1,4.05.37c.1.21.31.45.09.69a1.27,1.27,0,0,1-1.16-.19,1.14,1.14,0,0,0-1-.72.93.93,0,0,0-1.06.57.9.9,0,0,0,.48,1.2c.54.26,1.12.44,1.68.66a1.84,1.84,0,0,1,1.32,1.73C28.72,118.76,27.87,119.55,26.46,119.56Z"/><path class="cls-2" d="M12.75,116c0-1,0-2,0-3,0-.33,0-.51.44-.5q1.62,0,3.24,0c.42,0,.43.19.44.51s-.11.45-.44.44c-.72,0-1.43,0-2.14,0-.31,0-.39.1-.4.4-.07,1.71-.08,1.7,1.62,1.71.37,0,.92-.22.84.56,0,.29-.14.35-.39.35-.52,0-1,0-1.56,0s-.53.08-.51.49c0,.67,0,1.34,0,2,0,.42-.11.57-.54.54s-.66,0-.63-.52C12.79,118,12.75,117,12.75,116Z"/><path class="cls-3" d="M36.57,116c0-1,0-2,0-3,0-.5.28-.42.58-.42s.58-.06.57.43c0,2,0,4.05,0,6.07,0,.53-.3.45-.62.47s-.55,0-.54-.48C36.59,118,36.57,117,36.57,116Z"/><path class="cls-4" d="M44.16,0A43.44,43.44,0,1,0,86.88,43.72,43.45,43.45,0,0,0,44.16,0Zm-.7,82.74a39.32,39.32,0,1,1,39.32-39A39.3,39.3,0,0,1,43.46,82.75Z"/><path class="cls-1" d="M47.24,108.16a1.85,1.85,0,0,1-.91-1.2c-1.34-3.48-2.68-6.95-4-10.44-.2-.55-.55-.4-.91-.44a.58.58,0,0,0-.71.45c-1.24,3.28-2.5,6.55-3.75,9.83a4.71,4.71,0,0,1-.65,1.26c-.46.58-.72.6-1.23.08a2.34,2.34,0,0,1-.24-.31l-4-6.33c-.12-.19-.17-.33,0-.51,1.34-1.43,2.22-3.34,4.26-4,.14,0,.24-.11.2-.27s-.14-.15-.24-.14c-1.23.1-2.46,0-3.69,0-.11,0-.22,0-.24.13s.06.19.21.25c1.15.39,1.36.94.66,2a26.19,26.19,0,0,1-1.83,2.26,3.48,3.48,0,0,1-1.68,1.16c-.31.08-.47.09-.47-.32,0-1.34,0-2.68,0-4a.91.91,0,0,1,.92-1c.15,0,.38.06.37-.22s-.26-.17-.39-.17c-1.53,0-3.06.06-4.6,0-.14,0-.37-.13-.41.14s.19.23.35.24a1,1,0,0,1,.94,1.08c0,3.05,0,6.09,0,9.14,0,1.25-.07,1.25-1.22,1.57a.16.16,0,0,0,0,.25.31.31,0,0,0,.12,0c1.62,0,3.24-.06,4.85,0,.15,0,.34,0,.34-.19s-.21-.2-.34-.21a.88.88,0,0,1-.94-1c0-1.6,0-3.19,0-4.8a.89.89,0,0,1,.87.49c1,1.56,1.92,3.13,2.88,4.69.2.33.1.51-.28.59-.18,0-.53-.07-.48.26s.35.16.54.16c2.31-.06,4.61,0,6.92,0,.17,0,.45.1.46-.19s-.25-.19-.41-.23c-.95-.22-1.17-.52-1-1.5a11.71,11.71,0,0,1,.79-2.52c.09-.28.29-.26.51-.26,1,0,1.9,0,2.85,0,.41,0,.56.15.67.5.27.8.57,1.58.85,2.37.38,1,.32,1.14-.75,1.46-.13,0-.26,0-.23.23s.18.15.3.15c.28,0,.56,0,.84,0l3.75,0c.14,0,.33.08.4-.12S47.38,108.22,47.24,108.16Zm-5.63-4.66c-1,0-2,0-3.08,0l1.77-4.68,1.57,4.34C42,103.42,41.88,103.5,41.61,103.5Z"/><path class="cls-1" d="M59.27,107.73c-.16-.18-.25,0-.37,0-.6.36-.91.27-1.12-.4s-.32-1.3-.46-1.95c-.4-1.89-1-2.43-2.89-2.77,0,0,0,0,0-.06a9.62,9.62,0,0,0,1.81-.68,3.07,3.07,0,0,0,1.53-3.19,2.67,2.67,0,0,0-2.06-2.24,6.91,6.91,0,0,0-1.26-.27,15,15,0,0,0-2.84-.08c-1.21,0-2.42,0-3.63,0-.12,0-.32-.1-.35.15s0,.22.18.22c1.19,0,1.11.93,1.11,1.72q0,4.15,0,8.3c0,.24,0,.47,0,.71,0,.57-.26.94-.88,1-.15,0-.4,0-.34.26s.23.14.37.14q2.26-.09,4.53,0c.16,0,.39.08.41-.18s-.19-.22-.33-.22c-.71,0-.93-.47-.94-1.07,0-1.36,0-2.72,0-4.08,0-.19,0-.31.26-.35,1.26-.21,1.89.15,2.2,1.4.23.92.39,1.86.55,2.79a2,2,0,0,0,1.46,1.86,3,3,0,0,0,3-.67C59.21,108,59.45,107.93,59.27,107.73Zm-7.45-5.42c-.25-.09-.16-.28-.17-.43,0-.69,0-1.38,0-2.21s-.06-1.57.06-2.43a.8.8,0,0,1,.82-.75,1.84,1.84,0,0,1,2.09,1.32,4.82,4.82,0,0,1,0,3.16A2.43,2.43,0,0,1,51.82,102.31Z"/><path class="cls-1" d="M22.68,106.94c-1.28-3.38-2.58-6.75-3.86-10.13-.18-.47-.34-.75-1-.76s-.71.38-.87.79q-1.86,4.86-3.73,9.7a2.66,2.66,0,0,1-1.21,1.61c-.13.06-.24.12-.21.28s.22.14.36.14c.84,0,1.68,0,2.52,0,.21,0,.55.17.59-.16s-.31-.21-.5-.25a1.09,1.09,0,0,1-1-1.45,15.13,15.13,0,0,1,.79-2.53c.1-.31.31-.29.55-.29.95,0,1.9,0,2.85,0,.38,0,.53.14.64.47.29.85.61,1.7.91,2.55s.23,1.08-.69,1.3c-.13,0-.34,0-.32.21s.24.18.4.18l3.69,0a4.7,4.7,0,0,0,1.35,0v-.25C23.23,108.17,22.93,107.59,22.68,106.94Zm-7.77-3.47,1.75-4.65c.59,1.63,1.13,3.11,1.68,4.65Z"/><path class="cls-1" d="M81.09,108.18c-.68-.25-.84-.88-1.06-1.46-1.28-3.33-2.56-6.67-3.81-10-.19-.51-.45-.62-1-.65s-.64.27-.78.64q-1.87,4.9-3.77,9.82a2.64,2.64,0,0,1-1.25,1.65c-.14.06-.22.15-.16.3s.2.1.32.1c.89,0,1.77,0,2.66,0,.16,0,.44.13.47-.16s-.27-.21-.43-.25c-1-.22-1.2-.6-1-1.58a15.48,15.48,0,0,1,.77-2.39.41.41,0,0,1,.47-.32c1,0,2,0,3,0a.49.49,0,0,1,.56.4c.3.89.65,1.78,1,2.67s.2,1-.7,1.24c-.14,0-.34,0-.33.21s.24.19.4.19h4.46c.14,0,.32.06.38-.15A.22.22,0,0,0,81.09,108.18Zm-8.75-4.71,1.76-4.65,1.67,4.65Z"/><path class="cls-1" d="M74.09,117.3a1.86,1.86,0,0,0-1.18-1.42,1.77,1.77,0,0,0,1-2.15,1.74,1.74,0,0,0-1.74-1.19c-.88,0-1.76,0-2.65,0-.24,0-.4,0-.39.34q0,3.13,0,6.27c0,.23.05.36.32.35a29.16,29.16,0,0,0,3.1-.06A1.75,1.75,0,0,0,74.09,117.3Zm-3.81-2.84c0-1,.33-1.25,1.67-1a1,1,0,0,1,.83,1.12.87.87,0,0,1-.57.79,4.79,4.79,0,0,1-1.73.11c-.22,0-.2-.18-.2-.33S70.28,114.7,70.28,114.46Zm2.67,3c0,.65-.48,1-1.31,1h-.26c-1.1,0-1.1,0-1.1-1.12s0-1.09,1.07-1.09h.33C72.52,116.41,73,116.84,73,117.5Z"/><path class="cls-1" d="M42.24,112.42A3.35,3.35,0,0,0,38.77,116a3.39,3.39,0,0,0,3.4,3.62,3.59,3.59,0,0,0,.07-7.16Zm.91,5.85a2.09,2.09,0,0,1-2.37-.27,2.6,2.6,0,0,1-.77-2.72,2.17,2.17,0,0,1,2.34-1.79,2.62,2.62,0,0,1,.8,4.78Z"/><path class="cls-1" d="M23.23,119.13c-.77-2.06-1.54-4.12-2.28-6.19-.15-.42-.46-.33-.73-.31s-.65-.17-.81.29c-.79,2.17-1.59,4.32-2.42,6.56.5-.1,1.17.33,1.29-.29.23-1.21,1-1.33,1.94-1.2a1.62,1.62,0,0,0,.58,0c.61-.1,1,.13,1.06.75s.48.83,1.08.76C23.22,119.47,23.34,119.44,23.23,119.13Zm-4.17-2c.38-1.06.72-2,1.11-3.15l1.1,3.15Z"/><path class="cls-4" d="M58.22,37.06c.11-.07.15-.08.17-.11a7.27,7.27,0,0,1,8.33-2.89,4.24,4.24,0,0,1,3,3.79,15.24,15.24,0,0,1,.16,2.52V50.88a7.75,7.75,0,0,0,.07,1c.19,1.26.66,1.74,1.94,1.83.38,0,.46.16.46.51s-.19.38-.48.36a81.79,81.79,0,0,0-9.13,0c-.24,0-.53.11-.52-.33s0-.5.44-.54c1-.11,1.35-.48,1.54-1.46a6.7,6.7,0,0,0,.1-1.09q0-6.25,0-12.51c0-.16,0-.31,0-.46-.12-2.42-2.06-3.42-4.13-2.11a4.18,4.18,0,0,0-2,3.72c0,3.61,0,7.22,0,10.82a7.26,7.26,0,0,0,.09,1.68c.22.93.59,1.32,1.53,1.41.43,0,.47.23.46.57s-.32.31-.55.29a85.56,85.56,0,0,0-9.06,0c-.25,0-.54.13-.51-.32s0-.5.42-.54c1.34-.11,1.83-.63,2-1.94a13.67,13.67,0,0,0,.08-1.42q0-10.61,0-21.2a8.94,8.94,0,0,0-.24-2.31,1.79,1.79,0,0,0-1.73-1.49c-.47,0-.51-.24-.49-.61s.37-.26.57-.25a26.12,26.12,0,0,0,6.84-.36c.55-.11.64,0,.64.51,0,3.92,0,7.83,0,11.74Z"/><path class="cls-4" d="M45.31,25.2a2.32,2.32,0,0,0-3.34.53,5.24,5.24,0,0,0-.68,2.86c-.06,1.79,0,3.58,0,5.38,0,.38.16.41.46.4h3.18c.26,0,.5,0,.51.37s-.21.43-.52.43c-1,0-2.08,0-3.11,0-.39,0-.52.08-.52.49,0,5.08,0,10.15,0,15.23,0,1.79,1,2.68,3,2.81.23,0,.56-.13.58.3s0,.6-.48.57c-3.26-.17-6.52-.21-9.78-.07-.3,0-.6,0-.9,0s-.51.07-.49-.35,0-.49.44-.52c1.27-.08,1.74-.54,2-1.82a8,8,0,0,0,.08-1.09c0-5,0-10,0-15,0-.52-.14-.67-.64-.63s-1.08,0-1.62,0c-.36,0-.36-.18-.37-.44s.11-.37.38-.37c.58,0,1.17,0,1.75,0,.4,0,.51-.11.5-.51a16.68,16.68,0,0,1,.34-4A7.1,7.1,0,0,1,43.56,24a6.73,6.73,0,0,1,3.67,1.08,3.47,3.47,0,0,1,.89,5,2.77,2.77,0,0,1-3.08.72,2.39,2.39,0,0,1-1.86-2.09,2.89,2.89,0,0,1,1.28-3C44.72,25.47,45,25.35,45.31,25.2Z"/><path class="cls-4" d="M23.1,47q0-4.27,0-8.55A7.29,7.29,0,0,0,23,37a2,2,0,0,0-1.86-1.77c-.4,0-.49-.2-.47-.57s.36-.28.57-.27a27.55,27.55,0,0,0,7-.4c.36-.08.47,0,.47.4,0,6,0,11.92,0,17.87a14.09,14.09,0,0,1-.61,4,7.42,7.42,0,0,1-6.34,5.44,11.41,11.41,0,0,1-2.26.16c-.19,0-.44.1-.47-.26s.08-.45.38-.47c1.95-.11,3.31-1.78,3.63-4a13.8,13.8,0,0,0,.13-1.93Q23.1,51.1,23.1,47Z"/><path class="cls-4" d="M25.48,24.25c1.41,0,2.72.36,3.29,1.82a2.91,2.91,0,0,1-2.24,4.13,5,5,0,0,1-2.62-.14A2.74,2.74,0,0,1,22,27.25a2.72,2.72,0,0,1,1.93-2.75A4.11,4.11,0,0,1,25.48,24.25Z"/></g></g></svg>