<svg xmlns="http://www.w3.org/2000/svg" viewBox="0 0 123.44 93.81"><defs><style>.cls-1{fill:#5c5c5c;}.cls-2{fill:#5d5d5d;}.cls-3{fill:#060606;}.cls-4{fill:#5e5e5e;}.cls-5{fill:#070707;}.cls-6{fill:#050505;}.cls-7{fill:#0a0a0a;}.cls-8{fill:#0b0b0b;}.cls-9{fill:#080808;}.cls-10{fill:#5f5f5f;}.cls-11{fill:#090909;}.cls-12{fill:#fcfcfc;}.cls-13{fill:#fff;}.cls-14{fill:#656565;}</style></defs><g id="Layer_2" data-name="Layer 2"><g id="Layer_1-2" data-name="Layer 1"><path class="cls-1" d="M61.17,8.45a7.22,7.22,0,0,1,.4,1c.92,2.47,1.7,5,2.56,7.47,1,3,2.1,6,3,9,.1.35.11.35.49.38,2.44.16,4.89.23,7.35.24l8.57.06a24.09,24.09,0,0,1,2.82.11c.07,0,.15,0,.22.09a1.16,1.16,0,0,1-.42.37c-1.45,1-3,2-4.43,3-3.06,2-6,4.17-9,6.32a10.1,10.1,0,0,0-1.07.89.87.87,0,0,0-.28,1c.35,1.41.81,2.78,1.27,4.16,1.1,3.28,2.13,6.58,3.16,9.88.31,1,.62,2,.92,3a.74.74,0,0,1,.07.44c-.15.08-.25,0-.36-.1-.63-.37-1.2-.85-1.8-1.26a31.68,31.68,0,0,1-3.14-2.39,1.55,1.55,0,0,0-.54-.32,2.39,2.39,0,0,1-.65-.39c-2.77-2.11-5.65-4.09-8.56-6a1.67,1.67,0,0,1-.26-.17.7.7,0,0,0-1,0l-.25.19a14.7,14.7,0,0,1-2.17,1.5c-.75.44-1.4,1-2.12,1.51-1.87,1.3-3.69,2.65-5.56,3.95-1.35.94-2.62,2-4,2.9-.3.2-.59.41-.9.6-.12.08-.22.2-.39.18s0-.14,0-.2c1.44-3.86,2.63-7.8,4-11.67.72-2,1.36-4,2-6a.46.46,0,0,0-.16-.57,22.8,22.8,0,0,0-1.92-1.48c-1.94-1.37-3.92-2.7-5.82-4.12-2.05-1.54-4.21-2.92-6.32-4.36a11.39,11.39,0,0,1-1.18-.89c-.05-.05-.12-.09-.11-.2a3.14,3.14,0,0,1,.87-.1c4.48-.15,9-.17,13.46-.19,1.63,0,3.26,0,4.89,0,.42,0,.39,0,.52-.38q2.26-7.12,4.72-14.18A15.16,15.16,0,0,0,61,8.89.62.62,0,0,1,61.17,8.45Z"/><path class="cls-2" d="M57.82,2.6c-.22,0-.41.12-.41.26s.21.29.47.29.28,0,.29-.23A.33.33,0,0,0,57.82,2.6Zm0,0c-.22,0-.41.12-.41.26s.21.29.47.29.28,0,.29-.23A.33.33,0,0,0,57.82,2.6Zm0,0c-.22,0-.41.12-.41.26s.21.29.47.29.28,0,.29-.23A.33.33,0,0,0,57.82,2.6Zm0,0c-.22,0-.41.12-.41.26s.21.29.47.29.28,0,.29-.23A.33.33,0,0,0,57.82,2.6Zm0,0c-.22,0-.41.12-.41.26s.21.29.47.29.28,0,.29-.23A.33.33,0,0,0,57.82,2.6Zm0,0c-.22,0-.41.12-.41.26s.21.29.47.29.28,0,.29-.23A.33.33,0,0,0,57.82,2.6Zm0,0c-.22,0-.41.12-.41.26s.21.29.47.29.28,0,.29-.23A.33.33,0,0,0,57.82,2.6Zm0,0c-.22,0-.41.12-.41.26s.21.29.47.29.28,0,.29-.23A.33.33,0,0,0,57.82,2.6Zm0,0c-.22,0-.41.12-.41.26s.21.29.47.29.28,0,.29-.23A.33.33,0,0,0,57.82,2.6Zm0,0c-.22,0-.41.12-.41.26s.21.29.47.29.28,0,.29-.23A.33.33,0,0,0,57.82,2.6Zm0,0c-.22,0-.41.12-.41.26s.21.29.47.29.28,0,.29-.23A.33.33,0,0,0,57.82,2.6Zm0,0c-.22,0-.41.12-.41.26s.21.29.47.29.28,0,.29-.23A.33.33,0,0,0,57.82,2.6Zm0,0c-.22,0-.41.12-.41.26s.21.29.47.29.28,0,.29-.23A.33.33,0,0,0,57.82,2.6Zm0,0c-.22,0-.41.12-.41.26s.21.29.47.29.28,0,.29-.23A.33.33,0,0,0,57.82,2.6Zm0,0c-.22,0-.41.12-.41.26s.21.29.47.29.28,0,.29-.23A.33.33,0,0,0,57.82,2.6Zm0,0c-.22,0-.41.12-.41.26s.21.29.47.29.28,0,.29-.23A.33.33,0,0,0,57.82,2.6Zm0,0c-.22,0-.41.12-.41.26s.21.29.47.29.28,0,.29-.23A.33.33,0,0,0,57.82,2.6Zm0,0c-.22,0-.41.12-.41.26s.21.29.47.29.28,0,.29-.23A.33.33,0,0,0,57.82,2.6Zm0,0c-.22,0-.41.12-.41.26s.21.29.47.29.28,0,.29-.23A.33.33,0,0,0,57.82,2.6Zm0,0c-.22,0-.41.12-.41.26s.21.29.47.29.28,0,.29-.23A.33.33,0,0,0,57.82,2.6Zm0,0c-.22,0-.41.12-.41.26s.21.29.47.29.28,0,.29-.23A.33.33,0,0,0,57.82,2.6Zm0,0c-.22,0-.41.12-.41.26s.21.29.47.29.28,0,.29-.23A.33.33,0,0,0,57.82,2.6Zm0,0c-.22,0-.41.12-.41.26s.21.29.47.29.28,0,.29-.23A.33.33,0,0,0,57.82,2.6Zm0,0c-.22,0-.41.12-.41.26s.21.29.47.29.28,0,.29-.23A.33.33,0,0,0,57.82,2.6Zm0,0c-.22,0-.41.12-.41.26s.21.29.47.29.28,0,.29-.23A.33.33,0,0,0,57.82,2.6Zm0,0c-.22,0-.41.12-.41.26s.21.29.47.29.28,0,.29-.23A.33.33,0,0,0,57.82,2.6Zm0,0c-.22,0-.41.12-.41.26s.21.29.47.29.28,0,.29-.23A.33.33,0,0,0,57.82,2.6Zm0,0c-.22,0-.41.12-.41.26s.21.29.47.29.28,0,.29-.23A.33.33,0,0,0,57.82,2.6Zm0,0c-.22,0-.41.12-.41.26s.21.29.47.29.28,0,.29-.23A.33.33,0,0,0,57.82,2.6Zm0,0c-.22,0-.41.12-.41.26s.21.29.47.29.28,0,.29-.23A.33.33,0,0,0,57.82,2.6Zm0,0c-.22,0-.41.12-.41.26s.21.29.47.29.28,0,.29-.23A.33.33,0,0,0,57.82,2.6Zm0,0c-.22,0-.41.12-.41.26s.21.29.47.29.28,0,.29-.23A.33.33,0,0,0,57.82,2.6Zm0,0c-.22,0-.41.12-.41.26s.21.29.47.29.28,0,.29-.23A.33.33,0,0,0,57.82,2.6Zm0,0c-.22,0-.41.12-.41.26s.21.29.47.29.28,0,.29-.23A.33.33,0,0,0,57.82,2.6Zm0,0c-.22,0-.41.12-.41.26s.21.29.47.29.28,0,.29-.23A.33.33,0,0,0,57.82,2.6Zm0,0c-.22,0-.41.12-.41.26s.21.29.47.29.28,0,.29-.23A.33.33,0,0,0,57.82,2.6Zm0,0c-.22,0-.41.12-.41.26s.21.29.47.29.28,0,.29-.23A.33.33,0,0,0,57.82,2.6Zm0,0c-.22,0-.41.12-.41.26s.21.29.47.29.28,0,.29-.23A.33.33,0,0,0,57.82,2.6Zm0,0c-.22,0-.41.12-.41.26s.21.29.47.29.28,0,.29-.23A.33.33,0,0,0,57.82,2.6Zm0,0c-.22,0-.41.12-.41.26s.21.29.47.29.28,0,.29-.23A.33.33,0,0,0,57.82,2.6ZM91.19,51.47a5.06,5.06,0,0,1-.79-2.37c-.19,1.08-1,1.92-1.12,3.07a1.17,1.17,0,0,0-.93-.61,4.44,4.44,0,0,0-1.74-.07.86.86,0,0,1-.89-.39c-.13-.18-.24-.37-.37-.56s-.33-.5-.51-.73-.3-.32-.53,0a9.47,9.47,0,0,0-.64.92,16.36,16.36,0,0,1-2.62,3.35,30.71,30.71,0,0,1-6.54,5.37A11.32,11.32,0,0,1,72,60.7a.27.27,0,0,0-.15.1,1.43,1.43,0,0,1-.83.57c-1.16.48-2.33.92-3.53,1.3a10.83,10.83,0,0,1-3,.56c-2.23.06-4.46.05-6.69,0a11.39,11.39,0,0,1-3.43-.55,39,39,0,0,1-4-1.44,1.06,1.06,0,0,1-.59-.45.28.28,0,0,0-.23-.13,3.17,3.17,0,0,1-1-.43,28.28,28.28,0,0,1-7.37-5.67,23.65,23.65,0,0,1-3.36-4.42,2,2,0,0,0-.19-.31c-.26-.38-.31-.38-.61,0s-.48.65-.7,1a1.34,1.34,0,0,1-1.2.66,9.55,9.55,0,0,0-1.6.1.26.26,0,0,1-.34-.21,4.07,4.07,0,0,1,0-.49c0-.45,0-.9-.09-1.35a1,1,0,0,0-.23-.67,4.26,4.26,0,0,1-.7-1c-.06-.12-.09-.28-.24-.36-.7,1.16-1,1.53-1.6,1.69.12-.33.22-.63.35-.94a1.5,1.5,0,0,1,1.11-1.06.72.72,0,0,0-.1-.18,1.91,1.91,0,0,1-.5-1.27.69.69,0,0,0-.51-.7c-.45-.16-.54-.49-.2-.82a1.93,1.93,0,0,0,.47-1.54.62.62,0,0,0-.13-.42,2.39,2.39,0,0,1-.44-1.11,3,3,0,0,0-.18-.73l-.76.83a1.21,1.21,0,0,1-.35.29c-.1,0-.17,0-.2-.11A.54.54,0,0,1,29,41a8.63,8.63,0,0,1,.87-.84c.34-.31.35-.36.1-.75a.48.48,0,0,1,0-.61,2,2,0,0,0-.31-2.28c-.34-.32-.34-.35,0-.71l.22-.22a1.46,1.46,0,0,0,.42-1c0-.46.06-.92.09-1.39a4,4,0,0,0,0-.49c-.05-.45-.21-.53-.58-.28-.19.12-.35.28-.54.41s-.21.12-.27,0a.39.39,0,0,0-.56-.17,1.17,1.17,0,0,1,.3-.5,1.27,1.27,0,0,1,1.31-.58l.44.05c.13,0,.29.07.38-.07s-.05-.22-.09-.33,0,0,0-.08a.54.54,0,0,1,.11-.76,1,1,0,0,0,.31-.81,1.26,1.26,0,0,0-.35-.85c-.13-.13-.27-.28-.2-.47a1.13,1.13,0,0,1,.67-.8,1.52,1.52,0,0,0,1.06-1.26,2.65,2.65,0,0,1,.39-.95c.11-.18.36-.36.21-.58s-.41-.11-.63-.08a6,6,0,0,1-.84.07c-.11,0-.22,0-.26-.14a.34.34,0,0,1,.1-.37.81.81,0,0,1,.5-.16,3.45,3.45,0,0,1,1.15.13c.37.1.42,0,.37-.34a.59.59,0,0,0,0-.13.79.79,0,0,1,.44-.9c.14-.08.28-.18.42-.25a.79.79,0,0,0,.45-.89,3.47,3.47,0,0,1-.06-.45,1.3,1.3,0,0,1,1.08-1.56.84.84,0,0,0,.55-.26,1.18,1.18,0,0,1,.6-.44c.18-.07.33-.17.33-.38a1.22,1.22,0,0,1,.34-.72c.21-.29.46-.55.69-.83.07-.08.2-.14.16-.29l-2-.22A3.22,3.22,0,0,1,37.1,16a5,5,0,0,1,.53-.23,1,1,0,0,1,.71,0l.59.19c.17.05.31,0,.31-.19,0-.4.24-.51.6-.56a1.45,1.45,0,0,0,1.26-1.32.56.56,0,0,1,.41-.53l.69-.17c.31-.07.62-.11.93-.18a.91.91,0,0,0,.72-.6A.52.52,0,0,1,44.3,12a1.51,1.51,0,0,0,.64-.3c.29-.22.28-.3,0-.46s-.6-.27-.89-.42c-.12-.06-.26-.14-.22-.3s.2-.19.35-.21h.14a1.42,1.42,0,0,1,1.11.73c.07.14.16.28.33.27A.32.32,0,0,0,46,11a.6.6,0,0,1,.62-.48,4,4,0,0,0,.62-.09c.58-.19,1.14-.41,1.28-1.11a.28.28,0,0,1,.3-.23,5.62,5.62,0,0,1,.71,0,5.66,5.66,0,0,0,1.79,0c.25,0,.55-.09.62-.36s.34-.44.66-.46a1.69,1.69,0,0,0,1-.39c.14-.12.18-.24,0-.37a3.33,3.33,0,0,0-1.24-.79,1.11,1.11,0,0,1-.26-.07A.2.2,0,0,1,52,6.53c0-.11.1-.14.2-.15a1,1,0,0,1,.48.06,2.83,2.83,0,0,1,1.49,1.17c.18.31.21.3.44,0,.37-.41.39-.43.87-.18A1.25,1.25,0,0,0,57,7.24a1.67,1.67,0,0,1,.91-.47,1.19,1.19,0,0,0,1.15-1.16.79.79,0,0,1,.67-.81.9.9,0,0,0,.62-.66,1.42,1.42,0,0,0-.79-1.75.53.53,0,0,1-.4-.6A1,1,0,0,0,58,.82l-.13,0c-.38,0-.45,0-.57-.35A.61.61,0,0,0,56.72,0a3.81,3.81,0,0,0-2.3.4c-.16.1-.29.15-.45-.06a.31.31,0,0,0-.58.13,1.45,1.45,0,0,1-.8,1c-.62.37-1.24.72-1.87,1.08a.5.5,0,0,1-.34.12c.16-.37.33-.7.46-1s.23-.43.09-.59-.4,0-.59,0l-1,.4a.43.43,0,0,1-.57-.1.5.5,0,0,0-.61-.13,3.4,3.4,0,0,0-1.67,1.29c-.12.18-.23.36-.36.52a.53.53,0,0,1-.64.19A2.09,2.09,0,0,0,45,3.13a1.4,1.4,0,0,0-1.33.48c-.32.39-.33.39-.83.2-.27-.1-.33-.09-.34.21a1.6,1.6,0,0,1-.39,1c-.31.37-.73.68-.82,1.2l0,0a.21.21,0,0,1-.23.09.18.18,0,0,1-.13-.17,1.35,1.35,0,0,1,0-.53.72.72,0,0,0,0-.48.49.49,0,0,0-.32,0,2.55,2.55,0,0,0-1.09.68c-.16.19-.33.31-.57.11s-.28-.06-.41,0a1.48,1.48,0,0,0-.37.38,3.4,3.4,0,0,0-.54,1.23c-.13.56-.27.69-.83.78-.2,0-.39,0-.58.09a2.27,2.27,0,0,0-.46.16,1.38,1.38,0,0,0-.9,1.23c0,.41-.08.45-.5.42h-.18c-.31,0-.35,0-.33.31a2.39,2.39,0,0,1-.07.66,10.72,10.72,0,0,1-1,2.3.17.17,0,0,1-.14.09c-.1-.05-.08-.15-.09-.24a1.85,1.85,0,0,0-.07-.62c-.11-.26-.24-.31-.5-.2a1.46,1.46,0,0,0-.42.33,1.5,1.5,0,0,1-.87.51.71.71,0,0,0-.41.27,2.55,2.55,0,0,0-.69,1.48,2.08,2.08,0,0,1-.68,1.37c-.24.24-.49.48-.73.73a1.88,1.88,0,0,0-.58,1.27c0,.43-.11.51-.54.56a.17.17,0,0,0-.16.06c0,.1.06.16.1.23a.89.89,0,0,1,.13.23,4.37,4.37,0,0,1-.27,2.6c-.09.23-.26.21-.38,0s-.06-.17-.1-.25-.1-.32-.28-.31-.23.18-.29.31-.13.33-.2.5a1.54,1.54,0,0,1-.3.6,2,2,0,0,0-.53,1.25,2.53,2.53,0,0,1-.31,1.11,1.89,1.89,0,0,0-.3.88c0,.22-.05.45-.1.67a.93.93,0,0,1-.21.49,1.43,1.43,0,0,0-.27,1.69.48.48,0,0,1-.05.55c-.23.23-.14.42,0,.63a3.33,3.33,0,0,1,.59,1.92c-.4-.27-.64-.64-1-.85,0,.32,0,.61,0,.89a1.94,1.94,0,0,0,.1.87c.06-.26.1-.45.15-.64s.14-.25.28-.07a2.94,2.94,0,0,0,1,.84.59.59,0,0,1,.28.48,2.58,2.58,0,0,1,0,.68c-.08.48-.34.6-.76.36s-.3-.16-.47.14l-.05.12c-.08.15-.17.15-.27,0a.16.16,0,0,0-.16-.08,6.89,6.89,0,0,0,0,1.87c0,.17,0,.36.19.42a.88.88,0,0,0,.65-.1c.09,0,.05-.13,0-.19s-.23-.28-.32-.43a.87.87,0,0,1,0-1,.84.84,0,0,1,1-.21c.15,0,.28.1.42.15s.23,0,.21-.17,0-.21,0-.31a1,1,0,0,1,.61-1,.55.55,0,0,1,.83.38,2.15,2.15,0,0,1,.07.62,1.86,1.86,0,0,0,.08.62c0,.1,0,.22.17.23s.14-.09.19-.17a.81.81,0,0,1,.86-.39c.31.05.45.22.52.63,0,.2,0,.39.05.58s0,.21.15.17c.32-.1.44.13.55.34a1.76,1.76,0,0,1,.07,1.52.84.84,0,0,1-.76.54,2.12,2.12,0,0,0-.57.09c-.22.06-.36.26-.6.34A6.2,6.2,0,0,0,27,37.88c-.25.29-.47.54-.67.8s-.25.17-.43,0a6.41,6.41,0,0,0-1-.74c-.16.38-.31.74-.48,1.09s-.27.5-.74.28l-.2-.1c-.23-.08-.29,0-.31.2a2.21,2.21,0,0,0,.39,1.36,7.14,7.14,0,0,1,.52.89.62.62,0,0,1,.11.43c-.38-.07-.61-.42-1-.45a1.14,1.14,0,0,0,.09.19c.36.44.65,1,1.36,1,.22,0,.45.4.47.7a.47.47,0,0,1-.39.53.61.61,0,0,0-.46.43c-.05.1-.07.2-.12.29s-.26.18-.4,0a1.28,1.28,0,0,1-.21-.4,2.68,2.68,0,0,1-.12-.93,4.53,4.53,0,0,0-.1-1.08.45.45,0,0,0-.13.36c0,.3,0,.6,0,.9a1.71,1.71,0,0,0,.75,1.71.76.76,0,0,1,.09.09.5.5,0,0,1,.13.54l-.13.33a2.35,2.35,0,0,0,0,1.46,1.39,1.39,0,0,0,.69.9c.21.11.22.23.09.45l-.1.14c-.15.24-.14.32.11.47a1.94,1.94,0,0,0,.59.19,1.88,1.88,0,0,1,1.33,1.13,1.17,1.17,0,0,1-.52-.12c-.26-.09-.52-.21-.79-.31S25,50.6,25,51a2,2,0,0,0,.35,1c.1.15.25.32.2.49-.13.42.12.69.32,1a4.63,4.63,0,0,0,1.18,1,.79.79,0,0,1,.38,1,1.08,1.08,0,0,0,.13.91c.26.4.49.82.73,1.22A22.27,22.27,0,0,0,30.73,61,60.1,60.1,0,0,0,35.9,66a20,20,0,0,0,2.86,2.16,3.31,3.31,0,0,0,.85.4c.17,0,.28,0,.34-.18a5.37,5.37,0,0,1,.55-1.13c.23-.42.47-.83.69-1.25s.16-.37-.13-.59-.33-.22-.49-.33a10.37,10.37,0,0,1-1.11-.76,40.35,40.35,0,0,1-6.4-6.4,10.73,10.73,0,0,1-1.21-1.78,1.48,1.48,0,0,1-.2-.77c0-.12,0-.25.11-.33s.26,0,.37.08l.66.6a2.88,2.88,0,0,0,.75.56c.16.07.42,0,.42.27s-.27.22-.45.26-.38.18-.27.48a2.78,2.78,0,0,0,.44.72,32.26,32.26,0,0,0,3.13,3.47c.67.62,1.34,1.25,2,1.89a6.14,6.14,0,0,0,.47.42.57.57,0,0,0,.67,0,2.13,2.13,0,0,0,.65-.62,2.19,2.19,0,0,0,2.1,1.62l1,0c.51,0,.64.11.77.58a2.61,2.61,0,0,0,2.14,1.93c.17,0,.35.06.53.11s.35.21.28.44c-.13.46.13.67.49.82a22.92,22.92,0,0,0,2.9,1.19A30.65,30.65,0,0,0,55.58,71c.65.08.65.09,1-.51l0-.07a.4.4,0,0,1,.7,0,.64.64,0,0,0,.45.32,1.68,1.68,0,0,0,.67,0A3.91,3.91,0,0,0,60.28,70c.58-.45.61-.44,1.15.07a2.43,2.43,0,0,0,3.23.15c.26-.25.33-.22.47.11l.08.21c.22.52.34.6.89.49s1.37-.27,2.06-.42a20.27,20.27,0,0,0,5.31-1.73l.54-.31a.58.58,0,0,0,.32-.51.61.61,0,0,1,.47-.59c.28-.1.56-.18.85-.27a2,2,0,0,0,1-.7,3.35,3.35,0,0,0,.62-1.18c.11-.43.15-.4.56-.41h.27a3,3,0,0,0,2.74-1.11c.3-.35.39-.36.76-.12a.62.62,0,0,0,.74,0c.23-.15.45-.29.67-.46a31.09,31.09,0,0,0,3.79-3.56c.64-.67,1.25-1.38,1.84-2.09.14-.18.14-.29,0-.44a6.91,6.91,0,0,1-.51-.57c-.1-.12-.08-.24.09-.25a1.26,1.26,0,0,0,.89-.63,4.18,4.18,0,0,0,.57-1.16,3.55,3.55,0,0,1,.33-.78c.15.52.27,1,.42,1.5.25-.38.45-.7.67-1A2.37,2.37,0,0,0,91.19,51.47ZM31.46,25.07a3.68,3.68,0,0,1,.66-.06c.1,0,.18,0,.18.06a.54.54,0,0,1-.16.44,1.94,1.94,0,0,0-.61,1.16.29.29,0,0,1-.26.27.34.34,0,0,1-.34-.17,1.19,1.19,0,0,1-.08-.16.73.73,0,0,0-.68-.49c-.21,0-.46,0-.55-.21s.11-.41.27-.57a2.07,2.07,0,0,1,.71-.53c.12-.06.28-.12.34.05S31.26,25.1,31.46,25.07Zm5.65-8.22c.16,0,.4-.05.47.14s-.18.28-.31.38-.36.22-.53.35-.4.31-.39.61-.13.3-.27.39a2.31,2.31,0,0,1-.35.18c-.53.23-.55.22-.64-.33a.73.73,0,0,0-.35-.49c-.3-.2-.31-.34,0-.57A3.11,3.11,0,0,1,35.77,17,8.65,8.65,0,0,1,37.11,16.85Zm7.08-5.5c0,.29-.29.31-.51.39s-.45.16-.38.5a.31.31,0,0,1-.25.33,1.49,1.49,0,0,1-.51.14c-.38,0-.5-.09-.44-.46a.91.91,0,0,0-.05-.65,2.51,2.51,0,0,0-.26-.31c-.08-.09-.18-.16-.25-.25s-.13-.28.05-.4a1.16,1.16,0,0,1,.72-.2.86.86,0,0,1,.85.38.56.56,0,0,0,.48.27C43.86,11.11,44.17,11.09,44.19,11.35Zm-2.5-1.59a.74.74,0,0,1,.26,0,5.38,5.38,0,0,1,1.64.43l-1.56.1h-.31c-.12,0-.25,0-.27-.18A.29.29,0,0,1,41.69,9.76ZM52.27,7.12a1.77,1.77,0,0,1,.48.23c.13.09.27.2.23.39s-.16.24-.31.29a2,2,0,0,1-.48.1c-.32.06-.6.13-.74.52s-1,.54-1.35.27a.47.47,0,0,1-.16-.53,1.29,1.29,0,0,1,.27-.45.87.87,0,0,0,.26-.42,1,1,0,0,1-.86-.67c-.08-.17,0-.27.13-.36a1.65,1.65,0,0,1,1.79.22A2.43,2.43,0,0,0,52.27,7.12ZM50.79,3.33a1.67,1.67,0,0,1,.92-.87,5,5,0,0,0,1.74-1.08.17.17,0,0,1,.17-.06c0,.17,0,.34-.08.52-.1.56-.06.61.53.62a1.85,1.85,0,0,1,.62.07c.28.1.33.26.1.44a3.58,3.58,0,0,1-.42.25l-.2.11c-.14.09-.34.16-.3.35s.24.13.39.15a2.1,2.1,0,0,1,1,.22c.27.16.28.28,0,.45s-.37.19-.55.29l-.5.29c-.08,0-.15.12-.11.23a.2.2,0,0,0,.27.1,1.73,1.73,0,0,0,.37-.16,6,6,0,0,0,.59-.39c.3-.23.58-.47.9-.74-.34-.16-.64-.29-.92-.44s-.37-.34-.05-.58a4.46,4.46,0,0,0,.43-.33c.15-.15.11-.29-.08-.4a1.15,1.15,0,0,0-.52-.1,1.3,1.3,0,0,1-.44,0c-.33-.11-.43-.3-.31-.62a1.41,1.41,0,0,1,.34-.47,3.36,3.36,0,0,1,1-.72c.58-.28.91-.11,1,.51a6.06,6.06,0,0,1,.05.85c0,.15,0,.34.15.39s.24-.14.33-.25a4,4,0,0,1,.24-.33.83.83,0,0,1,1.19-.14c.2.15.24.34.13.64-.2.55-.2.54.35.66a1.38,1.38,0,0,1,.61.26.74.74,0,0,1-.31,1.33,4.42,4.42,0,0,1-1,0,1.66,1.66,0,0,0-.76.07c.1.2.31.21.47.29.54.24.67.53.46,1a.86.86,0,0,1-1.15.48l-.12-.06c-.38-.18-.38-.18-.49.22a.7.7,0,0,1-.91.56,1.38,1.38,0,0,1-.66-.36,1.43,1.43,0,0,0-.38-.31c-.14.11-.07.26-.09.38,0,.35-.17.41-.47.21A1.5,1.5,0,0,1,54,6.69a4.67,4.67,0,0,0-2-1.09l-.68-.23a.65.65,0,0,1-.47-.65,1.8,1.8,0,0,0-.17-.82A.64.64,0,0,1,50.79,3.33Zm-.35,2.18c.22-.06.47,0,.47.2s-.2.23-.36.26l-.16,0c-.11,0-.23,0-.26-.12a.25.25,0,0,1,.11-.27A.52.52,0,0,1,50.44,5.51Zm-.15-1a.26.26,0,0,1-.3,0A.59.59,0,0,1,49.77,4c0-.08,0-.2.11-.25s.19,0,.26.11a.87.87,0,0,1,.19.4C50.35,4.33,50.38,4.43,50.29,4.49ZM46.84,2.55a1.52,1.52,0,0,1,1-.81.39.39,0,0,1,.35,0c.3.26.61.14.92.06A3.44,3.44,0,0,1,50,1.64c.11,0,.25,0,.32.08s0,.23-.08.32-.15.19-.21.29a.82.82,0,0,0-.16.59.7.7,0,0,1-.5.8,2.38,2.38,0,0,1-.84.14,1.23,1.23,0,0,1-.43-.07c-.1,0-.21-.11-.18-.22.07-.35-.19-.4-.41-.48S47.18,3,47,3,46.73,2.78,46.84,2.55ZM44,4.11A.79.79,0,0,1,45.45,4c.15.22.27.13.39,0a1.28,1.28,0,0,1,1-.37.71.71,0,0,1,.71.71c.05.36.08.38.42.25l.54-.21a1,1,0,0,1,.86.09.78.78,0,0,1,.38,1.09,2.16,2.16,0,0,1-.53.67c-.08.08-.17.16-.25.25s-.18.26.06.42a2.92,2.92,0,0,1,.37.24.66.66,0,0,1,.07,1,1.34,1.34,0,0,1-.91.44l-.58,0c-.27,0-.34.1-.36.37s0,.3,0,.44-.11.38-.36.44A1.75,1.75,0,0,1,45.38,9a.36.36,0,0,1,0-.42c.15-.18.31-.36.45-.56.27-.38.22-.52-.2-.71-.19-.08-.38-.15-.57-.25s-.21-.19-.08-.36a1.27,1.27,0,0,0,.22-.85c0-.31-.08-.38-.38-.35s-.65.1-1,.16c-.09,0-.17.06-.29,0A4.77,4.77,0,0,1,44,4.11ZM41.2,7.53A3.35,3.35,0,0,1,41.9,6c.28-.34.55-.67.81-1,.12-.17.26-.38.5-.28s.19.34.19.55,0,.2,0,.31c-.06.44,0,.52.45.45a6.17,6.17,0,0,1,.62-.08c.35,0,.46.14.33.47a1.18,1.18,0,0,1-.31.43,1.54,1.54,0,0,0-.25.26c-.13.2-.07.33.16.4a1.6,1.6,0,0,0,.49,0,3,3,0,0,1,.85,0,2.77,2.77,0,0,1-.7.92c-.34.35-.35.41,0,.77a4.54,4.54,0,0,1,.69.82c.07.12.11.25,0,.36a.26.26,0,0,1-.37,0,3.07,3.07,0,0,0-1.47-.6c-.49-.14-1-.23-1.48-.35s-.54-.21-.47-.69.06-.41-.35-.58S41.13,7.87,41.2,7.53Zm-.14.8c.28.08.31.14.29.44,0,.11,0,.22-.12.26a.26.26,0,0,1-.28-.1,1.94,1.94,0,0,1-.46-.71A.93.93,0,0,1,41.06,8.33Zm-2.93-.54c.18-.54.33-1.1,1-1.3A3.23,3.23,0,0,0,39.86,6a3.78,3.78,0,0,1,.33-.22c.11-.07.23-.17.37-.08s.08.24.09.36a1.18,1.18,0,0,1-.33.78c-.14.14-.11.23.06.34s.33.28.13.56a3.62,3.62,0,0,1-1,1c-.31.18-.43.14-.51-.2a.42.42,0,0,0-.4-.35l-.26,0C38.16,8.1,38.07,8,38.13,7.79Zm-4.65,5.45c.16-.31.33-.6.49-.91a1.79,1.79,0,0,0,.21-.64.78.78,0,0,1,.19-.4c.11-.14.22-.33.42-.28s.18.25.22.4.06.29.11.44.16.27.41.18l.41-.16a1.36,1.36,0,0,1,.66-.06c0,.28-.17.42-.27.61s-.31.33-.2.51.33.06.5,0l.79-.09c-.16.43-.48.74-.68,1.16A4.15,4.15,0,0,0,37.91,14a1.2,1.2,0,0,1-.09-1,1.43,1.43,0,0,0,0-.22c0-.25,0-.3-.27-.29s-.3,0-.44.06c-.34,0-.4,0-.35-.37,0-.19.07-.38.11-.58s-.07-.28-.26-.25l-.75.12c-.41.06-.53,0-.64-.43a1.69,1.69,0,0,1,.17-1.42A1.11,1.11,0,0,1,37,9.2a.47.47,0,0,0,.63-.09l.6-.56c.26.23.43.52.66.75s.26.27.61.09a1.41,1.41,0,0,1,1.17-.09.68.68,0,0,1,.43.9c0,.1-.09.19-.13.29-.25.45-.24.47.17.81a1,1,0,0,1-.17,1.75c-.33.18-.36.25-.31.64s0,.6-.49.73a3.78,3.78,0,0,1-1.11.17c-.17,0-.3.05-.27.25s-.1.25-.25.23a2.74,2.74,0,0,0-1.93.55,10.09,10.09,0,0,1-1,.54,1.56,1.56,0,0,1-.52.15c-.39,0-.54,0-.69-.41l-.11-.3a.62.62,0,0,0-.51-.39.6.6,0,0,1-.59-.69A2.72,2.72,0,0,1,33.48,13.24ZM30,15.34a1.52,1.52,0,0,1,.15-.7.48.48,0,0,1,.33-.33,1.88,1.88,0,0,0,.84-.57,2.32,2.32,0,0,1,.44-.39c.23-.14.42,0,.51.22a1.54,1.54,0,0,1,0,.31c0,.29,0,.56.35.69.13,0,.13.2.1.32a1.76,1.76,0,0,1-1,1.17c-.22.11-.36,0-.49-.25s0-.37-.22-.41-.26.18-.39.27a.83.83,0,0,1-.15.11c-.3.18-.47.09-.5-.26A1.08,1.08,0,0,1,30,15.34Zm-1,2.29c.2,0,.27-.08.28-.25a1.34,1.34,0,0,1,.55-1,.93.93,0,0,1,1.27-.05l.14.11c.35.29.39.29.75,0a3,3,0,0,1,.58-.43.89.89,0,0,1,1,.11A1.19,1.19,0,0,1,33.84,18a1.15,1.15,0,0,0-.14.17c-.08.11-.05.2.07.24l.47.15a.55.55,0,0,1,.4.54,4.86,4.86,0,0,1,0,.54.6.6,0,0,1-.4.54c-.37.16-.38.19-.26.57a5.05,5.05,0,0,1,.18.55.85.85,0,0,1-.62,1.08A2,2,0,0,1,31.83,22a.39.39,0,0,1-.13-.48c.06-.27.14-.52.21-.78.15-.61,0-.75-.6-.57-.38.1-.73.27-1.12.34a.75.75,0,0,1,0-.49,2.51,2.51,0,0,0,0-.67c0-.28-.2-.36-.44-.22a1.49,1.49,0,0,0-.32.24,1,1,0,0,1-.85.31h0a1.51,1.51,0,0,1-.56-1.15A.83.83,0,0,1,29.05,17.63Zm-1.47,4a4,4,0,0,0,.3-1.8c0-.21,0-.26.26-.21a1.32,1.32,0,0,0,.47.1l.09.6c.16,0,.23-.1.32-.16a3.15,3.15,0,0,1,.29-.22c.13-.09.28-.2.45-.1s.13.32.11.49a2.63,2.63,0,0,1-.08.3c0,.13-.13.25-.08.4.23.1.44,0,.65-.08a5.89,5.89,0,0,0,.68-.21c.31-.08.38,0,.29.31a6.67,6.67,0,0,1-.23.72c-.12.36-.09.41.28.47a2,2,0,0,1,1.33.84c.19.25.12.37-.2.4h-.09a2.82,2.82,0,0,0-2,.48,2,2,0,0,1-2.68-.58A1.78,1.78,0,0,1,27.58,21.63ZM25.3,23.9a2.41,2.41,0,0,0,.45-.87c.06-.19.09-.45.35-.46s.32.23.4.42a3.31,3.31,0,0,1,.25,1.17,1.56,1.56,0,0,1-.57,1.22c-.14-.16,0-.36-.13-.56a4.54,4.54,0,0,1-.34.44c-.2.22-.39.19-.54-.06A1.06,1.06,0,0,1,25.3,23.9Zm-.61,3.7.2-.09a.19.19,0,0,0,.11-.29l-.15-.28a.79.79,0,0,1,.06-.85.94.94,0,0,1,.86-.39.48.48,0,0,1,.43.34l.36.83a.52.52,0,0,0,.23.29,1.3,1.3,0,0,0,.06-.58c0-.37,0-.75,0-1.12a.72.72,0,0,1,.53-.75,1.35,1.35,0,0,1,1.27.2.62.62,0,0,1,.26.55c0,.19,0,.39,0,.58s.14.38.44.41h.22c.49,0,.61.11.66.59a1.42,1.42,0,0,1-.3,1.22.26.26,0,0,0,0,.4c.15.16.33.3.48.46s.25.35.08.63a1.21,1.21,0,0,1-1.05.66c-.26,0-.51,0-.76,0-.4,0-.49-.13-.51-.53,0-.23,0-.45,0-.67s-.08-.39-.42-.26l-.54.22a.5.5,0,0,1-.7-.2c-.14-.17-.26-.36-.44-.59a4,4,0,0,0-.88,1.39c0,.2-.19.21-.35.16A1.62,1.62,0,0,1,24,28.73,1.14,1.14,0,0,1,24.69,27.6Zm2.51,5.73a.65.65,0,0,1-1,.05.34.34,0,0,0-.33-.08.68.68,0,0,1-.67-.27,2.39,2.39,0,0,1-.7-1.56,2.93,2.93,0,0,0-.29-1.17c0-.08-.09-.17,0-.25s.19-.09.29-.07a.61.61,0,0,1,.46.38c.19.34.34.33.53,0,.08-.14.13-.3.2-.45a1.87,1.87,0,0,1,.2-.4c.19-.27.39-.25.54,0a2.57,2.57,0,0,1,.15.47,1.47,1.47,0,0,0,.15.39c.18-.24.34-.45.51-.66a1.88,1.88,0,0,1,.34-.35c.18-.14.29-.09.37.12A1.3,1.3,0,0,1,28,30c0,.18,0,.36,0,.54a.26.26,0,0,0,.33.27l.44-.07a1.14,1.14,0,0,1,.45,0,.22.22,0,0,1,.21.14.24.24,0,0,1-.11.23,1.66,1.66,0,0,1-.47.26,1.66,1.66,0,0,0-.84.83A3.2,3.2,0,0,1,27.2,33.33Zm2,2.23c-.16.14-.26.1-.32-.11a2,2,0,0,1,0-.26c0-.38,0-.38-.41-.43h-.14c-.54,0-.66-.25-.43-.73a2.08,2.08,0,0,1,.38-.55.63.63,0,0,1,.6-.23.69.69,0,0,0,.66-.29c.11-.12.21-.3.4-.2s.12.28.1.44a3.68,3.68,0,0,1-.15.57.87.87,0,0,0,0,.77c.07.13,0,.24-.06.34A2.07,2.07,0,0,1,29.19,35.56ZM29,42c.23.16.35,0,.48-.15s.18-.44.36-.59a.28.28,0,0,1,.15.24,15.07,15.07,0,0,1,.24,1.64,1.29,1.29,0,0,1-.09.7.26.26,0,0,1-.24.18c-.11,0-.13-.1-.17-.18-.25-.52-.25-.53-.8-.47-.78.08-.85-.29-.61-.85a3,3,0,0,1,.2-.4C28.61,41.92,28.76,41.84,29,42Zm-4,.25c-.49-.62-1-1.26-1.48-1.85a.7.7,0,0,1-.13-.24q-.12-.33.21-.39a.84.84,0,0,1,.76.19,1.06,1.06,0,0,0,.2.17c.07,0,.16.11.24,0s0-.14,0-.21A1,1,0,0,1,25,39c.14-.25.3-.25.49,0a2.76,2.76,0,0,1,.4.71.3.3,0,0,0,.13.17c.31-.37.51-.83.86-1.21.17.13.14.3.16.46a3.5,3.5,0,0,0,.15.7c.07.19.19.26.38.14l.45-.28a2.28,2.28,0,0,1,.69-.32.42.42,0,0,1,.42.06c.13.14.05.28,0,.42a1.43,1.43,0,0,1-.15.27,21,21,0,0,1-1.46,2,1.12,1.12,0,0,1-.7.44,4,4,0,0,1-1,0A1,1,0,0,1,25,42.24Zm-.72,4.35c0-.11.07-.21.17-.24s.21-.26.19-.44a5.58,5.58,0,0,1-.08-.57.91.91,0,0,1,1-1c.44.08.46,0,.49-.45a.61.61,0,0,1,.49-.61,2.28,2.28,0,0,0,1.3-.83c.13.29.1.52-.05.65a.68.68,0,0,0-.15.78,1.17,1.17,0,0,0,.17.45c.15,0,.15-.12.21-.19a1,1,0,0,1,1-.29.4.4,0,0,1,.29.4c0,.19,0,.39,0,.58a.35.35,0,0,0,.39.35.82.82,0,0,1,.22,0,.77.77,0,0,1,.49,1.29,1.45,1.45,0,0,1-2.06.35c-.2-.14-.4-.28-.6-.4s-.26,0-.3.17c-.1.57-.35.7-.87.43-.15-.07-.28-.17-.43-.24s-.27-.06-.31.15-.05.45-.07.67a2.07,2.07,0,0,1-.12.61c-.12.32-.31.38-.6.22A1.93,1.93,0,0,1,24.29,46.59Zm2.05,3.46a2.45,2.45,0,0,0-.74-.42.81.81,0,0,1-.27-.15c-.17-.13-.15-.3.06-.36a2.53,2.53,0,0,1,.48-.08c.35,0,.4-.07.45-.43,0-.16,0-.33,0-.49s0-.32.19-.37.28.07.38.18.31.4.52.66c0-.3.05-.54.07-.78s0-.49.25-.58.43.14.59.32.3.37.48.59c.28-.26.53-.5.79-.73a1.5,1.5,0,0,1,.7-.38.25.25,0,0,1,.25,0c.06.08,0,.17,0,.25a3.16,3.16,0,0,0-.33.63A4.17,4.17,0,0,0,30,49.06,11.11,11.11,0,0,1,30,50.22c-.06.48-.26.64-.74.68-.24,0-.47,0-.58.31s-.3.17-.47.12a2.65,2.65,0,0,1-1-.6C26.86,50.5,26.61,50.27,26.34,50.05Zm.77,3.46c-.14.34-.26.38-.57.19a2.24,2.24,0,0,1-.43-.33.49.49,0,0,1-.17-.45,1.79,1.79,0,0,0-.26-1.27c-.07-.16-.24-.35-.08-.49s.39,0,.56.11a1.22,1.22,0,0,1,.17.15.67.67,0,0,0,.6.22.9.9,0,0,1,.86.59.48.48,0,0,1-.17.63A1.1,1.1,0,0,0,27.11,53.51Zm8,7.77A37.86,37.86,0,0,0,40,65.48l.29.22a.21.21,0,0,1,.1.2.26.26,0,0,1,0,.11,6.81,6.81,0,0,1-.81,1.5c-.18.24-.22.25-.48.09s-.52-.34-.77-.53a55.85,55.85,0,0,1-6.34-5.77,22.34,22.34,0,0,1-2.51-3.21c-.41-.65-.4-.66.25-1,.34-.19.68-.38,1-.55s.39-.08.53.14A35.27,35.27,0,0,0,35.14,61.28Zm-2.72-8.66a4.83,4.83,0,0,0-.31,1.49c0,.14,0,.29-.19.31s-.29.17-.35.35-.06.2-.1.29a.43.43,0,0,1-.55.33l-.53-.07a.28.28,0,0,0-.34.26,1.33,1.33,0,0,1-1.19,1,.46.46,0,0,1-.55-.35,2.09,2.09,0,0,1-.13-.65,2,2,0,0,0-.41-1.17c-.39-.53-.22-1,.41-1.21.19-.06.44,0,.58-.21s0-.4,0-.61a1.18,1.18,0,0,1,.7-1c.32-.16.65,0,.93.33a2.65,2.65,0,0,0,.38.5l.3-.56a1,1,0,0,1,.62-.5.57.57,0,0,1,.77.52A2.09,2.09,0,0,1,32.42,52.62Zm.31-2.26a.58.58,0,0,1-.45.45,1.63,1.63,0,0,1-.58,0c-.35,0-.71-.06-.86-.44a1.32,1.32,0,0,1,.15-1.2s.06-.08.1-.09a1.9,1.9,0,0,0,.92-.7.68.68,0,0,1,.11.46c0,.26,0,.52.36.54.08,0,.13.12.17.2A1.26,1.26,0,0,1,32.73,50.36Zm42.78,9.27a3.68,3.68,0,0,1,.51-.37,29.65,29.65,0,0,0,7.11-6.53c.38-.48.67-1,1.07-1.49s.59-.44.92,0a.81.81,0,0,1,.16.5,1.19,1.19,0,0,1-.18.64,7.87,7.87,0,0,1-.73,1.08A26.93,26.93,0,0,1,80,58c-.84.7-1.7,1.37-2.59,2-.18.13-.37.25-.56.37-.65.41-1,.34-1.42-.3C75.36,59.89,75.35,59.75,75.51,59.63Zm-.72,1.78a1.85,1.85,0,0,1,.11-.58.23.23,0,0,1,.32-.15,1.45,1.45,0,0,1,.8,1.38c-.07.34-.19.42-.53.35C74.94,62.29,74.79,62.08,74.79,61.41ZM62.25,64.24a34.15,34.15,0,0,0,4.8-.82,32.81,32.81,0,0,0,5.76-2.1,1.13,1.13,0,0,0,.61-.49.36.36,0,0,1,.38-.18.38.38,0,0,1,.31.35,5.36,5.36,0,0,0,.11.79.31.31,0,0,1-.13.32,2.33,2.33,0,0,1-.35.27,10.49,10.49,0,0,1-2.32,1,5.89,5.89,0,0,0-.59.21,25.39,25.39,0,0,1-5.45,1.59,23.27,23.27,0,0,1-2.93.43c-.48,0-.59-.06-.76-.45C61.34,64.4,61.38,64.34,62.25,64.24Zm-14.6-3.36a.32.32,0,0,1,.59-.08,1.81,1.81,0,0,0,.85.63,33.1,33.1,0,0,0,5.55,2,19.63,19.63,0,0,0,3.57.63,16,16,0,0,1,2,.27,3.41,3.41,0,0,1-.3.66,1,1,0,0,1-1.08.63,15.7,15.7,0,0,1-2-.31A37.89,37.89,0,0,1,52,64.13a3,3,0,0,1-1-.37,3.69,3.69,0,0,0-1.25-.52,13.83,13.83,0,0,1-1.7-.8A1.21,1.21,0,0,1,47.65,60.88Zm-.82,0a1.42,1.42,0,0,1,.05.22l0,.31h0v.13a.78.78,0,0,1-.87.82.35.35,0,0,1-.35-.29,1.34,1.34,0,0,1,.74-1.4C46.63,60.64,46.75,60.7,46.83,60.93ZM36.72,51.45A1.72,1.72,0,0,1,37.2,51c.26-.16.33-.14.51.11a5.78,5.78,0,0,1,.33.48,22.75,22.75,0,0,0,3.77,4.48,24.56,24.56,0,0,0,3.91,3.21,1.93,1.93,0,0,1,.39.3c.22.2.22.3,0,.53a1,1,0,0,1-.71.47,1,1,0,0,1-.53-.14,4.78,4.78,0,0,1-.61-.38,37.4,37.4,0,0,1-4.75-4.23c-.54-.6-1-1.24-1.53-1.88l-1.31-1.71A.54.54,0,0,1,36.72,51.45ZM44.88,63a2.57,2.57,0,0,1-1.58,1.43.61.61,0,0,1-.27,0,1.79,1.79,0,0,1-1.58-2.21c.07-.22.16-.44.43-.46a1,1,0,0,1,.87.23.45.45,0,0,1,.07.51.33.33,0,0,1-.36.21c-.21,0-.39,0-.4.29s.06.28.23.26a1.59,1.59,0,0,0,1.19-.54.84.84,0,0,0,0-1,1.39,1.39,0,0,0-2-.47,4.15,4.15,0,0,0-1.1,1.11A5.43,5.43,0,0,1,40,63c-.2.22-.26.23-.48,0-.44-.37-.86-.75-1.27-1.14-1.16-1.1-2.31-2.22-3.39-3.41-.28-.31-.51-.66-.76-1-.11-.15-.09-.23,0-.33l1.31-1A1.46,1.46,0,0,0,36,54.65a1.37,1.37,0,0,0-1.08-1.17.88.88,0,0,0-1,.44.79.79,0,0,0,.16,1,.4.4,0,0,0,.27.17,1.06,1.06,0,0,0,0-.47c0-.21,0-.39.25-.46a.53.53,0,0,1,.61.26,1,1,0,0,1,0,1,.91.91,0,0,1-.9.39,1.66,1.66,0,0,1-1.43-1.55A3,3,0,0,1,33,53a1.55,1.55,0,0,1,1.44-.91,2.9,2.9,0,0,1,1,.11,1.6,1.6,0,0,1,1,.83A24.58,24.58,0,0,0,40,57.28a29.13,29.13,0,0,0,3.29,2.78,12.06,12.06,0,0,1,1.18,1A1.7,1.7,0,0,1,44.88,63Zm15,6.43a1.9,1.9,0,0,1-2.07.61A1.23,1.23,0,0,1,57,68.48a.91.91,0,0,1,1.1-.53c.16,0,.31.13.34.32s-.09.3-.25.39a1.83,1.83,0,0,0-.3.18c-.15.12-.13.25,0,.35A.73.73,0,0,0,59,68.82a1.1,1.1,0,0,0-1.18-1.55,1.23,1.23,0,0,0-1.43,1.12c-.11.39-.19.79-.27,1.18a.63.63,0,0,1-.61.55,6.4,6.4,0,0,1-2-.16,18.21,18.21,0,0,1-4-1.24,3.15,3.15,0,0,0-1-.33c-.24,0-.32-.17-.33-.4a2.09,2.09,0,0,1,.15-.7c.14-.36.3-.71.43-1.08a1.59,1.59,0,0,0-1.05-2,1.15,1.15,0,0,0-1.37.72.9.9,0,0,0,.6,1.14c.12,0,.25,0,.33,0s0-.23,0-.33a1.78,1.78,0,0,1-.24-.32c-.17-.34,0-.59.38-.6a.76.76,0,0,1,.77.61,1.18,1.18,0,0,1-.94,1.4,1.9,1.9,0,0,1-2.05-1.49A1.92,1.92,0,0,1,47.5,63a12,12,0,0,1,2.08.83,27.71,27.71,0,0,0,6.67,2l2.3.36a1.87,1.87,0,0,1,1.61,1.06A2,2,0,0,1,59.9,69.46Zm1-2.64c-.14.1-.22,0-.29-.08a1.21,1.21,0,0,1-.12-1.52,4.83,4.83,0,0,0,.29-.5c.18.38.34.69.46,1A1,1,0,0,1,60.94,66.82Zm15.55-1.39a3.15,3.15,0,0,1-1.12,1.2,1,1,0,0,1-.94.08,3,3,0,0,1-.75-.48.55.55,0,0,1-.16-.72c.16-.37.34-.72.8-.76s.56.15.43.54c-.07.2-.18.38-.26.58s0,.22.17.2a.87.87,0,0,0,.61-1.38,1.09,1.09,0,0,0-1.63-.33,1.49,1.49,0,0,0-.73,1.69,6.35,6.35,0,0,0,.41,1.13,2.16,2.16,0,0,1,.21.82.34.34,0,0,1-.29.39,7,7,0,0,0-1.39.49,15.77,15.77,0,0,1-5.19,1.29c-.28,0-.57,0-.85.09s-.23-.06-.23-.23a7.71,7.71,0,0,0-.07-1.52,1.52,1.52,0,0,0-2.38-1,1.06,1.06,0,0,0-.39,1.34.78.78,0,0,0,1.08.29c.14-.11.14-.24,0-.34s-.26-.14-.38-.22a.34.34,0,0,1,.07-.63.87.87,0,0,1,.89.1.81.81,0,0,1,.35.82,1.51,1.51,0,0,1-1.52,1.25l-.18,0c-1.74-.26-1.91-1.59-1.66-2.67a1.36,1.36,0,0,1,.84-1,6.6,6.6,0,0,1,1.52-.36,41.49,41.49,0,0,0,7.89-2,10.63,10.63,0,0,0,1.9-.9,1.61,1.61,0,0,1,.94-.26,2.38,2.38,0,0,1,2,1.22A1.24,1.24,0,0,1,76.49,65.43ZM88,55.75a.81.81,0,0,1-.81,0,3.1,3.1,0,0,1-.68-.51.42.42,0,0,1-.11-.46,1.25,1.25,0,0,1,.42-.62.35.35,0,0,1,.61.21,4.51,4.51,0,0,1,.08.53c0,.09.06.18.16.2s.19,0,.25-.14a1,1,0,0,0,.11-1,1.07,1.07,0,0,0-1-.47,1.12,1.12,0,0,0-.78.4,1.66,1.66,0,0,0,0,2.07c.43.39.9.73,1.36,1.09s.37.2.08.61a30.08,30.08,0,0,1-2.09,2.41,4.61,4.61,0,0,0-.74.9,1.07,1.07,0,0,1-.28.28c-.73.58-1.47,1.14-2.19,1.72-.18.15-.31.16-.48,0-.4-.45-.82-.87-1.24-1.29a1.67,1.67,0,0,0-1.57-.48,1.22,1.22,0,0,0-1,1.41,3,3,0,0,0,.14.66.84.84,0,0,0,1.22.2.42.42,0,0,0-.26-.71c-.16,0-.32,0-.43-.19a.5.5,0,0,1,.26-.74,1.16,1.16,0,0,1,1.36.6c.23.49.24.61-.17.93a.89.89,0,0,0-.35.46.41.41,0,0,1-.22.26,2,2,0,0,1-2.24,0,1.89,1.89,0,0,1-.68-2.12,2.47,2.47,0,0,1,.51-.94c.06-.06.12-.16.2-.18.5-.11.74-.56,1.11-.84.56-.42,1.13-.84,1.68-1.27a2.45,2.45,0,0,0,.78-.79c0-.05.07-.11.13-.1.35,0,.54-.23.75-.43a24,24,0,0,0,3.18-3.78,5.29,5.29,0,0,1,.86-1,1.59,1.59,0,0,1,1.17-.49A1.8,1.8,0,0,1,89,53.45,2,2,0,0,1,88,55.75Zm2.81-2c-.27.06-.4-.22-.52-.42a2.13,2.13,0,0,1,0-2.51,2.71,2.71,0,0,1,.86,2.3C91.15,53.37,91.15,53.69,90.85,53.75Zm-33-50.6c.13,0,.28,0,.29-.23a.33.33,0,0,0-.35-.32c-.22,0-.41.12-.41.26S57.62,3.15,57.88,3.15Zm-.06-.55c-.22,0-.41.12-.41.26s.21.29.47.29.28,0,.29-.23A.33.33,0,0,0,57.82,2.6Zm0,0c-.22,0-.41.12-.41.26s.21.29.47.29.28,0,.29-.23A.33.33,0,0,0,57.82,2.6Zm0,0c-.22,0-.41.12-.41.26s.21.29.47.29.28,0,.29-.23A.33.33,0,0,0,57.82,2.6Zm0,0c-.22,0-.41.12-.41.26s.21.29.47.29.28,0,.29-.23A.33.33,0,0,0,57.82,2.6Zm0,0c-.22,0-.41.12-.41.26s.21.29.47.29.28,0,.29-.23A.33.33,0,0,0,57.82,2.6Zm0,0c-.22,0-.41.12-.41.26s.21.29.47.29.28,0,.29-.23A.33.33,0,0,0,57.82,2.6Zm0,0c-.22,0-.41.12-.41.26s.21.29.47.29.28,0,.29-.23A.33.33,0,0,0,57.82,2.6Zm0,0c-.22,0-.41.12-.41.26s.21.29.47.29.28,0,.29-.23A.33.33,0,0,0,57.82,2.6Zm0,0c-.22,0-.41.12-.41.26s.21.29.47.29.28,0,.29-.23A.33.33,0,0,0,57.82,2.6Zm0,0c-.22,0-.41.12-.41.26s.21.29.47.29.28,0,.29-.23A.33.33,0,0,0,57.82,2.6Zm0,0c-.22,0-.41.12-.41.26s.21.29.47.29.28,0,.29-.23A.33.33,0,0,0,57.82,2.6Zm0,0c-.22,0-.41.12-.41.26s.21.29.47.29.28,0,.29-.23A.33.33,0,0,0,57.82,2.6Zm0,0c-.22,0-.41.12-.41.26s.21.29.47.29.28,0,.29-.23A.33.33,0,0,0,57.82,2.6Zm0,0c-.22,0-.41.12-.41.26s.21.29.47.29.28,0,.29-.23A.33.33,0,0,0,57.82,2.6Zm0,0c-.22,0-.41.12-.41.26s.21.29.47.29.28,0,.29-.23A.33.33,0,0,0,57.82,2.6Zm0,0c-.22,0-.41.12-.41.26s.21.29.47.29.28,0,.29-.23A.33.33,0,0,0,57.82,2.6Zm0,0c-.22,0-.41.12-.41.26s.21.29.47.29.28,0,.29-.23A.33.33,0,0,0,57.82,2.6Zm0,0c-.22,0-.41.12-.41.26s.21.29.47.29.28,0,.29-.23A.33.33,0,0,0,57.82,2.6Zm0,0c-.22,0-.41.12-.41.26s.21.29.47.29.28,0,.29-.23A.33.33,0,0,0,57.82,2.6Zm0,0c-.22,0-.41.12-.41.26s.21.29.47.29.28,0,.29-.23A.33.33,0,0,0,57.82,2.6Zm0,0c-.22,0-.41.12-.41.26s.21.29.47.29.28,0,.29-.23A.33.33,0,0,0,57.82,2.6Zm0,0c-.22,0-.41.12-.41.26s.21.29.47.29.28,0,.29-.23A.33.33,0,0,0,57.82,2.6Zm0,0c-.22,0-.41.12-.41.26s.21.29.47.29.28,0,.29-.23A.33.33,0,0,0,57.82,2.6Zm0,0c-.22,0-.41.12-.41.26s.21.29.47.29.28,0,.29-.23A.33.33,0,0,0,57.82,2.6Zm0,0c-.22,0-.41.12-.41.26s.21.29.47.29.28,0,.29-.23A.33.33,0,0,0,57.82,2.6Zm0,0c-.22,0-.41.12-.41.26s.21.29.47.29.28,0,.29-.23A.33.33,0,0,0,57.82,2.6Zm0,0c-.22,0-.41.12-.41.26s.21.29.47.29.28,0,.29-.23A.33.33,0,0,0,57.82,2.6Zm0,0c-.22,0-.41.12-.41.26s.21.29.47.29.28,0,.29-.23A.33.33,0,0,0,57.82,2.6Zm0,0c-.22,0-.41.12-.41.26s.21.29.47.29.28,0,.29-.23A.33.33,0,0,0,57.82,2.6Zm0,0c-.22,0-.41.12-.41.26s.21.29.47.29.28,0,.29-.23A.33.33,0,0,0,57.82,2.6Zm0,0c-.22,0-.41.12-.41.26s.21.29.47.29.28,0,.29-.23A.33.33,0,0,0,57.82,2.6Zm0,0c-.22,0-.41.12-.41.26s.21.29.47.29.28,0,.29-.23A.33.33,0,0,0,57.82,2.6Zm0,0c-.22,0-.41.12-.41.26s.21.29.47.29.28,0,.29-.23A.33.33,0,0,0,57.82,2.6Zm0,0c-.22,0-.41.12-.41.26s.21.29.47.29.28,0,.29-.23A.33.33,0,0,0,57.82,2.6Zm0,0c-.22,0-.41.12-.41.26s.21.29.47.29.28,0,.29-.23A.33.33,0,0,0,57.82,2.6Zm0,0c-.22,0-.41.12-.41.26s.21.29.47.29.28,0,.29-.23A.33.33,0,0,0,57.82,2.6Zm0,0c-.22,0-.41.12-.41.26s.21.29.47.29.28,0,.29-.23A.33.33,0,0,0,57.82,2.6Zm0,0c-.22,0-.41.12-.41.26s.21.29.47.29.28,0,.29-.23A.33.33,0,0,0,57.82,2.6Zm0,0c-.22,0-.41.12-.41.26s.21.29.47.29.28,0,.29-.23A.33.33,0,0,0,57.82,2.6Zm0,0c-.22,0-.41.12-.41.26s.21.29.47.29.28,0,.29-.23A.33.33,0,0,0,57.82,2.6Z"/><path class="cls-2" d="M96.85,36.13c-.26-.49-.48-1-.74-1.49A1.89,1.89,0,0,1,96,33a6,6,0,0,0,.3-2.66,1.41,1.41,0,0,0-.5-1.06,1.91,1.91,0,0,1-.5-.68A5.77,5.77,0,0,1,94.76,27a14.69,14.69,0,0,1-.14-2.2A3,3,0,0,0,94,23l-.55-.66a18.15,18.15,0,0,1-1.3-1.6A6.48,6.48,0,0,1,91,18.41a2.47,2.47,0,0,0-.42-.88,4.88,4.88,0,0,0-1.95-1.68,4.08,4.08,0,0,1-2.14-2.31,3.81,3.81,0,0,0-1.3-1.73A8,8,0,0,0,83.87,11c-.46-.22-.92-.43-1.36-.69a1.19,1.19,0,0,1-.38-.36A8.29,8.29,0,0,0,80.2,8a2,2,0,0,0-.6-.29,11.64,11.64,0,0,0-1.83-.45,3.93,3.93,0,0,1-2.07-1c-.24-.22-.51-.42-.74-.66a2.93,2.93,0,0,0-2.26-.88c-.9,0-1.8,0-2.69-.06a2.52,2.52,0,0,1-1.37-.5,10.3,10.3,0,0,0-1.39-.9,4.08,4.08,0,0,0-2.61-.44,11.86,11.86,0,0,0-1.18.27,9.51,9.51,0,0,1-1.84.36c-.17,0-.47-.08-.48.17s.28.22.47.23a3.88,3.88,0,0,1,1.49.47,5.37,5.37,0,0,0,.65.29A5.2,5.2,0,0,0,66.91,5a8.42,8.42,0,0,1,1.32-.2,3.69,3.69,0,0,1,2.7.76c.34.26.7.5,1.06.74A4.35,4.35,0,0,0,74.48,7Q75,7,75.56,7a2.64,2.64,0,0,1,2,.91c.32.37.64.75.95,1.13a2,2,0,0,0,1.38.75c.39,0,.77.11,1.15.18a2.64,2.64,0,0,1,1.85,1.24l.28.45a5.38,5.38,0,0,0,2.6,2.45,3.65,3.65,0,0,1,1.56,1.38A6.49,6.49,0,0,1,88,17.12a3.32,3.32,0,0,0,2.1,2.24,2.6,2.6,0,0,1,1.54,1.4,6.36,6.36,0,0,1,.67,2.63,3.4,3.4,0,0,0,.84,2.13c.24.28.46.59.69.88a2.93,2.93,0,0,1,.58,2.45,6,6,0,0,0,.07,2.59,2.93,2.93,0,0,0,.75,1.5.79.79,0,0,1,.21.39,3.43,3.43,0,0,1-.28,2.57,1.58,1.58,0,0,0-.23.67A5,5,0,0,0,95,38a8.52,8.52,0,0,0,.51,1.81,2.87,2.87,0,0,1-.39,3,3.29,3.29,0,0,0-.52,3.07,3.1,3.1,0,0,1-.26,2.35,7.66,7.66,0,0,1-1,1.54,4.22,4.22,0,0,0-.84,2.09,4.8,4.8,0,0,1-.59,2.43.57.57,0,0,0,.32-.17c.9-.77,1.68-1.66,2.53-2.48a.45.45,0,0,0,.12-.41c0-.46,0-.93-.13-1.38a4.81,4.81,0,0,1,1-3.62,3.1,3.1,0,0,0,.51-1c.08-.18,0-.37.06-.55v0h0V42.85l0-.15h0a7.47,7.47,0,0,0,0-1h0a3.4,3.4,0,0,1,.29-2.06,6.14,6.14,0,0,0,.49-1.63A3.14,3.14,0,0,0,96.85,36.13ZM67.54,4l-.43,0s0,.08,0,.1c.26.31.27.36-.11.44a3.86,3.86,0,0,1-3.49-.72,1.21,1.21,0,0,1-.16-.16c-.12-.13-.08-.25.07-.32A4.41,4.41,0,0,1,65.76,3a3,3,0,0,1,1.77.88S67.59,4,67.54,4Zm7.21,2.64c0,.12-.21.11-.33.1a3.74,3.74,0,0,1-2.69-1.32c-.21-.24-.15-.39.16-.48a2,2,0,0,1,.76-.1,3.38,3.38,0,0,1,2.3,1,1,1,0,0,1,.33.61C75,6.45,74.85,6.41,74.75,6.68Zm5.82,2.75a2.53,2.53,0,0,1-.38.09,2.2,2.2,0,0,1-1.52-.68A2.83,2.83,0,0,1,78.12,8c-.1-.21-.06-.28.18-.33a1.6,1.6,0,0,1,.62,0,3.72,3.72,0,0,1,1.63.89.91.91,0,0,1,.2.24C80.93,9.16,80.88,9.32,80.57,9.43Zm5.29,3.78c-.09.17-.26.19-.43.2a1.71,1.71,0,0,1-.63-.19,2.07,2.07,0,0,1-.93-1.11.38.38,0,0,1,0-.46.36.36,0,0,1,.45,0,3.68,3.68,0,0,1,1.43,1.19A.35.35,0,0,1,85.86,13.21Zm3.83,5.57a1.49,1.49,0,0,1-.5-.29,3,3,0,0,1-1-2c0-.28,0-.33.28-.29a2.84,2.84,0,0,1,1.1.58,2,2,0,0,1,.82,1.09,1,1,0,0,1,0,.35A.56.56,0,0,1,89.69,18.78Zm4.57,6.47a.42.42,0,0,1-.65.13,1.51,1.51,0,0,1-.28-.22,2.78,2.78,0,0,1-.76-1.78,1.86,1.86,0,0,1,.09-.71c.07-.2.21-.24.39-.12a1.07,1.07,0,0,1,.16.14,5.89,5.89,0,0,1,1.15,1.76A.8.8,0,0,1,94.26,25.25Zm-.35,26.9c-.17.27-.35.28-.6.1A.86.86,0,0,1,93,51a22.41,22.41,0,0,1,1.31-2,7.17,7.17,0,0,1,.22,1.48A3,3,0,0,1,93.91,52.15Zm1.53-19.89a.47.47,0,0,1-.38-.27,2.32,2.32,0,0,1-.32-.84,5.1,5.1,0,0,1,0-1.51.77.77,0,0,1,.07-.26c.11-.24.24-.28.47-.14a1.6,1.6,0,0,1,.66.87,2.36,2.36,0,0,1,.13.75,3.37,3.37,0,0,1-.2,1.05C95.75,32.08,95.65,32.25,95.44,32.26Zm.86,11.46a3.31,3.31,0,0,1-.37,1.55,2.39,2.39,0,0,1-.28.35c-.11.13-.23.25-.37,0s-.19-.06-.29,0-.28-.06-.32-.23a2.15,2.15,0,0,1,0-.67,3,3,0,0,1,.81-1.8,2.31,2.31,0,0,1,.24-.2c.25-.14.4-.09.47.18A2.62,2.62,0,0,1,96.3,43.72Zm.28-5.13c-.12.4-.13.41-.51.1,0,.19,0,.37-.28.37a.37.37,0,0,1-.37-.37A7.08,7.08,0,0,1,95.59,36c.06-.19.12-.44.38-.44s.31.22.39.39A3.71,3.71,0,0,1,96.58,38.59Z"/><path class="cls-2" d="M99.16,46.14c-.13-.11-.32.09-.45.2-.52.42-1,.84-1.6,1.23A3.27,3.27,0,0,0,96,48.91a7.77,7.77,0,0,0-.54,2.53L96.4,51A1.18,1.18,0,0,1,97,50.9c.18,0,.24.13.14.28a1.22,1.22,0,0,1-.24.27,4.84,4.84,0,0,1-1.4.87,3.14,3.14,0,0,0-.92.54A9.21,9.21,0,0,0,93,54.54a3.22,3.22,0,0,0-.54,1c-.16.57-.52.7-1,.39-.18-.11-.34-.25-.51-.37s-.27-.1-.37.08a4.65,4.65,0,0,1-.41.64,38.51,38.51,0,0,1-7.59,8,4.64,4.64,0,0,1-1.25.79,1.66,1.66,0,0,0-.63.49.34.34,0,0,0-.11.41c.18.4.33.85.78,1.05.15.07.17.19.21.31a3.05,3.05,0,0,0,.6,1.05c.2.22.34.27.58.08.62-.47,1.34-.78,2-1.27a57.17,57.17,0,0,0,4.76-4.3,19.32,19.32,0,0,0,2.52-3,6.13,6.13,0,0,1,.66-.86,11.09,11.09,0,0,0,1-1.27c.46-.71.4-.56-.27-.87a2.39,2.39,0,0,1-.59-.32c-.17-.16-.16-.28,0-.39a1.54,1.54,0,0,1,.51-.17,6.83,6.83,0,0,0,1.25-.35,2.84,2.84,0,0,0,1.54-1.23,14.07,14.07,0,0,0,1.26-3.12.72.72,0,0,0,.06-.34c-.14-.35.06-.57.26-.8a3.16,3.16,0,0,0,.76-1.5,7.77,7.77,0,0,1,.68-2C99.16,46.49,99.34,46.28,99.16,46.14ZM92.68,57.77a13.79,13.79,0,0,1-1.2,1.74,40.4,40.4,0,0,1-8,7.67l-.57.37c-.34.21-.36.2-.6-.14a9,9,0,0,1-.69-1.15c-.16-.33-.16-.34.1-.58s.47-.41.72-.6a37.45,37.45,0,0,0,8-8.22c.13-.18.22-.4.53-.39a.78.78,0,0,1,.23.06,7.51,7.51,0,0,1,1.35.7C92.85,57.42,92.86,57.46,92.68,57.77Zm3.66-4.59a3.23,3.23,0,0,1-2,2.17,1.15,1.15,0,0,1-.5.06,1.23,1.23,0,0,1-.21,0c-.44-.13-.54-.36-.32-.77a3.26,3.26,0,0,1,.72-.85A7,7,0,0,1,95.7,52.6c.19-.09.42-.25.62-.05S96.41,53,96.34,53.18Zm1.92-5.36a8,8,0,0,1-.82,2,1.37,1.37,0,0,1-.84.63c-.09,0-.24,0-.23,0,.06-.26-.08-.38-.26-.52s0-.2,0-.3a2.26,2.26,0,0,1,.3-.55A6.67,6.67,0,0,1,98,47.47a.38.38,0,0,1,.3-.12A.63.63,0,0,1,98.26,47.82Z"/><path class="cls-2" d="M58.64,74.24c0-.64,0-1.29,0-1.93,0-.4-.12-.5-.48-.51a14.34,14.34,0,0,1-2.92-.39A43.27,43.27,0,0,1,47.1,68.9c-.7-.3-1.38-.66-2.06-1-.17-.09-.27-.1-.4.09-.61.92-1.24,1.83-1.85,2.74A.5.5,0,0,0,43,71c.22.13.43.27.66.39a35.23,35.23,0,0,0,7.65,2.86,27.34,27.34,0,0,0,6.36,1c.29,0,.68.14.87,0S58.64,74.55,58.64,74.24Zm-.8-.09c-.06.39-.21.51-.6.52a6.21,6.21,0,0,1-1.55-.19c-2.14-.44-4.28-.87-6.36-1.51a38,38,0,0,1-4.74-1.88,2.61,2.61,0,0,1-.62-.37c-.25-.2-.28-.47,0-.64a2,2,0,0,0,.72-1l.06-.12c.17-.31.25-.35.57-.19l1.78.85A33.24,33.24,0,0,0,55.3,72c.48.09,1,.13,1.46.2l.66.14a.49.49,0,0,1,.43.54v.62h0A4.39,4.39,0,0,1,57.84,74.15Z"/><path class="cls-2" d="M78.65,70.39c-.45-.7-.91-1.4-1.35-2.11-.3-.47-.49-.48-1-.23s-.84.46-1.28.66a34.4,34.4,0,0,1-7,2.34,34.08,34.08,0,0,1-4.37.74c-.4,0-.4,0-.4.47V75a.57.57,0,0,0,0,.36,1,1,0,0,0,.43,0l1.6-.22c1.24-.17,2.48-.35,3.71-.61a43.14,43.14,0,0,0,8.35-2.8,5.5,5.5,0,0,0,1.07-.57A.48.48,0,0,0,78.65,70.39Zm-5.72,2.38a45.43,45.43,0,0,1-7.27,1.71,8.38,8.38,0,0,1-1.41.19c-.36,0-.42,0-.49-.38a4.16,4.16,0,0,1,.08-1.65c.06-.23.23-.29.43-.32.89-.14,1.77-.28,2.65-.44a34.78,34.78,0,0,0,8.56-2.69l.57-.26c.53-.2.76-.15,1.08.3s.61.92.94,1.43A51,51,0,0,1,72.93,72.77Z"/><path class="cls-2" d="M82.85,7.61c-.07-.34-.18-.66-.28-1a1.94,1.94,0,0,0-.84-1.07,19.62,19.62,0,0,0-3.2-1.7,1.86,1.86,0,0,0-.6-.17,1.21,1.21,0,0,1-.85-.35,6.4,6.4,0,0,0-2.21-1.15,17.36,17.36,0,0,1-1.94-.71.48.48,0,0,0-.45-.06c0,.11.1.14.17.19a5.29,5.29,0,0,1,2,2.44,2.83,2.83,0,0,0,.76,1,6.28,6.28,0,0,0,1.32.84,6.62,6.62,0,0,0,1.91.57,12.09,12.09,0,0,0-.56-1.3,4.91,4.91,0,0,1-.37-.92c-.09-.34,0-.44.36-.39a.92.92,0,0,1,.63.45,6.5,6.5,0,0,1,.86,1.92,2.78,2.78,0,0,0,1.62,1.82,6,6,0,0,1,1.4.84,2.67,2.67,0,0,0,.73.49C83.1,8.81,83,8.21,82.85,7.61ZM77.48,5.09a.66.66,0,0,1-.62.29,1.4,1.4,0,0,1-1.06-.5,6.74,6.74,0,0,1-1.09-1.94,1.09,1.09,0,0,1,0-.26c0-.15.06-.22.21-.23a.93.93,0,0,1,.43.12,5.79,5.79,0,0,1,2.06,1.81l0,.08A.6.6,0,0,1,77.48,5.09Zm4.32,2.8a1.37,1.37,0,0,1-1.15-.58,6.08,6.08,0,0,1-.91-1.63A1.15,1.15,0,0,1,79.68,5c0-.14.09-.22.25-.14a7.68,7.68,0,0,1,1.64.9,2.34,2.34,0,0,1,.79,1.7C82.39,7.76,82.18,7.91,81.8,7.89Z"/><path class="cls-2" d="M94.58,19.17A3.55,3.55,0,0,0,94,17.35c-.24-.4-.54-.76-.81-1.13a6.45,6.45,0,0,1-.94-1.47.43.43,0,0,0-.32-.32,1.23,1.23,0,0,0-.12.62c0,1.29,0,2.58,0,3.86a.79.79,0,0,0,.26.63,8.91,8.91,0,0,1,2.25,2.69.85.85,0,0,0,.21-.55A15.07,15.07,0,0,0,94.58,19.17ZM94,19c0,.21,0,.42,0,.62s-.08.29-.25.1-.12-.08-.2,0-.24.23-.45,0a2.56,2.56,0,0,1-.75-1.35,3.54,3.54,0,0,1,0-1.74c.12-.41.24-.44.54-.15A3,3,0,0,1,94,19Z"/><path class="cls-3" d="M12.41,82.61,10.84,86,9.25,82.6l-.09,0V83c0,.74,0,1.47,0,2.2,0,.3,0,.6.44.78H8.39c.52-.09.52-.42.52-.76V82.56c0-.53,0-.58-.58-.79.33,0,.61,0,.89,0a.38.38,0,0,1,.4.27c.36.82.75,1.63,1.12,2.44.08.17.16.33.23.49.16,0,.16-.18.21-.29.4-.86.8-1.73,1.18-2.61a.42.42,0,0,1,.47-.3c.24,0,.49,0,.82,0-.53.17-.57.22-.57.72,0,.89,0,1.77,0,2.66,0,.33,0,.66.39.8H12.08c.38-.1.42-.41.42-.73V82.63Z"/><path class="cls-3" d="M60.89,91.14,60,93.79a.82.82,0,0,1-.26-.48c-.39-1.08-.78-2.17-1.16-3.25a.77.77,0,0,0-.45-.53h1.39c-.28.08-.42.24-.32.51.29.86.59,1.72.92,2.68.24-.7.47-1.3.66-1.91A1.5,1.5,0,0,0,60,89.53h1.51c-.11.09-.29.06-.35.21a.52.52,0,0,0,0,.44L62,92.65c.05-.07.09-.09.11-.13.26-.78.54-1.56.79-2.34.13-.41.1-.45-.35-.66H63.7a.91.91,0,0,0-.51.68l-1.08,3.14a.94.94,0,0,1-.22.45C61.51,92.93,61.28,92.06,60.89,91.14Z"/><path class="cls-4" d="M87.24,10.91a3.25,3.25,0,0,0-.57-1.58,1,1,0,0,1-.2-.35,1.54,1.54,0,0,0-.8-.86,15.24,15.24,0,0,1-2.09-1.4,1.08,1.08,0,0,0-.53-.27c-.1.15,0,.25,0,.35l.34.47a1.75,1.75,0,0,1,.39.84,4.19,4.19,0,0,0,.85,2.1,13.32,13.32,0,0,0,1.93,2.11,6,6,0,0,0,.78.72C87.32,12.31,87.34,11.61,87.24,10.91Zm-.56-.35a.77.77,0,0,0-.37.66c0,.09-.13.1-.22.06a1,1,0,0,1-.32-.24c-.3-.31-.56-.66-.84-1a2.23,2.23,0,0,1-.41-1.78q.06-.43.39-.24a3.89,3.89,0,0,1,1.78,2.27s0,.09,0,.14S86.71,10.54,86.68,10.56Z"/><path class="cls-2" d="M98.93,28.22c-.26-.76-.52-1.52-.75-2.3a.66.66,0,0,0-.15-.33,3,3,0,0,0-.11.66,4.4,4.4,0,0,1-.51,1.66,2.77,2.77,0,0,0-.32,1,26.89,26.89,0,0,0-.15,4.3.76.76,0,0,0,.1.37.22.22,0,0,0,.13-.2,2.18,2.18,0,0,1,.42-1.07,7.13,7.13,0,0,1,.79-1.08A2.82,2.82,0,0,0,98.93,28.22Zm-.39,1.65a.89.89,0,0,1-.64.83.35.35,0,0,1-.53-.22,1.7,1.7,0,0,1-.06-1A5.78,5.78,0,0,1,98,27.86c.11-.19.2-.18.33,0a1.33,1.33,0,0,1,.22.67c0,.24,0,.48,0,.71h0C98.54,29.45,98.55,29.66,98.54,29.87Z"/><path class="cls-4" d="M97.34,23.59,97.07,23a15,15,0,0,1-.88-2,3.24,3.24,0,0,0-.76-1.16,3.39,3.39,0,0,1,.08,1,10.29,10.29,0,0,1-.24,1.91,5.11,5.11,0,0,0,0,1.91,19.65,19.65,0,0,0,.89,2.82.62.62,0,0,0,.28.39c.32-.73.63-1.44.93-2.16A2.52,2.52,0,0,0,97.34,23.59Zm-.43,2a.78.78,0,0,1-.17.26c-.09.09-.21.1-.23-.05a.27.27,0,0,0-.29-.27.57.57,0,0,1-.54-.4,2.31,2.31,0,0,1-.21-1.61c.1-.4.18-.82.3-1.22s.28-.34.44-.09a4.61,4.61,0,0,1,.92,2.34A2.34,2.34,0,0,1,96.91,25.59Z"/><path class="cls-3" d="M99.07,89.54c-.76-.05-1.51,0-2.34,0,.54.19.56.22.57.76,0,.89,0,1.77,0,2.65,0,.33,0,.63-.41.75a16.68,16.68,0,0,0,2.24,0,1.85,1.85,0,0,0,1.63-1.29A2,2,0,0,0,99.07,89.54Zm1,2.71a1.6,1.6,0,0,1-1.9,1.23c-.23,0-.33-.1-.32-.35,0-.51,0-1,0-1.53s0-1,0-1.52c0-.32,0-.34.34-.39A1.62,1.62,0,0,1,100.12,91,2.68,2.68,0,0,1,100.11,92.25Z"/><path class="cls-4" d="M80.05,10.46a2.32,2.32,0,0,0-1.57-.39,26.76,26.76,0,0,1-3.58.19c-.06,0-.12,0-.16.05s.16.12.24.16a16.86,16.86,0,0,1,1.77,1,3.47,3.47,0,0,0,1.87.54h3a.76.76,0,0,0,.56-.13C81.44,11.37,80.74,10.92,80.05,10.46Zm-1.24,1.23a10.67,10.67,0,0,1-1.66-.62c-.18-.09-.46-.17-.41-.41s.33-.21.53-.22a6.38,6.38,0,0,1,1.69.1,1.48,1.48,0,0,1,.42.14.27.27,0,0,1,.2.31c-.07.24,0,.33.28.39A.88.88,0,0,1,78.81,11.69Z"/><path class="cls-3" d="M30,93.06l-1-1.35c.1-.13.21-.13.3-.17A1,1,0,0,0,30,90.45a1,1,0,0,0-.89-.88A5.14,5.14,0,0,0,28,89.5H26.88c.43.17.48.22.48.65,0,.95,0,1.89,0,2.83a.64.64,0,0,1-.39.7h1.37C28,93.43,28,93.43,28,93q0-.45,0-.9c0-.1-.08-.27.1-.29s.31-.06.41.09l.19.26.94,1.3c.07.1.12.24.25.25a2.44,2.44,0,0,0,.93,0A1.3,1.3,0,0,1,30,93.06Zm-1.46-1.52c-.5.12-.57.06-.57-.44v-.4c0-.21,0-.42,0-.62s.11-.34.32-.39a.85.85,0,0,1,1,.57.94.94,0,0,1-.41,1.16A1.31,1.31,0,0,1,28.53,91.54Z"/><path class="cls-3" d="M62.1,85.49c-.39-.5-.76-1-1.14-1.51a.56.56,0,0,1,.27-.16,1,1,0,0,0,.72-1.1,1.05,1.05,0,0,0-.93-.89,5.23,5.23,0,0,0-1.12-.06H58.84c.43.17.48.21.48.65,0,.93,0,1.86,0,2.78,0,.34,0,.61-.39.75h1.37c-.38-.26-.38-.26-.39-.74,0-.3,0-.6,0-.9,0-.1-.08-.26.1-.29s.31-.06.41.1.11.14.16.22l1,1.38c.09.12.16.24.35.23s.52,0,.79,0v-.11A.88.88,0,0,1,62.1,85.49Zm-1.61-1.68c-.5.11-.57.06-.57-.44V83c0-.24,0-.48,0-.72s.06-.2.19-.25a.86.86,0,0,1,1.07.4,1,1,0,0,1-.29,1.24A1,1,0,0,1,60.49,83.81Z"/><path class="cls-4" d="M72,7a10.16,10.16,0,0,1-1.62-1,2.34,2.34,0,0,0-2.84-.07l-1,.59a4,4,0,0,1-2.08.75c-.12,0-.27,0-.37.15a.34.34,0,0,0,.24.15,6.46,6.46,0,0,0,1.38.14A6.1,6.1,0,0,1,67.57,8a2.16,2.16,0,0,0,.8.12,7.73,7.73,0,0,0,3.63-1S72,7.08,72,7Zm-1.83.54a7,7,0,0,1-2.85,0,2.52,2.52,0,0,1-.54-.21c-.17-.08-.19-.21-.08-.37A2.28,2.28,0,0,1,67,6.6a3.54,3.54,0,0,1,1.72-.71,1.87,1.87,0,0,1,1.38.41.53.53,0,0,1,.26.35c0,.24.2.35.42.43A.94.94,0,0,1,70.13,7.55Z"/><path class="cls-5" d="M2.36,81.77H3.85a8.14,8.14,0,0,0-2,1.74c-.12.1-.11.18,0,.29l1.71,1.65a3.49,3.49,0,0,0,.74.48H2.57c.26-.34.26-.37,0-.66S1.64,84.4,1.2,84c-.15,0-.1.15-.1.23,0,.34,0,.69,0,1s.06.6.42.71H0c.49-.13.52-.42.52-.75,0-.9,0-1.8,0-2.7,0-.5,0-.53-.52-.71H1.7c-.21.09-.41.07-.51.23a.94.94,0,0,0-.09.52c0,.39,0,.78,0,1.18.15,0,.2-.08.27-.14A10.86,10.86,0,0,0,2.55,82.4C2.8,82.1,2.76,82,2.36,81.77Z"/><path class="cls-3" d="M86.38,93.18c-.37-.49-.73-1-1.09-1.48.13-.15.32-.15.46-.23a1,1,0,0,0-.34-1.89,12,12,0,0,0-2.24-.06c.43.15.48.2.48.67,0,.91,0,1.82,0,2.74,0,.33,0,.62-.39.74h1.4c-.16-.12-.4-.14-.4-.39v-1.5a.51.51,0,0,1,.64.24c.28.43.6.85.91,1.27.1.13.15.3.33.35l.23,0h0a.82.82,0,0,0,.27,0h0a.45.45,0,0,0,.22-.14A1.38,1.38,0,0,1,86.38,93.18Zm-1.66-1.62c-.45.07-.47,0-.47-.42V90.7c0-.23,0-.45,0-.67s.08-.26.24-.31a.85.85,0,0,1,1,.46,1,1,0,0,1-.39,1.24A1.6,1.6,0,0,1,84.72,91.56Z"/><path class="cls-4" d="M90.91,13.75a1.45,1.45,0,0,0-.34-.94A22,22,0,0,0,88,10.15a.78.78,0,0,0-.54-.25,3.24,3.24,0,0,1,.5,1.35c0,.34.1.68.14,1a4.68,4.68,0,0,0,.79,2.12c.55.74,1.3,1.3,1.86,2.13A19,19,0,0,0,90.91,13.75Zm-.47.92c-.18,0-.22-.15-.3-.23s-.12-.17-.22-.21a.06.06,0,0,0-.08,0c-.08.12,0,.34-.22.35s-.29-.15-.38-.29a5.66,5.66,0,0,1-.8-2.5c0-.3.15-.4.43-.24A3.11,3.11,0,0,1,90.44,14.67Z"/><path class="cls-3" d="M67.8,89.52h1.7c-.54.15-.57.2-.58.72V91.5a2.3,2.3,0,0,0,.54-.45c.32-.3.63-.6.92-.93s.21-.41-.17-.6H71.6a3.29,3.29,0,0,0-1.13.9c-.25.25-.5.51-.76.76s-.2.23,0,.39c.52.49,1,1,1.55,1.5a2.69,2.69,0,0,0,.86.57c-.57,0-1.14,0-1.76,0,.07-.14.26-.19.25-.35s-.15-.25-.26-.35l-1.19-1.16s-.09-.12-.21-.1v1.5c0,.26.23.31.45.45H67.9c.43-.14.46-.45.46-.76V90.26C68.35,89.74,68.3,89.68,67.8,89.52Z"/><path class="cls-6" d="M24.73,89.51h1.43a8.1,8.1,0,0,0-2,1.73c-.11.09-.13.17,0,.28l1.75,1.68a3.61,3.61,0,0,0,.69.46H24.86c.29-.33.29-.35,0-.67L23.41,91.6c0,.63,0,1.15,0,1.68,0,.22.22.26.42.37H22.38c.43-.12.46-.42.46-.72,0-.9,0-1.8,0-2.69,0-.51-.05-.56-.59-.71h1.68c0,.08-.08,0-.13.06-.31.09-.37.14-.38.46s0,.92,0,1.38c.15,0,.2-.06.27-.13a13.61,13.61,0,0,0,1.15-1.13C25.11,89.84,25.09,89.74,24.73,89.51Z"/><path class="cls-6" d="M55.37,84c0,.43,0,.86,0,1.29a.61.61,0,0,0,.4.67H54.43c.35-.17.37-.47.37-.79,0-.87,0-1.74,0-2.61,0-.62,0-.53-.54-.77H56c-.24.09-.43.08-.54.23a.85.85,0,0,0-.08.52c0,.39,0,.78,0,1.16.12.08.17,0,.23-.08l1-.93a3.08,3.08,0,0,0,.24-.27c.25-.31.23-.42-.13-.64h1.43a8.19,8.19,0,0,0-2,1.7c-.14.12-.16.21,0,.35.54.51,1.05,1,1.58,1.53a3.4,3.4,0,0,0,.83.57H56.82c.29-.32.29-.35,0-.66L55.45,84Z"/><path class="cls-3" d="M46,93.18c-.37-.49-.73-1-1.09-1.48.13-.15.31-.15.45-.23a1,1,0,0,0,.55-.91,1,1,0,0,0-.88-1,14.83,14.83,0,0,0-2.33-.08c.54.19.58.24.58.79v2.6c0,.32,0,.63-.36.78h1.32c-.34-.23-.37-.25-.38-.5,0-.46,0-.92,0-1.38a.5.5,0,0,1,.66.23c.32.49.68,1,1,1.42.08.11.14.24.3.24h.83A2,2,0,0,1,46,93.18Zm-2.14-1.63c0-.53,0-1,0-1.57,0-.14.08-.2.2-.24a.85.85,0,0,1,1.05.35,1,1,0,0,1-.19,1.23A1.32,1.32,0,0,1,43.89,91.55Z"/><path class="cls-3" d="M121,85.61a19.54,19.54,0,0,1-1.28-1.68,2.78,2.78,0,0,0,.35-.14,1,1,0,0,0,.68-1.05,1.06,1.06,0,0,0-.88-.9,10,10,0,0,0-2.26,0c.43.1.5.17.51.63,0,1,0,1.89,0,2.83a.64.64,0,0,1-.37.66H119c-.36-.27-.36-.27-.36-.77,0-.28,0-.57,0-.85,0-.11-.07-.27.1-.29s.3-.07.42.08l.16.21c.33.47.66.93,1,1.39.07.1.13.24.3.24h.83v-.11A.78.78,0,0,1,121,85.61Zm-2-1.78c-.19,0-.28,0-.27-.26,0-.41,0-.83,0-1.25a.3.3,0,0,1,.26-.34.86.86,0,0,1,1,.48,1,1,0,0,1-.41,1.24A1.18,1.18,0,0,1,118.93,83.83Z"/><path class="cls-3" d="M33.28,85.44,32.19,84c.14-.15.32-.15.46-.23a1,1,0,0,0,.54-.87,1,1,0,0,0-.88-1A17.9,17.9,0,0,0,30,81.76c.55.19.6.25.6.79,0,.89,0,1.77,0,2.65,0,.31,0,.6-.37.74H31.5c-.36-.27-.36-.27-.36-.77,0-.28,0-.56,0-.85,0-.1-.07-.27.11-.29s.33-.07.44.11a1.77,1.77,0,0,0,.16.22c.32.45.64.9,1,1.34.08.11.14.24.3.24H34l0-.09A1.06,1.06,0,0,1,33.28,85.44Zm-2.14-1.62c0-.53,0-1,0-1.51,0-.22.11-.29.28-.34a.87.87,0,0,1,1,.5A1,1,0,0,1,32,83.71,1.62,1.62,0,0,1,31.14,83.82Z"/><path class="cls-6" d="M78.07,85.53,76.87,84c.2-.09.35-.14.49-.22a1,1,0,0,0,.54-.88,1,1,0,0,0-.9-1,14.1,14.1,0,0,0-2.25-.06c.44.14.5.21.52.66v2.69c0,.33,0,.66-.46.8h1.5c-.28-.11-.46-.21-.46-.45V84.06a.49.49,0,0,1,.66.24c.33.48.68.94,1,1.41.07.1.12.23.26.23s.58,0,.87,0l0-.08A1,1,0,0,1,78.07,85.53Zm-2.23-1.72c0-.53,0-1,0-1.51a.28.28,0,0,1,.24-.31.86.86,0,0,1,1.07.49,1,1,0,0,1-.44,1.23A1.33,1.33,0,0,1,75.84,83.81Z"/><path class="cls-6" d="M109.73,83.93l.27-.1a1,1,0,0,0,.75-1.09,1,1,0,0,0-1-.91,14.41,14.41,0,0,0-2.18,0c.45.13.51.21.51.7,0,.89,0,1.77,0,2.65,0,.33,0,.65-.45.78h1.44c-.27-.12-.42-.23-.42-.46V84c.45,0,.45,0,.67.27.1.13.19.27.29.39a8.88,8.88,0,0,0,.92,1.2.57.57,0,0,1,.18,0h0a1.12,1.12,0,0,0,.31,0,.38.38,0,0,0,.22-.15A7.7,7.7,0,0,1,109.73,83.93Zm-.47-.12c-.5.11-.56.06-.56-.45V83c0-.21,0-.42,0-.63s.1-.31.29-.36a.84.84,0,0,1,1,.48,1,1,0,0,1-.32,1.2A1.13,1.13,0,0,1,109.26,83.81Z"/><path class="cls-4" d="M72.23,2.6A4.21,4.21,0,0,0,68.72.67,5,5,0,0,1,67.18.4a.27.27,0,0,0-.25,0,.85.85,0,0,0,.31.4,8.72,8.72,0,0,1,1.21,1.44A2.75,2.75,0,0,0,70,3.46a8.6,8.6,0,0,0,2.24.42A5.09,5.09,0,0,0,73.55,4,4.72,4.72,0,0,1,72.23,2.6Zm-.62.54a.64.64,0,0,1-.8.2,4.54,4.54,0,0,1-2-1.17,1.48,1.48,0,0,1-.34-.67c-.11-.44.05-.63.62-.6a4.45,4.45,0,0,1,2.33,1.26.76.76,0,0,1,.11.14A.72.72,0,0,1,71.61,3.14Z"/><path class="cls-4" d="M77.72,9.05a12.91,12.91,0,0,0-1.45-1.21,1.86,1.86,0,0,0-.92-.33,4.87,4.87,0,0,0-2.58.4,5.35,5.35,0,0,1-2.19.57A1.53,1.53,0,0,0,70,8.6a1,1,0,0,0,.52.23c.42.11.85.19,1.27.29a2.75,2.75,0,0,1,1,.37,1.33,1.33,0,0,0,.71.23,4.9,4.9,0,0,0,.94,0A7.79,7.79,0,0,0,76,9.36a3.4,3.4,0,0,1,1.73-.13A.14.14,0,0,0,77.72,9.05Zm-1.8,0a2.63,2.63,0,0,1-.83.18l-.68,0a6.89,6.89,0,0,1-1.59-.16,1.27,1.27,0,0,1-.45-.19.19.19,0,0,1,0-.31,1,1,0,0,1,.25-.24,3.93,3.93,0,0,1,2.69-.6,1.68,1.68,0,0,1,.78.32C76.48,8.43,76.43,8.82,75.92,9Z"/><path class="cls-4" d="M93.27,27.14a16.73,16.73,0,0,1-1-2.11.93.93,0,0,0-.24-.33,4.43,4.43,0,0,0-2-1.21,3.92,3.92,0,0,1-1.52-.7c-.1-.07-.21-.19-.37-.07a1.26,1.26,0,0,0,.07.16,3.77,3.77,0,0,1,.89,1.38,6.41,6.41,0,0,0,1.5,2,2.59,2.59,0,0,0,1.07.7,3.22,3.22,0,0,1,1.26.65.7.7,0,0,0,.5.21A2.38,2.38,0,0,0,93.27,27.14Zm-1-.88c-.14,0-.22-.08-.32-.14s-.25-.16-.39,0-.28.09-.41,0a3.51,3.51,0,0,1-1.56-1.67c-.17-.41,0-.67.46-.58a3.23,3.23,0,0,1,2.25,2.05A.3.3,0,0,1,92.31,26.26Z"/><path class="cls-5" d="M19,85.94H18c.1-.14.31-.14.35-.32a1.63,1.63,0,0,0,0-.49V82.75c0-.53-.13-.7-.67-.84l-.17-.07a3.29,3.29,0,0,1,.8-.08c.32-.05.44.17.6.37l2,2.4.25.29c.14-.09.08-.21.08-.3q0-1,0-2.07c0-.47-.05-.52-.5-.65H22c-.45.15-.47.18-.48.72V86a3.55,3.55,0,0,1-.76-.8c-.23-.27-.46-.55-.68-.83l-.66-.8-.7-.84a.57.57,0,0,0-.06.37v2.06C18.64,85.51,18.65,85.82,19,85.94Z"/><path class="cls-4" d="M93.71,32.82c-.64-.58-1.29-1.15-2-1.68A.53.53,0,0,0,91.4,31c-.07.14,0,.23.06.31a4.48,4.48,0,0,1,.44,2.13A2.87,2.87,0,0,0,92.31,35a13.34,13.34,0,0,0,2,2.16c.1-.65.19-1.2.28-1.74A2.62,2.62,0,0,0,93.71,32.82Zm.45,2.47c0,.14,0,.27-.24.25s-.15.06-.18.15-.22.18-.35.09a1.8,1.8,0,0,1-.71-.85,7.11,7.11,0,0,1-.34-2.38c0-.23.08-.27.28-.17a2.68,2.68,0,0,1,1.52,1.89,3.56,3.56,0,0,1,.08.57Z"/><path class="cls-4" d="M93.89,44.24a1.59,1.59,0,0,0-.24-.67,15.73,15.73,0,0,1-1.45-2.49c0,.5-.06,1-.11,1.49A14.27,14.27,0,0,1,91.81,44a2.46,2.46,0,0,0,.81,2.35,3.32,3.32,0,0,1,.72,1.11c0,.13.06.29.21.38A18.7,18.7,0,0,0,93.89,44.24Zm-.46,1.41a.5.5,0,0,1-.74.14,1.06,1.06,0,0,1-.41-.67,3.28,3.28,0,0,1,.12-1.73,1.41,1.41,0,0,1,.13-.24.21.21,0,0,1,.34,0,1.12,1.12,0,0,1,.18.2A3.6,3.6,0,0,1,93.6,45,1,1,0,0,1,93.43,45.65Z"/><path class="cls-4" d="M98.19,43a3.2,3.2,0,0,0-.76,1.16,6.42,6.42,0,0,0-.31,1.22,2.33,2.33,0,0,1-.59,1.28.66.66,0,0,0-.22.64c.19,0,.3-.07.41-.16l.86-.72a3,3,0,0,1,.92-.64,1.19,1.19,0,0,0,.76-.91,17.74,17.74,0,0,0,.32-1.77c.1-.62.21-1.24.31-1.85A21.72,21.72,0,0,1,98.19,43Zm.09,2.48c-.35.25-.59.13-.63-.3a1.74,1.74,0,0,1,.14-.78,4,4,0,0,1,.72-1.18c.12-.13.24-.29.45-.22s.22.27.26.44,0,.17,0,.23A2.23,2.23,0,0,1,98.28,45.5Z"/><path class="cls-5" d="M102.2,81.75l.09,1.15c-.17,0-.15-.11-.19-.19a1.3,1.3,0,0,0-1.3-.85,1.34,1.34,0,0,0-1.3.85,2.52,2.52,0,0,0,.12,2.41,1.47,1.47,0,0,0,1.87.63.35.35,0,0,0,.25-.37c0-.34,0-.69,0-1s0-.51-.51-.68h1.47a.57.57,0,0,0-.37.63c0,.37,0,.75,0,1.12,0,.12,0,.23-.12.31a2.78,2.78,0,0,1-3-.25,2.15,2.15,0,0,1-.43-2.56,2.12,2.12,0,0,1,2.32-1.21c.18,0,.35.09.53.13S102,82,102.2,81.75Z"/><path class="cls-4" d="M94.27,38.61c-.64-.9-1.31-1.77-2-2.67,0,.05,0,.08,0,.1a14.8,14.8,0,0,1,.12,2.9A2.82,2.82,0,0,0,93,41a10.48,10.48,0,0,1,.85,1.21,1.34,1.34,0,0,0,.35.51A9.35,9.35,0,0,0,94.71,41,2.91,2.91,0,0,0,94.27,38.61ZM94.4,41a.51.51,0,0,1-.83.16,1.54,1.54,0,0,1-.51-.77,6,6,0,0,1-.26-1.56,3.19,3.19,0,0,1,0-.65c0-.19.14-.25.32-.19a1.2,1.2,0,0,1,.42.25,3.35,3.35,0,0,1,1,1.81A1.27,1.27,0,0,1,94.4,41Z"/><path class="cls-5" d="M108.52,92.52c0-.84,0-1.67,0-2.51,0-.31-.08-.36-.49-.51h1.33c-.54.19-.57.23-.57.78v3.47A3.51,3.51,0,0,1,108,93c-.23-.27-.46-.55-.68-.83l-.66-.8L106,90.5c-.15.09-.09.21-.09.3V93c0,.28,0,.58.38.7h-1.06c.4-.12.44-.42.44-.78,0-.79,0-1.58,0-2.38,0-.55-.12-.71-.65-.85,0,0-.12,0-.14-.15.32,0,.64,0,1,0s.22.15.3.24l2,2.47c.09.12.19.23.28.34Z"/><path class="cls-5" d="M91.3,86h-1c.39-.12.42-.43.42-.76V82.72a.69.69,0,0,0-.61-.8c-.07,0-.15,0-.18-.15h1c.16,0,.21.15.29.25.67.8,1.33,1.62,2,2.43a1.4,1.4,0,0,0,.33.36c.11-.08.06-.2.06-.29V82.41c0-.44,0-.48-.58-.62h1.36c-.46.15-.51.21-.51.72V86l-.08,0c-.49-.51-.91-1.08-1.36-1.62S91.47,83.3,91,82.76c-.14.1-.09.22-.09.31v2.11C90.94,85.48,91,85.79,91.3,86Z"/><path class="cls-5" d="M42,85.94H41c.36-.12.42-.4.42-.74,0-.82,0-1.64,0-2.47,0-.51-.13-.68-.64-.81-.06,0-.12,0-.17-.12a4,4,0,0,1,1,0c.12,0,.17.15.25.24L44,84.57l.2.24c.15-.06.08-.18.08-.27,0-.69,0-1.38,0-2.07,0-.5,0-.53-.53-.69H45c-.14.08-.33.08-.43.24a.94.94,0,0,0-.08.52c0,1.14,0,2.28,0,3.4l-.07,0s0,0,0,0l-2.66-3.19c-.15,0-.09.16-.09.23,0,.72,0,1.44,0,2.16C41.65,85.48,41.68,85.79,42,85.94Z"/><path class="cls-4" d="M99.89,33.28c-.09-.55-.22-1.08-.34-1.62a2.4,2.4,0,0,0-.23-.74,7.15,7.15,0,0,1-1.12,1.65,3.07,3.07,0,0,0-.6,2.53,2.87,2.87,0,0,0,.05.31c.1.57.2,1.13.31,1.77a13.41,13.41,0,0,0,1.33-1.44A3.19,3.19,0,0,0,99.89,33.28Zm-.8,2.16a3.76,3.76,0,0,1-.25.31c-.1.09-.21.15-.27,0a.22.22,0,0,0-.32-.14c-.26.09-.33-.07-.34-.27a6.61,6.61,0,0,1,0-.89,4,4,0,0,1,.67-1.92c.1-.16.23-.37.43-.34s.25.28.3.46a3.76,3.76,0,0,1,.15,1.26A2.42,2.42,0,0,1,99.09,35.44Z"/><path class="cls-4" d="M88.35,18.83c-.72-.82-1.44-1.64-2.17-2.45a1.71,1.71,0,0,0-1.06-.53l-1.37-.19a4.77,4.77,0,0,0-1.06-.1c.12.16.18.26.26.35a10.72,10.72,0,0,1,1.38,1.69.86.86,0,0,0,.2.18,5.52,5.52,0,0,0,2.29.84,4.61,4.61,0,0,1,1.21.27c.11.05.22.16.37.06A.73.73,0,0,0,88.35,18.83ZM86.5,17.68a.46.46,0,0,1-.62.44,1.65,1.65,0,0,1-.49-.21A5,5,0,0,1,84,16.69c-.1-.13-.27-.28-.18-.47s.3-.08.47-.11a4.86,4.86,0,0,1,1.53.39A1.19,1.19,0,0,1,86.5,17.68Z"/><path class="cls-4" d="M99.85,36.79a5.08,5.08,0,0,1-1.65,1.58,2.73,2.73,0,0,0-1,1.5A7.78,7.78,0,0,0,97,42.41c0,.19,0,.44.18.52s.35-.13.48-.26a17.84,17.84,0,0,0,1.61-1.87,3,3,0,0,0,.51-1.09A11.86,11.86,0,0,0,99.85,36.79Zm-.33,2.13a3.53,3.53,0,0,1-1.47,2.71.46.46,0,0,1-.15.09c-.43.21-.73.05-.7-.44a3.28,3.28,0,0,1,1.68-2.93c.48-.27.62-.17.64.39Z"/><path class="cls-4" d="M91.54,23.08a1.09,1.09,0,0,0-.05-.26,6.31,6.31,0,0,0-.76-1.72,2.11,2.11,0,0,0-.86-.76A5,5,0,0,0,88,19.79a3.77,3.77,0,0,1-1.76-.45,17,17,0,0,0,1.94,2.29A4,4,0,0,0,90,22.7a2.69,2.69,0,0,1,1.25.57.22.22,0,0,0,.28.06C91.57,23.27,91.56,23.17,91.54,23.08Zm-.84-.83a.66.66,0,0,1-.74.18,1.89,1.89,0,0,1-.33-.13A5.49,5.49,0,0,1,88,21c-.14-.16-.34-.34-.22-.59s.36-.17.57-.18h.09a2.34,2.34,0,0,1,2.21,1.41C90.75,21.82,90.88,22.06,90.7,22.25Z"/><path class="cls-7" d="M53.21,83.19a4.82,4.82,0,0,1,0,1.26c-.24-.54-.26-.56-.85-.56-.19,0-.39,0-.58,0s-.21.06-.21.21q0,.68,0,1.35a.29.29,0,0,0,.33.33c.35,0,.69,0,1,0a.84.84,0,0,0,.65-.42c.1-.14.13-.34.34-.45a7.64,7.64,0,0,1-.28.92c0,.18-.21.14-.34.14-.91,0-1.81,0-2.75,0,.44-.1.43-.42.43-.77,0-.89,0-1.79,0-2.69,0-.52,0-.54-.5-.7h2.92c.13,0,.19,0,.2.17s0,.45,0,.68c-.2,0-.15-.16-.18-.26a.56.56,0,0,0-.53-.41c-.39,0-.78,0-1.17,0-.12,0-.19,0-.18.18v1.39c0,.16.07.2.22.2h.67C53,83.69,53,83.64,53.21,83.19Z"/><path class="cls-7" d="M66.22,82.69a.55.55,0,0,1-.2-.35.53.53,0,0,0-.54-.39H64.36c-.15,0-.21,0-.21.2q0,.67,0,1.35c0,.19.09.22.25.22h.54c.57,0,.61,0,.85-.56a9,9,0,0,1,0,1.27c-.15,0-.11-.15-.14-.22a.4.4,0,0,0-.4-.3,5.48,5.48,0,0,0-1.07,0,3.16,3.16,0,0,0,0,.92c0,.2,0,.39,0,.59a.29.29,0,0,0,.31.35q.54,0,1.08,0a.77.77,0,0,0,.58-.36,2.88,2.88,0,0,1,.36-.52,4.54,4.54,0,0,1-.26.92c0,.18-.19.16-.32.16H63.05c.5-.14.51-.46.51-.81,0-.9,0-1.8,0-2.69,0-.5,0-.52-.5-.63.06-.09.15,0,.22,0h2.64c.19,0,.28.06.28.25S66.21,82.42,66.22,82.69Z"/><path class="cls-7" d="M18.52,89.5c.94,0,1.89,0,2.83,0,.24,0,.32.08.32.3s0,.37,0,.57c-.18-.06-.13-.21-.17-.31a.52.52,0,0,0-.51-.37H19.83c-.16,0-.21.07-.2.22v1.34c0,.12,0,.21.17.21l.94,0c.32,0,.43-.26.46-.53a.1.1,0,0,1,.09.11v1.12c-.15,0-.12-.09-.13-.14a.41.41,0,0,0-.45-.36h-1a3.23,3.23,0,0,0-.05.93c0,.21,0,.42,0,.63a.28.28,0,0,0,.3.31c.36,0,.72,0,1.07,0a.76.76,0,0,0,.59-.37,5.09,5.09,0,0,1,.34-.47,3.22,3.22,0,0,1-.25.92c-.05.14-.19.11-.31.11H18.53c.49-.14.51-.45.5-.81,0-.9,0-1.8,0-2.69C19,89.68,19,89.66,18.52,89.5Z"/><path class="cls-7" d="M33.81,90.91a5.7,5.7,0,0,1,0,1.24c-.15,0-.11-.15-.14-.23a.38.38,0,0,0-.36-.28h-1c-.15,0-.17.08-.16.2,0,.45,0,.9,0,1.35a.3.3,0,0,0,.33.33c.34,0,.69,0,1,0a.82.82,0,0,0,.63-.39c.11-.15.15-.35.36-.48a7.29,7.29,0,0,1-.28.93c-.06.17-.21.13-.34.13-.91,0-1.82,0-2.75,0,.44-.1.43-.42.43-.77,0-.89,0-1.79,0-2.69,0-.51,0-.53-.59-.7,1.06,0,2,0,3,0,.18,0,.24.07.25.23a3.32,3.32,0,0,1,0,.63c-.18,0-.13-.18-.17-.28a.52.52,0,0,0-.49-.39c-.4,0-.8,0-1.21,0-.14,0-.18.07-.17.19v1.4c0,.13.06.18.19.18h.72C33.58,91.42,33.64,91.37,33.81,90.91Z"/><path class="cls-8" d="M87.38,89.5c.94,0,1.88,0,2.82,0,.25,0,.32.08.32.3v.55c-.1,0-.11-.06-.13-.11-.17-.51-.23-.55-.77-.56h-.85c-.2,0-.3,0-.29.26q0,.63,0,1.26c0,.2.08.26.26.25h.59c.51,0,.57,0,.77-.57a6.1,6.1,0,0,1,0,1.27c-.16,0-.11-.14-.14-.21a.42.42,0,0,0-.41-.3h-.94c-.14,0-.17.07-.17.19v1.39a.26.26,0,0,0,.28.29,5.64,5.64,0,0,0,1.16,0,.84.84,0,0,0,.56-.41c.11-.14.14-.33.34-.45a7.65,7.65,0,0,1-.27.92c-.06.18-.21.14-.34.14H87.48c.07-.16.3-.11.36-.28a1.36,1.36,0,0,0,0-.49V90.17C87.88,89.69,87.85,89.66,87.38,89.5Z"/><path class="cls-6" d="M81.82,89.58a10,10,0,0,0-2.12,0c.43.13.5.19.5.66,0,.93,0,1.85,0,2.78,0,.29,0,.57-.37.7h1.33c-.16-.13-.39-.19-.39-.44,0-.49,0-1,0-1.49a7.88,7.88,0,0,0,1,0,1.08,1.08,0,0,0,1-1.06A1.1,1.1,0,0,0,81.82,89.58ZM82,91.09a.86.86,0,0,1-1.11.49c-.11,0-.12-.11-.12-.2V89.94c0-.14,0-.21.19-.25a.88.88,0,0,1,1,.48A1.18,1.18,0,0,1,82,91.09Z"/><path class="cls-5" d="M114.52,85.92h1.39a1.15,1.15,0,0,1-.56-.72c-.28-.66-.56-1.33-.83-2-.21-.51-.43-1-.65-1.53-.18.09-.18.26-.24.39-.46,1.05-.9,2.11-1.36,3.17-.25.59-.38.65-1,.57-.22.17-.48,0-.71.09l.18,0h0l.31,0c.58,0,1.17,0,1.75,0,0,0,0-.07,0-.07a.18.18,0,0,0-.07,0c-.32-.15-.34-.19-.23-.5s.17-.41.25-.62a.25.25,0,0,1,.27-.17c.27,0,.54,0,.81,0,.63,0,.63,0,.87.62a1.6,1.6,0,0,1,.11.43C114.84,85.81,114.59,85.79,114.52,85.92Zm-1.59-1.56.73-1.68.73,1.68Z"/><path class="cls-4" d="M93.79,30.36a3,3,0,0,0-1.45-2.25,13.27,13.27,0,0,1-2-1.3.85.85,0,0,0,.13.44A4.88,4.88,0,0,1,91,28.67a2.55,2.55,0,0,0,.49,1.13,7.43,7.43,0,0,0,2.13,1.9c.09.06.17.17.33.12A7.2,7.2,0,0,0,93.79,30.36Zm-.93.23c-.23.1-.42.05-.65-.23a5.81,5.81,0,0,1-1-1.79c-.09-.29,0-.41.28-.4a2.59,2.59,0,0,1,1.82,1.67A.77.77,0,0,1,92.86,30.59Z"/><path class="cls-9" d="M73,85.92h1.38a1.18,1.18,0,0,1-.57-.73c-.37-.87-.73-1.74-1.09-2.61q-.18-.45-.39-.9c-.17.1-.18.26-.24.39-.45,1.05-.89,2.09-1.34,3.13a1,1,0,0,1-.63.69,2.53,2.53,0,0,0,1.15,0c-.39-.18-.41-.21-.27-.59.07-.19.16-.36.22-.54a.29.29,0,0,1,.31-.2c.39,0,.77,0,1.16,0,.18,0,.28,0,.33.22s.1.22.14.33C73.25,85.41,73.42,85.73,73,85.92Zm-.2-1.56H71.36c.25-.55.48-1.07.74-1.68l.67,1.54A.65.65,0,0,1,72.77,84.36Z"/><path class="cls-5" d="M91.52,92.41c0,.14.07.28.12.41a1.17,1.17,0,0,0,1.41.74.7.7,0,0,0,.38-1.13,1.59,1.59,0,0,0-.45-.37c-.35-.21-.7-.4-1-.63a1,1,0,0,1-.51-1.26,1.19,1.19,0,0,1,1.29-.75,2.75,2.75,0,0,1,.56.16c.2.07.38.1.53-.15a13.17,13.17,0,0,1,0,1.42c-.18-.13-.15-.28-.18-.4a1.14,1.14,0,0,0-1.07-.86.72.72,0,0,0-.71.45.61.61,0,0,0,.26.74,8,8,0,0,0,1,.6,4.21,4.21,0,0,1,.57.36,1.07,1.07,0,0,1,.43,1.11,1.17,1.17,0,0,1-.88.87A2.07,2.07,0,0,1,92,93.61c-.19-.06-.37-.13-.54.2V92.43Z"/><path class="cls-5" d="M83.8,85.93h1.37a1.16,1.16,0,0,1-.56-.71c-.44-1-.87-2.09-1.31-3.13-.06-.14-.08-.29-.21-.39-.11.07-.13.19-.18.3l-1.35,3.17c-.13.29-.25.59-.59.71.1.1.19.06.28.07H82c-.13-.15-.36-.19-.3-.44a2.07,2.07,0,0,1,.38-.9c.14-.16.42,0,.64,0a2.43,2.43,0,0,1,.27,0c.74,0,.74,0,1,.7C84.14,85.64,84.13,85.66,83.8,85.93Zm-1.62-1.57.74-1.68c.27.62.49,1.13.72,1.68Z"/><path class="cls-9" d="M66.07,93.66h1.35a1.19,1.19,0,0,1-.54-.71c-.44-1-.86-2.07-1.3-3.1a1,1,0,0,0-.22-.42c-.14.1-.16.26-.22.39l-1.32,3.09a1.36,1.36,0,0,1-.56.75h1.11c-.44-.24-.46-.29-.27-.74.06-.15.13-.3.19-.46a.24.24,0,0,1,.27-.17h.76c.69,0,.69,0,.93.64C66.41,93.37,66.41,93.39,66.07,93.66ZM64.45,92.1l.74-1.68c.25.59.48,1.1.73,1.68Z"/><path class="cls-9" d="M41,93.66h1.39a1.25,1.25,0,0,1-.57-.73c-.16-.38-.31-.77-.48-1.16-.32-.78-.66-1.57-1-2.37a.79.79,0,0,0-.24.4l-1.26,2.93c-.15.35-.26.74-.74.93h1.23c-.45-.24-.47-.28-.3-.71l.19-.45a.29.29,0,0,1,.34-.21h.76c.63,0,.63,0,.87.61a1.58,1.58,0,0,1,.11.44C41.32,93.54,41.07,93.52,41,93.66Zm-1.59-1.57.73-1.67c.26.59.48,1.11.73,1.67Z"/><path class="cls-5" d="M52.64,92.91c-.44-1-.87-2.07-1.31-3.1a.66.66,0,0,0-.24-.4c-.07.17-.15.33-.21.5-.44,1-.87,2-1.31,3a1,1,0,0,1-.55.67,3.79,3.79,0,0,0,1.12,0c-.42-.22-.44-.27-.3-.65.06-.18.16-.36.22-.54a.23.23,0,0,1,.27-.17h1.26a.22.22,0,0,1,.24.16l.15.37a2.35,2.35,0,0,1,.15.47c0,.22-.23.22-.28.39h.7a3.21,3.21,0,0,0,.78-.05A1,1,0,0,1,52.64,92.91Zm-2.41-.83L51,90.42l.72,1.66Z"/><path class="cls-5" d="M39.09,85.93h1.4a1.34,1.34,0,0,1-.64-.83l-1.26-3c-.06-.13-.07-.29-.22-.37a.73.73,0,0,0-.17.31c-.45,1.06-.9,2.12-1.36,3.18a1.13,1.13,0,0,1-.57.72,4.66,4.66,0,0,0,1.12,0c-.41-.21-.44-.27-.3-.65.25-.71.25-.71,1-.71h.23c.74,0,.74,0,1,.7C39.44,85.64,39.43,85.66,39.09,85.93Zm-1.61-1.57.73-1.68c.26.61.49,1.13.73,1.68Z"/><path class="cls-9" d="M17.11,82.65c-.34-.7-.34-.71-1.12-.7-.29,0-.66-.14-.85.07s0,.55-.06.83v.05c0,.26-.06.53.06.78a3,3,0,0,0,1.29-.05c.19-.07.18-.29.3-.52a3.35,3.35,0,0,1,0,.69c0,.2,0,.41,0,.62-.14,0-.13-.14-.15-.21a.39.39,0,0,0-.39-.31,5.57,5.57,0,0,0-1.08,0,2.6,2.6,0,0,0-.05.92,5.81,5.81,0,0,0,0,.59.31.31,0,0,0,.32.35c.36,0,.72,0,1.08,0a.84.84,0,0,0,.61-.41,2.47,2.47,0,0,1,.3-.42,3.38,3.38,0,0,1-.24.88c0,.19-.21.14-.34.14H14.08c.12-.16.34-.14.39-.31a1.71,1.71,0,0,0,0-.45V82.54c0-.57,0-.59-.57-.77h2.91c.18,0,.29,0,.28.24A3.53,3.53,0,0,1,17.11,82.65Z"/><path class="cls-9" d="M4.57,81.77H7.39c.23,0,.33.07.31.31s0,.35,0,.56c-.14-.06-.13-.19-.16-.28A.53.53,0,0,0,7,82H5.88c-.18,0-.23.08-.23.25,0,.43,0,.86,0,1.3,0,.18.08.23.24.23h.58c.39,0,.72-.06.83-.53v1.21s0,0-.06,0c-.07-.43-.37-.53-.75-.5-.21,0-.42,0-.63,0s-.22.06-.21.21v1.35c0,.23.12.33.34.33s.57,0,.85,0a.93.93,0,0,0,.87-.52A1.94,1.94,0,0,1,8,84.93a2.52,2.52,0,0,1-.25.94c0,.1-.16.08-.24.08-.92,0-1.84,0-2.79,0,.39-.1.42-.38.42-.7,0-.93,0-1.86,0-2.79C5.08,82,5,81.92,4.57,81.77Z"/><path class="cls-9" d="M104.1,90.92v1.22s-.08,0-.08,0c-.07-.41-.34-.52-.72-.49a4.86,4.86,0,0,1-.54,0c-.32,0-.33,0-.33.32s0,.78,0,1.16.07.4.39.41.51,0,.77,0a1,1,0,0,0,.91-.53,1,1,0,0,1,.26-.36,3.77,3.77,0,0,1-.27.95c-.06.16-.2.11-.31.11h-2.73c.09-.17.34-.14.38-.34a2.33,2.33,0,0,0,0-.53c0-.87,0-1.74,0-2.6,0-.5,0-.56-.51-.71h2c.28,0,.57,0,.85,0s.32.08.3.31,0,.36,0,.55c-.14-.06-.13-.19-.16-.29a.54.54,0,0,0-.54-.39h-1.12c-.14,0-.22,0-.22.2v1.35c0,.14,0,.22.2.22s.24,0,.36,0C103.73,91.45,103.73,91.45,104.1,90.92Z"/><path class="cls-9" d="M94.7,81.77c.94,0,1.88,0,2.82,0,.24,0,.33.07.31.31s0,.36,0,.56c-.14-.06-.13-.19-.16-.29a.53.53,0,0,0-.54-.39H96c-.18,0-.23.09-.23.25,0,.42,0,.84,0,1.26,0,.23.1.28.3.27h.54c.38,0,.72-.06.82-.53V84.4s-.06,0-.06,0c-.07-.41-.33-.53-.71-.5s-.45,0-.68,0-.21.07-.21.22c0,.43,0,.87,0,1.3s.07.35.39.37.39,0,.58,0A1.11,1.11,0,0,0,98,85.1a.22.22,0,0,1,.16-.18,3.16,3.16,0,0,1-.27.92c0,.15-.19.1-.3.11H94.81c.09-.17.34-.14.38-.34a3.13,3.13,0,0,0,0-.53V82.47C95.21,82,95.16,81.92,94.7,81.77Z"/><path class="cls-9" d="M29.32,82.65C29,82,29,81.94,28.2,82c-.29,0-.66-.14-.86.08s0,.54-.05.82v.05c0,.26-.07.53.06.79a3.29,3.29,0,0,0,1.29-.06c.19-.07.18-.29.3-.45,0,.41,0,.82,0,1.24-.14,0-.13-.14-.15-.22a.39.39,0,0,0-.4-.3,5.47,5.47,0,0,0-1.07,0,2.9,2.9,0,0,0-.06.93c0,.19,0,.39,0,.58a.3.3,0,0,0,.32.35c.36,0,.72,0,1.08,0a.83.83,0,0,0,.61-.41,3,3,0,0,1,.3-.43,3.52,3.52,0,0,1-.24.9c-.06.18-.21.13-.34.13H26.29c.12-.16.34-.14.39-.32a1.29,1.29,0,0,0,0-.44c0-.88,0-1.77,0-2.65,0-.57,0-.58-.57-.77h2.91c.18,0,.29,0,.28.24A3.5,3.5,0,0,1,29.32,82.65Z"/><path class="cls-5" d="M106.63,85.17c-.43-1-.85-2-1.28-3a1,1,0,0,0-.22-.42c-.14.09-.16.25-.22.38l-1.32,3.09a1.31,1.31,0,0,1-.57.76h1.1c-.42-.26-.44-.3-.26-.74.06-.14.12-.27.17-.41a.3.3,0,0,1,.33-.23,5.77,5.77,0,0,0,.72,0c.71,0,.71,0,1,.69.14.39.12.43-.24.71a13,13,0,0,0,1.41,0A1.11,1.11,0,0,1,106.63,85.17Zm-2.41-.8c.24-.56.48-1.09.74-1.68.25.58.48,1.1.72,1.68Z"/><path class="cls-5" d="M15.26,93.71V92.39c.19.08.15.26.19.38a1.17,1.17,0,0,0,1.24.82.72.72,0,0,0,.69-.48.74.74,0,0,0-.24-.81,3.64,3.64,0,0,0-.52-.35c-.29-.18-.6-.35-.88-.55a1,1,0,0,1-.48-1.24,1.22,1.22,0,0,1,1.17-.75,2.31,2.31,0,0,1,.69.16.4.4,0,0,0,.56-.12v1.34H17.6c0-.15-.08-.31-.13-.45a1.1,1.1,0,0,0-1.1-.76.71.71,0,0,0-.65.47.61.61,0,0,0,.26.71,6.07,6.07,0,0,0,.87.55,6.89,6.89,0,0,1,.64.4,1.05,1.05,0,0,1,.44,1.15,1.14,1.14,0,0,1-.89.85,2.19,2.19,0,0,1-1.19-.1C15.54,93.53,15.54,93.53,15.26,93.71Z"/><path class="cls-3" d="M49.64,81.76v1.36a1,1,0,0,1-.2-.48,1.11,1.11,0,0,0-1.08-.78.71.71,0,0,0-.69.48.63.63,0,0,0,.27.7,6.64,6.64,0,0,0,.79.51c.24.14.47.27.69.42a1.05,1.05,0,0,1,.46,1.18,1.15,1.15,0,0,1-.94.85,2.17,2.17,0,0,1-1.1-.11c-.21-.06-.43-.19-.62.06V84.64c.19.13.15.31.21.45a1.19,1.19,0,0,0,1.32.76.72.72,0,0,0,.59-.48.71.71,0,0,0-.19-.75,2.54,2.54,0,0,0-.5-.36c-.32-.2-.65-.38-.95-.59a1,1,0,0,1-.48-1.25,1.23,1.23,0,0,1,1.17-.74,2.1,2.1,0,0,1,.7.16c.18.07.37.12.48-.17Z"/><path class="cls-10" d="M80.4,13.52a.52.52,0,0,1,.53.19,4.27,4.27,0,0,0,2.12,1c.44.1.54,0,.5-.46a1.06,1.06,0,0,0-.47-.82,2.64,2.64,0,0,0-2.64-.29.91.91,0,0,1-1.27-.35.55.55,0,0,1,.17-.05,16.08,16.08,0,0,1,2.86,0,1.81,1.81,0,0,1,.72.24,16.54,16.54,0,0,1,2.17,1.83l0,.1h-2.4a2.72,2.72,0,0,1-2.17-1.24C80.45,13.66,80.44,13.6,80.4,13.52Z"/><path class="cls-10" d="M92.43,47.46a5.79,5.79,0,0,1-.72-1.63c0-.08,0-.18-.18-.21a9.76,9.76,0,0,0-.5,3.83A3.1,3.1,0,0,0,92,51.31c.25-.73.51-1.4.71-2.09A2.1,2.1,0,0,0,92.43,47.46Zm0,1.49A1.51,1.51,0,0,1,92,50a.54.54,0,0,1-.57.16c-.22-.08-.25-.28-.26-.48A4.89,4.89,0,0,1,91.84,47,3.11,3.11,0,0,1,92.46,49Z"/><path class="cls-5" d="M37.27,93.67H35.93c.09-.13.3-.12.36-.3a1.6,1.6,0,0,0,0-.44c0-1,0-1.94,0-2.92,0-.32,0-.32-.35-.33h-.22a.66.66,0,0,0-.74.51s0,.12-.1.16c0-.23,0-.44,0-.65s.09-.2.23-.2h3c.14,0,.19,0,.19.18s0,.45,0,.68c-.18,0-.13-.15-.16-.22a.64.64,0,0,0-.6-.46c-.71-.06-.71-.06-.71.65s0,1.7,0,2.56C36.9,93.2,36.89,93.52,37.27,93.67Z"/><path class="cls-7" d="M87.3,86H85.87c.35-.11.42-.37.42-.69V82.21c0-.19-.05-.28-.25-.26h-.36a.62.62,0,0,0-.69.5s0,.13,0,.14-.08,0-.08,0c0-.25-.09-.56.08-.73s.45,0,.69,0H88c.2,0,.31,0,.29.27s0,.38,0,.58a.08.08,0,0,1-.09-.06A1,1,0,0,0,87,82c-.09,0-.1.1-.1.17v.63c0,.82,0,1.65,0,2.47C86.87,85.69,86.88,85.69,87.3,86Z"/><path class="cls-5" d="M70.27,81.77l.06.84c-.18,0-.12-.1-.15-.16a.64.64,0,0,0-.66-.5c-.67,0-.67,0-.67.64,0,.86,0,1.71,0,2.56,0,.32,0,.63.36.79H67.91c.37-.12.39-.43.38-.75,0-1,0-2,0-3,0-.21,0-.31-.28-.28h-.26c-.48,0-.6.08-.78.52,0,0,0,.12-.11.14,0-.2,0-.4,0-.6s0-.24.23-.24Z"/><path class="cls-7" d="M24.78,86h-1.4c.09-.14.32-.11.36-.28a1.68,1.68,0,0,0,.07-.44c0-1,0-2,0-3,0-.22-.07-.3-.29-.27h-.18c-.58,0-.7.09-.89.64a2.48,2.48,0,0,1-.05-.7c0-.09.07-.12.15-.12h3c.22,0,.33.06.3.3s0,.37,0,.57c-.13,0-.11-.15-.13-.23A.64.64,0,0,0,25,82c-.65,0-.65,0-.65.61,0,.86,0,1.73,0,2.6C24.39,85.68,24.39,85.68,24.78,86Z"/><path class="cls-7" d="M56.34,90.37c-.12-.05-.1-.16-.13-.23a.66.66,0,0,0-.65-.46c-.65,0-.65,0-.65.61v2.65c0,.32,0,.61.39.73H53.91c.39-.1.42-.4.42-.73,0-1,0-2,0-3,0-.24-.07-.33-.31-.3h-.31a.63.63,0,0,0-.68.47c0,.07,0,.16-.09.18l0,0c-.06-.81-.06-.81.73-.81s1.58,0,2.37,0c.23,0,.34,0,.32.3A5.32,5.32,0,0,0,56.34,90.37Z"/><path class="cls-11" d="M78,92.61c-.09.31-.19.6-.27.9s-.21.17-.36.17H74.6c.11-.14.31-.14.37-.31a1.38,1.38,0,0,0,0-.45V90.18c0-.46-.06-.52-.51-.68h1.71c-.06.14-.19.07-.28.11a.46.46,0,0,0-.33.43c0,.21,0,.42,0,.63V93c0,.48.06.53.55.55.21,0,.42,0,.62,0a1,1,0,0,0,1-.63C77.8,92.79,77.81,92.67,78,92.61Z"/><path class="cls-11" d="M94.72,89.51h1.72c-.24.09-.44.08-.54.24a1,1,0,0,0-.07.53c0,.89,0,1.79,0,2.69,0,.33,0,.58.4.7H94.85c.38-.26.38-.26.38-.78,0-.87,0-1.73,0-2.6C95.23,89.72,95.23,89.72,94.72,89.51Z"/><path class="cls-11" d="M74,93.68H72.57c.08-.15.3-.12.36-.29A1.32,1.32,0,0,0,73,93V90.26c0-.54,0-.56-.53-.75h1.67c-.18.11-.41.08-.49.27a1.35,1.35,0,0,0-.05.53V93C73.57,93.42,73.57,93.42,74,93.68Z"/><path class="cls-6" d="M121.72,81.78h1.72c-.51.15-.55.21-.55.74,0,.9,0,1.8,0,2.7,0,.32,0,.6.39.72h-1.46a.62.62,0,0,0,.5-.72c0-.91,0-1.83,0-2.74C122.31,82,122.25,81.94,121.72,81.78Z"/><path class="cls-6" d="M35.73,86H34.31c.48-.18.48-.51.48-.84v-2.6c0-.52-.06-.57-.61-.74H36c-.55.16-.6.23-.6.7,0,.93,0,1.85,0,2.78C35.35,85.56,35.4,85.81,35.73,86Z"/><path class="cls-6" d="M79.13,85.93a.58.58,0,0,0,.36-.62c0-1,0-2,0-2.92,0-.4-.08-.46-.57-.6h1.7c-.51.14-.55.2-.56.72,0,.9,0,1.8,0,2.7,0,.32,0,.6.38.72Z"/><path class="cls-6" d="M47,89.51h1.71c-.23.1-.43.08-.53.23a1,1,0,0,0-.08.53c0,.88,0,1.76,0,2.64,0,.33,0,.63.39.76H47.13c.09-.14.29-.12.34-.28a1.31,1.31,0,0,0,.07-.44c0-.92,0-1.85,0-2.78C47.53,89.72,47.46,89.66,47,89.51Z"/><path class="cls-8" d="M86.14,93.64c.24,0,.5.07.73-.09.07,0,.15,0,.2,0A1.61,1.61,0,0,1,86.14,93.64Z"/><path class="cls-12" d="M96.38,42.85a4.49,4.49,0,0,1-.07-1.1A2.71,2.71,0,0,1,96.38,42.85Z"/><path class="cls-12" d="M96.31,45.16a1.27,1.27,0,0,1,.07-.58C96.37,44.78,96.46,45,96.31,45.16Z"/><path class="cls-13" d="M58.17,2.92c0,.2-.16.22-.29.23s-.47-.14-.47-.29.19-.26.41-.26A.33.33,0,0,1,58.17,2.92Z"/><polygon class="cls-13" points="28.61 19.71 28.62 19.72 28.61 19.71 28.61 19.71"/><polygon class="cls-13" points="28.62 19.72 28.61 19.72 28.61 19.71 28.61 19.71 28.62 19.72 28.62 19.72 28.62 19.72 28.62 19.72"/><path class="cls-14" d="M58.17,2.92c0,.2-.16.22-.29.23s-.47-.14-.47-.29.19-.26.41-.26A.33.33,0,0,1,58.17,2.92Z"/></g></g></svg>