<svg xmlns="http://www.w3.org/2000/svg" viewBox="0 0 167.68 55.52"><defs><style>.cls-1{fill:#424242;}</style></defs><g id="Layer_2" data-name="Layer 2"><g id="Layer_1-2" data-name="Layer 1"><path class="cls-1" d="M35.75,21.15a1.1,1.1,0,0,0,.24,1.2c.28.33.59.64.89.94l12.2,11.88a2.93,2.93,0,0,1,.69,3.6,6,6,0,0,1-3.72,3.32,2.75,2.75,0,0,1-2.86-.75L32.77,31.19l-2.11-2.05a1.84,1.84,0,0,1-.2-2.6,4.28,4.28,0,0,1,.4-.45l4.64-4.74C35.58,21.27,35.63,21.18,35.75,21.15Z"/><path class="cls-1" d="M21.29,20a1.35,1.35,0,0,0,1.4-.52Q24.46,17.75,26.2,16q4.57-4.67,9.16-9.34a2.89,2.89,0,0,1,2.88-.82,4.42,4.42,0,0,1,1.95,1,5.81,5.81,0,0,1,2,2.93,2.79,2.79,0,0,1-.75,2.77q-6.1,6.25-12.23,12.5a1.8,1.8,0,0,1-2.68.18c-1.8-1.66-3.54-3.4-5.31-5.1Z"/><path class="cls-1" d="M34.67,35.54a1.12,1.12,0,0,0-1.23.18,9.59,9.59,0,0,0-.75.68L20.61,48.74a3.08,3.08,0,0,1-4,.61,6.7,6.7,0,0,1-2.68-2.7,3,3,0,0,1,.56-3.85L26.38,30.66l.27-.28A1.78,1.78,0,0,1,28.88,30a2.52,2.52,0,0,1,.62.45l5,4.86Z"/><path class="cls-1" d="M20.09,34.47a1.32,1.32,0,0,0-.5-1.43l-2.92-2.87L6.75,20.51a3,3,0,0,1-.66-3.72A6,6,0,0,1,9.8,13.55a2.75,2.75,0,0,1,2.8.75L25.13,26.5a1.89,1.89,0,0,1,0,2.87c-.69.73-1.4,1.44-2.1,2.15l-2.72,2.77C20.26,34.36,20.21,34.45,20.09,34.47Z"/><path class="cls-1" d="M42.74,44.7a2.8,2.8,0,0,1-.13.86,6.07,6.07,0,0,1-3.9,3.81,2.71,2.71,0,0,1-2.86-.74c-1.78-1.71-3.54-3.44-5.31-5.17a1.85,1.85,0,0,1-.11-2.78c1-1.12,2.12-2.2,3.21-3.28a2,2,0,0,1,1.65-.69,1.45,1.45,0,0,1,1,.41l5.56,5.42A3,3,0,0,1,42.74,44.7Z"/><path class="cls-1" d="M49.77,17.86a2.87,2.87,0,0,1-.83,2q-2.62,2.7-5.28,5.39a1.81,1.81,0,0,1-2.44.27,3.24,3.24,0,0,1-.46-.37c-1-1-2-1.92-3-2.9A2.26,2.26,0,0,1,37,20.45a1.39,1.39,0,0,1,.4-.94c1.83-1.86,3.64-3.74,5.48-5.59a2.77,2.77,0,0,1,3-.73A6.07,6.07,0,0,1,49.65,17a3.71,3.71,0,0,1,.1.48C49.76,17.61,49.76,17.73,49.77,17.86Z"/><path class="cls-1" d="M13.44,29.78a2.07,2.07,0,0,1,1.45.57c1.09,1,2.19,2.09,3.25,3.17a2,2,0,0,1,.7,1.85,1.45,1.45,0,0,1-.4.8l-5.38,5.49a2.86,2.86,0,0,1-3.33.73,5.9,5.9,0,0,1-3.58-3.85,2.68,2.68,0,0,1,.71-2.74c1.77-1.83,3.55-3.63,5.33-5.45A1.77,1.77,0,0,1,13.44,29.78Z"/><path class="cls-1" d="M13.08,11.22a3.89,3.89,0,0,1,.74-2.53,6.12,6.12,0,0,1,3.3-2.55A2.81,2.81,0,0,1,20,6.88c1.78,1.72,3.54,3.44,5.31,5.17a1.85,1.85,0,0,1,.12,2.79c-.48.55-1,1.05-1.53,1.58s-1,1.06-1.54,1.57a2.29,2.29,0,0,1-1.78.82,1.4,1.4,0,0,1-1-.41C17.7,16.59,15.83,14.78,14,13A2.74,2.74,0,0,1,13.08,11.22Z"/><path class="cls-1" d="M27.61,9.66a4.83,4.83,0,1,1,4.85-4.84A4.83,4.83,0,0,1,27.61,9.66Z"/><path class="cls-1" d="M28.22,45.86a4.83,4.83,0,1,1-4.86,4.78A4.81,4.81,0,0,1,28.22,45.86Z"/><path class="cls-1" d="M55.81,27.54A4.85,4.85,0,1,1,51,22.71,4.83,4.83,0,0,1,55.81,27.54Z"/><path class="cls-1" d="M9.69,28.13a4.85,4.85,0,1,1-4.81-4.84A4.82,4.82,0,0,1,9.69,28.13Z"/><path class="cls-1" d="M82.66,17.13l-1.27,1.6c-.11.13-.2.26-.31.38-.41.5-.82.49-1.19,0s-.75-1-1.12-1.57l-.21-.29a.41.41,0,0,0-.06.31v2.94a1.84,1.84,0,0,1,0,.41.64.64,0,0,1-.68.48.56.56,0,0,1-.55-.5,1.94,1.94,0,0,1,0-.34v-5.1a2.08,2.08,0,0,1,0-.25.64.64,0,0,1,.43-.55.55.55,0,0,1,.63.18c.26.3.49.61.73.93.46.61.93,1.23,1.37,1.85.14.2.21.18.34,0,.63-.87,1.28-1.72,1.91-2.59a.68.68,0,0,1,.79-.35c.38.11.45.41.45.77,0,1.75,0,3.49,0,5.24,0,.55-.38.85-.82.66a.6.6,0,0,1-.37-.65V17.13Z"/><path class="cls-1" d="M161.79,28.6a.63.63,0,0,0,.05-.37V25.12c0-.51.26-.86.63-.85s.67.36.68.85c0,1.71,0,3.42,0,5.13,0,.33-.06.61-.39.75a.76.76,0,0,1-.83-.22,2.06,2.06,0,0,1-.28-.31c-.89-1.14-1.79-2.27-2.68-3.4l-.33-.4v.88c0,.92,0,1.84,0,2.76,0,.47-.2.71-.57.74a.65.65,0,0,1-.71-.69c0-.43,0-.86,0-1.29,0-1.28,0-2.57,0-3.85,0-.31-.06-.67.34-.83s.67,0,1,.37l2.86,3.57Z"/><path class="cls-1" d="M93.94,28.66V25.29c0-.11,0-.21,0-.32a.68.68,0,0,1,.63-.7.74.74,0,0,1,.68.75v5.17c0,.36,0,.7-.43.82a.82.82,0,0,1-.92-.36c-.5-.61-1-1.24-1.48-1.86L90.8,26.74c-.12.1-.07.21-.07.31v3.24c0,.3,0,.57-.35.7a.65.65,0,0,1-.92-.62c0-.53,0-1.07,0-1.61v-3.6c0-.31,0-.65.36-.78a.82.82,0,0,1,1,.34l2.82,3.52C93.68,28.36,93.78,28.47,93.94,28.66Z"/><path class="cls-1" d="M128.35,17.07v3.6c0,.45-.24.7-.61.71a.64.64,0,0,1-.66-.7c0-1.79,0-3.59,0-5.38,0-.24,0-.49.3-.58a.75.75,0,0,1,.76.1,3.69,3.69,0,0,1,.38.41l2.76,3.43.22.27c.1-.11.06-.22.06-.32V15.47c0-.57.23-.88.63-.87s.66.34.66.86v5.07c0,.34,0,.65-.4.8a.86.86,0,0,1-.93-.33c-.43-.53-.84-1.06-1.26-1.59l-1.67-2.11C128.53,17.22,128.49,17.12,128.35,17.07Z"/><path class="cls-1" d="M92.45,17.09v3c0,.23,0,.46,0,.69a.61.61,0,0,1-.61.64.62.62,0,0,1-.65-.63q0-2.76,0-5.52a.61.61,0,0,1,1-.45,2.11,2.11,0,0,1,.39.4l2.8,3.48c.07.09.11.21.27.26v-.8c0-.93,0-1.87,0-2.8a.65.65,0,0,1,.6-.72.7.7,0,0,1,.69.69c0,1.81,0,3.62,0,5.42a.63.63,0,0,1-1,.55,1.84,1.84,0,0,1-.45-.43l-3-3.76Z"/><path class="cls-1" d="M143.82,38.34V34.76c0-.49.25-.82.62-.82a.75.75,0,0,1,.68.82v5.17c0,.31-.05.6-.37.73a.78.78,0,0,1-.86-.21,3.47,3.47,0,0,1-.25-.29l-3-3.76c-.11.09-.06.2-.06.3V40c0,.48-.25.72-.68.69a.59.59,0,0,1-.59-.65V34.64c0-.23,0-.46.28-.56a.74.74,0,0,1,.76.07,2.78,2.78,0,0,1,.41.43c.94,1.16,1.87,2.33,2.8,3.49Z"/><path class="cls-1" d="M118.07,36.34c0,1.3,0,2.5,0,3.7,0,.46-.24.69-.65.67a.59.59,0,0,1-.61-.6c0-1.85,0-3.7,0-5.55a.61.61,0,0,1,1-.42,2.09,2.09,0,0,1,.41.43q1.5,1.84,3,3.71c.12-.07.06-.18.06-.25,0-1.1,0-2.19,0-3.29,0-.46.25-.79.6-.8a.73.73,0,0,1,.69.8V40a.67.67,0,0,1-.38.72.73.73,0,0,1-.8-.19,3.26,3.26,0,0,1-.31-.33l-2.75-3.48Z"/><path class="cls-1" d="M109.73,28.78c0,.24,0,.47,0,.7a1,1,0,0,1-.58,1.06,3.92,3.92,0,0,1-4.06.07,3.05,3.05,0,0,1-1.48-3,3.51,3.51,0,0,1,5-3.11,2.73,2.73,0,0,1,.75.5.6.6,0,0,1,.1.92.63.63,0,0,1-.93,0,2.07,2.07,0,0,0-2.69-.11,2.3,2.3,0,0,0,2.56,3.83.36.36,0,0,0,.19-.34c0-1,0-1-.93-1h-.52c-.39,0-.63-.23-.63-.56a.61.61,0,0,1,.62-.62c.28,0,.56,0,.84,0s.7,0,1,0a.69.69,0,0,1,.75.77Z"/><path class="cls-1" d="M124.74,27.68c0-.85,0-1.7,0-2.55,0-.58.2-.78.78-.78,1.07,0,2.14,0,3.22,0,.5,0,.77.25.74.67a.58.58,0,0,1-.65.58c-.82,0-1.65,0-2.48,0-.24,0-.33.06-.31.31a6.31,6.31,0,0,1,0,.87c0,.25.08.29.29.29.69,0,1.38,0,2.07,0,.45,0,.72.23.73.62s-.26.64-.74.65c-.69,0-1.38,0-2.06,0-.24,0-.31.07-.29.3a6.31,6.31,0,0,1,0,.87c0,.26.08.3.31.3.86,0,1.71,0,2.56,0,.49,0,.78.26.77.66s-.28.61-.78.61h-3.43c-.53,0-.73-.21-.73-.75C124.73,29.43,124.74,28.55,124.74,27.68Z"/><path class="cls-1" d="M104.58,18V15.44c0-.56.2-.76.76-.76h3.25c.47,0,.73.22.74.61s-.26.65-.74.65h-2.41c-.22,0-.32,0-.3.28a6.76,6.76,0,0,1,0,.9c0,.22.06.28.27.28h2.07c.48,0,.75.22.75.62s-.27.64-.75.64c-.69,0-1.37,0-2.06,0-.21,0-.3,0-.28.26a6.91,6.91,0,0,1,0,.91c0,.25.08.29.3.29h2.59a.74.74,0,0,1,.55.17.63.63,0,0,1,.19.61.57.57,0,0,1-.47.46,2.07,2.07,0,0,1-.35,0h-3.32c-.59,0-.79-.21-.79-.81Z"/><path class="cls-1" d="M85.19,18V15.43c0-.54.2-.75.73-.75h3.26c.49,0,.75.22.76.62s-.27.64-.78.64H86.78c-.22,0-.31.05-.29.28a6.91,6.91,0,0,1,0,.91c0,.22.07.27.28.27h2.1c.45,0,.71.24.71.63s-.27.63-.72.63c-.69,0-1.38,0-2.07,0-.25,0-.32.07-.3.31a6.31,6.31,0,0,1,0,.87c0,.22.06.28.28.28h2.55a.84.84,0,0,1,.47.08.62.62,0,0,1,.34.64.56.56,0,0,1-.46.51.79.79,0,0,1-.2,0c-1.22,0-2.43,0-3.64,0-.43,0-.64-.26-.64-.71C85.18,19.78,85.19,18.9,85.19,18Z"/><path class="cls-1" d="M71.32,37.38V34.73c0-.49.19-.69.67-.69h3.36c.45,0,.72.25.71.63s-.28.63-.73.63H72.92c-.24,0-.35.05-.32.31s-.15.84.08,1.07.69,0,1,.06.79,0,1.19,0,.78.24.78.64-.28.64-.79.64c-.67,0-1.33,0-2,0-.24,0-.33.06-.31.31s-.16.86.08,1.07.69.06,1,.06c.59,0,1.19,0,1.78,0s.76.29.73.7a.54.54,0,0,1-.56.55c-1.27,0-2.54,0-3.81,0-.36,0-.55-.25-.55-.64C71.31,39.18,71.32,38.28,71.32,37.38Z"/><path class="cls-1" d="M148.88,40.72h-1.75c-.46,0-.66-.2-.67-.66V34.7c0-.46.2-.66.66-.66h3.39c.45,0,.68.23.68.62a.6.6,0,0,1-.68.63H148c-.23,0-.3.06-.29.29a6.31,6.31,0,0,1,0,.87c0,.25.08.29.3.29.7,0,1.4,0,2.1,0a.63.63,0,0,1,.69.76c-.05.33-.29.51-.72.52-.67,0-1.35,0-2,0-.27,0-.36.07-.34.34a4.28,4.28,0,0,1,0,.8c0,.26.08.31.32.3.82,0,1.65,0,2.48,0a1.58,1.58,0,0,1,.38,0,.62.62,0,0,1,.47.68.58.58,0,0,1-.59.54h-1.92Z"/><path class="cls-1" d="M83.48,27.7V25.11c0-.56.2-.76.75-.76,1.08,0,2.17,0,3.25,0,.51,0,.79.29.73.71s-.27.54-.69.55c-.81,0-1.63,0-2.44,0-.25,0-.34.06-.32.31a4.28,4.28,0,0,1,0,.8c0,.31.1.37.37.36.67,0,1.33,0,2,0,.48,0,.73.24.72.65s-.25.61-.72.62c-.68,0-1.35,0-2,0-.29,0-.36.09-.34.35a5.89,5.89,0,0,1,0,.84c0,.22.06.28.28.28h2.62a.73.73,0,0,1,.57.2.62.62,0,0,1,.14.68.56.56,0,0,1-.54.38q-1.9,0-3.81,0c-.34,0-.53-.26-.54-.65Z"/><path class="cls-1" d="M71.23,18V15.39c0-.51.2-.7.7-.71h3.32c.46,0,.72.24.72.63a.63.63,0,0,1-.72.63H72.8c-.24,0-.31.07-.29.29,0,.38-.16.89.09,1.1s.71.06,1.08.06H74.9c.47,0,.7.22.7.63s-.26.63-.72.63c-.7,0-1.4,0-2.1,0-.21,0-.28.05-.27.27a6.91,6.91,0,0,1,0,.91c0,.22.07.28.28.28h2.62a.72.72,0,0,1,.6.23.61.61,0,0,1-.31,1,1.58,1.58,0,0,1-.38,0H72c-.63,0-.81-.18-.81-.82Z"/><path class="cls-1" d="M71.23,27.65V25.07c0-.52.21-.72.72-.72,1.1,0,2.2,0,3.29,0,.54,0,.84.36.7.83a.6.6,0,0,1-.65.43H72.81c-.22,0-.32,0-.3.29a7.37,7.37,0,0,1,0,.94c0,.19.06.24.24.23h2.1c.5,0,.75.22.75.63s-.24.63-.73.64c-.69,0-1.38,0-2.06,0-.23,0-.31.06-.3.29a6.91,6.91,0,0,1,0,.91c0,.23.08.27.28.27h2.66a.64.64,0,0,1,.7.54.59.59,0,0,1-.58.71q-1.89,0-3.78,0c-.36,0-.55-.25-.55-.66C71.23,29.47,71.23,28.56,71.23,27.65Z"/><path class="cls-1" d="M66.06,17.51,68,15.76c.3-.29.57-.61.88-.9a.6.6,0,0,1,1,0c.28.28.28.55,0,.88-.53.58-1.07,1.14-1.62,1.69-.18.18-.19.29,0,.48.69.81,1.36,1.63,2,2.45a.58.58,0,0,1,.11.73.71.71,0,0,1-.72.33.62.62,0,0,1-.45-.3c-.64-.82-1.29-1.62-1.92-2.45-.15-.2-.22-.18-.41,0a1.87,1.87,0,0,0-.7,1.8,1.35,1.35,0,0,1,0,.49.6.6,0,0,1-.65.46.58.58,0,0,1-.6-.49,1.27,1.27,0,0,1,0-.28v-5.2a.69.69,0,0,1,.31-.69.63.63,0,0,1,1,.6C66.07,16.08,66.06,16.84,66.06,17.51Z"/><path class="cls-1" d="M107.51,37a3.3,3.3,0,0,1,.22-.3l2.41-2.48a.62.62,0,0,1,.9-.13.56.56,0,0,1,.11.9c-.53.58-1.07,1.15-1.62,1.7-.2.2-.25.34,0,.59.68.78,1.33,1.58,2,2.39a.58.58,0,0,1,.13.7.69.69,0,0,1-.63.37.65.65,0,0,1-.55-.31c-.65-.83-1.31-1.64-2-2.47-.13-.17-.17-.18-.35,0a2.08,2.08,0,0,0-.74,2c0,.47-.13.68-.49.76a.61.61,0,0,1-.79-.6q0-2.74,0-5.49a.61.61,0,0,1,.66-.65.6.6,0,0,1,.62.65c0,.67,0,1.33,0,2,0,.11,0,.22,0,.33Z"/><path class="cls-1" d="M66.06,27.38c1-1,1.83-1.9,2.72-2.8a.64.64,0,0,1,1-.06.56.56,0,0,1,0,.84c-.51.61-1.08,1.15-1.64,1.71-.19.19-.2.31,0,.51.68.8,1.34,1.61,2,2.42a.61.61,0,0,1,.16.67.69.69,0,0,1-.61.41.63.63,0,0,1-.59-.29c-.64-.82-1.29-1.63-1.92-2.45-.17-.23-.23-.18-.43,0a1.88,1.88,0,0,0-.69,1.82,1,1,0,0,1,0,.41.65.65,0,0,1-1.27,0,1.85,1.85,0,0,1,0-.24V25.07c0-.42.15-.65.46-.73a.62.62,0,0,1,.83.65C66.06,25.76,66.06,26.52,66.06,27.38Z"/><path class="cls-1" d="M119.56,27.39l.79-.81c.66-.68,1.31-1.36,2-2a.62.62,0,0,1,1,0,.56.56,0,0,1,0,.84c-.55.59-1.11,1.17-1.67,1.74-.16.17-.18.26,0,.45.67.78,1.32,1.57,2,2.36.34.42.35.76,0,1a.69.69,0,0,1-1.05-.19l-2.08-2.63c-.3.32-.59.63-.87.95-.08.09-.06.19-.06.3,0,.37,0,.74,0,1.11a.64.64,0,0,1-1.27,0q0-2.77,0-5.55a.58.58,0,0,1,.66-.6.57.57,0,0,1,.61.62C119.57,25.72,119.56,26.5,119.56,27.39Z"/><path class="cls-1" d="M89.46,36.55c0,.53,0,1.05,0,1.58a2.56,2.56,0,0,1-2.15,2.66,3.1,3.1,0,0,1-3-.77,2.17,2.17,0,0,1-.69-1.56c0-1.27,0-2.54,0-3.81a.64.64,0,1,1,1.27,0c0,1.11,0,2.21,0,3.32a1.41,1.41,0,0,0,.89,1.47,1.78,1.78,0,0,0,1.94-.23,1.28,1.28,0,0,0,.47-1.05V34.8a.78.78,0,0,1,.15-.56A.63.63,0,0,1,89,34a.56.56,0,0,1,.42.58c0,.65,0,1.3,0,1.95Z"/><path class="cls-1" d="M154.7,40.92a3.74,3.74,0,0,1-2.09-.57.76.76,0,0,1-.4-.58.62.62,0,0,1,.3-.63.58.58,0,0,1,.65.06,3.19,3.19,0,0,0,1.92.52,1.23,1.23,0,0,0,.85-.35.7.7,0,0,0-.13-1.13,3.27,3.27,0,0,0-1-.41,8,8,0,0,1-1.45-.5,1.65,1.65,0,0,1-1-1.47,1.74,1.74,0,0,1,.88-1.7,3.28,3.28,0,0,1,3.39,0,.52.52,0,0,1,.17.12.59.59,0,0,1,.14.81.55.55,0,0,1-.78.12,2.81,2.81,0,0,0-1.68-.36,1.23,1.23,0,0,0-.49.16.72.72,0,0,0,0,1.26,3.83,3.83,0,0,0,1.1.41,10.36,10.36,0,0,1,1.42.49,1.87,1.87,0,0,1,.28,3.14A3.35,3.35,0,0,1,154.7,40.92Z"/><path class="cls-1" d="M79.65,24.33h2.2c.44,0,.7.22.72.59s-.26.64-.71.65a10.46,10.46,0,0,1-1.12,0c-.34,0-.45.06-.45.43,0,1.46,0,2.92,0,4.37a.62.62,0,0,1-.42.69c-.48.16-.85-.14-.86-.69,0-1.47,0-2.94,0-4.41,0-.29,0-.41-.37-.39a10.59,10.59,0,0,1-1.26,0c-.46,0-.71-.24-.7-.65s.25-.59.71-.59Z"/><path class="cls-1" d="M101.42,18.45c0,.74,0,1.49,0,2.23,0,.48-.23.73-.65.73s-.62-.25-.62-.72c0-1.48,0-3,0-4.44,0-.28-.06-.39-.36-.37s-.89,0-1.33,0a.59.59,0,0,1-.66-.61.58.58,0,0,1,.62-.61H103a.61.61,0,1,1,0,1.22c-.42,0-.84,0-1.26,0s-.36.09-.35.37C101.43,17,101.42,17.71,101.42,18.45Z"/><path class="cls-1" d="M141.6,27.1c0,.68,0,1.37,0,2.06a1.94,1.94,0,0,1-1.82,2,2.59,2.59,0,0,1-2.57-.83.64.64,0,0,1,0-1c.3-.27.6-.24.93.12a1.48,1.48,0,0,0,1.14.52,1,1,0,0,0,1.07-1.08q0-1.92,0-3.84a.64.64,0,0,1,.38-.68.63.63,0,0,1,.91.58c0,.71,0,1.43,0,2.14Z"/><path class="cls-1" d="M99,36.94c0,.71,0,1.42,0,2.13,0,.29,0,.4.37.39.71,0,1.43,0,2.14,0a2,2,0,0,1,.34,0,.59.59,0,0,1,.51.65.6.6,0,0,1-.59.58c-.35,0-.7,0-1,0h-2.2c-.5,0-.7-.21-.7-.71V34.73c0-.44.23-.7.6-.7s.58.25.58.7C99,35.47,99,36.2,99,36.94Z"/><path class="cls-1" d="M159.91,37.37V40c0,.49-.25.77-.67.76s-.62-.27-.62-.76c0-1.75,0-3.49,0-5.24,0-.49.24-.76.66-.75s.63.27.63.76Z"/><path class="cls-1" d="M117.18,18c0-.88,0-1.77,0-2.65a.62.62,0,0,1,.73-.68c.38,0,.56.26.56.73,0,1.45,0,2.9,0,4.36,0,.31,0,.63,0,.94a.65.65,0,1,1-1.29,0C117.17,19.79,117.18,18.9,117.18,18Z"/><path class="cls-1" d="M104.69,37.37V40c0,.49-.25.77-.67.76s-.62-.27-.62-.76c0-1.75,0-3.49,0-5.24,0-.49.24-.76.67-.75s.62.27.62.76Z"/><path class="cls-1" d="M114.08,37.38V34.72c0-.46.24-.73.65-.72s.62.25.62.72V40c0,.47-.24.73-.65.73s-.62-.26-.62-.72Z"/><path class="cls-1" d="M95.58,37.08a1.75,1.75,0,0,0,.44-.73,1.79,1.79,0,0,0-1.68-2.3c-.94,0-1.88,0-2.83,0-.52,0-.71.2-.71.73,0,.85,0,1.7,0,2.55s0,1.81,0,2.72c0,.46.19.68.61.68,1.1,0,2.21,0,3.32,0a1.9,1.9,0,0,0,1.86-1.46A1.76,1.76,0,0,0,95.58,37.08ZM92.14,35.3c.18-.25.7-.06,1.06-.08s.61,0,.91,0a.65.65,0,0,1,.68.72.63.63,0,0,1-.69.7H92.32c-.18,0-.25,0-.24-.23C92.09,36,92,35.55,92.14,35.3Zm2.31,4.23H93.37c-.35,0-.7,0-1.05,0-.18,0-.25,0-.24-.24q0-.63,0-1.26c0-.16,0-.21.22-.21.72,0,1.44,0,2.16,0a.8.8,0,0,1,.81.86A.79.79,0,0,1,94.45,39.53Z"/><path class="cls-1" d="M134.6,33.78A3.47,3.47,0,0,0,131,37.35a3.37,3.37,0,0,0,3.52,3.48,3.41,3.41,0,0,0,3.61-3.51A3.51,3.51,0,0,0,134.6,33.78Zm0,5.85a2.3,2.3,0,1,1,2.32-2.31A2.25,2.25,0,0,1,134.55,39.63Z"/><path class="cls-1" d="M130.11,37a3.08,3.08,0,0,0-2.54-2.93,15.29,15.29,0,0,0-3.1,0c-.34,0-.53.28-.53.66V40c0,.48.19.67.68.68H126c.42,0,.84,0,1.26,0a2.89,2.89,0,0,0,2.49-1.6A3.77,3.77,0,0,0,130.11,37Zm-1.28.49a2,2,0,0,1-2.21,2,11.22,11.22,0,0,0-1.16,0c-.19,0-.26,0-.25-.26,0-.64,0-1.27,0-1.91s0-1.26,0-1.89c0-.22.06-.28.27-.27.44,0,.89,0,1.33,0A2,2,0,0,1,128.83,37.53Z"/><path class="cls-1" d="M70,39.56l-1.14-1.39a6.79,6.79,0,0,0,.56-.39,2.11,2.11,0,0,0,.57-2.3,2,2,0,0,0-1.83-1.43c-.9,0-1.8,0-2.69,0-.52,0-.72.2-.72.73V40c0,.48.24.75.65.74s.65-.28.65-.74,0-.93,0-1.4c0-.22.07-.28.28-.27a7.37,7.37,0,0,0,.94,0,.48.48,0,0,1,.46.24c.41.6.82,1.19,1.24,1.77a.71.71,0,0,0,1,.26C70.35,40.35,70.35,40,70,39.56Zm-2.12-2.34h-.8c-.29,0-.77.16-1-.08s-.06-.66-.05-1-.13-.68.05-.87.57,0,.87-.06.61,0,.91,0a.92.92,0,0,1,1,1A1,1,0,0,1,67.89,37.22Z"/><path class="cls-1" d="M136,29.89l-1.15-1.4.13-.09a2.1,2.1,0,0,0,1.1-2.25,2.05,2.05,0,0,0-1.83-1.76,22,22,0,0,0-2.93,0c-.39,0-.56.25-.56.69q0,2.65,0,5.31c0,.47.21.7.63.7a.62.62,0,0,0,.65-.7c0-.46,0-.93,0-1.4,0-.21,0-.31.28-.3a8.68,8.68,0,0,0,1,0,.38.38,0,0,1,.37.19q.62.91,1.26,1.8c.3.42.71.52,1,.27S136.29,30.29,136,29.89Zm-2.08-2.34h-.8c-.28,0-.56,0-.84,0s-.25-.07-.25-.26c0-.52,0-1,0-1.54,0-.18.05-.24.24-.24.55,0,1.11,0,1.67,0a.94.94,0,0,1,1,1A1,1,0,0,1,133.89,27.55Z"/><path class="cls-1" d="M115.84,20.25c-.34-.42-.68-.83-1-1.24-.11-.14-.16-.21,0-.33a2.15,2.15,0,0,0-1.08-4h-2.49c-.54,0-.72.19-.72.74v5.24c0,.47.21.72.61.73s.66-.26.67-.72,0-1,0-1.43c0-.18.05-.25.23-.24q.53,0,1,0a.41.41,0,0,1,.4.21c.42.62.84,1.23,1.28,1.83a.68.68,0,0,0,1,.22C116.13,21,116.14,20.63,115.84,20.25ZM114,17.82a10.79,10.79,0,0,1-2,.06c-.14,0-.13-.1-.13-.2,0-.54,0-1.09,0-1.63,0-.17.08-.19.21-.19H113c.28,0,.56,0,.84,0a.91.91,0,0,1,.89.86A1,1,0,0,1,114,17.82Z"/><path class="cls-1" d="M126.17,20.43c-.9-1.8-1.81-3.61-2.73-5.41a.64.64,0,0,0-1.17,0,1.13,1.13,0,0,0-.12.21L120,19.35c-.19.37-.4.74-.57,1.12a.63.63,0,0,0,.55.93.66.66,0,0,0,.66-.41,5.36,5.36,0,0,0,.26-.54.38.38,0,0,1,.42-.26,20.29,20.29,0,0,0,2.34,0A1.11,1.11,0,0,1,125,21a.56.56,0,0,0,.85.33A.62.62,0,0,0,126.17,20.43Zm-2.51-1.51c-.58,0-1.16,0-1.74,0-.13,0-.28,0-.16-.2.35-.7.7-1.4,1.08-2.18.35.75.65,1.44,1,2.12C123.9,18.83,123.91,18.92,123.66,18.92Z"/><path class="cls-1" d="M149.29,30.08Q148,27.4,146.6,24.72a.65.65,0,0,0-.6-.41.69.69,0,0,0-.64.41c-.91,1.78-1.84,3.57-2.75,5.36a.68.68,0,0,0,.25.94.73.73,0,0,0,.94-.36,5.29,5.29,0,0,0,.25-.54.37.37,0,0,1,.42-.26c.81,0,1.62.06,2.41,0s1.09.13,1.27.78a.52.52,0,0,0,.06.13.55.55,0,0,0,.68.28.65.65,0,0,0,.51-.65A2,2,0,0,0,149.29,30.08Zm-4.49-1.5c.39-.79.77-1.56,1.18-2.37l1.08,2.37Z"/><path class="cls-1" d="M117.35,30l-2.61-5.17c-.14-.29-.3-.53-.66-.53s-.55.24-.7.54L110.76,30a1.48,1.48,0,0,0-.14.32.63.63,0,0,0,.65.78.61.61,0,0,0,.62-.41c.08-.18.18-.35.25-.53a.37.37,0,0,1,.43-.26c.73,0,1.47.05,2.2,0s1.29,0,1.52.88a.56.56,0,0,0,.88.22C117.5,30.75,117.56,30.43,117.35,30Zm-4.47-1.43,1.18-2.37,1.09,2.37Z"/><path class="cls-1" d="M102.84,30.06c-.88-1.75-1.77-3.5-2.65-5.26-.13-.28-.3-.5-.65-.49a.72.72,0,0,0-.66.48c-.3.6-.62,1.2-.92,1.8-.59,1.15-1.19,2.29-1.77,3.44-.28.55,0,1,.55,1a.61.61,0,0,0,.61-.39c.09-.19.2-.37.27-.56a.35.35,0,0,1,.39-.25,21.47,21.47,0,0,0,2.27,0c.73-.06,1.25.08,1.47.86a.51.51,0,0,0,.64.34A.64.64,0,0,0,102.84,30.06Zm-2.48-1.46h-2c.4-.79.78-1.55,1.19-2.38.35.76.66,1.45,1,2.13C100.6,28.52,100.61,28.6,100.36,28.6Z"/><path class="cls-1" d="M167.58,39.73l-2.64-5.26a.72.72,0,0,0-.66-.49.73.73,0,0,0-.66.48L161,39.68a1.11,1.11,0,0,0-.13.3.67.67,0,0,0,.42.74.7.7,0,0,0,.8-.28,5,5,0,0,0,.32-.66.35.35,0,0,1,.4-.24,22.83,22.83,0,0,0,2.34,0c.7-.06,1.19.1,1.37.84a.41.41,0,0,0,.05.09.55.55,0,0,0,.69.26A.64.64,0,0,0,167.58,39.73Zm-2.44-1.47h-2l1.19-2.37,1,2.17C165.35,38.21,165.31,38.26,165.14,38.26Z"/><path class="cls-1" d="M156.45,30.08q-1.33-2.68-2.69-5.35a.65.65,0,0,0-.59-.42.68.68,0,0,0-.65.4q-1.36,2.68-2.75,5.37A.68.68,0,0,0,150,31a.73.73,0,0,0,.94-.36,5.94,5.94,0,0,0,.27-.57.34.34,0,0,1,.37-.23,23.41,23.41,0,0,0,2.37,0c.7-.06,1.16.1,1.35.81a.48.48,0,0,0,.08.16.52.52,0,0,0,.45.24A.64.64,0,0,0,156.45,30.08ZM154,28.59H152l1.19-2.38c.36.79.68,1.5,1,2.21C154.23,28.58,154.14,28.6,154,28.59Z"/><path class="cls-1" d="M80.59,34a22.26,22.26,0,0,0-2.45,0c-.61,0-.84.23-.84.84,0,.85,0,1.71,0,2.56s0,1.79,0,2.69a.62.62,0,0,0,.67.68c.38,0,.6-.24.62-.69a7.37,7.37,0,0,0,0-.94c0-.26.09-.31.32-.3a14.92,14.92,0,0,0,1.64,0,2.42,2.42,0,0,0,0-4.77Zm-.35,3.58c-.47,0-.95,0-1.43,0-.2,0-.23-.07-.22-.24,0-.33,0-.65,0-1s0-.63,0-.94,0-.24.23-.24c.47,0,.94,0,1.4,0a1.18,1.18,0,0,1,1.13,1.22A1.16,1.16,0,0,1,80.24,37.56Z"/></g></g></svg>