<svg xmlns="http://www.w3.org/2000/svg" viewBox="0 0 145.36 83.83"><defs><style>.cls-1{fill:#4b4b4b;}.cls-2{fill:#91979a;}.cls-3{fill:#4c4c4c;}.cls-4{fill:#7b8186;}.cls-5{fill:#f0f0ee;}.cls-6{fill:#454e53;}.cls-7{fill:#dadad8;}.cls-8{fill:#090c0d;}.cls-9{fill:#757c81;}.cls-10{fill:#a7acae;}.cls-11{fill:#c7c8c6;}.cls-12{fill:#324045;}.cls-13{fill:#111416;}.cls-14{fill:#b7baba;}.cls-15{fill:#1b2325;}.cls-16{fill:#73797d;}.cls-17{fill:#1a2226;}.cls-18{fill:#374248;}.cls-19{fill:#515d62;}.cls-20{fill:#3c4d54;}.cls-21{fill:#848c90;}.cls-22{fill:#dee0dc;}.cls-23{fill:#565f64;}.cls-24{fill:#586165;}.cls-25{fill:#bfc2c3;}.cls-26{fill:#676f74;}.cls-27{fill:#414c51;}.cls-28{fill:#535c5f;}.cls-29{fill:#636c71;}.cls-30{fill:#6e767a;}.cls-31{fill:#858d92;}.cls-32{fill:#222d32;}.cls-33{fill:#121719;}.cls-34{fill:#a4a9ad;}.cls-35{fill:#535e63;}.cls-36{fill:#5d666a;}.cls-37{fill:#62696b;}.cls-38{fill:#b3b8bb;}.cls-39{fill:#949a9d;}.cls-40{fill:#fdfeff;}.cls-41{fill:#313c41;}.cls-42{fill:#757b7f;}.cls-43{fill:#576166;}.cls-44{fill:#6f777b;}.cls-45{fill:#3c474d;}.cls-46{fill:#7f8487;}.cls-47{fill:#dcdedb;}.cls-48{fill:#fff;}.cls-49{fill:#80888e;}.cls-50{fill:#465055;}.cls-51{fill:#b7babc;}.cls-52{fill:#979da1;}.cls-53{fill:#787f84;}.cls-54{fill:#9ba2a4;}.cls-55{fill:#5d656a;}.cls-56{fill:#495256;}.cls-57{fill:#ebeceb;}.cls-58{fill:#535d62;}.cls-59{fill:#c3c6c6;}.cls-60{fill:#0f1314;}.cls-61{fill:#bdbfc1;}.cls-62{fill:#bbbec0;}.cls-63{fill:#1d262a;}</style></defs><g id="Layer_2" data-name="Layer 2"><g id="Layer_1-2" data-name="Layer 1"><path class="cls-1" d="M9.29,79.45l2.3-6.18q1.07-2.83,2.12-5.68a.41.41,0,0,1,.51-.33,16.85,16.85,0,0,0,3.55,0c.19,0,.34,0,.33.24s0,.41-.32.4a3.17,3.17,0,0,0-.61.07c-.84.17-1.08.43-1.06,1.29,0,2.45.1,4.9.15,7.35,0,1.52.08,3,.1,4.55s.22,1.64,1.63,1.76c.23,0,.38,0,.37.34s-.07.3-.33.27a22.5,22.5,0,0,0-5.44,0c-.17,0-.33,0-.31-.21s-.07-.39.25-.4a5.43,5.43,0,0,0,.89-.12,1,1,0,0,0,.85-1.14c0-1.31,0-2.63,0-3.94,0-1.63-.07-3.26-.09-4.89,0-1.24,0-2.48,0-3.72H14c-.35,1-.72,1.93-1.07,2.9C11.6,75.6,10.22,79.15,9,82.74c0,.14-.05.3-.28.31s-.27-.18-.32-.34c-1.54-4.42-3.22-8.8-4.83-13.19l-.15-.4H3.24c0,.44,0,.88,0,1.32L2.85,81a2.81,2.81,0,0,0,0,.29c0,1.35.21,1.59,1.56,1.7.14,0,.34-.07.41.13a.75.75,0,0,1,0,.42c-.06.16-.22.07-.34.06a23.62,23.62,0,0,0-4.12,0c-.16,0-.36.11-.35-.2s0-.38.29-.41c1.52-.17,1.65-.33,1.71-1.85.15-3.84.32-7.67.47-11.51,0-1.25-.24-1.56-1.51-1.66-.16,0-.39.1-.48-.17s0-.5.38-.47a15.75,15.75,0,0,0,3.5,0c.37,0,.48.11.6.42C6.33,71.44,7.72,75.2,9.1,79,9.15,79.09,9.2,79.23,9.29,79.45Z"/><path class="cls-1" d="M126.82,73.6c.24-.26.43-.5.64-.7a3.59,3.59,0,0,1,4-.81,3.16,3.16,0,0,1,2.15,3.1c.12,2.17,0,4.34,0,6.5,0,1,.22,1.27,1.27,1.35h.24c.23,0,.21.19.2.35s-.13.17-.27.16a21.22,21.22,0,0,0-4.78,0c-.13,0-.23,0-.23-.14s-.06-.3.14-.35a1.6,1.6,0,0,1,.23,0c1-.09,1.24-.35,1.24-1.34V75.86a9.63,9.63,0,0,0-.09-1.08A2,2,0,0,0,128.91,73,2.34,2.34,0,0,0,127,75.37c-.1,1.91,0,3.82,0,5.74,0,.3,0,.6,0,.9.06.7.3.94,1,1l.33,0c.23,0,.24.15.24.33s-.13.19-.29.18a20.43,20.43,0,0,0-4.69,0c-.15,0-.28,0-.28-.18s0-.33.23-.33h.09c1.28-.13,1.4-.27,1.4-1.55V74.32c0-.11,0-.22,0-.33,0-1-.17-1.13-1.12-1.2-.11,0-.22,0-.33,0s-.26,0-.26-.19,0-.27.22-.29a13.45,13.45,0,0,0,2.81-.63c.25-.09.23.08.25.21C126.68,72.43,126.74,73,126.82,73.6Z"/><path class="cls-2" d="M97.13,15.58A22.48,22.48,0,0,1,99,21a26.7,26.7,0,0,1-2.12,17.86,25.68,25.68,0,0,1-4.5,6.48,26.94,26.94,0,0,1-36.32,2.77A26.79,26.79,0,0,1,45.87,29a26.91,26.91,0,0,1,19.42-28,25.77,25.77,0,0,1,8.77-1A26.81,26.81,0,0,1,89.65,6a2.67,2.67,0,0,1,.64.57.23.23,0,0,1-.13.14c-.2,0-.31-.17-.46-.25a24.27,24.27,0,0,0-4.32-2.92,26.46,26.46,0,0,0-10-3.07A11.3,11.3,0,0,0,73.58.35a26.69,26.69,0,0,0-24,13.45,25.94,25.94,0,0,0-2.89,7.55,20.14,20.14,0,0,0-.49,3.47c0,.27-.14.5-.14.77a1.13,1.13,0,0,1,.32-.71A4.19,4.19,0,0,0,47,24c0-.09.09-.22.25-.16.18.25.08.49,0,.74a2.49,2.49,0,0,1-.56,1,1.86,1.86,0,0,0-.55,1.5A25.52,25.52,0,0,0,46.59,32a17.51,17.51,0,0,0,.91,3.18,2.05,2.05,0,0,1,.16.55,1.32,1.32,0,0,0,.13.64,26.3,26.3,0,0,0,4.68,7.85,24.17,24.17,0,0,0,4.14,3.88c.55.4.65.39,1-.16.24-.06.39.1.56.2a23.31,23.31,0,0,0,2.92,1.55,1.37,1.37,0,0,0,.77.2c1,.36,2,.84,3.1,1.16a.38.38,0,0,1,.26.26.66.66,0,0,1-.24.55c-.33.4-.32.45.2.6a26.39,26.39,0,0,0,4.13.88,22.88,22.88,0,0,0,3.31.18A26,26,0,0,0,84.07,51c.94-.44,1.85-1,2.75-1.48a33,33,0,0,0,3-2.23,26.44,26.44,0,0,0,7.7-10.66,27.24,27.24,0,0,0,1.67-7A21.29,21.29,0,0,0,99.35,27a26.69,26.69,0,0,0-.55-5.2,20.76,20.76,0,0,0-1.13-4.1c-.18-.49-.38-1-.59-1.44a.88.88,0,0,1-.12-.5A.22.22,0,0,1,97.13,15.58Z"/><path class="cls-1" d="M138.9,82.83c1.15,0,2.24,0,3.33,0a2.16,2.16,0,0,0,1.86-1.29,6.56,6.56,0,0,0,.49-1.12c.11-.35.26-.52.67-.37l-.57,3.23c0,.2-.15.24-.33.24h-8.09c2.2-3.61,4.37-7.17,6.57-10.81-1.32,0-2.56-.08-3.8.08a1.63,1.63,0,0,0-1.16.76,7.14,7.14,0,0,0-.71,1.44.36.36,0,0,1-.48.25c-.25-.07-.08-.26-.06-.39.13-.79.28-1.58.4-2.38,0-.28.15-.39.45-.39H145c.12,0,.29-.06.36.05s-.07.26-.14.38l-6.07,10Z"/><path class="cls-1" d="M85.07,82.74c-.17.31-.34.58-.47.86s-.22.2-.39.19-.16-.2-.16-.33V80.05c0-.2,0-.33.27-.35s.3.09.34.29a4.62,4.62,0,0,0,.84,1.94,2.88,2.88,0,0,0,3.91.5,1.87,1.87,0,0,0-.13-3.15c-.81-.47-1.69-.78-2.53-1.19l-1.09-.56A2.57,2.57,0,0,1,84.2,75a2.94,2.94,0,0,1,1.59-2.63,4.25,4.25,0,0,1,4,0,2,2,0,0,1,.25.14l.27.15c.1-.25.22-.47.3-.71a.33.33,0,0,1,.43-.25c.23,0,.15.22.15.34v3.09c0,.19,0,.34-.26.34s-.37,0-.39-.3a3.75,3.75,0,0,0-.39-1.35,2.2,2.2,0,0,0-2.29-1.19,2.13,2.13,0,0,0-2,1.49,1.48,1.48,0,0,0,.69,1.84,21.29,21.29,0,0,0,2.64,1.26c.36.16.73.32,1.07.51a3.1,3.1,0,0,1,.53,5.07,4.56,4.56,0,0,1-5.27.33Z"/><path class="cls-1" d="M47.74,73.55c0,.57,0,1.14,0,1.71,0,.18,0,.31-.25.32s-.32,0-.37-.26a5,5,0,0,0-.64-1.67,2.33,2.33,0,0,0-4.16.11,6.7,6.7,0,0,0-.75,2.77,11.5,11.5,0,0,0,.33,4.41,2.46,2.46,0,0,0,3.14,1.91,2.35,2.35,0,0,0,1.44-1.3,5.17,5.17,0,0,0,.45-1.48c.1-.6.56-.26.84-.29s.18.28.16.44a7.31,7.31,0,0,1-.18.78c-1,3.55-5,3.27-6.64,1.61a5.73,5.73,0,0,1-1.63-3.4,7.66,7.66,0,0,1,1-5.38,4.32,4.32,0,0,1,4.54-2,2.33,2.33,0,0,1,1.3.62c.33.32.48.23.62-.14.07-.19.2-.36.28-.55a.33.33,0,0,1,.41-.21c.22,0,.14.22.14.34C47.75,72.44,47.74,73,47.74,73.55Z"/><path class="cls-1" d="M33.57,73.77a3.64,3.64,0,0,1,1.16-1.48,2.62,2.62,0,0,1,2.56-.35,1.86,1.86,0,0,1,1.09,2.34,1,1,0,0,1-1.29.58.78.78,0,0,1-.59-1.06c.22-.92-.51-1.14-1.12-.92a1.93,1.93,0,0,0-1.07,1,5.84,5.84,0,0,0-.53,2.57c0,1.77,0,3.55,0,5.32C33.79,82.71,34,83,35,83c.13,0,.26,0,.38,0s.15.21.14.35-.1.17-.23.15a22.48,22.48,0,0,0-4.92,0c-.15,0-.25,0-.25-.18s0-.3.17-.32a3.11,3.11,0,0,1,.43,0c.86-.08,1.14-.37,1.14-1.24v-8c0-.89-.19-1.07-1.08-1.12H30.4c-.17,0-.3,0-.3-.24s.15-.23.31-.24a15.17,15.17,0,0,0,2.24-.37,1.28,1.28,0,0,0,.28-.07c.29-.11.42-.05.44.3C33.4,72.59,33.49,73.12,33.57,73.77Z"/><path class="cls-3" d="M96.06,76.38c.78,0,1.55,0,2.32,0,.31,0,.37.09.37.37,0,.92,0,.92-.92.92-1.36,0-2.72,0-4.08,0-.33,0-.46-.06-.45-.44,0-.86,0-.86.86-.86Z"/><path class="cls-4" d="M90.17,6.67l.12-.1A26.17,26.17,0,0,1,97,15.36l.09.22L97,15.7c-.28,0-.25-.51-.61-.44-.3-.2-.36-.56-.54-.84a26,26,0,0,0-3.6-5.27A1,1,0,0,1,92,8.74c-.18-.41-.58-.64-.86-1S90.37,7.15,90.17,6.67Z"/><path class="cls-1" d="M109.72,75.87a4.15,4.15,0,0,0-2-1c1.36-.76,1.82-1.18,2.19-2a3.87,3.87,0,0,0-3.53-5.54c-2.34-.09-4.69,0-7,0-.17,0-.31,0-.29.25s-.05.39.26.39.34,0,.52,0c.87.09,1.16.39,1.21,1.26v.52q0,5.58,0,11.16c0,1.61-.07,1.69-1.66,1.9-.28,0-.36.13-.35.41s.24.23.4.23q3.12,0,6.22,0a6.86,6.86,0,0,0,2.42-.39A4.45,4.45,0,0,0,109.72,75.87Zm-6.29-7.77c.68,0,1.36,0,2,0a2.34,2.34,0,0,1,2.43,2,5.22,5.22,0,0,1,0,2.39,2.49,2.49,0,0,1-2.56,2.16c-.66,0-1.33,0-2,0-.28,0-.32-.12-.3-.34V71.4c0-1,0-1.93,0-2.9C103,68.21,103.11,68.08,103.43,68.1Zm5.11,12.49a2.8,2.8,0,0,1-2.4,2.07,9.4,9.4,0,0,1-2.31,0,.74.74,0,0,1-.75-.81V78.75h0c0-1,0-1.93,0-2.89,0-.32.06-.45.41-.43,1,0,1.9,0,2.84.07a2.47,2.47,0,0,1,2.27,1.91A5.47,5.47,0,0,1,108.54,80.59Z"/><path class="cls-1" d="M71.65,82.66a5.43,5.43,0,0,1-.57,0c-.62-.08-.82-.28-.89-.9,0-.33,0-.67,0-1V68.07c0-1,0-1-.94-.79a22,22,0,0,1-2.43.4c-.16,0-.31,0-.3.28s.19.17.31.2H67c.94,0,1.17.27,1.18,1.21,0,1.41,0,2.82,0,4.34l-.65-.84a2.64,2.64,0,0,0-2.07-1,3.9,3.9,0,0,0-3.71,2.19,8,8,0,0,0-.58,6.12,4.85,4.85,0,0,0,2,2.94,3.43,3.43,0,0,0,5-1s.06-.12.16-.1a7.64,7.64,0,0,0,.23,1.42c0,.15,0,.34.29.26a14,14,0,0,1,2.79-.54c.18,0,.24-.09.23-.27S71.8,82.67,71.65,82.66ZM67.84,81.1a3.44,3.44,0,0,1-.5,1.06,2.07,2.07,0,0,1-3.48,0A5.81,5.81,0,0,1,63,79.33c-.06-.5,0-1-.07-1.35a11.35,11.35,0,0,1,.45-3.62,2.38,2.38,0,0,1,1.54-1.67,2.11,2.11,0,0,1,2.49,1.08,6.83,6.83,0,0,1,.75,3A12.15,12.15,0,0,1,67.84,81.1Z"/><path class="cls-1" d="M121.42,79.78c-.23,0-.34.07-.37.31a4,4,0,0,1-.21.83A2.79,2.79,0,0,1,118,83a2.7,2.7,0,0,1-2.73-2.13,11.59,11.59,0,0,1-.43-2.75c0-.52.15-.59.59-.57,1,0,2,0,3,0s2.19,0,3.28,0c.3,0,.4-.09.36-.38s0-.63-.08-.94a5.31,5.31,0,0,0-1.52-3.43,4.43,4.43,0,0,0-6.92,1.69,8.43,8.43,0,0,0-.13,6.43,4.46,4.46,0,0,0,4.78,2.89A4,4,0,0,0,122,80.48C122.16,79.75,122.16,79.76,121.42,79.78ZM115,76.23a6.14,6.14,0,0,1,1-2.94,2.05,2.05,0,0,1,3.49.18,6.5,6.5,0,0,1,.7,2.87c0,.28-.16.25-.33.25h-2.28c-.73,0-1.46,0-2.19,0C115,76.6,114.91,76.56,115,76.23Z"/><path class="cls-1" d="M28.57,79.79a.7.7,0,0,0-.95.5c-.07.24-.14.49-.23.72A2.75,2.75,0,0,1,24.6,83a2.66,2.66,0,0,1-2.67-2,10.09,10.09,0,0,1-.47-3.18c0-.31.18-.26.37-.26h3.22c.81,0,1.62,0,2.43,0,.39,0,.9.18,1.13-.08s0-.76,0-1.14a5.87,5.87,0,0,0-1.22-3.23,4.43,4.43,0,0,0-7,1,8.52,8.52,0,0,0-.51,6.23,4.41,4.41,0,0,0,4.05,3.45,4.17,4.17,0,0,0,4.8-3.71C28.68,80,28.75,79.85,28.57,79.79Zm-7-3.54a7.22,7.22,0,0,1,.69-2.54,2.15,2.15,0,0,1,2.09-1.29A2.08,2.08,0,0,1,26.23,74a9,9,0,0,1,.47,2.31c0,.29-.09.34-.34.33-.75,0-1.49,0-2.23,0s-1.52,0-2.28,0C21.59,76.6,21.5,76.55,21.54,76.25Z"/><path class="cls-1" d="M58.83,79.81a3.14,3.14,0,0,0-.81,0c-.2,0-.12.26-.16.4s-.13.49-.22.73a2.78,2.78,0,0,1-2.78,2,2.68,2.68,0,0,1-2.73-2.06,10.56,10.56,0,0,1-.45-2.79c0-.54.14-.62.61-.6,1,0,2,0,3,0,.79,0,1.58,0,2.37,0,.41,0,.94.19,1.18-.09s0-.79,0-1.19a5.42,5.42,0,0,0-1.49-3.45,4.46,4.46,0,0,0-7,1.7A8.76,8.76,0,0,0,50,80.05a4.39,4.39,0,0,0,4.17,3.7A4.08,4.08,0,0,0,58.89,80C58.9,80,59,79.82,58.83,79.81Zm-7.07-3.47a5.91,5.91,0,0,1,1-3.07,2,2,0,0,1,3.48.22,6.94,6.94,0,0,1,.69,2.83c0,.27-.12.27-.32.27-.76,0-1.52,0-2.28,0H52.09C51.93,76.59,51.72,76.65,51.76,76.34Z"/><path class="cls-1" d="M81.44,79.78c-.31,0-.45.08-.49.4a3.33,3.33,0,0,1-.23.82,2.76,2.76,0,0,1-2.83,2,2.67,2.67,0,0,1-2.65-2,11.51,11.51,0,0,1-.47-3.09c0-.3.13-.32.37-.32h6.51c.16,0,.36,0,.35-.24a6.73,6.73,0,0,0-1.27-4.18,4.41,4.41,0,0,0-7.09,1,8.31,8.31,0,0,0-.17,7,4.46,4.46,0,0,0,4.73,2.61,4,4,0,0,0,3.74-3.46C82.06,79.78,82.06,79.8,81.44,79.78Zm-6.57-3.57a7.07,7.07,0,0,1,.76-2.62,2.11,2.11,0,0,1,2-1.17,2,2,0,0,1,1.86,1.31A7.42,7.42,0,0,1,80,76.31c0,.26-.11.28-.31.28-.76,0-1.52,0-2.28,0s-1.45,0-2.18,0C75,76.6,74.82,76.54,74.87,76.21Z"/><path class="cls-5" d="M66,2.42c-.91.34-1.85.6-2.75,1A31.24,31.24,0,0,0,59.72,5.1a.9.9,0,0,1-.42.13c-.62.45-1.29.83-1.9,1.29a33.53,33.53,0,0,0-2.58,2.19A25,25,0,0,0,50,15.21a24.4,24.4,0,0,0-2.59,8.06,5.29,5.29,0,0,1-.13.54l-.06.05c-.23.73-1,1.14-1.18,1.9A26.69,26.69,0,0,1,73.54.23c.13.2,0,.33-.14.45s-.42.43-.62.65a.74.74,0,0,1-.62.17,24.24,24.24,0,0,0-5.87.77A.56.56,0,0,0,66,2.42Z"/><path class="cls-6" d="M74.31,52.38a25.61,25.61,0,0,0,10.16-2.82c.12-.06.22-.17.38-.14a10.21,10.21,0,0,0,1.46,0c.22,0,.45,0,.63.14A22.42,22.42,0,0,1,82,52a26.65,26.65,0,0,1-7.22,1.58c-.71.05-1.42.06-2.13.06a1.34,1.34,0,0,1-.12-1c0-.21.16-.28.37-.28A10.47,10.47,0,0,0,74.31,52.38Z"/><path class="cls-7" d="M66,2.42c.32-.34.77-.3,1.16-.39a20.26,20.26,0,0,1,5.15-.59.37.37,0,0,0,.37-.14c.27-.39.73-.61.91-1.07a20.68,20.68,0,0,1,3.85.38,27.08,27.08,0,0,1,7.37,2.45l.74.41a1.28,1.28,0,0,1-1,.93,25.17,25.17,0,0,0-7-2.43,22.63,22.63,0,0,0-2.85-.35c-.69,0-1.38-.06-2.08-.07A26.36,26.36,0,0,0,66,2.42Z"/><path class="cls-8" d="M97.58,36.78a25.69,25.69,0,0,1-3.66,6.47,31.86,31.86,0,0,1-3.2,3.47c-.26.25-.54.47-.82.71a2.63,2.63,0,0,1-1.57,0c-.2-.3.13-.39.26-.49.59-.45,1.12-1,1.68-1.44A23.14,23.14,0,0,0,93,42.6,25.52,25.52,0,0,0,96.47,37c.08-.17.14-.35.35-.42S97.41,36.41,97.58,36.78Z"/><path class="cls-9" d="M74.31,52.38a3.24,3.24,0,0,1-1.2.08c-.34,0-.45.1-.43.43a6.94,6.94,0,0,1,0,.79,24.75,24.75,0,0,1-7.83-1.14c-.33-.09-.35-.26-.15-.52s.51-.35.47-.71a26.93,26.93,0,0,0,8.65,1.06A3.85,3.85,0,0,1,74.31,52.38Z"/><path class="cls-10" d="M95.09,14.75c-.62-1-1.2-2-1.9-2.92a29.14,29.14,0,0,0-3.14-3.52c-.1-.09-.19-.2-.29-.31.21-.24.41-.17.62,0l.17.16c.08.09.18.15.28.05a.16.16,0,0,0,0-.28c-.47-.31-.47-1-1-1.25a.2.2,0,0,1,0-.3l.38.28a6.52,6.52,0,0,1,1,1c.23.36.62.59.86,1,.46.66,1,1.26,1.5,1.91A31.57,31.57,0,0,1,96,14.36C95.69,14.91,95.47,15,95.09,14.75Z"/><path class="cls-11" d="M89.79,6.39a.07.07,0,0,0,0,.05c.5.38.61,1.07,1.14,1.44.17.11.22.25,0,.41s-.3.28-.48,0-.38-.48-.74-.3c-1-.71-1.85-1.51-2.85-2.16A25.16,25.16,0,0,0,84.47,4.4a3.53,3.53,0,0,0,1-.93A24,24,0,0,1,89.79,6.39Z"/><path class="cls-12" d="M47.71,32.12c.29,1,.51,2,.86,3a33.61,33.61,0,0,0,1.52,3.61c-.2.51-.62.31-1,.3a.51.51,0,0,1-.27-.25A26.57,26.57,0,0,1,47.57,36a.23.23,0,0,1,0-.14,28.22,28.22,0,0,1-1.09-3.49.86.86,0,0,1,0-.23A1.31,1.31,0,0,1,47.71,32.12Z"/><path class="cls-13" d="M47.71,32.12H46.48A21.48,21.48,0,0,1,46,27a2.32,2.32,0,0,1,.58-1.21,2.1,2.1,0,0,0,.55-1.17,2.44,2.44,0,0,0,.09-.76h0c.25.07.11.25.11.39a28.12,28.12,0,0,0,.17,6.61A6.52,6.52,0,0,0,47.71,32.12Z"/><path class="cls-14" d="M47.59,35.84A22.69,22.69,0,0,0,49.05,39a1.41,1.41,0,0,1,.34.39A25,25,0,0,0,51.28,42a28.4,28.4,0,0,0,5.77,5.39c.23.16.5.28.62.56-.12.61-.48.74-1,.33A29.46,29.46,0,0,1,53,45a26.75,26.75,0,0,1-4.52-6.73c-.31-.64-.57-1.3-.83-2C47.56,36.15,47.41,36,47.59,35.84Z"/><path class="cls-15" d="M97.58,36.78c-.26-.19-.56-.06-.84-.09-.12-.25,0-.46.12-.67a26.68,26.68,0,0,0,1.73-6.69v-.19c0-.46.09-.93.13-1.4,0-.12,0-.24.07-.37.06-.49.21-.57.68-.37a26.91,26.91,0,0,1-1,7.41A13.65,13.65,0,0,1,97.58,36.78Z"/><path class="cls-16" d="M57.67,48a27.22,27.22,0,0,1-5-4.17,14.06,14.06,0,0,1-1.48-1.71c.21-.2.53-.14.76-.29.74.84,1.4,1.75,2.17,2.56a26.39,26.39,0,0,0,6.22,4.85,11.66,11.66,0,0,0,1.49.77c-.14.14-.26,0-.39,0A25.75,25.75,0,0,1,57.67,48Z"/><path class="cls-17" d="M88.28,47.33a7.32,7.32,0,0,0,1.62.1,28.83,28.83,0,0,1-3,2.17H85.05c-.12,0-.28,0-.2-.18L85,49.3a23.11,23.11,0,0,0,3-1.89C88.11,47.36,88.17,47.26,88.28,47.33Z"/><path class="cls-18" d="M99.47,27c-.4-.06-.63,0-.56.51a.25.25,0,0,1-.08.25.63.63,0,0,1-.16-.52,24.74,24.74,0,0,0-.27-4.94,1,1,0,0,1,0-.42c.09-.26.24-.36.5-.2A22.17,22.17,0,0,1,99.47,27Z"/><path class="cls-19" d="M98.91,21.68c-.16,0-.34-.06-.38.19-.26,0-.2-.27-.26-.43s0-.34-.11-.51a25.57,25.57,0,0,0-1.64-5.18c-.07-.17-.21-.33-.08-.53s.28-.07.36.08a3.75,3.75,0,0,1,.21.4,32.17,32.17,0,0,1,1.29,3.43A11.15,11.15,0,0,1,98.91,21.68Z"/><path class="cls-20" d="M47.13,24.62a1.57,1.57,0,0,1-.37,1.15A3.83,3.83,0,0,0,46,27a1.94,1.94,0,0,1,.6-1.51A2.52,2.52,0,0,0,47.13,24.62Z"/><path class="cls-21" d="M96.44,15.22a28.78,28.78,0,0,1,1.74,5.19c0,.16,0,.34.08.51,0,.59-.23.74-.66.48a33.79,33.79,0,0,0-1.35-4.17c-.35-.85-.77-1.66-1.16-2.48.46.26.59-.25.87-.39A5.56,5.56,0,0,0,96.44,15.22Z"/><path class="cls-2" d="M92.08,8.67a2.61,2.61,0,0,1-.86-1C91.53,8,91.93,8.23,92.08,8.67Z"/><path class="cls-22" d="M94.54,39.53a21.42,21.42,0,0,1-2.47,3.57A26,26,0,0,1,86.66,48,25,25,0,0,1,78.4,51.5a28.87,28.87,0,0,1-4.05.6,26.8,26.8,0,0,1-6.58-.42s-.08,0-.12-.07c-.68-.29-.69-.29-.13-.85A2.5,2.5,0,0,1,68,50.3c.72,0,1.4.2,2.11.26a26.24,26.24,0,0,0,4.25.09A23.75,23.75,0,0,0,92.57,40a1.82,1.82,0,0,1,.29-.38,1.69,1.69,0,0,1,.88-.3c-.79-.49-1.63-.93-2.43-1.41a7.76,7.76,0,0,1-1.55-1c0-.47.26-.3.46-.19L92,37.8c.58.34,1.15.71,1.82,1a1.07,1.07,0,0,0-.51-.6c-2.41-1.77-4.84-3.51-7.26-5.27-2.81-2.06-5.64-4.08-8.44-6.15a4.54,4.54,0,0,1-.5-.36,1.59,1.59,0,0,0-2-.24c-.26.13-.53.22-.79.33s-.3.12-.38-.05.08-.22.19-.29a11.93,11.93,0,0,1,1.4-.9c.07,0,.11-.1.16-.16a1.53,1.53,0,0,1,.55-.39.5.5,0,0,1,.21,0c1.21.84,2.34,1.77,3.51,2.66,2.36,1.79,4.7,3.59,7,5.39,2.06,1.59,4.14,3.16,6.2,4.77.08.07.18.12.26.2s.34.11.46-.12a25.05,25.05,0,0,0,1.15-2.6,23.25,23.25,0,0,0,1.32-6,15.49,15.49,0,0,0,.12-2.36,2,2,0,0,1,0-.42c0-.13,0-.28.15-.32s.19.08.27.16a2.82,2.82,0,0,1,.83,1.61,7.3,7.3,0,0,1,0,.94A26.51,26.51,0,0,1,97,33.37c-.26,1.05-.63,2.07-1,3.08a1.73,1.73,0,0,1-.28.58c-.09.27-.24.52-.35.79A9.86,9.86,0,0,0,94.54,39.53Z"/><path class="cls-23" d="M61.86,5.63A33.11,33.11,0,0,0,58.1,8.07a24.5,24.5,0,0,0-4.84,5c-.64.9-1.18,1.86-1.76,2.8a14.33,14.33,0,0,1-1.74,1.83c-.21.21-.25.19-.45.06a20.61,20.61,0,0,1,2.13-4.25A25.2,25.2,0,0,1,62.87,3.8c.26-.11.52-.19.79-.29.16.25,0,.38-.18.52C62.94,4.57,62.41,5.11,61.86,5.63Z"/><path class="cls-24" d="M75.83,2.3A7.22,7.22,0,0,0,73.93,2a.1.1,0,0,1,0-.17,24.21,24.21,0,0,1,9.53,2.36,25.16,25.16,0,0,1,9,7.21,2.68,2.68,0,0,1,.18.28c-.26.32-.62.22-1,.22a.72.72,0,0,1-.46-.3,25.62,25.62,0,0,0-5-4.87,24.33,24.33,0,0,0-5.61-3,25.35,25.35,0,0,0-4.1-1.2A1.14,1.14,0,0,1,75.83,2.3Z"/><path class="cls-25" d="M67.94,50.37c-.13.42-.58.6-.81,1l.63.19s0,0,0,0l-.09,0a24.64,24.64,0,0,1-10.49-4.86,12.51,12.51,0,0,1-1.77-1.57c-.28-.3-.6-.58-.88-.89l-.45-.46a1.25,1.25,0,0,0-.28-.36c-.19-.23-.13-.35.16-.38a2.44,2.44,0,0,1,.66.58,26.54,26.54,0,0,0,2.61,2.47c.3.25.59.51.91.74a26.45,26.45,0,0,0,4.21,2.59.44.44,0,0,0,.59-.07,1.24,1.24,0,0,1,.66-.43,2.19,2.19,0,0,1,.56.14,24.82,24.82,0,0,0,3.38,1C67.69,50.17,67.88,50.16,67.94,50.37Z"/><path class="cls-26" d="M61.86,5.63c.22-.53.74-.8,1.08-1.22s.65-.46.72-.9a22.12,22.12,0,0,1,5-1.39c.34-.06.68-.08,1-.12a.54.54,0,0,1-.19.46,3.58,3.58,0,0,1-2.14,1.23,20.91,20.91,0,0,0-5.24,1.83C62.07,5.57,62,5.59,61.86,5.63Z"/><path class="cls-27" d="M91.58,11.81a3.35,3.35,0,0,0,1.09-.11,22.78,22.78,0,0,1,3.78,7c-.37.11-.77,0-1.14.13-.23,0-.25-.25-.31-.41s-.23-.61-.35-.91a25.65,25.65,0,0,0-2.92-5.31A.45.45,0,0,1,91.58,11.81Z"/><path class="cls-28" d="M88.28,47.33c-.86.59-1.71,1.2-2.62,1.72a1.16,1.16,0,0,1-.64.25,31.37,31.37,0,0,0,4.26-3,25.23,25.23,0,0,0,8.6-15.43c.07-.44.13-.88.2-1.31.18-.18.34-.38.63-.39a23.74,23.74,0,0,1-.82,4.26c-.31,1.11-.75,2.17-1.15,3.25a26.63,26.63,0,0,1-6,8.58A30,30,0,0,1,88.28,47.33Z"/><path class="cls-29" d="M49.31,17.78c.26.09.36-.12.5-.25.57-.54,1.13-1.1,1.69-1.64a38.55,38.55,0,0,0-1.57,3.89,17.88,17.88,0,0,0-.6,2.37.88.88,0,0,1-.35.59c-.42.31-.66.84-1.2,1A21.06,21.06,0,0,1,49.31,17.78Z"/><path class="cls-30" d="M98.71,29.18c-.2.15-.36.36-.63.39.08-1.23.11-2.46.08-3.7a22.92,22.92,0,0,0-.56-4.28.61.61,0,0,1,0-.19c.46.17.56-.15.66-.48.18.29.08.66.27.95a34.11,34.11,0,0,1,.3,5.89Z"/><path class="cls-31" d="M47.81,30.51a1.59,1.59,0,0,1,.56-.81c.12-.12.22-.15.36,0s.14.27.15.43A19.39,19.39,0,0,0,50,36a1.2,1.2,0,0,1,.12.59c-.1.25-.25.41-.55.36a25.73,25.73,0,0,1-1.8-6.27A1.08,1.08,0,0,1,47.81,30.51Z"/><path class="cls-32" d="M95.3,18.83c.36-.35.76-.19,1.15-.1a17.53,17.53,0,0,1,1,4.09,3.13,3.13,0,0,1-1.22,0c-.17-.07-.2-.22-.24-.38-.23-1.07-.43-2.15-.76-3.2A.39.39,0,0,1,95.3,18.83Z"/><path class="cls-33" d="M96.25,22.72a3.41,3.41,0,0,1,1.23.1,22.07,22.07,0,0,1,.34,5.5l-.06.76c-.24-.08-.09-.26-.11-.39v-1a3.66,3.66,0,0,0-.8-2.13A4.7,4.7,0,0,1,96.14,23,.31.31,0,0,1,96.25,22.72Z"/><path class="cls-34" d="M49.61,37l.47-.28c.22.06.28.24.34.42a17,17,0,0,0,.76,1.62c.09.19.18.39.29.58l.07.12a22.91,22.91,0,0,0,2.23,3.23c.11.14.27.27.19.5-.21,0-.3.09-.12.28s.24.21.22.4a22.43,22.43,0,0,1-3.41-4.75A16,16,0,0,1,49.61,37Z"/><path class="cls-35" d="M52,41.82c-.14.4-.49.23-.76.29A18.31,18.31,0,0,1,49.05,39c.36,0,.74.13,1-.2Z"/><path class="cls-36" d="M47.34,24.26c-.06-.12,0-.29-.11-.39A25.09,25.09,0,0,1,50,15.13a24.12,24.12,0,0,1,4.88-6.47s0,0,0,.07,0,0,0,0a25.39,25.39,0,0,0-7.07,13C47.6,22.61,47.48,23.44,47.34,24.26Z"/><path class="cls-37" d="M97.65,28.69c.06.12,0,.28.11.39a21.1,21.1,0,0,1-.87,4.86A13,13,0,0,1,96,36.45a4.34,4.34,0,0,1,.37-1.21A24.89,24.89,0,0,0,97.59,29C97.59,28.86,97.57,28.76,97.65,28.69Z"/><path class="cls-38" d="M54.84,8.77V8.66a18,18,0,0,1,3.3-2.73,6.59,6.59,0,0,1,1.17-.7,5,5,0,0,1-1.21.88,27.66,27.66,0,0,0-2.84,2.35A3.15,3.15,0,0,1,54.84,8.77Z"/><path class="cls-39" d="M94.54,39.53c-.07,0-.11-.09-.07-.14a15.86,15.86,0,0,1,.85-1.57s0,0,.07,0C95.16,38.42,94.82,39,94.54,39.53Z"/><path class="cls-26" d="M73.93,1.85V2a10.89,10.89,0,0,1-1.52-.19A9.66,9.66,0,0,1,73.93,1.85Z"/><path class="cls-34" d="M54.51,44.29a2.5,2.5,0,0,1,.88.89A3,3,0,0,1,54.51,44.29Z"/><path class="cls-26" d="M70.59,1.92c.15.13.06.23-.07.26s-.36,0-.39-.23Z"/><path class="cls-37" d="M95.39,37.82h-.07a3,3,0,0,1,.37-.79C95.71,37.34,95.5,37.56,95.39,37.82Z"/><path class="cls-26" d="M71.93,1.83a1.23,1.23,0,0,1-.56.18c-.13,0-.16,0-.11-.16Z"/><path class="cls-40" d="M69.57,25.08l1.41.68a.19.19,0,0,1,.18,0,3.72,3.72,0,0,0,.71.38c.17,0,.31.27.51.06a1,1,0,0,0,.07-.6q0-5.05,0-10.11a4.78,4.78,0,0,1,0-.76,4.16,4.16,0,0,0,.06-1.22c0-.9,0-1.79,0-2.69,0-1.17,0-2.34,0-3.51s0-2.08,0-3.12c0-.22-.05-.49.25-.6a.63.63,0,0,1,.14.44c0,.16,0,.32,0,.47,0,7,.15,14.08.1,21.12,0,.21-.15.53.24.62a3.83,3.83,0,0,0,.78-.4c.44-.21.89-.4,1.31-.64.11-.06.22-.14.35,0s-.16.21-.26.28A12.12,12.12,0,0,0,74,26.52c.52-.2,1.06-.36,1.56-.6a1.22,1.22,0,0,1,1.35.22q4.1,3,8.21,6l7.56,5.51c.3.22.61.41.89.63s.48.34.36.75a11,11,0,0,1-1.51-.83c-.77-.44-1.52-.91-2.28-1.36-.13-.08-.28-.23-.36.06-.23.07-.4-.07-.57-.17-2.36-1.32-4.69-2.68-7-4-2.89-1.63-5.76-3.3-8.65-4.92-.14-.08-.28-.23-.47-.13-.11.48,0,1-.06,1.45a3.1,3.1,0,0,1-.08.42c0,.12,0,.28-.17.3s-.18-.14-.24-.25a2.72,2.72,0,0,1-.05-.7,8,8,0,0,0,0-.85c0-.5,0-.52-.46-.28-1.35.73-2.67,1.51-4,2.27L56,36.87,52.17,39c-.21.12-.42.37-.72.18a1,1,0,0,1-.06-.6.38.38,0,0,1,.13-.26c.75-.43,1.4-1,2.11-1.51,3-2.16,5.93-4.32,8.91-6.47l6.26-4.55C69.09,25.61,69.47,25.48,69.57,25.08Z"/><path class="cls-41" d="M73,27.39a14.51,14.51,0,0,1,2,1.07l14.57,8.3.26.12L93.45,39l.42.27a2.81,2.81,0,0,1-.93.38.7.7,0,0,1-.29.08c-1.62-.57-3.18-1.29-4.78-1.91a7.11,7.11,0,0,1-1.47-.64,5.42,5.42,0,0,0-1.53-.74c-2.18-.93-4.39-1.8-6.56-2.76a11.25,11.25,0,0,1-2.43-1.39,10.41,10.41,0,0,1-2.86-4A1.12,1.12,0,0,1,73,27.39Z"/><path class="cls-42" d="M96.25,22.72A5.16,5.16,0,0,0,97.31,26a2.16,2.16,0,0,1,.35,1.71,3.12,3.12,0,0,0-1-1.66c-.07.76,0,1.5-.07,2.22a24,24,0,0,1-2.52,9.5c-.2.39-.32.43-.67.15L76.52,25l-.14-.13c-.25-2.63-.66-5.23-1-7.84-.55-3.93-1.06-7.86-1.63-11.79A2.36,2.36,0,0,1,73.66,4c.3-.2.27.1.3.22a15.64,15.64,0,0,1,.26,1.69c.83,6,1.71,12.09,2.56,18.13a1.38,1.38,0,0,0,.61,1c2.38,1.83,4.74,3.69,7.11,5.55L93,37.22l.18.15c.45.33.52.31.76-.19A23.49,23.49,0,0,0,96.19,29a25.26,25.26,0,0,0,0-4.26A23.4,23.4,0,0,0,94,16.81,21.77,21.77,0,0,0,91.69,13a1.42,1.42,0,0,1-.33-.57.19.19,0,0,1,.1-.18c.36.06.49.38.66.63a22.18,22.18,0,0,1,2.45,4.35.51.51,0,0,0,.17.28c.27.41.32.91.56,1.33C95.62,20.13,95.93,21.43,96.25,22.72Z"/><path class="cls-43" d="M73.75,3.9a17.82,17.82,0,0,0,.3,2.62c.16,1.35.36,2.71.55,4.06.13,1,.27,1.93.4,2.89l.54,3.78.63,4.57c.11.81.22,1.61.31,2.43,0,.19.09.41-.1.58h-.17A22.84,22.84,0,0,0,75.88,22a7.44,7.44,0,0,1-1.73,3.83.13.13,0,0,0,0,.09,2,2,0,0,1-.68.37c-.2,0-.1-.16,0-.22a7.3,7.3,0,0,0,.87-1.63,8.34,8.34,0,0,0,.54-2.73,33.88,33.88,0,0,0-.22-5.87c-.25-2.16-.48-4.33-.72-6.5-.17-1.57-.34-3.13-.52-4.7a12.12,12.12,0,0,1-.19-1.91c.31,0,.34.3.47.49s.12.29.17.44A.29.29,0,0,1,73.75,3.9Z"/><path class="cls-44" d="M92.66,39.62l.28,0a23.76,23.76,0,0,1-18.5,11.12,26.24,26.24,0,0,1-6.5-.39c-1.09-.31-2.21-.53-3.28-.94l-.61-.23a.13.13,0,0,1,0-.2.83.83,0,0,1,.6.08,22.13,22.13,0,0,0,5.43,1.28,25.75,25.75,0,0,0,4.12.09,24.13,24.13,0,0,0,6.3-1.26,23.77,23.77,0,0,0,11.88-9.25A1.08,1.08,0,0,1,92.66,39.62Z"/><path class="cls-45" d="M74.13,26c-.17-.12,0-.2,0-.3A7.07,7.07,0,0,0,75.74,22a.32.32,0,0,1,.25-.32c0,1.06.5,2.05.22,3.11-.11.2-.37.19-.49.37Z"/><path class="cls-46" d="M74.31,24.62a8.3,8.3,0,0,1-.86,1.71c-.13.12-.3.25-.46.18s-.09-.31-.09-.48c0-4.68,0-9.36-.06-14,0-2.78,0-5.56-.07-8.35a.94.94,0,0,1,0-1.05l.17.1c.43.43.31,1,.37,1.52.15,1.33.28,2.66.41,4s.21,2.52.32,3.78c.17,1.86.31,3.72.45,5.57a49.84,49.84,0,0,1,.1,5.6A4.45,4.45,0,0,1,74.31,24.62Z"/><path class="cls-47" d="M72.8,2.59l0,1.05c-.14.15-.07.33-.07.5,0,1.07,0,2.14,0,3.21a6.35,6.35,0,0,0-.08,1.07c0,1.68,0,3.35,0,5-.08,2.9-.08,5.8-.1,8.7,0,1.22,0,2.43,0,3.64a1.31,1.31,0,0,1-.13.73l-.49-.27a1.07,1.07,0,0,1,0-.47,31.07,31.07,0,0,0,.09-4c0-3.46.08-6.92.13-10.38,0-2.22,0-4.45.07-6.68,0-.21,0-.42.05-.71-.14,2.24-.44,4.38-.62,6.54a2.62,2.62,0,0,1-.09.56c-.12,1.77-.36,3.52-.51,5.28-.25,2.78-.63,5.56-.87,8.34a.39.39,0,0,1-.09.26l-.33-.18a.8.8,0,0,1-.46-.93c.26-1.81.47-3.63.71-5.44.27-2.13.56-4.25.84-6.38l1.14-8.72A.86.86,0,0,1,72.8,2.59Z"/><path class="cls-48" d="M69.94,25a7.66,7.66,0,0,1,.13-2.24c.08-1,.23-2,.34-3s.24-2.22.35-3.33.22-2.06.32-3.09c.06-.72.12-1.44.19-2.16.36-.07.37.21.41.43a5,5,0,0,1,0,1.09c-.17,1.7-.08,3.4-.08,5.11,0,2.44-.17,4.88-.11,7.33,0,.31.06.7-.44.76l-.09-.1C70.69,25.43,70.25,25.31,69.94,25Z"/><path class="cls-47" d="M69.57,25.08c.19.36-.12.42-.32.57-1.7,1.22-3.4,2.44-5.1,3.68-2.42,1.75-4.84,3.52-7.26,5.28l-5,3.67a.71.71,0,0,1-.25.11.13.13,0,0,1,0-.18q3.1-2.37,6.2-4.75,5.49-4.22,11-8.45C69.1,24.73,69.32,24.9,69.57,25.08Z"/><path class="cls-49" d="M73.73,3.73c-.15-.13-.06-.31-.1-.47.11-.31.25-.54.59-.23s.37.12.58,0c.36-.22.57-.64,1-.71A14.38,14.38,0,0,1,78.72,3a11.3,11.3,0,0,1,2,.69c-.17.66-.18.67.55.91A23.12,23.12,0,0,1,86,7a25.33,25.33,0,0,1,3.56,2.88,20.09,20.09,0,0,1,1.79,2c.1.11.22.24.15.42l-.09.09c-.28,0-.37-.22-.5-.38a22,22,0,0,0-4.14-3.93,23.48,23.48,0,0,0-11.38-4.5,8.76,8.76,0,0,0-1-.09A.75.75,0,0,0,73.73,3.73Z"/><path class="cls-26" d="M74.31,24.62A22.8,22.8,0,0,0,74.48,20c0-1.76-.17-3.52-.35-5.27-.1-.92-.13-1.85-.21-2.78-.11-1.34-.25-2.69-.36-4-.08-.88-.1-1.76-.22-2.64A8.1,8.1,0,0,0,73,2.69c.13-.12.14,0,.19.08a8.26,8.26,0,0,1,.37,2.31c.19,1.36.33,2.71.47,4.07.11,1,.2,2,.31,3,.14,1.28.31,2.55.45,3.83.09.78.18,1.56.2,2.34,0,1,0,2.07,0,3.11a10.54,10.54,0,0,1-.47,2.83A.63.63,0,0,1,74.31,24.62Z"/><path class="cls-50" d="M51.6,38.21v.18l-.1.19c-.08.15-.18.28-.38.2-.43-.65-.65-1.42-1-2.1s-.54-1.64-.74-2.48a17.86,17.86,0,0,1-.61-4.54v-2c.21.95.24,1.92.38,2.87a24.26,24.26,0,0,0,1.57,5.63C51,36.87,51.29,37.53,51.6,38.21Z"/><path class="cls-51" d="M91.5,12.28a20.4,20.4,0,0,0-3.81-3.9c-.56-.45-1.13-.88-1.7-1.33,0-.17,0-.36.28-.37a24.41,24.41,0,0,1,5,4.81l.28.32a24.54,24.54,0,0,1,3.16,5.69c-.21,0-.21-.22-.27-.35A21.68,21.68,0,0,0,91.5,12.28Z"/><path class="cls-52" d="M86.27,6.68,86,7.05a6.82,6.82,0,0,1-1.39-.79,22.81,22.81,0,0,0-3.69-1.7c-.75-.28-.74-.31-.24-.92A22,22,0,0,1,86.27,6.68Z"/><path class="cls-53" d="M64,49v.17L63.57,49a3.94,3.94,0,0,1-1.36-.51,20.92,20.92,0,0,1-2.94-1.69.56.56,0,0,0-.8,0c-.11.1-.23.23-.41.1a18.77,18.77,0,0,1-2.53-2.18c-.34-.34-.8-.56-1-1,0,0,0,0,0,0,.4-.63.39-.62-.14-1.22a28.6,28.6,0,0,1-1.76-2.34c-.1-.15-.22-.31-.12-.52a.29.29,0,0,1,.38-.09c0,.18.05.29.14.43a24.54,24.54,0,0,0,3.52,4.16,22.78,22.78,0,0,0,6.72,4.46C63.55,48.67,63.91,48.68,64,49Z"/><path class="cls-54" d="M58.06,46.94s.1,0,.13,0c.71-.46.7-.46,1.39,0a29.92,29.92,0,0,0,4,2.13c-.14.11-.33.18-.41.31-.37.61-.77.3-1.17.08A21.69,21.69,0,0,1,58.06,46.94Z"/><path class="cls-55" d="M52.55,39.64a7.87,7.87,0,0,0,1.18,1.78,12,12,0,0,0,1.11,1.34c.32.34.23.55-.08.79l-.23.17L54,43.15c-.43-.58-.86-1.15-1.28-1.73a17,17,0,0,1-1.25-2c.24-.25.46,0,.69,0S52.44,39.49,52.55,39.64Z"/><path class="cls-56" d="M52.07,39.53c-.22,0-.4-.22-.64-.1a.24.24,0,0,1,0-.09c0-.1,0-.12.1-.1L71.63,27.81l.08,0c.86-.49.86-.49.88.52,0,.18,0,.35,0,.53-.09,0-.13,0-.17-.12a1.2,1.2,0,0,1,0-.5,2.64,2.64,0,0,1-.83,1.43A15.7,15.7,0,0,1,68,32.31a74.14,74.14,0,0,1-8.71,4.19c-2.14,1-4.3,1.83-6.45,2.77A3.26,3.26,0,0,1,52.07,39.53Z"/><path class="cls-55" d="M51.51,39.24l-.1.1a1.1,1.1,0,0,1-.3-.56l.38-.2Z"/><path class="cls-57" d="M71.07,25.86a.48.48,0,0,0,.29-.5v-.1c0-3.85.15-7.71.11-11.56,0-.68.1-1.35.08-2,0-.22,0-.46-.28-.53l.82-7.82a.79.79,0,0,1,.12.57c0,2.13.08,4.27,0,6.39-.11,2.52,0,5-.09,7.53s0,4.7-.08,7.06a4.24,4.24,0,0,1-.19,1.37A2,2,0,0,1,71.07,25.86Z"/><path class="cls-58" d="M73,27.39a3.1,3.1,0,0,0,.67,1.88,11.79,11.79,0,0,0,1.61,2.33,8.22,8.22,0,0,0,2,1.38A42.3,42.3,0,0,0,82,35.07l4.14,1.73a.66.66,0,0,1,.37.29c-.31.15-.56-.06-.81-.16-4.07-1.65-8.16-3.26-12.23-4.93a1.65,1.65,0,0,0-1.36,0Q64.53,35.05,57,38.07c-.25.1-.5.31-.81.16,0-.32.26-.33.44-.4L63,35.18c2.24-.93,4.49-1.83,6.71-2.79.74-.31,1.49-.62,2.24-.9a.68.68,0,0,0,.54-.8,1.47,1.47,0,0,1,.12-1.14l.13.17A8.77,8.77,0,0,0,72.88,28C72.89,27.77,72.79,27.55,73,27.39Z"/><path class="cls-59" d="M72.32,26.51c0-.94,0-1.89.06-2.83.07-2,0-4,0-6.06.08-3.1.07-6.21.09-9.32a2.22,2.22,0,0,1,.17-1v3.5c-.09,1,0,2,0,2.92a5.46,5.46,0,0,1,0,1c0,3.66,0,7.33,0,11C72.58,26,72.68,26.36,72.32,26.51Z"/><path class="cls-60" d="M72.61,29.55a9.46,9.46,0,0,0,0,1.41c0,.32-.07.41-.32.51-.86.33-1.72.69-2.58,1-.13-.23.06-.36.2-.47a6.53,6.53,0,0,0,2.24-3c0-.14.09-.32.32-.28l.09.1Z"/><path class="cls-61" d="M82.09,32.25,73.19,27l.07-.12,8.92,5.23Z"/><path class="cls-62" d="M71.14,27.67l-5.2,3.06-.07-.12,5.2-3.06Z"/><path class="cls-47" d="M72.61,14.76c0-1.19,0-2.37,0-3.55,0-.13,0-.26.08-.36,0,1.18,0,2.36,0,3.55A.47.47,0,0,1,72.61,14.76Z"/><path class="cls-63" d="M56.16,38.22l-3.23,1.31a.65.65,0,0,0-.38.11,1,1,0,0,1-.48-.11,30.18,30.18,0,0,1,3-1.32l5.39-2.33c1.62-.72,3.25-1.41,4.83-2.19a26.85,26.85,0,0,0,5.39-3.32,4.8,4.8,0,0,0,1.85-2.49v.83c-.18.07-.19.24-.24.38a6.28,6.28,0,0,1-2.19,3c-.15.11-.31.22-.33.43-1.27.54-2.54,1.09-3.82,1.62L56.51,38C56.38,38,56.23,38.07,56.16,38.22Z"/></g></g></svg>