<svg xmlns="http://www.w3.org/2000/svg" viewBox="0 0 108.59 77.69"><defs><style>.cls-1{fill:#3a3a3a;}.cls-2{fill:#7c7c7c;}</style></defs><g id="Layer_2" data-name="Layer 2"><g id="Layer_1-2" data-name="Layer 1"><path class="cls-1" d="M76.82,43c0-1.64,0-3.29,0-4.93a54.08,54.08,0,0,0-.39-5.55,15.37,15.37,0,0,0-.53-2.6A5.8,5.8,0,0,0,73,26.43a7.48,7.48,0,0,0-3-.82,18.83,18.83,0,0,0-3.27.12l-3.27.34c-1.12.11-2.25.21-3.37.29-1.47.1-3,.16-4.43.17a32.27,32.27,0,0,1-4.28-.28c-1.59-.2-3.16-.49-4.73-.83-1.83-.42-3.63-.94-5.43-1.49a42.71,42.71,0,0,1-4.64-1.66,5.1,5.1,0,0,1-.78-.38c-.37-.23-.37-.4,0-.61l.91-.47a13.77,13.77,0,0,0,3.09-2.09,7.49,7.49,0,0,0,1.64-2.15,1.87,1.87,0,0,0,.21-.6c0-.28-.1-.39-.37-.29a2.15,2.15,0,0,0-.56.34l-.84.64A9.25,9.25,0,0,1,34,18.51a12.87,12.87,0,0,1-2.69-.34,8.86,8.86,0,0,1-4.68-2.7,11.13,11.13,0,0,1-2.11-3.41l-.32-.81a1.14,1.14,0,0,0-.28-.44c-.14-.12-.25-.1-.35.06a.92.92,0,0,0-.11.33,5.48,5.48,0,0,0-.05.57,12,12,0,0,0,.22,2.33,9.75,9.75,0,0,0,2.05,4.43,3,3,0,0,1,.36.52.92.92,0,0,1-.12,1.21A13.85,13.85,0,0,0,24.61,22a1.59,1.59,0,0,0-.3,1A1.93,1.93,0,0,1,24,24a9,9,0,0,1-.77,1l-.91,1.13a1.24,1.24,0,0,0-.15,1.39,1.72,1.72,0,0,0,.28.47c.43.49.85,1,1.27,1.48a1.58,1.58,0,0,0,1,.54,2.89,2.89,0,0,0,.65.05,3.08,3.08,0,0,1,.61,0,4.31,4.31,0,0,1,3.22,2.22c.53,1,1,2.07,1.57,3.11a26.51,26.51,0,0,0,3.08,4.87,3.38,3.38,0,0,1,.62,1.15,7.15,7.15,0,0,1,.36,1.94,20.31,20.31,0,0,1-.16,3.9,26.38,26.38,0,0,1-1.34,5.17,45,45,0,0,1-2.61,5.7c-.39.73-.79,1.44-1.19,2.17a2.77,2.77,0,0,0-.37,1c-.08.53.15.82.68.82H33.2a1.57,1.57,0,0,0,.49-.08.51.51,0,0,0,.37-.47c0-.13,0-.26,0-.4,0-.38.09-.45.48-.54a.79.79,0,0,0,.64-.65c0-.19,0-.38.07-.58A39.12,39.12,0,0,1,36.06,55a48,48,0,0,1,2.27-7.29,13.07,13.07,0,0,1,1.22-2.42,3.61,3.61,0,0,1,.5-.61.21.21,0,0,1,.32,0c.21.17.44.31.67.47a12.22,12.22,0,0,1,4.29,5.56A18.85,18.85,0,0,1,46.4,56a12.18,12.18,0,0,1-.11,2.63,11.3,11.3,0,0,1-.4,2.07,2.47,2.47,0,0,0-.12.72c0,.49.19.71.68.71h3.72a1.48,1.48,0,0,0,.51-.09.47.47,0,0,0,.32-.44c0-.13,0-.25,0-.38a.52.52,0,0,1,.36-.52l.12,0a.5.5,0,0,0,.33-.57,1.57,1.57,0,0,0,0-.23,24.7,24.7,0,0,0-.65-2.53c-.5-1.6-1.13-3.16-1.74-4.72a41,41,0,0,1-1.74-5.3,5.06,5.06,0,0,1,.24-3.43,4,4,0,0,1,3-2.43,8.21,8.21,0,0,1,2.57,0,10.37,10.37,0,0,1,3.65,1.06.33.33,0,0,0,.39,0l.31-.25a6.79,6.79,0,0,1,2-1.14A2.62,2.62,0,0,1,61.11,41a1.06,1.06,0,0,1,1.08.91,8.74,8.74,0,0,1,.3,3,15.44,15.44,0,0,1-1.07,4.58,25.46,25.46,0,0,1-2.85,5.16,47.6,47.6,0,0,1-4.08,5q-.5.54-1,1.08a1.2,1.2,0,0,0-.33.9.64.64,0,0,0,.65.62h3.73A1.62,1.62,0,0,0,58,62.1a.49.49,0,0,0,.41-.53c0-.13,0-.25,0-.37a.4.4,0,0,1,.31-.41l.15,0a.66.66,0,0,0,.47-.43l.18-.46a34.32,34.32,0,0,1,3.06-6.27A21,21,0,0,1,67,48.5a2.55,2.55,0,0,0,.74-1,9.39,9.39,0,0,0,.46-1.65,21,21,0,0,1,.55-2.21A1.44,1.44,0,0,1,69,44a9.5,9.5,0,0,1,1.56,4.54,14.8,14.8,0,0,1-.23,4.2,24.79,24.79,0,0,1-2.06,6.1c-.31.64-.63,1.26-1,1.88a1.76,1.76,0,0,0-.24.71.63.63,0,0,0,.69.78h3.08a2.59,2.59,0,0,0,.63-.06.54.54,0,0,0,.47-.58c0-.17,0-.34,0-.5a.45.45,0,0,1,.34-.45,1.24,1.24,0,0,1,.47,0h1.9c.45,0,.91,0,1.37,0s.65-.2.74-.66a4.48,4.48,0,0,0,0-.73c0-1.17,0-2.34,0-3.51C76.84,51.41,76.89,47.22,76.82,43Zm-2,2.14c0,.3-.11.46-.3.49s-.34-.1-.43-.39a16.38,16.38,0,0,1-.43-1.84c-.23-1.2-.44-2.39-.66-3.58a4.93,4.93,0,0,1,0-1.58c.11-.79.25-1.57.33-2.37a31.92,31.92,0,0,0,.18-3.66c0-.17,0-.33,0-.5a1.55,1.55,0,0,1,0-.31c0-.12,0-.24.19-.27s.2.09.27.18a1.67,1.67,0,0,1,.23.44,4.55,4.55,0,0,1,.26,1,28.3,28.3,0,0,1,.32,3.31c.07,1.47.07,2.94.08,4.2C74.87,42.05,74.86,43.61,74.8,45.16Z"/><path class="cls-1" d="M25.74,8.36a8.38,8.38,0,1,1,8.36,8.4A8.38,8.38,0,0,1,25.74,8.36Z"/><path class="cls-1" d="M0,72.36c0-1.49,0-3,0-4.48a.83.83,0,0,1,.5-.82,4.29,4.29,0,0,1,1-.34,10.27,10.27,0,0,1,4.13-.22A4.35,4.35,0,0,1,7,67,2.44,2.44,0,0,1,8.3,68.85a5.92,5.92,0,0,1,0,.84v7.15c0,.46-.07.55-.52.53-.26,0-.53,0-.79,0-.49,0-.53,0-.53-.55s0-1,0-1.47V70a3.64,3.64,0,0,0-.1-1A1.65,1.65,0,0,0,5.31,67.7a3.76,3.76,0,0,0-1.56-.18,3.8,3.8,0,0,0-1.06.18l-.37.16a.82.82,0,0,0-.48.8c0,2.69,0,5.38,0,8.07a2.23,2.23,0,0,1,0,.37c0,.18-.1.26-.28.26q-.64,0-1.29,0c-.16,0-.23-.08-.25-.25a2.25,2.25,0,0,1,0-.26Z"/><path class="cls-1" d="M44.33,72.38V68A.84.84,0,0,1,45,67a8.26,8.26,0,0,1,1.6-.44,10.92,10.92,0,0,1,3-.1,4.77,4.77,0,0,1,1.65.45,2.47,2.47,0,0,1,1.39,2,7.37,7.37,0,0,1,0,.82v7.09c0,.51,0,.55-.56.55h-.9c-.29,0-.37-.09-.38-.38,0-.1,0-.21,0-.31V70a4.35,4.35,0,0,0-.09-1,1.66,1.66,0,0,0-1.12-1.24,3.77,3.77,0,0,0-1.53-.17,4.11,4.11,0,0,0-1,.17,3,3,0,0,0-.41.17.82.82,0,0,0-.47.78q0,4,0,8.1c0,.12,0,.23,0,.35s-.1.27-.29.27c-.42,0-.85,0-1.27,0-.18,0-.24-.07-.26-.26s0-.23,0-.34Z"/><path class="cls-1" d="M89.29,77.69a5.78,5.78,0,0,1-2.05-.42,2.89,2.89,0,0,1-.69-.38,1.62,1.62,0,0,1-.32-.32.76.76,0,0,1-.06-.84.82.82,0,0,1,.8-.29,1.2,1.2,0,0,1,.52.25,5,5,0,0,0,.71.49,2.49,2.49,0,0,0,2.45,0,1.72,1.72,0,0,0,.89-1.75,1.45,1.45,0,0,0-.58-1,4.08,4.08,0,0,0-.92-.55l-1.21-.53a5,5,0,0,1-1.56-1,2.83,2.83,0,0,1,1.12-4.65,5,5,0,0,1,3.51,0,1.64,1.64,0,0,1,.65.4.73.73,0,0,1,.12.93.78.78,0,0,1-.92.26,3.53,3.53,0,0,1-.59-.35,2.22,2.22,0,0,0-1.87-.29,1.55,1.55,0,0,0-1.14,1.75,1.32,1.32,0,0,0,.4.75,3.13,3.13,0,0,0,.91.62c.51.25,1,.48,1.53.72a8,8,0,0,1,1,.56,3,3,0,0,1-.32,5A4.81,4.81,0,0,1,89.29,77.69Z"/><path class="cls-1" d="M24.49,74.76c.28-.84.57-1.67.85-2.5q.91-2.66,1.81-5.31c.11-.3.12-.31.44-.31h.87c.23,0,.3.1.24.32s-.08.26-.12.38L25,77a1.67,1.67,0,0,1-.08.2.26.26,0,0,1-.25.16h-.87a.26.26,0,0,1-.25-.16,2.55,2.55,0,0,1-.13-.29q-1.85-4.86-3.7-9.73L19.69,67c-.08-.25,0-.37.26-.38h.69c.21,0,.42,0,.63,0a.34.34,0,0,1,.38.26c.1.29.2.58.31.87.8,2.24,1.59,4.49,2.39,6.73C24.39,74.59,24.39,74.69,24.49,74.76Z"/><path class="cls-1" d="M94.68,70.06v-6.8c0-.51,0-.52.52-.52h1c.26,0,.31.06.32.31a1.92,1.92,0,0,1,0,.24V76.77a2.32,2.32,0,0,1,0,.37c0,.17-.06.22-.23.23H94.91c-.16,0-.21-.07-.22-.24a2.71,2.71,0,0,1,0-.29Z"/><path class="cls-1" d="M65,72.31c0-1.53,0-3.06,0-4.59a.84.84,0,0,1,.54-.85,4.81,4.81,0,0,1,1.3-.35,7.75,7.75,0,0,1,2.8,0,3,3,0,0,1,1,.32A.78.78,0,0,1,71,67.9a.82.82,0,0,1-1.15.4,2.24,2.24,0,0,1-.46-.35,2.1,2.1,0,0,0-1.46-.52.94.94,0,0,0-1,1v8.37c0,.53,0,.54-.55.54h-1c-.28,0-.34-.07-.35-.34V72.31Z"/><path class="cls-1" d="M98.76,71.66l1.29,1.72,2.66,3.51a.39.39,0,0,1,.08.1c.11.2,0,.35-.19.38h-.26c-.39,0-.78,0-1.16,0a.7.7,0,0,1-.66-.34c-.77-1.13-1.56-2.24-2.34-3.36l-1.25-1.79c-.17-.24-.16-.26.09-.43a8.93,8.93,0,0,0,3.47-4.32c.2-.5.19-.5.7-.5h1c.31,0,.39.11.3.42a1.64,1.64,0,0,1-.14.33A13.05,13.05,0,0,1,99,71.47l-.16.13Z"/><path class="cls-1" d="M82.61,72V67c0-.24.06-.3.3-.31h1.21c.25,0,.32.09.33.34a1.92,1.92,0,0,1,0,.24v9.6c0,.54,0,.55-.54.55H83c-.32,0-.35,0-.35-.35V72Z"/><path class="cls-1" d="M83.53,64.79a1.09,1.09,0,0,1-1.12-1.11,1.11,1.11,0,0,1,1.11-1.07,1.09,1.09,0,0,1,1.14,1.06A1.11,1.11,0,0,1,83.53,64.79Z"/><path class="cls-2" d="M54.92,35.63a15.52,15.52,0,0,0,5-.8,5.22,5.22,0,0,0,1.93-1.16,2.23,2.23,0,0,0,.64-1.54A9.43,9.43,0,0,0,62.22,30a9,9,0,0,0-.44-1.6,1,1,0,0,1-.07-.43.43.43,0,0,1,.44-.48,2.62,2.62,0,0,1,2.57,1.22,8.35,8.35,0,0,1,1,2,15.29,15.29,0,0,1,.55,1.78,1.09,1.09,0,0,0,1.32.79,2,2,0,0,0,1.56-1.39,3.41,3.41,0,0,0,.17-1.42,7,7,0,0,0-.5-2.12c-.08-.21-.2-.41-.3-.62s-.06-.35.2-.41a2.32,2.32,0,0,1,1.25.13,2.77,2.77,0,0,1,1.53,1.44,6.55,6.55,0,0,1,.6,1.88,15.44,15.44,0,0,1,.17,1.8,18.13,18.13,0,0,1,0,2c0,.75-.11,1.5-.23,2.25-.16.94-.33,1.88-.55,2.81a3.73,3.73,0,0,1-.64,1.49,1.22,1.22,0,0,1-1.13.55,2,2,0,0,1-.81-.29l-1-.62a13.4,13.4,0,0,0-4.21-1.61,16.2,16.2,0,0,0-2-.27c-.75-.07-1.5-.12-2.25-.17s-1.27,0-1.9-.05a22.45,22.45,0,0,0-2.32,0,15.51,15.51,0,0,0-4.32.72,7.63,7.63,0,0,0-3.29,2.06,5.51,5.51,0,0,0-1.36,2.89c-.06.41-.06.82-.09,1.23A1.36,1.36,0,0,1,46,46a.27.27,0,0,1-.41.14,2.83,2.83,0,0,1-.68-.44c-1.53-1.18-3.1-2.28-4.72-3.32-.88-.56-1.77-1.08-2.65-1.64a10,10,0,0,1-2.46-2.13,6.46,6.46,0,0,1-.9-1.57,6.35,6.35,0,0,1-.54-2.19A7.08,7.08,0,0,1,34.15,32a27.15,27.15,0,0,1,2.16-4.48,19.38,19.38,0,0,1,1.14-1.7,2.46,2.46,0,0,1,.38-.41,1.1,1.1,0,0,1,1-.24,5,5,0,0,1,.87.2c.72.23,1.44.44,2.14.73a3.91,3.91,0,0,1,.7.37,1.07,1.07,0,0,1,.48.89c0,.23,0,.46,0,.68a18.49,18.49,0,0,1-.49,4.33,1.38,1.38,0,0,0,.17,1.07,1.18,1.18,0,0,0,.95.58,3.11,3.11,0,0,0,3-1.55,6.73,6.73,0,0,0,.9-2.59,9.67,9.67,0,0,0,.1-1.94,1.92,1.92,0,0,1,0-.24.21.21,0,0,1,.23-.23,2.76,2.76,0,0,1,.76,0,1,1,0,0,1,.71.54,3.06,3.06,0,0,1,.3,1.14,15.88,15.88,0,0,1,.1,2.39c0,.4,0,.81,0,1.21a3.35,3.35,0,0,0,.12.89,2.28,2.28,0,0,0,1.53,1.52,8.71,8.71,0,0,0,1.77.38A12.89,12.89,0,0,0,54.92,35.63Z"/><path class="cls-2" d="M36.54,24.59a1,1,0,0,1-.17.6c-.17.3-.36.59-.54.88a41.51,41.51,0,0,0-2,3.65c-.55,1.11-1.06,2.24-1.52,3.39a1.28,1.28,0,0,1-.29.47.25.25,0,0,1-.39,0,1.09,1.09,0,0,1-.23-.29c-.43-.67-.84-1.35-1.31-2a5.82,5.82,0,0,0-2.18-1.91A5.16,5.16,0,0,0,26.38,29c-.44-.06-.89-.05-1.33-.15a1.39,1.39,0,0,1-.81-.5c-.2-.25-.42-.48-.62-.72a.87.87,0,0,1,0-1.28c.4-.53.78-1.07,1.18-1.59a2.38,2.38,0,0,0,.45-1.16L25.3,23a1.76,1.76,0,0,1,.28-.73,8.51,8.51,0,0,1,1.76-2A1.54,1.54,0,0,1,28.77,20a6,6,0,0,1,1.47.59c1.93,1.07,3.84,2.19,5.78,3.25a1.24,1.24,0,0,1,.32.23A.58.58,0,0,1,36.54,24.59Z"/><path class="cls-2" d="M55,34.52a8.31,8.31,0,0,1-2.95-.42L51.75,34a1.46,1.46,0,0,1-.85-1.35c0-.41,0-.83,0-1.24a21.48,21.48,0,0,0-.2-2.89.07.07,0,0,1,0,0c0-.56.19-.72.65-.77a3.66,3.66,0,0,1,1,0c.34,0,.69,0,1,.06a25.78,25.78,0,0,0,3.29.05l1.45,0c.31,0,.61-.05.92-.05a1.62,1.62,0,0,1,1.61,1.08,10,10,0,0,1,.53,1.92,3.62,3.62,0,0,1-.07,1.7,1.74,1.74,0,0,1-1,1.14,10.89,10.89,0,0,1-2.54.75A12.33,12.33,0,0,1,55,34.52Z"/><path class="cls-2" d="M44.25,28.44c0-.35,0-.7,0-1.05-.06-.56.16-.75.71-.66a6.92,6.92,0,0,1,.77.14L46,27a.52.52,0,0,1,.35.51A10.33,10.33,0,0,1,46,30.86a3.61,3.61,0,0,1-.69,1.35,1.29,1.29,0,0,1-1,.52.53.53,0,0,1-.55-.7c.12-.57.24-1.13.32-1.7A10.93,10.93,0,0,0,44.25,28.44Z"/><path class="cls-2" d="M68.37,30.81a2.72,2.72,0,0,1-.06.69.79.79,0,0,1-.51.59.5.5,0,0,1-.75-.4,8.5,8.5,0,0,0-.37-1.31A7.45,7.45,0,0,0,65.31,28a.9.9,0,0,1-.17-.26.23.23,0,0,1,.12-.35,1.28,1.28,0,0,1,.47-.14,1.84,1.84,0,0,1,1.46.27,2,2,0,0,1,.48.59,5.32,5.32,0,0,1,.65,1.93C68.35,30.31,68.36,30.55,68.37,30.81Z"/><path class="cls-2" d="M40.08,7.4a5.64,5.64,0,1,1-5.61-5.64A5.62,5.62,0,0,1,40.08,7.4Z"/><path class="cls-1" d="M80.17,63.44a2.71,2.71,0,0,0,0-.29c0-.28-.09-.34-.36-.35h-1c-.46,0-.51.05-.51.52V67h-.07l-.14-.06a4.6,4.6,0,0,0-1.54-.43,4.42,4.42,0,0,0-4.21,1.9,5.91,5.91,0,0,0-1.12,3,7.16,7.16,0,0,0,.32,3.15,4.38,4.38,0,0,0,3.21,3,6.49,6.49,0,0,0,3.36,0,5.23,5.23,0,0,0,1.6-.67.86.86,0,0,0,.42-.79C80.16,71.81,80.17,67.62,80.17,63.44ZM77.85,76.21a3.22,3.22,0,0,1-1.62.23,3.1,3.1,0,0,1-2.64-1.92,6.29,6.29,0,0,1-.5-3.06,4.85,4.85,0,0,1,.48-1.91,3.13,3.13,0,0,1,4.58-1.32.4.4,0,0,1,.19.37c0,1.16,0,2.32,0,3.48s0,2.25,0,3.37A.73.73,0,0,1,77.85,76.21Z"/><path class="cls-1" d="M63.62,71.26A7.36,7.36,0,0,0,63.13,69a4,4,0,0,0-2.75-2.45,5.29,5.29,0,0,0-2.24-.13,4.09,4.09,0,0,0-3.38,2.67,8.57,8.57,0,0,0-.49,3.07,8.42,8.42,0,0,0,.06.88,7.15,7.15,0,0,0,.46,2,4,4,0,0,0,2.67,2.43,5.28,5.28,0,0,0,3.31-.1,3.86,3.86,0,0,0,2.12-1.83,5.61,5.61,0,0,0,.62-1.82A9.65,9.65,0,0,0,63.62,71.26ZM61.5,74.34a3.66,3.66,0,0,1-.3.84,2.25,2.25,0,0,1-2,1.29,3.39,3.39,0,0,1-.71,0,2.22,2.22,0,0,1-1.79-1.33,4.92,4.92,0,0,1-.41-1.5A10.75,10.75,0,0,1,56.18,72a9.49,9.49,0,0,1,.32-2.53,2.58,2.58,0,0,1,.91-1.41,2.13,2.13,0,0,1,1.09-.44,3.6,3.6,0,0,1,1.18,0,2.22,2.22,0,0,1,1.43,1.07,4.09,4.09,0,0,1,.47,1.39A11.1,11.1,0,0,1,61.5,74.34Z"/><path class="cls-1" d="M18.91,69.3a4.05,4.05,0,0,0-2.55-2.63,5.27,5.27,0,0,0-3.12-.1,3.9,3.9,0,0,0-2.42,1.78,5.42,5.42,0,0,0-.67,1.74A9.67,9.67,0,0,0,10,73a6.93,6.93,0,0,0,.47,2,4,4,0,0,0,2.75,2.46,5.22,5.22,0,0,0,2.19.13A4.06,4.06,0,0,0,18.81,75a8.1,8.1,0,0,0,.52-3A8.84,8.84,0,0,0,18.91,69.3Zm-1.8,5.27A2.66,2.66,0,0,1,16.18,76a2.21,2.21,0,0,1-1.07.42,3.36,3.36,0,0,1-1,0,2.17,2.17,0,0,1-1.65-1.25A4.84,4.84,0,0,1,12,73.52,11.86,11.86,0,0,1,12,70.26a4.35,4.35,0,0,1,.4-1.36,2.21,2.21,0,0,1,2-1.3,4.17,4.17,0,0,1,.79,0A2.25,2.25,0,0,1,16.91,69a5.6,5.6,0,0,1,.41,1.49,12.1,12.1,0,0,1,.1,1.61A9.36,9.36,0,0,1,17.11,74.57Z"/><path class="cls-1" d="M38.22,71.14a7.26,7.26,0,0,0-.47-2.1,3.94,3.94,0,0,0-2.46-2.37,5.27,5.27,0,0,0-3.12-.1,3.9,3.9,0,0,0-2.43,1.81,5.56,5.56,0,0,0-.64,1.67A9.43,9.43,0,0,0,29,73.14,6.88,6.88,0,0,0,29.41,75a3.94,3.94,0,0,0,2.43,2.37,5.23,5.23,0,0,0,2.57.22A4.07,4.07,0,0,0,37.78,75a8.42,8.42,0,0,0,.49-3C38.26,71.74,38.25,71.44,38.22,71.14Zm-1.95,2.33a5.06,5.06,0,0,1-.47,1.74,2.22,2.22,0,0,1-1.89,1.25,3.86,3.86,0,0,1-.68,0,2.21,2.21,0,0,1-1.91-1.33,4.73,4.73,0,0,1-.42-1.51A14.05,14.05,0,0,1,30.79,72a9.57,9.57,0,0,1,.32-2.52,2.69,2.69,0,0,1,.76-1.3,2.18,2.18,0,0,1,1.22-.56,3.56,3.56,0,0,1,1.08,0A2.24,2.24,0,0,1,35.84,69a5.22,5.22,0,0,1,.43,1.65A12,12,0,0,1,36.27,73.47Z"/><path class="cls-1" d="M105.28,57.58a3.32,3.32,0,1,0,3.31,3.32A3.33,3.33,0,0,0,105.28,57.58Zm0,6.08a2.77,2.77,0,0,1,0-5.53,2.77,2.77,0,1,1,0,5.53Z"/><path class="cls-1" d="M28.65,22.08a.86.86,0,0,1,.42.06c.11,0,.14.11.13.22a.61.61,0,0,1-.08.27,2.88,2.88,0,0,1-1,1.2.76.76,0,0,1-.56.17.87.87,0,0,1-.7-.71.66.66,0,0,1,.28-.73,2.31,2.31,0,0,1,1.09-.44A1.41,1.41,0,0,1,28.65,22.08Z"/><path class="cls-1" d="M105.6,61.14a2.45,2.45,0,0,0,.32-.09,1,1,0,0,0,.65-1,1,1,0,0,0-.78-.86,2.2,2.2,0,0,0-.44-.05H104c-.21,0-.22,0-.22.22,0,1,0,2,0,3,0,.45-.09.38.41.39.13,0,.18-.05.17-.17a1.08,1.08,0,0,1,0-.18c0-.34,0-.67,0-1,0-.07,0-.16.08-.17a.93.93,0,0,1,.9.31,2.71,2.71,0,0,1,.24.35l.42.73c0,.06.06.13.15.13s.39,0,.63,0A5.48,5.48,0,0,0,105.6,61.14Zm-.46-.41h-.58c-.13,0-.17,0-.17-.17s0-.26,0-.39h0v-.39c0-.09,0-.13.12-.13a5.47,5.47,0,0,1,1,0,.5.5,0,0,1,0,1A1.84,1.84,0,0,1,105.14,60.73Z"/></g></g></svg>