<svg xmlns="http://www.w3.org/2000/svg" viewBox="0 0 173.19 37.95"><defs><style>.cls-1{fill:#5a5a5a;}.cls-2{fill:#2e2e2e;}.cls-3{fill:#434343;}</style></defs><g id="Layer_2" data-name="Layer 2"><g id="Layer_1-2" data-name="Layer 1"><path class="cls-1" d="M0,22.57S1.44,36.45,13.13,37.08c3.54.19,8.52-.7,11.19-5.88C28,24,24.88,19,21,16.83a3.45,3.45,0,0,0-2.33-.47c-.69.26-1,.82.17,2.2s3.88,4.52,2.93,8.41S17.71,34.83,8.9,31.9C6.56,31.12,1.27,26.4,0,22.57Z"/><path class="cls-2" d="M51.82,6.38H59.4c4.46,0,8.11,1.55,8.11,6.54s-3.65,6.92-8.11,6.92H56.58v7.57H51.82ZM59,16.06c2.5,0,3.84-1.07,3.84-3.14S61.51,10.15,59,10.15H56.58v5.91Zm-.48,2.52,3.29-3,6.71,11.87H63.21Z"/><path class="cls-2" d="M103.94,24.75l2.73-3.26a8.39,8.39,0,0,0,5.17,2.2c2,0,3-.78,3-2s-1.19-1.75-3-2.51L109,18c-2.18-.89-4.25-2.68-4.25-5.73,0-3.49,3.11-6.27,7.49-6.27A9.7,9.7,0,0,1,119,8.75l-2.4,3a6.89,6.89,0,0,0-4.37-1.65c-1.64,0-2.68.69-2.68,1.89s1.38,1.76,3.21,2.49l2.68,1.08c2.57,1,4.17,2.75,4.17,5.73,0,3.49-2.91,6.51-7.92,6.51A11.54,11.54,0,0,1,103.94,24.75Z"/><path class="cls-2" d="M131,6.38h13.18v4h-8.42v4.23h7.17v4h-7.17v4.85h8.74v4H131Z"/><path class="cls-2" d="M160.89,6.38h5.69l6.61,21h-5L165.4,16.76c-.58-2.11-1.14-4.59-1.7-6.79h-.13c-.51,2.22-1.07,4.68-1.66,6.79l-2.76,10.65h-4.86ZM158.64,18.7h10.12v3.7H158.64Z"/><path class="cls-2" d="M79.63,6.38H92.81v4H84.39v4.23h7.17v4H84.39v4.85h8.74v4H79.63Z"/><path class="cls-3" d="M28.88,25.72A12.38,12.38,0,0,0,16.66,13.18c-3.53,0-1.76-3.87,3.75-3.79A14.28,14.28,0,1,1,20,38a12.5,12.5,0,0,1-1.74-.13A12.37,12.37,0,0,0,28.88,25.72Z"/><path class="cls-2" d="M33.68,31.37A15,15,0,0,0,35.29,30,17.47,17.47,0,1,0,10.9,5c-4.82,4.7-3.05,9.54,0,6.53A15.15,15.15,0,0,1,33.68,31.37Z"/><path class="cls-2" d="M51.67,31.44h1.21c1,0,1.6.32,1.6,1.26S53.84,34,52.91,34h-.7V35.7h-.54Zm1.17,2.13c.74,0,1.1-.27,1.1-.87s-.38-.82-1.13-.82h-.6v1.69Z"/><path class="cls-2" d="M71.53,31.44h1.33c.87,0,1.49.31,1.49,1.2s-.62,1.26-1.49,1.26h-.79v1.8h-.54Zm1.25,2c.67,0,1-.27,1-.82s-.36-.76-1-.76h-.71v1.58Zm0,.29.43-.28,1.3,2.23h-.62Z"/><path class="cls-2" d="M91.16,33.55c0-1.36.75-2.19,1.82-2.19s1.82.83,1.82,2.19-.75,2.23-1.82,2.23S91.16,34.92,91.16,33.55Zm3.08,0c0-1.06-.5-1.71-1.26-1.71s-1.26.65-1.26,1.71.5,1.75,1.26,1.75S94.24,34.62,94.24,33.55Z"/><path class="cls-2" d="M111.27,35.1l.38-.28a.8.8,0,0,0,.74.48c.45,0,.68-.26.68-.9v-3h.54v3c0,.73-.34,1.33-1.17,1.33A1.25,1.25,0,0,1,111.27,35.1Z"/><path class="cls-2" d="M131,31.44h2.45v.46h-1.91v1.33h1.62v.46h-1.62v1.55h2v.46H131Z"/><path class="cls-2" d="M150.31,33.57a2,2,0,0,1,1.89-2.21,1.56,1.56,0,0,1,1.17.53l-.29.35a1.17,1.17,0,0,0-.87-.4c-.8,0-1.34.66-1.34,1.72s.51,1.74,1.32,1.74a1.3,1.3,0,0,0,1-.48l.29.34a1.63,1.63,0,0,1-1.3.62C151.11,35.78,150.31,35,150.31,33.57Z"/><path class="cls-2" d="M171.22,31.9h-1.29v-.46h3.12v.46h-1.29v3.8h-.54Z"/></g></g></svg>