<svg xmlns="http://www.w3.org/2000/svg" viewBox="0 0 134.68 50.9"><defs><style>.cls-1{fill:#151515;}.cls-2{fill:#161616;}</style></defs><g id="Layer_2" data-name="Layer 2"><g id="Layer_1-2" data-name="Layer 1"><path class="cls-1" d="M119.6,33c.93-.54,1.76-1,2.57-1.51a3.64,3.64,0,0,0,.75-.61,1,1,0,0,0,0-1.39,3.15,3.15,0,0,0-1-.61L108.75,23.1a11.73,11.73,0,0,1-4.61-3.18,7.89,7.89,0,0,1,1.18-10.66,40.79,40.79,0,0,1,5.28-3.43c3-1.88,6.07-3.7,9.09-5.57a1.15,1.15,0,0,1,1.53.07,6,6,0,0,1-.44,9.86c-1.64,1.09-3.36,2.07-5,3.1-.26.15-.52.3-.78.47-1.21.78-1.24,1.64,0,2.38a58.15,58.15,0,0,0,5.72,2.64c3,1.36,6.08,2.63,9.07,4.06,2.34,1.13,4.2,2.82,4.73,5.51a7.56,7.56,0,0,1-3.28,8.2,2.7,2.7,0,0,1-3.1.27C125.35,35.47,122.5,34.3,119.6,33Z"/><path class="cls-1" d="M117.36,28.53c-1,.71-2.11,1.14-3,1.85s-.82,1.23,0,1.83a16.66,16.66,0,0,0,3.21,1.55c4,1.81,8.11,3.44,12,5.38a7.56,7.56,0,0,1,4.54,5.57,7.94,7.94,0,0,1-1.24,5.89c-.14.22-.23.45-.59.18a52.6,52.6,0,0,0-10.44-5.51c-4.68-2.07-9.36-4.12-14-6.22a10.63,10.63,0,0,1-4.4-3.45,7.67,7.67,0,0,1,2-10.3c1.77-1.26,1.74-1.29,3.72-.42l7.73,3.39C117,28.34,117.15,28.43,117.36,28.53Z"/><path class="cls-1" d="M117.8,45.26c-2.51,1.49-4.83,3.18-7.35,4.52a6.22,6.22,0,0,1-9-4.51.84.84,0,0,1,.45-1c1.85-1.05,3.66-2.16,5.48-3.24a.78.78,0,0,1,.83-.11c3.11,1.4,6.24,2.79,9.36,4.18Z"/><path class="cls-1" d="M119.13,16.49l2.6-1.58c2.89-1.74,5.8-3.46,8.68-5.22a.77.77,0,0,1,1,0,6,6,0,0,1,.18,9.84c-2,1.52-2,1.53-4.37.51l-7.37-3.24C119.62,16.74,119.41,16.63,119.13,16.49Z"/><path class="cls-1" d="M13.62,24.12a6.51,6.51,0,0,1-5-2,4.84,4.84,0,0,1-1.14-3.17c0-.22.06-.33.29-.3,0,0,0,0,.06,0a5.24,5.24,0,0,1,1.43,0c.52.17.28.79.43,1.2A3.36,3.36,0,0,0,12,22a6.08,6.08,0,0,0,4.08-.05,2.29,2.29,0,0,0,1.62-2.21,2.09,2.09,0,0,0-1.41-2.06,20.59,20.59,0,0,0-3.88-1.05,17.34,17.34,0,0,1-2-.6C7,14.76,7.53,10.82,9.52,9.32a7.4,7.4,0,0,1,7.81-.17,4.55,4.55,0,0,1,1.86,3.55c0,.31-.1.39-.37.36a2.54,2.54,0,0,0-.39,0A3.43,3.43,0,0,1,17.27,13c-.36-.14-.2-.64-.33-1a2.94,2.94,0,0,0-2-1.86,4.89,4.89,0,0,0-3.43.14,2.15,2.15,0,0,0-1.41,2.19c0,1,.67,1.39,1.44,1.71a20.57,20.57,0,0,0,3.45.89,14.5,14.5,0,0,1,2.24.69,3.77,3.77,0,0,1,2.55,3.44,4.09,4.09,0,0,1-2.26,4A8,8,0,0,1,13.62,24.12Z"/><path class="cls-1" d="M0,37.46c.08-2.55.69-4.89,2.8-6.57,2.93-2.32,7.68-1.83,9.78,1a5.55,5.55,0,0,1,1,2.31c.06.28,0,.35-.3.34a1.14,1.14,0,0,0-.32,0c-.93.11-1.54,0-1.93-1.12-.52-1.52-2.36-2.28-4.18-2.11a4.54,4.54,0,0,0-4.19,3.35,8.12,8.12,0,0,0,.49,6.66,4.65,4.65,0,0,0,7.06,1.19,4.21,4.21,0,0,0,1.31-2.75c0-.43.2-.57.61-.52a4.51,4.51,0,0,0,.52,0c1.26,0,1.25-.29.92,1.19-1,4.5-4.84,5.51-8.09,4.85-3-.6-4.87-2.8-5.32-6A11.48,11.48,0,0,1,0,37.46Z"/><path class="cls-1" d="M92.6,9.72c0-1.21,0-1.17-1.21-1.23-.67,0-.77.2-.75.8,0,1.5,0,3,0,4.5-.24.07-.28-.09-.37-.17a5,5,0,0,0-7.18.78,6.81,6.81,0,0,0-1,4.6c.22,2.58,1.69,4.49,3.9,4.91a4.48,4.48,0,0,0,4.59-1.29c.19,1.16.19,1.13,1.36,1.16.53,0,.68-.13.68-.67C92.59,18.65,92.6,14.18,92.6,9.72Zm-3.27,12c-2,1.49-4.63.32-5.11-2.26a6.44,6.44,0,0,1,.13-3,2.93,2.93,0,0,1,3-2.28,3,3,0,0,1,3.13,2.23,5.72,5.72,0,0,1,.28,1.79A4.14,4.14,0,0,1,89.33,21.68Z"/><path class="cls-1" d="M92.6,31.2c0-1.4,0-1.38-1.43-1.4-.49,0-.53.17-.53.59,0,1.57,0,3.14,0,4.69-.19.07-.25,0-.32-.11a4.88,4.88,0,0,0-7.39,1,6.52,6.52,0,0,0-.86,4.18c.18,2.12.94,4,3.09,4.79a4.76,4.76,0,0,0,5.45-1c.07,1.17.07,1.17,1.22,1.17H92c.49.08.64-.1.64-.62C92.59,40,92.6,35.62,92.6,31.2ZM90.19,41.9a2.94,2.94,0,0,1-3,1.69,3.22,3.22,0,0,1-2.83-2.41,5.1,5.1,0,0,1-.21-1.6,4.5,4.5,0,0,1,1-3.26,3.17,3.17,0,0,1,5,.87A5.34,5.34,0,0,1,90.19,41.9Z"/><path class="cls-1" d="M61.64,9.91c0-1.43,0-1.41-1.42-1.41-.43,0-.56.11-.55.54,0,1.59,0,3.19,0,4.92a4.92,4.92,0,0,0-8.15,1.61,7.34,7.34,0,0,0,.1,5.45,4.52,4.52,0,0,0,4.24,3,4.22,4.22,0,0,0,3.79-1.46c.05,1.23.05,1.19,1.2,1.24.6,0,.8-.1.8-.76C61.62,18.66,61.64,14.28,61.64,9.91ZM59.43,20.15a2.93,2.93,0,0,1-2.91,2.14,3.13,3.13,0,0,1-3.05-2.1,4.78,4.78,0,0,1-.3-2,4.81,4.81,0,0,1,.19-1.6,2.91,2.91,0,0,1,3-2.43,3.08,3.08,0,0,1,3.17,2.52A6,6,0,0,1,59.43,20.15Z"/><path class="cls-1" d="M74.07,22.29s-.11,0-.17,0c-.92-.09-.92-.09-.92-1,0-1.93,0-3.85,0-5.78a2.53,2.53,0,0,0-1.84-2.68,7.14,7.14,0,0,0-4.72,0,3.32,3.32,0,0,0-2.25,2.48c-.22.92-.2.95.73.94.22,0,.44,0,.65,0s.49-.07.54-.44a1.72,1.72,0,0,1,1.36-1.49,4.91,4.91,0,0,1,2.19-.06A1.51,1.51,0,0,1,71,15.85c0,.73-.37,1.06-1.39,1.24s-2,.31-3,.54a3.42,3.42,0,0,0-2.76,1.91A3.15,3.15,0,0,0,66.68,24a5.34,5.34,0,0,0,4.43-1.49c.27,1.53,1.25,1.72,2.64,1.35C74.06,23.79,74.31,22.5,74.07,22.29ZM71,20.18a2.64,2.64,0,0,1-2.33,2,3.82,3.82,0,0,1-1.81,0A1.38,1.38,0,0,1,65.72,21a1.58,1.58,0,0,1,.64-1.6,3.32,3.32,0,0,1,1.32-.5A18.65,18.65,0,0,0,71,18.25,11.23,11.23,0,0,1,71,20.18Z"/><path class="cls-1" d="M38.22,22.47c0-.27-.1-.32-.35-.24-.57.16-.75-.16-.75-.65V18.46h-.07c0-1.17.05-2.34,0-3.51a2.43,2.43,0,0,0-1.93-2.26,7.51,7.51,0,0,0-4-.09A3.41,3.41,0,0,0,28.38,15C28,16.2,28,16.2,29.29,16.2a2.54,2.54,0,0,1,.39,0c.3,0,.47-.05.5-.4a1.69,1.69,0,0,1,.7-1.2,4,4,0,0,1,3.67-.06,1.48,1.48,0,0,1,.6,1.48,1.08,1.08,0,0,1-1,.93,14.11,14.11,0,0,1-1.47.27,11.79,11.79,0,0,0-3.15.76,2.9,2.9,0,0,0-1.8,3.25,2.85,2.85,0,0,0,2.4,2.63,5.24,5.24,0,0,0,4.7-1.06c.23-.21.38-.42.49.12A1.29,1.29,0,0,0,36.72,24C38,24.05,38.33,23.74,38.22,22.47Zm-3.07-3.72a3.74,3.74,0,0,0,0,.58A3.14,3.14,0,0,1,30.53,22a1.55,1.55,0,0,1,0-2.64,6.26,6.26,0,0,1,2.55-.66,13.21,13.21,0,0,0,1.52-.31C35.05,18.22,35.21,18.27,35.15,18.75Z"/><path class="cls-1" d="M37,43.57c-.08-.09-.16,0-.24,0-.69.18-.83-.2-.82-.77q0-3,0-6A2.63,2.63,0,0,0,33.79,34a7.33,7.33,0,0,0-4.42.15,3.24,3.24,0,0,0-2.16,2.24c-.33,1.14-.31,1.17.88,1.16a2.41,2.41,0,0,1,.38,0c.37.06.55-.06.59-.46a1.55,1.55,0,0,1,1-1.3,4.09,4.09,0,0,1,3.11-.06A1.49,1.49,0,0,1,34,37.22c0,.7-.51,1-1.09,1.09s-.9.17-1.35.24a11.9,11.9,0,0,0-3.32.83,2.93,2.93,0,0,0-1.65,3,2.78,2.78,0,0,0,2.05,2.63,5.31,5.31,0,0,0,5.43-1.24c.3,1.58,1.39,1.64,2.47,1.4C37,45.12,37.31,43.89,37,43.57Zm-3-2.34a2.31,2.31,0,0,1-1.41,2,3.85,3.85,0,0,1-2.65.32,1.48,1.48,0,0,1-1.25-1.24,1.6,1.6,0,0,1,.83-1.68,4.21,4.21,0,0,1,1.55-.46A12,12,0,0,0,34,39.51C34,40.15,34,40.69,34,41.23Z"/><path class="cls-1" d="M54.6,40.12c1.22,0,2.43,0,3.65,0h0c1.21,0,2.43,0,3.64,0,.4,0,.54-.1.51-.51a11.26,11.26,0,0,0-.37-2.3,5,5,0,0,0-8.37-2.09c-2.28,2.39-1.78,6.54-.28,8.35a5.52,5.52,0,0,0,6.31,1.29A4.14,4.14,0,0,0,62.06,42c0-.12.21-.34,0-.36a9.86,9.86,0,0,0-1.63,0c-.33,0-.3.43-.44.65a2.27,2.27,0,0,1-.64.73,3.43,3.43,0,0,1-3.47.19,3,3,0,0,1-1.67-2.66C54.14,40.23,54.25,40.11,54.6,40.12Zm-.37-2.18a3,3,0,0,1,2.71-2.49,3.09,3.09,0,0,1,3.14,2c.1.28.16.58.25.94H54.51C54.1,38.41,54.19,38.17,54.23,37.94Z"/><path class="cls-1" d="M73.13,40.12c2.32,0,4.64,0,7,0,.64,0,.73-.24.67-.75a11.18,11.18,0,0,0-.45-2.29,4.86,4.86,0,0,0-7.7-2.36,5.68,5.68,0,0,0-2.11,5.18c.21,3.41,2.16,5.63,5.9,5.37a4.33,4.33,0,0,0,4.1-3.64c-.46,0-.91,0-1.37,0a.6.6,0,0,0-.71.46,2,2,0,0,1-1,1.1,3.3,3.3,0,0,1-4.9-2.48C72.5,40.21,72.64,40.11,73.13,40.12Zm-.52-2.22a3,3,0,0,1,3.07-2.45,3.16,3.16,0,0,1,3,2.62c.06.36-.12.34-.35.34H75.57c-.85,0-1.69,0-2.53,0C72.6,38.43,72.52,38.3,72.61,37.9Z"/><path class="cls-1" d="M17.59,35.32a4.17,4.17,0,0,1,3.46-1.59c2.42,0,3.77,1.26,3.81,3.69s0,4.8,0,7.2c0,.33-.08.45-.43.46-1.52.06-1.52.07-1.52-1.42V38c0-1.45-.43-2.16-1.45-2.45a3.06,3.06,0,0,0-3.37,1.21,3.62,3.62,0,0,0-.52,1.92c0,2,0,3.9,0,5.85,0,.42-.12.54-.54.54-1.42,0-1.42,0-1.42-1.41,0-4.39,0-8.79,0-13.18,0-.52.08-.72.66-.7,1.3.05,1.3,0,1.3,1.33Z"/><path class="cls-1" d="M41.82,14a4.65,4.65,0,0,1,4.86-1.46,3.1,3.1,0,0,1,2.47,3c.17,1.92,0,3.85.08,5.78,0,.32,0,.65,0,1,0,1.47,0,1.45-1.47,1.44-.43,0-.5-.15-.5-.53,0-2.27,0-4.55,0-6.82,0-1.15-.45-1.91-1.33-2.14a3,3,0,0,0-3.85,2.05A5.16,5.16,0,0,0,42,17.7c0,1.84,0,3.68,0,5.52,0,.41-.09.57-.54.57-1.43,0-1.43,0-1.43-1.41,0-3,0-6,0-9,0-.56.09-.88.72-.74.37.08.89-.25,1.1.22A3,3,0,0,1,41.82,14Z"/><path class="cls-1" d="M21.73,15.47c0-1.84,0-3.68,0-5.53,0-.41.08-.55.53-.55,1.43,0,1.43,0,1.44,1.41,0,.6-.21,1.41.1,1.75s1.19.07,1.81.13c.26,0,.69-.16.76.13a4.53,4.53,0,0,1,0,1.47c0,.2-.3.13-.46.13-.61,0-1.22,0-1.82,0-.32,0-.42.1-.42.41,0,2,0,3.94,0,5.91,0,.89.46,1.29,1.35,1.32h.26c1.13,0,1.09,0,1.14,1.13,0,.6-.16.79-.75.76a8,8,0,0,1-2.12-.23,2.48,2.48,0,0,1-1.78-2.46c-.06-1.93,0-3.85,0-5.78Z"/><path class="cls-1" d="M46.4,36.72c0-1.84,0-3.68,0-5.52,0-.41.1-.5.5-.5,1.46,0,1.46,0,1.46,1.43a11.28,11.28,0,0,1,0,1.3c0,.48.15.59.6.56s1.12,0,1.69,0c.38,0,.46.13.46.48,0,1.24,0,1.24-1.2,1.24-1.54,0-1.54,0-1.54,1.54s0,3,0,4.55c0,1.16.42,1.56,1.57,1.57s1.13,0,1.17,1.22c0,.51-.13.7-.64.63a6.91,6.91,0,0,0-.91,0,2.83,2.83,0,0,1-3.14-3.14C46.39,40.27,46.4,38.5,46.4,36.72Z"/><path class="cls-1" d="M40.68,35.83a4.4,4.4,0,0,1,3.53-2.11c.43,0,.58.09.55.52a4.6,4.6,0,0,1-.06,1.35c-.19.43-.77.17-1.17.27a3.44,3.44,0,0,0-2.72,3.69c0,1.67,0,3.34,0,5,0,.38-.07.53-.49.53-1.48,0-1.48,0-1.48-1.46,0-3,0-6,0-9,0-.53.11-.71.66-.69,1.21,0,1.21,0,1.21,1.17Z"/><path class="cls-2" d="M77.68,14.54A8.44,8.44,0,0,1,79.33,13a4.63,4.63,0,0,1,2-.55c.33,0,.48.09.44.43a1.21,1.21,0,0,1,0,.19,3,3,0,0,1-.06,1.28c-.2.38-.78.18-1.19.27A3.16,3.16,0,0,0,78,17.2a15.23,15.23,0,0,0-.15,3.37c0,.91,0,1.82,0,2.73,0,.16.09.42-.15.44a9.74,9.74,0,0,1-1.62,0c-.31,0-.17-.35-.17-.54,0-3,0-5.94,0-8.91V14c0-1.47,0-1.46,1.46-1.36.29,0,.38.11.37.38C77.67,13.55,77.68,14,77.68,14.54Z"/><path class="cls-1" d="M66.18,35.84a4.36,4.36,0,0,1,3.49-2.12c.41,0,.65,0,.59.53s.12,1-.06,1.34-.81.19-1.23.29c-1.68.4-2.62,1.62-2.66,3.66,0,1.6,0,3.21,0,4.81,0,.54-.08.75-.69.73-1.29,0-1.29,0-1.29-1.28,0-3,0-6.1,0-9.16,0-.51.08-.7.65-.68,1.2,0,1.21,0,1.21,1.23C66.19,35.41,66.18,35.63,66.18,35.84Z"/></g></g></svg>