<svg xmlns="http://www.w3.org/2000/svg" viewBox="0 0 136.73 50.6"><defs><style>.cls-1{fill:#424242;}.cls-2{fill:#434343;}</style></defs><g id="Layer_2" data-name="Layer 2"><g id="Layer_1-2" data-name="Layer 1"><path class="cls-1" d="M76.41,48c-.19-.16-.37,0-.51.14a6.8,6.8,0,0,1-1.16.83c-.65.3-.94.13-1-.58,0-.17,0-.34,0-.51-.06-5.23.12-10.46.23-15.69,0-1.38.09-2.75.06-4.11,0-.81-.22-.85-.86-.67-1.37.39-2.75.76-4.12,1.14a3,3,0,0,0-.4.11.23.23,0,0,0-.16.26.22.22,0,0,0,.23.2c.4,0,.78-.05,1.17-.1.91-.1,1.08,0,1.13,1v.25c.11,3.64,0,7.28.07,10.92a.32.32,0,0,1-.12.33c-.29-.16-.59-.35-.91-.51a5,5,0,0,0-6.37,1.51,6.11,6.11,0,0,0-.8,5.45,3.41,3.41,0,0,0,2.64,2.45,5.77,5.77,0,0,0,4.73-.89c.25-.17.49-.36.76-.57,0,.14.09.24.12.34.28,1,.75,1.38,1.81,1.26a4.93,4.93,0,0,0,.67-.11,4.86,4.86,0,0,0,2.74-1.81C76.52,48.43,76.62,48.19,76.41,48Zm-5.28-4.48a8.41,8.41,0,0,0,0,1.42h0c0,.62,0,1.23,0,1.85A2.19,2.19,0,0,1,69,49.15,2.55,2.55,0,0,1,65.85,47a7.16,7.16,0,0,1,.26-4,2.45,2.45,0,0,1,3.78-1.4l.29.18A1.54,1.54,0,0,1,71.13,43.53Z"/><path class="cls-1" d="M7.44,31.4c2.35.08,4.7,0,7.05-.17.84,0,.83-.05.92-.78a.73.73,0,0,1,.07-.24c.07-.18.15-.4.4-.34s.22.24.21.41a3,3,0,0,1,0,.42,16.08,16.08,0,0,0,0,4.1c0,.29.23.77-.27.82s-.37-.41-.43-.69a3.22,3.22,0,0,1-.11-.92c.05-.53-.25-.73-.68-.88a13,13,0,0,0-2.37-.58,32.87,32.87,0,0,0-5.52-.43c-.68,0-.68,0-.71.7-.07,2.33-.12,4.65-.1,7,0,.69,0,.69.7.7a30.67,30.67,0,0,0,7.08-.78c.56-.13.9-.35.94-1a4.23,4.23,0,0,1,.23-1,.26.26,0,0,1,.25-.19.29.29,0,0,1,.28.26,2.08,2.08,0,0,1,0,.5,21.35,21.35,0,0,0,0,4.86c0,.29.2.73-.18.81s-.42-.42-.52-.7a3.39,3.39,0,0,1-.18-1c0-.45-.2-.63-.62-.71A43.27,43.27,0,0,0,6.3,41c-.51,0-.43.33-.43.63,0,2.1,0,4.2.09,6.3,0,.48-.2,1.12.18,1.42s.92.15,1.39.22l1.07.21a.27.27,0,0,1,.22.31.29.29,0,0,1-.3.24,3,3,0,0,1-.42,0,52.31,52.31,0,0,0-7.3,0H.63c-.25,0-.57.1-.61-.23s.31-.34.54-.38c.44-.07.89-.13,1.33-.18.93-.12.94-.11,1-1s.07-1.74.07-2.6l0-12c0-.56.13-1.22-.17-1.64s-1-.13-1.51-.27a7,7,0,0,1-1-.2c-.14-.06-.25-.15-.24-.3a.28.28,0,0,1,.3-.24H1c1.09,0,2.18.1,3.27.12S6.37,31.4,7.44,31.4Z"/><path class="cls-1" d="M37.81,11.25c0,2.6,0,5.21,0,7.81,0,.75,0,.74.76.85a13,13,0,0,1,1.75.26c.2.06.38.13.33.38s-.25.21-.41.2c-.56,0-1.12-.06-1.68-.09a52.43,52.43,0,0,0-5.88.06,5.81,5.81,0,0,1-.59,0,.23.23,0,0,1-.21-.22.26.26,0,0,1,.16-.27,6.77,6.77,0,0,1,.89-.21,9.3,9.3,0,0,1,1.17-.13c.58,0,.62-.06.63-.72q.12-7.95,0-15.89c0-.74,0-.76-.76-.73a15.59,15.59,0,0,0-4.78.83,1.27,1.27,0,0,0-1,1.34A5.93,5.93,0,0,1,28,6c0,.17-.11.35-.31.34s-.31-.21-.3-.42a4.1,4.1,0,0,1,0-.5,17,17,0,0,0,0-4.28,5.75,5.75,0,0,1,0-.83A.31.31,0,0,1,27.68,0,.3.3,0,0,1,28,.2a2.64,2.64,0,0,1,.12.4c.18.78.18.8,1,.89a57.51,57.51,0,0,0,6.29.35,67.22,67.22,0,0,0,7.64-.31l.59-.07c.43-.06.8-.14.77-.74,0-.25,0-.73.41-.7s.36.5.33.79a20.11,20.11,0,0,0,0,4.78c0,.26.12.65-.25.7s-.35-.36-.4-.62a5.75,5.75,0,0,1-.16-1.08,1,1,0,0,0-.74-1.07,14.54,14.54,0,0,0-5.34-1c-.41,0-.44.24-.44.53,0,1.49,0,3-.06,4.46,0,1.23,0,2.46,0,3.7Z"/><path class="cls-1" d="M62.18,12.26A1.35,1.35,0,0,0,63,12a11.47,11.47,0,0,1,3.84-1.16,5.62,5.62,0,0,1,.58,0c1.68.09,2.45.86,2.44,2.55,0,1.9-.13,3.8,0,5.71,0,.73,0,.73.78.86a5.58,5.58,0,0,1,1.15.23c.18.06.31.16.27.36s-.23.21-.4.21-.22,0-.33,0a33.2,33.2,0,0,0-5.37,0l-.34,0c-.14,0-.29,0-.33-.19s.07-.32.24-.38a8.29,8.29,0,0,1,.89-.24.5.5,0,0,0,.48-.54,51.61,51.61,0,0,0,0-5.7,1.53,1.53,0,0,0-1.67-1.6,5.39,5.39,0,0,0-2.9,1c-.18.1-.18.26-.19.43-.06,2-.07,4,0,6a.4.4,0,0,0,.39.44,3.89,3.89,0,0,1,1.05.28c.13.07.24.17.22.32s-.21.23-.38.23a1.84,1.84,0,0,1-.33,0,34.38,34.38,0,0,0-5.37,0c-.14,0-.28,0-.42,0s-.29,0-.34-.18.07-.31.23-.38a6.9,6.9,0,0,1,1.48-.28c.32-.05.49-.14.51-.5a64.27,64.27,0,0,0,0-6.8c0-.3-.16-.37-.42-.36H57.08c-.18,0-.37,0-.41-.22s.16-.34.36-.37c.46-.1.93-.16,1.4-.24.94-.16,1.87-.35,2.79-.6s1-.19,1,.72Z"/><path class="cls-1" d="M51.42,41.92a4.27,4.27,0,0,0,1.23-.48,10.74,10.74,0,0,1,3.29-1l.16,0c2-.14,3.15.53,3.06,2.83-.07,1.82-.1,3.64,0,5.46,0,.83,0,.65.68.78a7.25,7.25,0,0,1,1.31.27.3.3,0,0,1,.22.32.28.28,0,0,1-.3.24c-.14,0-.28,0-.42,0a30.06,30.06,0,0,0-5.45,0h-.09c-.23,0-.49.07-.54-.23s.24-.33.44-.4a6.14,6.14,0,0,1,.74-.18.45.45,0,0,0,.44-.49,45.44,45.44,0,0,0,0-5.95,1.43,1.43,0,0,0-1.36-1.37,5.06,5.06,0,0,0-3.23,1c-.18.1-.16.28-.16.44,0,2-.06,3.92,0,5.88,0,.32.13.45.42.5a3.15,3.15,0,0,1,1,.29.28.28,0,0,1-.13.55l-.84-.08a31.29,31.29,0,0,0-5,0,2,2,0,0,1-.34,0,.31.31,0,0,1-.33-.2c-.05-.21.09-.32.26-.37s.65-.15,1-.21c1.18-.21,1,0,1-1.16.07-1.4,0-2.8,0-4.2,0-.65-.07-1.29-.07-1.93,0-.39-.17-.47-.51-.46-.53,0-1.07,0-1.6,0-.18,0-.36,0-.4-.22s.17-.33.36-.38.55-.09.82-.14a36.88,36.88,0,0,0,3.62-.75c.61-.16.69-.08.7.53C51.43,41.23,51.42,41.56,51.42,41.92Z"/><path class="cls-1" d="M126.8,41.87c.37.07.62-.15.89-.27a11.64,11.64,0,0,1,3.68-1.13,5.23,5.23,0,0,1,1.25,0,2,2,0,0,1,1.88,1.93,14,14,0,0,1,0,1.59c-.05,1.6-.06,3.19,0,4.79,0,.62,0,.61.65.73.42.07.83.15,1.24.24.17,0,.34.11.32.32s-.22.28-.43.27l-1.93-.13a26.38,26.38,0,0,0-3.77.09,3,3,0,0,1-.42,0,.23.23,0,0,1-.23-.2.26.26,0,0,1,.12-.29,1.9,1.9,0,0,1,.87-.28.62.62,0,0,0,.65-.68c.06-1.88.07-3.75,0-5.63A1.54,1.54,0,0,0,130,41.7a5.51,5.51,0,0,0-3,1c-.18.1-.17.27-.17.43,0,1.93-.05,3.87,0,5.8,0,.37.13.57.5.62a2.69,2.69,0,0,1,1,.26c.13.07.24.16.21.32s-.16.22-.3.24a2.11,2.11,0,0,1-.25,0,29.44,29.44,0,0,0-5.71,0,1.82,1.82,0,0,1-.33,0c-.14,0-.27-.07-.28-.25a.24.24,0,0,1,.17-.26,4,4,0,0,1,1-.25c1.22-.2,1.13.11,1.15-1.31,0-1.79,0-3.58,0-5.37,0-.17,0-.34,0-.51-.06-.56-.06-.56-.67-.56l-1.35,0c-.22,0-.5,0-.51-.27s.28-.32.49-.36l1.82-.31c.86-.13,1.69-.36,2.54-.56.56-.13.64,0,.65.51,0,.17,0,.34,0,.51S126.8,41.71,126.8,41.87Z"/><path class="cls-1" d="M40.7,50.33c-.09-.57.06-1-.05-1.51a1.85,1.85,0,0,0-.75.39,8.66,8.66,0,0,1-3.68,1.31,4.72,4.72,0,0,1-.92,0,2.17,2.17,0,0,1-2.16-2,6.66,6.66,0,0,1-.08-1.34c0-1.48,0-3-.06-4.45,0-1,.08-.92-.92-.9h-1a.24.24,0,0,1-.25-.19.25.25,0,0,1,.17-.33,9.64,9.64,0,0,1,1.06-.26c1-.2,2.08-.41,3.11-.68.74-.2.84-.11.81.63-.08,2-.09,4-.06,6a5.72,5.72,0,0,0,0,.59c.11,1.25.71,1.76,1.94,1.64a5.59,5.59,0,0,0,2.49-.93.66.66,0,0,0,.35-.61c0-1.79,0-3.59-.06-5.38,0-.38-.19-.46-.52-.45-.56,0-1.12,0-1.68,0-.14,0-.29,0-.32-.2s.08-.32.26-.35c.66-.13,1.33-.22,2-.36.85-.18,1.69-.39,2.54-.58.64-.14.75-.07.72.6-.09,2-.11,3.92-.09,5.88,0,.72.08,1.45.08,2.17,0,.33.13.44.43.48s.83.14,1.24.23c.21,0,.49.08.45.38s-.31.25-.54.23l-1.51-.1A14.46,14.46,0,0,0,40.7,50.33Z"/><path class="cls-1" d="M89,48.13c-.15-.12-.31-.05-.46.06s-.3.24-.46.35a1.93,1.93,0,0,1-.9.43c-.44.05-.58,0-.58-.48,0-.7,0-1.4.09-2.1A26.92,26.92,0,0,0,86.72,43a2.39,2.39,0,0,0-2.17-2.49,8.68,8.68,0,0,0-6,1.29,1,1,0,0,0-.46.46c-.11.27,0,.46.29.45a2.74,2.74,0,0,0,.88-.28,7,7,0,0,1,3-.58,1.41,1.41,0,0,1,1.49,1.4,8.47,8.47,0,0,1,0,1.95c-.37-.11-.69-.21-1-.29a5.62,5.62,0,0,0-3.71.11,2.85,2.85,0,0,0,1.74,5.42,6.1,6.1,0,0,0,2.18-1,2.41,2.41,0,0,1,.76-.47.86.86,0,0,1,.08.51c.06.87.38,1.16,1.23,1.08a6.14,6.14,0,0,0,3.3-1.34,1.85,1.85,0,0,0,.55-.63C89,48.43,89.14,48.27,89,48.13Zm-6.11.62c-.61.29-1.24.6-1.89.17a1.79,1.79,0,0,1-.62-1.81,1.58,1.58,0,0,1,1.88-1.62l.42.06c1.25.24,1.25.24,1.25,1.61C84.17,48,83.58,48.4,82.85,48.75Z"/><path class="cls-1" d="M56.26,18.55c-.14-.16-.31-.07-.45,0-.3.2-.58.43-.89.62a.82.82,0,0,1-.94.1c-.26-.18-.16-.51-.15-.78.05-1.06.1-2.12.16-3.19a10.49,10.49,0,0,0,0-2.17,2.38,2.38,0,0,0-2.17-2.21A8.72,8.72,0,0,0,46,12.15a2.28,2.28,0,0,0-.51.42.36.36,0,0,0-.09.46.35.35,0,0,0,.39.1,5.66,5.66,0,0,0,.79-.27,7.12,7.12,0,0,1,3-.57,1.37,1.37,0,0,1,1.44,1.05,6.69,6.69,0,0,1,0,2.28l-.85-.24a7,7,0,0,0-2.66-.26,3.54,3.54,0,0,0-2.11.93,2.72,2.72,0,0,0-.74,2.86,2.6,2.6,0,0,0,2.09,2,3.56,3.56,0,0,0,2.51-.43,20.46,20.46,0,0,0,1.79-1.16c0,.29,0,.42,0,.56.1,1,.37,1.18,1.37,1.08a6.07,6.07,0,0,0,3.14-1.29,2,2,0,0,0,.6-.68C56.32,18.82,56.37,18.67,56.26,18.55Zm-6.1.59-.23.11c-1.61.77-2.4-.19-2.32-1.63s.87-1.93,2.21-1.68l.25,0c1.12.26,1.12.26,1.12,1.57C51.47,18.36,50.88,18.79,50.16,19.14Z"/><path class="cls-1" d="M107,11.79a8,8,0,0,0-7.92.18,4.67,4.67,0,0,0,.38,8.09,8.58,8.58,0,0,0,3.76.9,6.83,6.83,0,0,0,4.46-1.53A4.6,4.6,0,0,0,107,11.79Zm-.7,4.33a5.76,5.76,0,0,1-.56,2.5,2.82,2.82,0,0,1-5.2,0,6.29,6.29,0,0,1,.1-5.44,2.7,2.7,0,0,1,2.75-1.69,2.8,2.8,0,0,1,2.51,1.93A6.5,6.5,0,0,1,106.29,16.12Z"/><path class="cls-1" d="M27.61,41.47a7.38,7.38,0,0,0-3.92-1,7.11,7.11,0,0,0-4.42,1.32,4.66,4.66,0,0,0,.58,7.86,7.59,7.59,0,0,0,3.54.92,6.6,6.6,0,0,0,5-1.74A4.58,4.58,0,0,0,27.61,41.47Zm-1.5,6.93a2.57,2.57,0,0,1-2.51,1.53,2.77,2.77,0,0,1-2.51-1.55,6.11,6.11,0,0,1-.62-2.87,5.92,5.92,0,0,1,.73-2.95,2.74,2.74,0,0,1,2.61-1.51,2.67,2.67,0,0,1,2.47,1.75A6.65,6.65,0,0,1,26.11,48.4Z"/><path class="cls-1" d="M118.2,41.7a7.39,7.39,0,0,0-4.94-1.23,6.54,6.54,0,0,0-3.94,1.46,4.59,4.59,0,0,0,.57,7.55,7.54,7.54,0,0,0,7.25.35,4.76,4.76,0,0,0,3-4.49A4.24,4.24,0,0,0,118.2,41.7Zm-1.7,6.42a2.83,2.83,0,0,1-5.27,0,6.38,6.38,0,0,1,.11-5.37,2.74,2.74,0,0,1,2.74-1.72,2.84,2.84,0,0,1,2.59,2.06,5.64,5.64,0,0,1,.35,2.12A6.51,6.51,0,0,1,116.5,48.12Z"/><path class="cls-1" d="M83.27,11.75a7.55,7.55,0,0,0-3.53-.92,7.44,7.44,0,0,0-4.46,1.22,4.68,4.68,0,0,0,.42,8,8.78,8.78,0,0,0,3.8.94,7,7,0,0,0,4.38-1.41A4.63,4.63,0,0,0,83.27,11.75Zm-1.26,7a2.58,2.58,0,0,1-2.46,1.6A2.74,2.74,0,0,1,77,18.78,6.49,6.49,0,0,1,77,13a2.79,2.79,0,0,1,2.66-1.59,2.72,2.72,0,0,1,2.5,1.83A6.64,6.64,0,0,1,82,18.73Z"/><path class="cls-1" d="M94.28,35.14v4.62a5.81,5.81,0,0,1,0,.59c0,.33.13.45.45.43.75,0,1.51-.06,2.26-.07a1.05,1.05,0,0,1,.69.08c0,.12,0,.25,0,.39,0,.37-.12.49-.49.46-.81,0-1.62-.06-2.43-.1-.35,0-.51.07-.5.46,0,1.65,0,3.3,0,5a3,3,0,0,0,.14.83,1.4,1.4,0,0,0,2,1.11,6.05,6.05,0,0,0,1.27-.64c.17-.09.36-.22.52,0s0,.37-.1.53l-.11.13a5.64,5.64,0,0,1-4.36,1.6,2.39,2.39,0,0,1-2.24-2.14,12.35,12.35,0,0,1-.11-2.85c0-1.09.06-2.18.08-3.27,0-.72,0-.72-.74-.69a7.93,7.93,0,0,0-.84.07c-.39,0-.4-.19-.4-.46s0-.5.4-.47.61,0,.92,0c.65,0,.67,0,.66-.61,0-1,0-1.9-.06-2.85a.7.7,0,0,1,.41-.8C92.59,36.07,93.39,35.62,94.28,35.14Z"/><path class="cls-1" d="M91.91,5.48c-.15,1.78-.11,3.4-.11,5,0,.68,0,.68.7.66l2.27-.06c.33,0,.51.07.5.46s-.14.49-.5.47C94,12,93.21,12,92.42,12c-.61,0-.62,0-.62.56,0,1.52,0,3,0,4.54A4.78,4.78,0,0,0,92,18.3a1.32,1.32,0,0,0,1.71,1.06,3.82,3.82,0,0,0,1.09-.43l.58-.33c.13-.07.27-.12.38,0a.37.37,0,0,1,0,.4,1,1,0,0,1-.25.33,5.66,5.66,0,0,1-4.37,1.57,2.3,2.3,0,0,1-2.1-1.77,6.35,6.35,0,0,1-.21-2.08c0-1.48,0-3,.06-4.45,0-.67,0-.67-.7-.65l-.75,0c-.46,0-.52-.06-.5-.52,0-.29.14-.39.42-.37l.92,0c.6,0,.61,0,.61-.56,0-.95,0-1.9,0-2.85a.82.82,0,0,1,.53-.91C90.22,6.44,91,6,91.91,5.48Z"/><path class="cls-1" d="M104.21,44.91c0,1.32,0,2.63,0,4,0,.46.18.64.61.67a6.54,6.54,0,0,1,1.08.16c.23.05.57.06.53.41s-.35.26-.6.24a35.33,35.33,0,0,0-5.54-.06c-.3,0-.61.07-.92.08s-.34,0-.35-.26.1-.25.23-.31a7,7,0,0,1,1.57-.29c.3,0,.41-.16.43-.47a51.43,51.43,0,0,0,0-6.8c0-.29-.13-.39-.41-.38-.58,0-1.17,0-1.76,0-.14,0-.29,0-.33-.19s.08-.32.25-.36c.69-.13,1.38-.24,2.06-.38.85-.18,1.69-.39,2.54-.57.56-.12.65,0,.66.52,0,1.34,0,2.69,0,4Z"/><path class="cls-2" d="M102.5,33.41a1.66,1.66,0,0,1,1.71,1.69,1.69,1.69,0,0,1-1.69,1.72,1.67,1.67,0,0,1-1.7-1.7A1.65,1.65,0,0,1,102.5,33.41Z"/></g></g></svg>