<svg xmlns="http://www.w3.org/2000/svg" viewBox="0 0 120.34 54.15"><defs><style>.cls-1{fill:#d6d6d6;}.cls-2{fill:#5b5b5b;}.cls-3{fill:#6e6e6e;}.cls-4{fill:#666;}.cls-5{fill:#010101;}.cls-6{fill:#020202;}.cls-7{fill:#040404;}.cls-8{fill:#060606;}.cls-9{fill:#0b0b0b;}.cls-10{fill:#080808;}.cls-11{fill:#070707;}.cls-12{fill:#0a0a0a;}.cls-13{fill:#0f0f0f;}.cls-14{fill:#0c0c0c;}.cls-15{fill:#fdfdfd;}.cls-16{fill:#fefefe;}.cls-17{fill:#676767;}.cls-18{fill:#050505;}.cls-19{fill:#030303;}.cls-20{fill:#f0f0f0;}</style></defs><g id="Layer_2" data-name="Layer 2"><g id="Layer_1-2" data-name="Layer 1"><path class="cls-1" d="M0,3.32a.2.2,0,0,1,.13,0,1,1,0,0,1,.23.85c0,2,0,4,0,5.95a1.18,1.18,0,0,1-.19.8l-.18,0Z"/><path class="cls-2" d="M.18,10.91l0-7.6a1.51,1.51,0,0,1,.76-.07c8.22,0,16.44,0,24.66,0,.71,0,.85.21.84.87-.05,2.07,0,4.14,0,6.2,0,.5-.14.64-.63.63-2.38,0-4.76,0-7.14,0-1.07,0-.91-.14-.91.94q0,12.32,0,24.62c0,.67-.2.8-.82.8-2.38,0-4.76,0-7.14,0-1,0-.92.12-.92-.89,0-8.2,0-16.41,0-24.61,0-.65-.12-.88-.83-.87C5.4,10.94,2.79,10.91.18,10.91Z"/><path class="cls-2" d="M111.34,37.1l-.18.19a.76.76,0,0,1-.6.24c-2.26,0-4.52,0-6.78,0-1,0-1.21-.22-1.21-1.21,0-3.36,0-6.73,0-10.09a5.88,5.88,0,0,0-.2-1.67,3.87,3.87,0,0,0-5.23-2.74,3.75,3.75,0,0,0-2.4,2.91A10.51,10.51,0,0,0,94.51,27c0,2.92,0,5.83,0,8.75,0,.23,0,.47,0,.7,0,.87-.24,1.09-1.1,1.11-1.42,0-2.83,0-4.24,0A23.93,23.93,0,0,1,86,37.47c-.58-.28-.15-.79-.26-1.17s.07-.61.07-.91q0-9.59,0-19.16c0-.6.16-.74.74-.73q3.49.06,7,0c.65,0,.82.19.75.79a10.77,10.77,0,0,0,0,1.27c.13.16.25.16.4,0a1.79,1.79,0,0,1,.56-.38A11,11,0,0,1,102,15a12.27,12.27,0,0,1,4.38.54,7.39,7.39,0,0,1,4.93,7c.2,4.37.07,8.73.12,13.1a1.39,1.39,0,0,0,0,.35A7.15,7.15,0,0,1,111.34,37.1Z"/><path class="cls-2" d="M56.13,20.21q0-8.15,0-16.29c0-.57.16-.7.71-.69q3.81,0,7.63,0c.52,0,.67.13.67.66q0,16.37,0,32.73c0,.55-.17.66-.68.65-2.55,0-5.09,0-7.63,0-.57,0-.7-.15-.7-.7Q56.14,28.4,56.13,20.21Z"/><path class="cls-2" d="M79.71,26.39c0,3.39,0,6.77,0,10.16,0,.53-.09.73-.68.73-2.59,0-5.18,0-7.78,0-.46,0-.58-.12-.58-.59q0-10.26,0-20.53c0-.49.16-.57.6-.57,2.59,0,5.18,0,7.77,0,.6,0,.68.21.67.72C79.7,19.66,79.71,23,79.71,26.39Z"/><path class="cls-2" d="M75.27,13.36a5.08,5.08,0,1,1,5-5.13A5,5,0,0,1,75.27,13.36Z"/><path d="M110.59,37.3h.57a42.29,42.29,0,0,1-3.82,5.48A40.16,40.16,0,0,1,98,51.68a13.82,13.82,0,0,1-6.08,2.46H90.17a5.58,5.58,0,0,1-4.49-3.31,10.29,10.29,0,0,1-1-3.14c0-.31-.11-.46-.46-.56A3.12,3.12,0,0,1,84.44,41a.44.44,0,0,0,.41-.45,38.34,38.34,0,0,1,.89-4.26c.2.3-.1.71.22,1a.84.84,0,0,1,.06.81c-.15.62-.24,1.25-.38,1.86A.81.81,0,0,0,86.22,41,3.26,3.26,0,0,1,88,45.44a2.85,2.85,0,0,1-2,1.76c-.56.15-.62.43-.51.93a10,10,0,0,0,1.13,2.95,5.11,5.11,0,0,0,5.26,2.39,11.83,11.83,0,0,0,4.37-1.54A33.49,33.49,0,0,0,104,45.55a65.19,65.19,0,0,0,6-7.66A2,2,0,0,1,110.59,37.3Z"/><path class="cls-3" d="M113.81,1.78a3.14,3.14,0,1,1,5.52,3,3.12,3.12,0,0,0-.15.39,1,1,0,0,1-.33.56,3.68,3.68,0,0,1-3.26.59,3.14,3.14,0,0,1-2.25-3c0-.36,0-.71-.36-.94-.13-.22,0-.28.19-.34A3,3,0,0,0,113.81,1.78Z"/><path class="cls-4" d="M46.52,44.53a4.37,4.37,0,0,1,.4-2.54c.13-.23.22-.6.56-.52s.29.39.32.65.08.65.11,1c0,.16,0,.36.19.41s.33-.14.41-.3c.3-.62.56-1.25.88-1.84.21-.39.34-1.06.91-.91s.28.8.27,1.23a10,10,0,0,1-.2,1.32c0,.2-.14.46.06.59s.37-.14.5-.28c.58-.55,1.12-1.14,1.72-1.67.29-.26.66-.71,1.08-.34s0,.75-.19,1.08c-.38.69-.83,1.36-1.24,2-.08.13-.22.29-.07.45s.31,0,.45-.06c.68-.31,1.35-.66,2-.94.29-.12.7-.27.91.07s-.14.6-.36.83a26,26,0,0,1-2.52,2c-.26.21-.7.4-.55.8s.59.29.94.32.7.07,1,.14a.59.59,0,0,1,.47.47c.05.29-.18.41-.4.51a4.79,4.79,0,0,1-3.23.27.42.42,0,0,0,0-.1,6,6,0,0,0,.26-1.79,3.45,3.45,0,0,0-4.09-2.88,1.19,1.19,0,0,1-.56,0Z"/><path class="cls-5" d="M118.86,5.61a.43.43,0,0,1,.32-.46A13.86,13.86,0,0,1,120.32,12a43.45,43.45,0,0,1-3.75,15.06,65.34,65.34,0,0,1-5.23,10,1.2,1.2,0,0,1,0-1,1.85,1.85,0,0,1,.32-.91A69.75,69.75,0,0,0,117,24a41.88,41.88,0,0,0,2.48-10.45,16.88,16.88,0,0,0-.62-7.3A.69.69,0,0,1,118.86,5.61Z"/><path class="cls-3" d="M51,49.32a3.46,3.46,0,0,1-3.84,1.87,3.5,3.5,0,0,1-2.95-3,3.36,3.36,0,0,1,2.28-3.61h0c.37.22.34.61.38,1a.36.36,0,0,1-.06.2c-.55.4-1.13.78-1.24,1.53a1.82,1.82,0,0,0,.71,1.92,2.25,2.25,0,0,0,2.38.19,7.66,7.66,0,0,0,.76-.5.83.83,0,0,1,.21-.06,2.62,2.62,0,0,1,1.39.56Z"/><path class="cls-6" d="M113.81,1.78c-.07.54-.61.3-.86.53a.78.78,0,0,1-.56.26,15.76,15.76,0,0,0-6.11,2.94A46.59,46.59,0,0,0,96,16.36a4.07,4.07,0,0,1-.92,1.06c-.27.18-.39.55-.75.66-.12-.17,0-.35,0-.52a68.07,68.07,0,0,1,5.8-7.41,32,32,0,0,1,8.8-7A9.93,9.93,0,0,1,113.81,1.78Z"/><path class="cls-6" d="M16,47.7a.08.08,0,0,1,0-.07c.06-.41-.19-1.13.14-1.15.55,0,1.17-.38,1.71,0,.21.16.34.1.55,0a1,1,0,0,1,1.62.93c0,.37,0,.75,0,1.12,0,.21,0,.47-.28.48s-.32-.28-.33-.51,0-.7,0-1.06-.12-.55-.47-.58a.55.55,0,0,0-.63.52c-.05.42,0,.84,0,1.27,0,.17,0,.35-.24.36s-.32-.14-.32-.36c0-.37,0-.75,0-1.12s-.11-.68-.54-.67a.6.6,0,0,0-.6.65c0,.38,0,.75,0,1.13,0,.2,0,.39-.3.37s-.26-.16-.26-.35Z"/><path class="cls-7" d="M11.35,47.56c.31-.35.61-.71.94-1.05.1-.1.26-.24.42-.07a.29.29,0,0,1,0,.44c-1,.57-.42,1.08,0,1.61.13.14.26.32,0,.48s-.35,0-.48-.13a2.85,2.85,0,0,0-.23-.26c-.2-.17-.26-.59-.58-.52s-.33.4-.34.7a.26.26,0,0,1-.33.27c-.18,0-.22-.17-.22-.31v-3c0-.18.07-.33.28-.31s.28.16.28.34c0,.57,0,1.15,0,1.73Z"/><path class="cls-8" d="M42.18,47.37c-.22-.64-.69-.45-1.08-.43-.18,0-.41.14-.48-.11s.2-.3.4-.36c1.07-.32,1.69.13,1.7,1.24,0,1.28,0,1.28-1.22,1.35-.69,0-1.17-.28-1.18-.8s.43-.85,1.07-.89Z"/><path class="cls-9" d="M5.39,47.44a4.56,4.56,0,0,1,0-.64c.06-.51,0-.87-.67-.75-.21,0-.47,0-.46-.28s.22-.26.42-.26h2c.24,0,.46.08.47.31s-.29.26-.47.23c-.63-.11-.68.23-.65.72s0,1.08,0,1.61c0,.26.12.66-.32.64s-.28-.41-.29-.67S5.39,47.74,5.39,47.44Z"/><path class="cls-10" d="M34.05,48.09c-.08.28.2.89-.29.88s-.19-.61-.25-.94,0-.42,0-.63a.64.64,0,0,0-1.24,0,9.39,9.39,0,0,0-.07,1.19c0,.21,0,.48-.28.47s-.23-.25-.23-.44c0-.57,0-1.13,0-1.69,0-.32,0-.62.48-.33.1.06.17,0,.26,0,1.16-.29,1.61,0,1.64,1.24Z"/><path class="cls-10" d="M22.78,47.76v-.07c0-1.17.24-1.39,1.42-1.31a.9.9,0,0,1,.92.81,10.27,10.27,0,0,1,0,1.47c0,.22-.12.38-.33.37s-.21-.22-.21-.39V47.52a.58.58,0,0,0-.6-.64.61.61,0,0,0-.69.63c0,.4,0,.8,0,1.2A.31.31,0,0,1,23,49c-.22,0-.22-.19-.23-.36Z"/><path class="cls-11" d="M38,49.07a1.36,1.36,0,0,1-.41,0c-.23-.1-.67-.12-.54-.49s.42,0,.63,0a3.85,3.85,0,0,0,.49.07.32.32,0,0,0,.36-.26c0-.16-.11-.24-.25-.29l-.66-.23a.66.66,0,0,1-.53-.73.72.72,0,0,1,.62-.67,1.49,1.49,0,0,1,.63,0c.24.06.68.08.59.44s-.43.06-.65,0-.54-.1-.63.16.27.29.44.41a1.19,1.19,0,0,0,.27.07c.43.15.79.37.68.91S38.56,49.07,38,49.07Z"/><path class="cls-12" d="M10.06,47.21c0,.47,0,.93,0,1.4,0,.17,0,.41-.23.42s-.33-.14-.33-.36q0-1.47,0-2.94c0-.21.09-.37.33-.36s.23.21.23.36C10.07,46.23,10.06,46.72,10.06,47.21Z"/><path class="cls-6" d="M22.2,47.33c0,.42,0,.84,0,1.27,0,.18,0,.42-.22.43a.34.34,0,0,1-.34-.38V46a.36.36,0,0,1,.32-.4c.26,0,.25.22.25.41Z"/><path class="cls-13" d="M2,47.1c.54.38.47.95.77,1.35.32-.37.3-.93.74-1.23a7.26,7.26,0,0,1-.84,2.35c-.14.24-.43.22-.74,0,.82-.15.67-.6.45-1.1A2.85,2.85,0,0,1,2,47.1Z"/><path class="cls-14" d="M39.47,47.71c0-.31,0-.61,0-.92a.27.27,0,1,1,.54,0v1.9a.27.27,0,1,1-.54,0c0-.33,0-.65,0-1Z"/><path class="cls-2" d="M52.29,25.86a34.16,34.16,0,0,0-.41-3.63c-1-4.45-3.56-7.49-8-8.79a20.17,20.17,0,0,0-8.47-.36,10.44,10.44,0,0,0-9.08,7.41,14.26,14.26,0,0,0-.58,6.12c.45,4.36,2.51,7.67,6.62,9.41a17.54,17.54,0,0,0,13,.08,10.25,10.25,0,0,0,6.13-5.59c.29-.6.18-.72-.44-.75-2.23-.11-4.46-.24-6.69-.42-.73-.06-1.33,0-1.75.67a1.67,1.67,0,0,1-.53.45A5,5,0,0,1,34.21,27c-.08-.49.09-.54.5-.53h8.48c2.83,0,5.66,0,8.48,0C52.17,26.5,52.34,26.37,52.29,25.86ZM43,22.5c-1.32,0-2.64,0-4,0H34.93c-.37,0-.51,0-.38-.47a4.47,4.47,0,0,1,4.3-3.25,4.4,4.4,0,0,1,4.62,3.09C43.67,22.42,43.53,22.51,43,22.5Z"/><path class="cls-15" d="M51,49.33a6.62,6.62,0,0,1-1.45-.46,1.22,1.22,0,0,1,.11-.62,2.08,2.08,0,0,0-2.16-2.69c-.25,0-.51.13-.76,0l-.27-1a3.63,3.63,0,0,1,4.88,2.64A3.34,3.34,0,0,1,51,49.33Z"/><path class="cls-16" d="M49.49,48.88a2.34,2.34,0,0,1-2.78.73,2.1,2.1,0,0,1-1.34-2.24,2,2,0,0,1,1.4-1.76c.37.26.43.7.65,1A5,5,0,0,0,49,48.35C49.17,48.48,49.41,48.61,49.49,48.88Z"/><path class="cls-17" d="M49.49,48.88a5.62,5.62,0,0,1-2.72-3.27.09.09,0,0,0,0-.07,2.39,2.39,0,0,1,2.69.65,2.23,2.23,0,0,1,.12,2.68A.16.16,0,0,0,49.49,48.88Z"/><path class="cls-18" d="M27.93,45.49c-.46,0-.24.5-.29.79,0,.09,0,.18,0,.33l-.19-.06a1.25,1.25,0,0,0-1.65.3,1.44,1.44,0,0,0-.05,1.7,1.25,1.25,0,0,0,1.63.39c.1,0,.19-.15.31-.07.51.34.5,0,.51-.37,0-.73,0-1.45,0-2.18C28.14,46,28.33,45.51,27.93,45.49ZM26.87,48.6a.76.76,0,0,1-.85-.83.79.79,0,0,1,.74-.91.83.83,0,0,1,.9.83A.8.8,0,0,1,26.87,48.6Z"/><path class="cls-7" d="M14.36,46.34a1.38,1.38,0,0,0-1.49,1.28,1.33,1.33,0,0,0,1.31,1.44,1.36,1.36,0,1,0,.18-2.72Zm-.1,2.2a.79.79,0,0,1-.79-.87.75.75,0,0,1,.86-.8.84.84,0,0,1-.07,1.67Z"/><path class="cls-19" d="M7.78,47.94c.25,0,.51,0,.77,0,.64,0,.79-.24.54-.83a1.22,1.22,0,0,0-1.51-.72,1.37,1.37,0,0,0-.93,1.54,1.3,1.3,0,0,0,1.41,1.14,1.07,1.07,0,0,0,.7-.18c.17-.11.4-.23.24-.49s-.31-.1-.47,0a.81.81,0,0,1-.86.1c-.18-.09-.37-.21-.34-.4S7.62,48,7.78,47.94Zm-.51-.47a.63.63,0,0,1,.63-.61c.38,0,.6.18.71.61Z"/><path class="cls-18" d="M35.28,47.94H36.4c.41,0,.53-.21.43-.59a1.22,1.22,0,0,0-1.36-1,1.37,1.37,0,0,0,.23,2.73,3.07,3.07,0,0,0,.57-.14c.2-.08.52-.19.43-.46s-.38-.11-.58,0a.82.82,0,0,1-1-.14c-.09-.09-.21-.21-.13-.36S35.17,47.94,35.28,47.94Zm-.35-.45a.64.64,0,0,1,.62-.65c.39,0,.66.18.75.65Z"/><path class="cls-20" d="M41.63,47.79c.2,0,.57-.07.55.32s-.35.52-.71.53-.62-.07-.58-.44S41.28,47.78,41.63,47.79Z"/><path class="cls-18" d="M29.94,46.38a1.32,1.32,0,0,0-1.41,1.34,1.34,1.34,0,0,0,1.36,1.39,1.39,1.39,0,0,0,1.43-1.35A1.36,1.36,0,0,0,29.94,46.38Zm0,2.23a.87.87,0,0,1-.88-.89.83.83,0,0,1,.84-.86.9.9,0,0,1,.89.89A.89.89,0,0,1,29.94,48.61Z"/><path class="cls-10" d="M1.56,47.37C1.23,47,.84,47.24.48,47.3a3.18,3.18,0,0,0-.07-.66c0-.19-.19-.15-.29,0v2.28c.18.3.44,0,.71.09.5.2.94-.18,1-.74A1,1,0,0,0,1.56,47.37ZM1,48.77c-.39,0-.52-.31-.53-.64s.14-.66.57-.65.48.35.47.65S1.37,48.74,1,48.77Z"/></g></g></svg>